/* XPM */
static char *_7017_292f6cdc3317cb7038f0387c8406e60549db7b4b68c2de8085be7f4d5319aafc[] = {
/* columns rows colors chars-per-pixel */
"55 55 17 1 ",
"  c black",
". c #3F403A",
"X c #774030",
"o c #3D3550",
"O c #764D51",
"+ c #646369",
"@ c #9F5542",
"# c #C47F66",
"$ c #B28C3D",
"% c #BA9C5C",
"& c #DCAF4E",
"* c #D3936A",
"= c #999CA3",
"- c #EACA88",
"; c #F2D4B5",
": c #CED0D3",
"> c #E9EAEC",
/* pixels */
"ooooooooooooooooooooooooooooooooooooooooooooooooooooooo",
"ooooooooooooooooooooooooooooooooooooooooooooooooooooooo",
"ooooooooooooooooooooooooooooooooooooooooooooooooooooooo",
"ooooooooooooooooooooooooooooooooooooooooooooooooooooooo",
"ooooooooooooooooooooooooooooooooooooooooooooooooooooooo",
"ooooooooooooooooooooooooooooooooooooooooooooooooooooooo",
"ooooooooooooooooooooooooooooooooooooooooooooooooooooooo",
"ooooooooooooooooooooooooo    oooooooooooooooooooooooooo",
"ooooooooooooooooooooooo  ****  oooooooooooooooooooooooo",
"oooooooooooooooooooooo *;;;;;;* ooooooooooooooooooooooo",
"ooooooooooooooooooooo *;;;;;;;;* oooooooooooooooooooooo",
"ooooooooooooooooooooo ;;;;;;;;;; oooooooooooooooooooooo",
"oooooooooooooooooooo O;;;;;;;;;;O ooooooooooooooooooooo",
"oooooooooooooooooooo O;;;;;;;;;;O ooooooooooooooooooooo",
"oooooooooooooooooooo O*;;;;;;;;*O ooooooooooooooooooooo",
"oooooooooooooooooooo O**********O ooooooooooooooooooooo",
"oooooooooooooooooooo O*   **   *O ooooooooooooooooooooo",
"oooooooooooooooooooo O*>+>**>+>*O ooooooooooooooooooooo",
"ooooooooooooooooooooo *>+>;;>+>* oooooooooooooooooooooo",
"ooooooooooooooooooooo *;;;;;;;;* oooooooooooooooooooooo",
"oooooooooooooooooooooo *;;;;;;* ooooooooooooooooooooooo",
"ooooooooooooooooooooooo *;;;;* oooooooooooooooooooooooo",
"oooooooooooooooooooooo   *;;*   ooooooooooooooooooooooo",
"ooooooooooooooooooooo >:=O**O=:> oooooooooooooooooooooo",
"oooooooooooooooooooo :+>======>+: ooooooooooooooooooooo",
"ooooooooooooooooooo $$>&-====&&>-& oooooooooooooooooooo",
"oooooooooooooooooo $$$$$&&&&&&&$ -& ooooooooooooooooooo",
"ooooooooooooooooo $$$  $$&&&&&$   & ooooooooooooooooooo",
"ooooooooooooooooo $$ : $$$$&&$ #@@  ooooooooooooooooooo",
"oooooooooooooooo XX :: $$$$$$ #@@@@ ooooooooooooooooooo",
"oooooooooooooooo XXX :: $$$$$ @@@@X ooooooooooooooooooo",
"oooooooooooooooo XXX :: ..%%. @@@XX ooooooooooooooooooo",
"oooooooooooooooo XXX :: ..%%.  @XX  ooooooooooooooooooo",
"ooooooooooooooooo   ::: ---&-&      ooooooooooooooooooo",
"oooooooooooooooooo :::: ---&--& ::: ooooooooooooooooooo",
"oooooooooooooooooo ::: ----&--&$ :: ooooooooooooooooooo",
"oooooooooooooooooo ::: ----&&$$$ ::: oooooooooooooooooo",
"ooooooooooooooooo :   -----$$$$$ :   oooooooooooooooooo",
"ooooooooooooooooo  oo ----& $$$$  ooooooooooooooooooooo",
"ooooooooooooooooooooo ----   $$$ oooooooooooooooooooooo",
"ooooooooooooooooooooo ---- o  $$ oooooooooooooooooooooo",
"ooooooooooooooooooooo &--& ooo  ooooooooooooooooooooooo",
"ooooooooooooooooooooo &&&& oooooooooooooooooooooooooooo",
"oooooooooooooooooooooo @@  oooooooooooooooooooooooooooo",
"oooooooooooooooooooooo @@ ooooooooooooooooooooooooooooo",
"oooooooooooooooooooooo @ oooooooooooooooooooooooooooooo",
"oooooooooooooooooooooo @ oooooooooooooooooooooooooooooo",
"oooooooooooooooooooooo @ oooooooooooooooooooooooooooooo",
"ooooooooooooooooooooo @@ oooooooooooooooooooooooooooooo",
"ooooooooooooooooooooooooooooooooooooooooooooooooooooooo",
"ooooooooooooooooooooooooooooooooooooooooooooooooooooooo",
"ooooooooooooooooooooooooooooooooooooooooooooooooooooooo",
"ooooooooooooooooooooooooooooooooooooooooooooooooooooooo",
"ooooooooooooooooooooooooooooooooooooooooooooooooooooooo",
"ooooooooooooooooooooooooooooooooooooooooooooooooooooooo"
};
