/* XPM */
static char *_2532_b80f503bdb0c5b815ba718594b13c8f5043a4e4dec3f62967c01b812f3090ebe[] = {
/* columns rows colors chars-per-pixel */
"55 55 17 1 ",
"  c black",
". c #3F403A",
"X c #774030",
"o c #3D3550",
"O c #764D51",
"+ c #646369",
"@ c #9F5542",
"# c #C47F66",
"$ c #B28C3D",
"% c #BA9C5C",
"& c #DCAF4E",
"* c #D3936A",
"= c #999CA3",
"- c #EACA88",
"; c #F2D4B5",
": c #CED0D3",
"> c #E9EAEC",
/* pixels */
"ooooooooooooooooooooooooooooooooooooooooooooooooooooooo",
"ooooooooooooooooooooooooooooooooooooooooooooooooooooooo",
"ooooooooooooooooooooooooooooooooooooooooooooooooooooooo",
"ooooooooooooooooooooooooooooooooooooooooooooooooooooooo",
"ooooooooooooooooooooooooooooooooooooooooooooooooooooooo",
"ooooooooooooooooooooooooooooooooooooooooooooooooooooooo",
"ooooooooooooooooooooooooooooooooooooooooooooooooooooooo",
"ooooooooooooooooooooooooo    oooooooooooooooooooooooooo",
"ooooooooooooooooooooooo  ****  oooooooooooooooooooooooo",
"oooooooooooooooooooooo *;;;;;;* ooooooooooooooooooooooo",
"ooooooooooooooooooooo *;;;;;;;;* oooooooooooooooooooooo",
"ooooooooooooooooooooo ;;;;;;;;;; oooooooooooooooooooooo",
"oooooooooooooooooooo O;;;;;;;;;;O ooooooooooooooooooooo",
"oooooooooooooooooooo O;;;;;;;;;;O ooooooooooooooooooooo",
"oooooooooooooooooooo O*;;;;;;;;*O ooooooooooooooooooooo",
"oooooooooooooooooooo O**********O ooooooooooooooooooooo",
"oooooooooooooooooooo O*   **   *O ooooooooooooooooooooo",
"oooooooooooooooooooo O*>+>**>+>*O ooooooooooooooooooooo",
"ooooooooooooooooooooo *>+>;;>+>* oooooooooooooooooooooo",
"ooooooooooooooooooooo *;;;;;;;;* oooooooooooooooooooooo",
"oooooooooooooooooooooo *;;;;;;* ooooooooooooooooooooooo",
"ooooooooooooooooooooooo *;;;;* oooooooooooooooooooooooo",
"oooooooooooooooooooooo   *;;*   ooooooooooooooooooooooo",
"ooooooooooooooooooooo >:=O**O=:> oooooooooooooooooooooo",
"oooooooooooooooooooo :+>======>+: ooooooooooooooooooooo",
"ooooooooooooooooooo &->&&====&&>$$ oooooooooooooooooooo",
"oooooooooooooooooo &- $&&&&&&&$$$$$ ooooooooooooooooooo",
"oooooooooooooooooo &   $&&&&&$$  $$$ oooooooooooooooooo",
"oooooooooooooooooo  @@# $&&$$$$ : $$ oooooooooooooooooo",
"oooooooooooooooooo @@@@# $$$$$$ :: XX ooooooooooooooooo",
"oooooooooooooooooo X@@@@ $$$$$ :: XXX ooooooooooooooooo",
"oooooooooooooooooo XX@@@ .%%.. :: XXX ooooooooooooooooo",
"oooooooooooooooooo  XX@  .%%.. :: XXX ooooooooooooooooo",
"oooooooooooooooooo      &-&--- :::   oooooooooooooooooo",
"oooooooooooooooooo ::: &--&--- :::: ooooooooooooooooooo",
"oooooooooooooooooo :: $&--&---- ::: ooooooooooooooooooo",
"ooooooooooooooooo ::: $$$&&---- ::: ooooooooooooooooooo",
"ooooooooooooooooo   : $$$$$-----   : oooooooooooooooooo",
"oooooooooooooooooooo  $$$$ &---- oo  oooooooooooooooooo",
"ooooooooooooooooooooo $$$   ---- oooooooooooooooooooooo",
"ooooooooooooooooooooo $$  o ---- oooooooooooooooooooooo",
"oooooooooooooooooooooo  ooo &--& oooooooooooooooooooooo",
"ooooooooooooooooooooooooooo &&&& oooooooooooooooooooooo",
"ooooooooooooooooooooooooooo  @@ ooooooooooooooooooooooo",
"oooooooooooooooooooooooooooo @@ ooooooooooooooooooooooo",
"ooooooooooooooooooooooooooooo @ ooooooooooooooooooooooo",
"ooooooooooooooooooooooooooooo @ ooooooooooooooooooooooo",
"ooooooooooooooooooooooooooooo @ ooooooooooooooooooooooo",
"ooooooooooooooooooooooooooooo @@ oooooooooooooooooooooo",
"ooooooooooooooooooooooooooooooooooooooooooooooooooooooo",
"ooooooooooooooooooooooooooooooooooooooooooooooooooooooo",
"ooooooooooooooooooooooooooooooooooooooooooooooooooooooo",
"ooooooooooooooooooooooooooooooooooooooooooooooooooooooo",
"ooooooooooooooooooooooooooooooooooooooooooooooooooooooo",
"ooooooooooooooooooooooooooooooooooooooooooooooooooooooo"
};
