/* XPM */
static char *_2468_9466e5a205dee6cacef5b8e0a44c36974b932922b160109838fa6a392f47704c[] = {
/* columns rows colors chars-per-pixel */
"55 55 17 1 ",
"  c black",
". c #421F17",
"X c #3F403A",
"o c #774030",
"O c #3D3550",
"+ c #764D51",
"@ c #646369",
"# c #9F5542",
"$ c #B28C3D",
"% c #BA9C5C",
"& c #DCAF4E",
"* c #D3936A",
"= c #999CA3",
"- c #EACA88",
"; c #F2D4B5",
": c #CED0D3",
"> c #E9EAEC",
/* pixels */
"OOOOOOOOOOOOOOOOOOOOOOOOOOOOOOOOOOOOOOOOOOOOOOOOOOOOOOO",
"OOOOOOOOOOOOOOOOOOOOOOOOOOOOOOOOOOOOOOOOOOOOOOOOOOOOOOO",
"OOOOOOOOOOOOOOOOOOOOOOOOOOOOOOOOOOOOOOOOOOOOOOOOOOOOOOO",
"OOOOOOOOOOOOOOOOOOOOOOOOOOOOOOOOOOOOOOOOOOOOOOOOOOOOOOO",
"OOOOOOOOOOOOOOOOOOOOOOOOOOOOOOOOOOOOOOOOOOOOOOOOOOOOOOO",
"OOOOOOOOOOOOOOOOOOOOOOOOOOOOOOOOOOOOOOOOOOOOOOOOOOOOOOO",
"OOOOOOOOOOOOOOOOOOOOOOOOO    OOOOOOOOOOOOOOOOOOOOOOOOOO",
"OOOOOOOOOOOOOOOOOOOOOOO  ****  OOOOOOOOOOOOOOOOOOOOOOOO",
"OOOOOOOOOOOOOOOOOOOOOO +*;;;;*+ OOOOOOOOOOOOOOOOOOOOOOO",
"OOOOOOOOOOOOOOOOOOOOO +*;;;;;;*+ OOOOOOOOOOOOOOOOOOOOOO",
"OOOOOOOOOOOOOOOOOOOOO *;;;;;;;;* OOOOOOOOOOOOOOOOOOOOOO",
"OOOOOOOOOOOOOOOOOOOO +*;;;;;;;;*+ OOOOOOOOOOOOOOOOOOOOO",
"OOOOOOOOOOOOOOOOOOOO +*;;;;;;;;*+ OOOOOOOOOOOOOOOOOOOOO",
"OOOOOOOOOOOOOOOOOOOO +*;;;;;;;;*+ OOOOOOOOOOOOOOOOOOOOO",
"OOOOOOOOOOOOOOOOOOOO +**;;;;;;**+ OOOOOOOOOOOOOOOOOOOOO",
"OOOOOOOOOOOOOOOOOOOO +*   ;;   *+ OOOOOOOOOOOOOOOOOOOOO",
"OOOOOOOOOOOOOOOOOOOO +*>@>**>@>*+ OOOOOOOOOOOOOOOOOOOOO",
"OOOOOOOOOOOOOOOOOOOOO *>@>;;>@>* OOOOOOOOOOOOOOOOOOOOOO",
"OOOOOOOOOOOOOOOOOOOOO *;;;;;;;;* OOOOOOOOOOOOOOOOOOOOOO",
"OOOOOOOOOOOOOOOOOOOOOO *;;;;;;* OOOOOOOOOOOOOOOOOOOOOOO",
"OOOOOOOOOOOOOOOOOOOOOOO *;;;;* OOOOOOOOOOOOOOOOOOOOOOOO",
"OOOOOOOOOOOOOOOOOOOOO    *;;*    OOOOOOOOOOOOOOOOOOOOOO",
"OOOOOOOOOOOOOOOOOOOO >>:=+**+=:>> OOOOOOOOOOOOOOOOOOOOO",
"OOOOOOOOOOOOOOOOOOO &:@>======>@:& OOOOOOOOOOOOOOOOOOOO",
"OOOOOOOOOOOOOOOOOO --->--====-->--- OOOOOOOOOOOOOOOOOOO",
"OOOOOOOOOOOOOOOOOO&-& ---------- &-&OOOOOOOOOOOOOOOOOOO",
"OOOOOOOOOOOOOOOOO &-  &--------&  -& OOOOOOOOOOOOOOOOOO",
"OOOOOOOOOOOOOOOOO &- : &----&-& : -& OOOOOOOOOOOOOOOOOO",
"OOOOOOOOOOOOOOOO &- :: &&-&--&& :: -& OOOOOOOOOOOOOOOOO",
"OOOOOOOOOOOOOOOO &- :: &&&&&&&& :: -& OOOOOOOOOOOOOOOOO",
"OOOOOOOOOOOOOOOO ## ::: &&&&&& ::: ## OOOOOOOOOOOOOOOOO",
"OOOOOOOOOOOOOOO #### :: XX%%XX :: #### OOOOOOOOOOOOOOOO",
"OOOOOOOOOOOOOOO #### :: XX%%XX :: #### OOOOOOOOOOOOOOOO",
"OOOOOOOOOOOOOOO ##o. : &&--&--& : .o## OOOOOOOOOOOOOOOO",
"OOOOOOOOOOOOOOO ##o. : &---&--& : .o## OOOOOOOOOOOOOOOO",
"OOOOOOOOOOOOOOOO    :: ----&--- ::    OOOOOOOOOOOOOOOOO",
"OOOOOOOOOOOOOOOOOO :: &----&---& :: OOOOOOOOOOOOOOOOOOO",
"OOOOOOOOOOOOOOOOOO :: &--&$$&--& :: OOOOOOOOOOOOOOOOOOO",
"OOOOOOOOOOOOOOOOOO :: &&&$  $&&& :: OOOOOOOOOOOOOOOOOOO",
"OOOOOOOOOOOOOOOOO :: $&&$ :: $&&$ :: OOOOOOOOOOOOOOOOOO",
"OOOOOOOOOOOOOOOOO >: $$$ :::: $$$ :> OOOOOOOOOOOOOOOOOO",
"OOOOOOOOOOOOOOOO >>: $$$ :::: $$$ :>> OOOOOOOOOOOOOOOOO",
"OOOOOOOOOOOOOOOO >>: && :::::: && :>> OOOOOOOOOOOOOOOOO",
"OOOOOOOOOOOOOOOOO   o##  ::::  ##o   OOOOOOOOOOOOOOOOOO",
"OOOOOOOOOOOOOOOOOOO o# OO    OO #o OOOOOOOOOOOOOOOOOOOO",
"OOOOOOOOOOOOOOOOOOO o# OOOOOOOO #o OOOOOOOOOOOOOOOOOOOO",
"OOOOOOOOOOOOOOOOOO o## OOOOOOOO ##o OOOOOOOOOOOOOOOOOOO",
"OOOOOOOOOOOOOOOOOO o# OOOOOOOOOO #o OOOOOOOOOOOOOOOOOOO",
"OOOOOOOOOOOOOOOOO o## OOOOOOOOOO ##o OOOOOOOOOOOOOOOOOO",
"OOOOOOOOOOOOOOOOOOOOOOOOOOOOOOOOOOOOOOOOOOOOOOOOOOOOOOO",
"OOOOOOOOOOOOOOOOOOOOOOOOOOOOOOOOOOOOOOOOOOOOOOOOOOOOOOO",
"OOOOOOOOOOOOOOOOOOOOOOOOOOOOOOOOOOOOOOOOOOOOOOOOOOOOOOO",
"OOOOOOOOOOOOOOOOOOOOOOOOOOOOOOOOOOOOOOOOOOOOOOOOOOOOOOO",
"OOOOOOOOOOOOOOOOOOOOOOOOOOOOOOOOOOOOOOOOOOOOOOOOOOOOOOO",
"OOOOOOOOOOOOOOOOOOOOOOOOOOOOOOOOOOOOOOOOOOOOOOOOOOOOOOO"
};
