/* XPM */
static char *_4303_d8106ddd0b8b0d38cd01da5b41e769644e040b6ed667a4251db621283f7d98f8[] = {
/* columns rows colors chars-per-pixel */
"55 55 15 1 ",
"  c black",
". c #774030",
"X c #3D3550",
"o c #59585A",
"O c #764D51",
"+ c #9F5542",
"@ c #B28C3D",
"# c #DCAF4E",
"$ c #D3936A",
"% c #999CA3",
"& c #EACA88",
"* c #F2D4B5",
"= c #CED0D3",
"- c #E9EAEC",
"; c #F3F5F5",
/* pixels */
"XXXXXXXXXXXXXXXXXXXXXXXXXXXXXXXXXXXXXXXXXXXXXXXXXXXXXXX",
"XXXXXXXXXXXXXXXXXXXXXXXXXXXXXXXXXXXXXXXXXXXXXXXXXXXXXXX",
"XXXXXXXXXXXXXXXXXXXXXXXXXXXXXXXXXXXXXXXXXXXXXXXXXXXXXXX",
"XXXXXXXXXXXXXXXXXXXXXXXXXXXXXXXXXXXXXXXXXXXXXXXXXXXXXXX",
"XXXXXXXXXXXXXXXXXXXXXXXXXXXXXXXXXXXXXXXXXXXXXXXXXXXXXXX",
"XXXXXXXXXXXXXXXXXXXXXXXXXXXXXXXXXXXXXXXXXXXXXXXXXXXXXXX",
"XXXXXXXXXXXXXXXXXXXXXXXXXXXXXXXXXXXXXXXXXXXXXXXXXXXXXXX",
"XXXXXXXXXXXXXXXXXXXXXXXXXXXXXXXXXXXXXXXXXXXXXXXXXXXXXXX",
"XXXXXXXXXXXXXXXXXXXXXXXXXXXXXXXXXXXXXXXXXXXXXXXXXXXXXXX",
"XXXXXXXXXXXXXXXXXXXXXXXXXXXXXXXXXXXXXXXXXXXXXXXXXXXXXXX",
"XXXXXXXXXXXXXXXXXXXX    XXXXXXXXXXXXXXXXXXXXXXXXXXXXXXX",
"XXXXXXXXXXXXXXXXXX  ****  XXXXXXXXXXXXXXXXXXXXXXXXXXXXX",
"XXXXXXXXXXXXXXXXX ***$$$** XXXXXXXXXXXXXXXXXXXXXXXXXXXX",
"XXXXXXXXXXXXXXXX **$$$$$$$* XXXXXXXXXXXXXXXXXXXXXXXXXXX",
"XXXXXXXXXXXXXXXX **$$$$$$$$ XXXXXXXXXXXXXXXXXXXXXXXXXXX",
"XXXXXXXXXXXXXXX ***$$$$$$$$$ XXXXXXXXXXXXXXXXXXXXXXXXXX",
"XXXXXXXXXXXXXXX ***$$$$$$$$$ XXXXXXXXXXXXXXXXXXXXXXXXXX",
"XXXXXXXXXXXXXXX ***$$$$$$OO$ XXXXXXXXXXXXXXXXXXXXXXXXXX",
"XXXXXXXXXXXXXXX **   $$$$O$O XXXXXXXXXXXXXXXXXXXXXXXXXX",
"XXXXXXXXXXXXXXXX *o;;$$$O$$ XXXXXXXXXXXXXXXXXXXXXXXXXXX",
"XXXXXXXXXXXXXXXX *o;$$$$O$$  XXXXXXXXXXXXXXXXXXXXXXXXXX",
"XXXXXXXXXXXXXXX ****$$$$OO  - XXXXXXXXXXXXXXXXXXXXXXXXX",
"XXXXXXXXXXXXXXXX ***$$$$O$$-==  XXXXXXXXXXXXXXXXXXXXXXX",
"XXXXXXXXXXXXXXXXX **$$$O$--#   = XXXXXXXXXXXXXXXXXXXXXX",
"XXXXXXXXXXXXXXXXXX **$O$=-# &&& =  XXXXXXXXXXXXXXXXXXXX",
"XXXXXXXXXXXXXXXXXXX   $==#@&&## ==-  XXXXXXXXXXXXXXXXXX",
"XXXXXXXXXXXXXXXXXXXXX =&&&@&###& ==-- XXXXXXXXXXXXXXXXX",
"XXXXXXXXXXXXXXXXXXXX =&&&&&@#&#&# ==--  XXXXXXXXXXXXXXX",
"XXXXXXXXXXXXXXXXXXXX =&&&&&& &&&&& ==---  XXXXXXXXXXXXX",
"XXXXXXXXXXXXXXXXXXXX &&&##   ##&&&   ==---  XXXXXXXXXXX",
"XXXXXXXXXXXXXXXXXXXXX     .&&&&&&# %%  ==---     XXXXXX",
"XXXXXXXXXXXXXXXXXXXX .+++++&&&    %%%%%  ===---- XXXXXX",
"XXXXXXXXXXXXXXXXXXXX ++++++    %%%%%%%%%%   ==-- XXXXXX",
"XXXXXXXXXXXXXXXXXXXX ++..  #&&& %%%%%%%%%%%%  - XXXXXXX",
"XXXXXXXXXXXXXXXXXXXXX +.+ #&&&& %%%%%%%%%%%%%%% XXXXXXX",
"XXXXXXXXXXXXXXXXXXXXXX    &&&&&# %%%%%%%%%%%%%% XXXXXXX",
"XXXXXXXXXXXXXXXXXXXXXX &#@&&&&&# %%%%  %%%%%%% XXXXXXXX",
"XXXXXXXXXXXXXXXXXXXXX &&#@&&&&&# %%% ++ %%%%%% XXXXXXXX",
"XXXXXXXXXXXXXXXXXXXXX &&#@@#&&&&# % +++ %%%%% XXXXXXXXX",
"XXXXXXXXXXXXXXXXXXXXX &&&  &#&&&#@ ++.++ %%% XXXXXXXXXX",
"XXXXXXXXXXXXXXXXXXXX #&&&#  &#&&#@ #. .+    XXXXXXXXXXX",
"XXXXXXXXXXXXXXXXXXXX @###@@ @@#&#@@# X . XXXXXXXXXXXXXX",
"XXXXXXXXXXXXXXXXXXXX @@@@@ X #@##@@# XX  XXXXXXXXXXXXXX",
"XXXXXXXXXXXXXXXXXXXX #@@@# XX #@@@# XXXXXXXXXXXXXXXXXXX",
"XXXXXXXXXXXXXXXXXXXXX #### XXX     XXXXXXXXXXXXXXXXXXXX",
"XXXXXXXXXXXXXXXXXXXXX ... XXXXXXXXXXXXXXXXXXXXXXXXXXXXX",
"XXXXXXXXXXXXXXXXXXXXX .. XXXXXXXXXXXXXXXXXXXXXXXXXXXXXX",
"XXXXXXXXXXXXXXXXXXXXX .. XXXXXXXXXXXXXXXXXXXXXXXXXXXXXX",
"XXXXXXXXXXXXXXXXXXXX  . XXXXXXXXXXXXXXXXXXXXXXXXXXXXXXX",
"XXXXXXXXXXXXXXXXXXX ... XXXXXXXXXXXXXXXXXXXXXXXXXXXXXXX",
"XXXXXXXXXXXXXXXXXX .... XXXXXXXXXXXXXXXXXXXXXXXXXXXXXXX",
"XXXXXXXXXXXXXXXXXXXXXXXXXXXXXXXXXXXXXXXXXXXXXXXXXXXXXXX",
"XXXXXXXXXXXXXXXXXXXXXXXXXXXXXXXXXXXXXXXXXXXXXXXXXXXXXXX",
"XXXXXXXXXXXXXXXXXXXXXXXXXXXXXXXXXXXXXXXXXXXXXXXXXXXXXXX",
"XXXXXXXXXXXXXXXXXXXXXXXXXXXXXXXXXXXXXXXXXXXXXXXXXXXXXXX"
};
