/* XPM */
static char *_8649_75007465f3b61e5cde62a5f81f7ac3e334ffbb2fc3d0fd16e48e22edf043d0eb[] = {
/* columns rows colors chars-per-pixel */
"55 55 18 1 ",
"  c black",
". c #421F17",
"X c #3F403A",
"o c #774030",
"O c #3D3550",
"+ c #59585A",
"@ c #764D51",
"# c #9F5542",
"$ c #B28C3D",
"% c #BA9C5C",
"& c #DCAF4E",
"* c #D3936A",
"= c #999CA3",
"- c #EACA88",
"; c #F2D4B5",
": c #CED0D3",
"> c #E9EAEC",
", c #F3F5F5",
/* pixels */
"OOOOOOOOOOOOOOOOOOOOOOOOOOOOOOOOOOOOOOOOOOOOOOOOOOOOOOO",
"OOOOOOOOOOOOOOOOOOOOOOOOOOOOOOOOOOOOOOOOOOOOOOOOOOOOOOO",
"OOOOOOOOOOOOOOOOOOOOOOOOOOOOOOOOOOOOOOOOOOOOOOOOOOOOOOO",
"OOOOOOOOOOOOOOOOOOOOOOOOOOOOOOOOOOOOOOOOOOOOOOOOOOOOOOO",
"OOOOOOOOOOOOOOOOOOOOOOOOOOOOOOOOOOOOOOOOOOOOOOOOOOOOOOO",
"OOOOOOOOOOOOOOOOOOOOOOOOOOOOOOOOOOOOOOOOOOOOOOOOOOOOOOO",
"OOOOOOOOOOOOOOOOOOOOOOOOOOOOOOOOOOOOOOOOOOOOOOOOOOOOOOO",
"OOOOOOOOOOOOOOOOOOOOOOOOOOOOOOOOOOOOOOOOOOOOOOOOOOOOOOO",
"OOOOOOOOOOOOOOOOOOOOOOOOOOOOOOOOOOOOOOOOOOOOOOOOOOOOOOO",
"OOOOOOOOOOOOOOOOOOOOOOOOOOOOOOOOOOOOOOOOOOOOOOOOOOOOOOO",
"OOOOOOOOOOOOOOOOOOOO    OOOOOOOOOOOOOOOOOOOOOOOOOOOOOOO",
"OOOOOOOOOOOOOOOOOO  ;;;;  OOOOOOOOOOOOOOOOOOOOOOOOOOOOO",
"OOOOOOOOOOOOOOOOO ;;;***;; OOOOOOOOOOOOOOOOOOOOOOOOOOOO",
"OOOOOOOOOOOOOOOO ;;;******; OOOOOOOOOOOOOOOOOOOOOOOOOOO",
"OOOOOOOOOOOOOOOO ;;;******* OOOOOOOOOOOOOOOOOOOOOOOOOOO",
"OOOOOOOOOOOOOOO ;;;;******** OOOOOOOOOOOOOOOOOOOOOOOOOO",
"OOOOOOOOOOOOOOO ;;;;******** OOOOOOOOOOOOOOOOOOOOOOOOOO",
"OOOOOOOOOOOOOOO ;;;;*****@@* OOOOOOOOOOOOOOOOOOOOOOOOOO",
"OOOOOOOOOOOOOOO ;;   ****@*@ OOOOOOOOOOOOOOOOOOOOOOOOOO",
"OOOOOOOOOOOOOOOO ;+>>***@** OO   OOOOOOOOOOOOOOOOOOOOOO",
"OOOOOOOOOOOOOOOO ;+>****@** O &-- OOOOOOOOOOOOOOOOOOOOO",
"OOOOOOOOOOOOOOO ;;;;****@@   &&--& OOOOOOOOOOOOOOOOOOOO",
"OOOOOOOOOOOOOOOO ;;;****@* -&----&& OOOOOOOOOOOOOOOOOOO",
"OOOOOOOOOOOOOOOOO ;;***@= &----  &o# OOOOOOOOOOOOOOOOOO",
"OOOOOOOOOOOOOOOOOO ;;*@==--&-- == ##o    OOOOOOOOOOOOOO",
"OOOOOOOOOOOOOOOOOOO   ==-&-&- - = #### ,, OOOOOOOOOOOOO",
"OOOOOOOOOOOOOOOOOOOOO =--&&& --  #o### :,, OOOOOOOOOOOO",
"OOOOOOOOOOOOOOO    OO =---- ---  oo##o  :, OOOOOOOOOOOO",
"OOOOOOOOOOOOOO oo.o O &-----&&& : ##o :: , OOOOOOOOOOOO",
"OOOOOOOOOOOOOO oo.. O  -----&-- ::   ::::, OOOOOOOOOOOO",
"OOOOOOOOOOOOOOO ooo  & --&--XXXX ::::::::, OOOOOOOOOOOO",
"OOOOOOOOOOOOOOO oo .&&&  &  XXXX :::::::: OOOOOOOOOOOOO",
"OOOOOOOOOOOOOOOO  ..&&& O &% ---- :    ::   OOOOOOOOOOO",
"OOOOOOOOOOOOOOOOOO     OO %& ----- $$$$  ooo OOOOOOOOOO",
"OOOOOOOOOOOOOOOOOOOOOOOOO   ------ &&$$ooooo OOOOOOOOOO",
"OOOOOOOOOOOOOOOOOOOOOOOO --------- $&&$o  ooo OOOOOOOOO",
"OOOOOOOOOOOOOOOOOOOOOO  ---------& $&&$ OO oo OOOOOOOOO",
"OOOOOOOOOOOOOOOOOOOOO &---------& $$&& OOOO o OOOOOOOOO",
"OOOOOOOOOOOOOOOOOOOO ----&&&&&&  $$&& OOOOOO  OOOOOOOOO",
"OOOOOOOOOOOOOOOOOOOO -----&          OOOOOOOOOOOOOOOOOO",
"OOOOOOOOOOOOOOOOOOO $--&$  OOOOOOOOOOOOOOOOOOOOOOOOOOOO",
"OOOOOOOOOOOOOOOOOO $$$$$& OOOOOOOOOOOOOOOOOOOOOOOOOOOOO",
"OOOOOOOOOOOOOOOOO &$$$$  OOOOOOOOOOOOOOOOOOOOOOOOOOOOOO",
"OOOOOOOOOOOOOOOOO $&&& OOOOOOOOOOOOOOOOOOOOOOOOOOOOOOOO",
"OOOOOOOOOOOOOOOO o### OOOOOOOOOOOOOOOOOOOOOOOOOOOOOOOOO",
"OOOOOOOOOOOOOOOO o#  OOOOOOOOOOOOOOOOOOOOOOOOOOOOOOOOOO",
"OOOOOOOOOOOOOOO o# OOOOOOOOOOOOOOOOOOOOOOOOOOOOOOOOOOOO",
"OOOOOOOOOOOOO  o# OOOOOOOOOOOOOOOOOOOOOOOOOOOOOOOOOOOOO",
"OOOOOOOOOOOO ooo# OOOOOOOOOOOOOOOOOOOOOOOOOOOOOOOOOOOOO",
"OOOOOOOOOOOOOOOOOOOOOOOOOOOOOOOOOOOOOOOOOOOOOOOOOOOOOOO",
"OOOOOOOOOOOOOOOOOOOOOOOOOOOOOOOOOOOOOOOOOOOOOOOOOOOOOOO",
"OOOOOOOOOOOOOOOOOOOOOOOOOOOOOOOOOOOOOOOOOOOOOOOOOOOOOOO",
"OOOOOOOOOOOOOOOOOOOOOOOOOOOOOOOOOOOOOOOOOOOOOOOOOOOOOOO",
"OOOOOOOOOOOOOOOOOOOOOOOOOOOOOOOOOOOOOOOOOOOOOOOOOOOOOOO",
"OOOOOOOOOOOOOOOOOOOOOOOOOOOOOOOOOOOOOOOOOOOOOOOOOOOOOOO"
};
