/* XPM */
static char *_456_be1d74a6d4209fec77a25f5c6dfd24ceb41a8eae0da008a69ce9975c441e0f5b[] = {
/* columns rows colors chars-per-pixel */
"55 55 19 1 ",
"  c black",
". c #421F17",
"X c #3F403A",
"o c #774030",
"O c #3D3550",
"+ c #59585A",
"@ c #764D51",
"# c #646369",
"$ c #9F5542",
"% c #B28C3D",
"& c #BA9C5C",
"* c #DCAF4E",
"= c #D3936A",
"- c #999CA3",
"; c #EACA88",
": c #F2D4B5",
"> c #CED0D3",
", c #E9EAEC",
"< c #F3F5F5",
/* pixels */
"OOOOOOOOOOOOOOOOOOOOOOOOOOOOOOOOOOOOOOOOOOOOOOOOOOOOOOO",
"OOOOOOOOOOOOOOOOOOOOOOOOOOOOOOOOOOOOOOOOOOOOOOOOOOOOOOO",
"OOOOOOOOOOOOOOOOOOOOOOOOOOOOOOOOOOOOOOOOOOOOOOOOOOOOOOO",
"OOOOOOOOOOOOOOOOOOOOOOOOOOOOOOOOOOOOOOOOOOOOOOOOOOOOOOO",
"OOOOOOOOOOOOOOOOOOOOOOOOO    OOOOOOOOOOOOOOOOOOOOOOOOOO",
"OOOOOOOOOOOOOOOOOOOOOOO  ::::  OOOOOOOOOOOOOOOOOOOOOOOO",
"OOOOOOOOOOOOOOOOOOOOOO =::::::: OOOOOOOOOOOOOOOOOOOOOOO",
"OOOOOOOOOOOOOOOOOOOOO ::::::===: OOOOOOOOOOOOOOOOOOOOOO",
"OOOOOOOOOOOOOOOOOOOOO :::::===== OOOOOOOOOOOOOOOOOOOOOO",
"OOOOOOOOOOOOOOOOOOOO =::::======= OOOOOOOOOOOOOOOOOOOOO",
"OOOOOOOOOOOOOOOOOOOO :::::======= OOOOOOOOOOOOOOOOOOOOO",
"OOOOOOOOOOOOOOOOOOOO :::::======= OOOOOOOOOOOOOOOOOOOOO",
"OOOOOOOOOOOOOOOOOOOO :::::=====@@ OOOOOOOOOOOOOOOOOOOOO",
"OOOOOOOOOOOOOOOOOOOO :::::=====@= OOOOOOOOOOOOOOOOOOOOO",
"OOOOOOOOOOOOOOOOOOOO ::    ====@= OOOOOOOOOOOOOOOOOOOOO",
"OOOOOOOOOOOOOOOOOOOOO :<+<<====@= OOOOOOOOOOOOOOOOOOOOO",
"OOOOOOOOOOOOOOOOOOOOO :<+<====@=@ OOOOOOOOOOOOOOOOOOOOO",
"OOOOOOOOOOOOOOOOOOOOO :::::===@  OOOOOOOOOOOOOOOOOOOOOO",
"OOOOOOOOOOOOOOOOOOOOOO ::::==@    OOOOOOOOOOOOOOOOOOOOO",
"OOOOOOOOOOOOOOOOOOOOOO  :::=@= ,,> OOOOOOOOOOOOOOOOOOOO",
"OOOOOOOOOOOOOOOOOOOO  >> @@@=-,,>> OOOOOOOOOOOOOOOOOOOO",
"OOOOOOOOOOOOOOOOOOOO >#>-===--,#>** OOOOOOOOOOOOOOOOOOO",
"OOOOOOOOOOOOOOOOOOOO >**-----;;,;;;* OOOOOOOOOOOOOOOOOO",
"OOOOOOOOOOOOOOOOOOOO **;;-;;;;;;**;* OOOOOOOOOOOOOOOOOO",
"OOOOOOOOOOOOOOOOOOOO *;;;****;;* *;;* OOOOOOOOOOOOOOOOO",
"OOOOOOOOOOOOOOOOOOOO *;;*;;*;;**  *;* OOOOOOOOOOOOOOOOO",
"OOOOOOOOOOOOOOOOOOO o ;;;;*;*** ,, ;* OOOOOOOOOOOOOOOOO",
"OOOOOOOOOOOOOOOOOOO $ ;;**;**  ,,, ;;* OOOOOOOOOOOOOOOO",
"OOOOOOOOOOOOOOOOOO $$$ ****** ,,,,, $* OOOOOOOOOOOOOOOO",
"OOOOOOOOOOOOOOOOOO $$$ X&&XXX ,,,,, $$ OOOOOOOOOOOOOOOO",
"OOOOOOOOOOOOOOOOO $$$ XX&&XXXX ,,,, $$$ OOOOOOOOOOOOOOO",
"OOOOOOOOOOOOOOOOO $oo ;%;*;;*; ,,, $$$$ OOOOOOOOOOOOOOO",
"OOOOOOOOOOOOOOOOO $o ;;%;*;;;*; , $.o$$ OOOOOOOOOOOOOOO",
"OOOOOOOOOOOOOOOOO $$ ;;%;*;;;;;*   .o$$ OOOOOOOOOOOOOOO",
"OOOOOOOOOOOOOOOOOO  *;;%**;;;;;; , $$  OOOOOOOOOOOOOOOO",
"OOOOOOOOOOOOOOOOOOO ;;;%%%**;;;;* ,   OOOOOOOOOOOOOOOOO",
"OOOOOOOOOOOOOOOOOOO ;;;*;  ;*;;;* ,,, OOOOOOOOOOOOOOOOO",
"OOOOOOOOOOOOOOOOOOO ;;*;* , ;*;;* ,,,, OOOOOOOOOOOOOOOO",
"OOOOOOOOOOOOOOOOOOO **;% ,,, **** ,,,, OOOOOOOOOOOOOOOO",
"OOOOOOOOOOOOOOOOOOO %%% ,,,, %%**% ,,, OOOOOOOOOOOOOOOO",
"OOOOOOOOOOOOOOOOOOOO %%    ,, %%%% ,,, OOOOOOOOOOOOOOOO",
"OOOOOOOOOOOOOOOOOOOO ** OOO , *%%%* ,, OOOOOOOOOOOOOOOO",
"OOOOOOOOOOOOOOOOOOOO oo OOOO   ***$ ,, OOOOOOOOOOOOOOOO",
"OOOOOOOOOOOOOOOOOOOO oo OOOOOOO $$o    OOOOOOOOOOOOOOOO",
"OOOOOOOOOOOOOOOOOOOOO o OOOOOOO $$o OOOOOOOOOOOOOOOOOOO",
"OOOOOOOOOOOOOOOOOOOOO o OOOOOOOO $o OOOOOOOOOOOOOOOOOOO",
"OOOOOOOOOOOOOOOOOOO  oo OOOOOOOOO $o OOOOOOOOOOOOOOOOOO",
"OOOOOOOOOOOOOOOOOO oooo OOOOOOOOOO o OOOOOOOOOOOOOOOOOO",
"OOOOOOOOOOOOOOOOOOOOOOOOOOOOOOOOOO $o OOOOOOOOOOOOOOOOO",
"OOOOOOOOOOOOOOOOOOOOOOOOOOOOOOOOOOOOOOOOOOOOOOOOOOOOOOO",
"OOOOOOOOOOOOOOOOOOOOOOOOOOOOOOOOOOOOOOOOOOOOOOOOOOOOOOO",
"OOOOOOOOOOOOOOOOOOOOOOOOOOOOOOOOOOOOOOOOOOOOOOOOOOOOOOO",
"OOOOOOOOOOOOOOOOOOOOOOOOOOOOOOOOOOOOOOOOOOOOOOOOOOOOOOO",
"OOOOOOOOOOOOOOOOOOOOOOOOOOOOOOOOOOOOOOOOOOOOOOOOOOOOOOO",
"OOOOOOOOOOOOOOOOOOOOOOOOOOOOOOOOOOOOOOOOOOOOOOOOOOOOOOO"
};
