/* XPM */
static char *_918_e9a78fdf9826fcf87173521f4f19d345f6963a2af336ce0c7fb9c2e0d850c86c[] = {
/* columns rows colors chars-per-pixel */
"55 55 16 1 ",
"  c black",
". c #3F403A",
"X c #774030",
"o c #3D3550",
"O c #59585A",
"+ c #764D51",
"@ c #9F5542",
"# c #B28C3D",
"$ c #BA9C5C",
"% c #DCAF4E",
"& c #D3936A",
"* c #EACA88",
"= c #F2D4B5",
"- c #CED0D3",
"; c #E9EAEC",
": c #F3F5F5",
/* pixels */
"ooooooooooooooooooooooooooooooooooooooooooooooooooooooo",
"ooooooooooooooooooooooooooooooooooooooooooooooooooooooo",
"ooooooooooooooooooooooooooooooooooooooooooooooooooooooo",
"ooooooooooooooooooooooooooooooooooooooooooooooooooooooo",
"ooooooooooooooooooooooooooooooooooooooooooooooooooooooo",
"ooooooooooooooooooooooooooooooooooooooooooooooooooooooo",
"ooooooooooooooooooooooooooooooooooooooooooooooooooooooo",
"ooooooooooooooooooooooooooooooooooooooooooooooooooooooo",
"ooooooooooooooooooooooooooooooooooooooooooooooooooooooo",
"ooooooooooooooooooooooooooooooooooooooooooooooooooooooo",
"ooooooooooooooooooooooooooooooooo    oooooooooooooooooo",
"ooooooooooooooooooooooooooooooo  ====  oooooooooooooooo",
"oooooooooooooooooooooooooooooo ==&&&=== ooooooooooooooo",
"ooooooooooooooooooooooooooooo =&&&&&&&== oooooooooooooo",
"ooooooooooooooooooooooooooooo &&&&&&&&== oooooooooooooo",
"oooooooooooooooooooooooooooo &&&&&&&&&=== ooooooooooooo",
"oooooooooooooooooooooooooooo &&&&&&&&&=== ooooooooooooo",
"oooooooooooooooooooooooooooo &++&&&&&&=== ooooooooooooo",
"oooooooooooooooooooooooooooo +&+&&&&   == ooooooooooooo",
"ooooooooooooooooooooooooooooo &&+&&&::O= oooooooooooooo",
"ooooooooooooooooooooooooooooo &&+&&&&:O= oooooooooooooo",
"oooooooooooooo                 ++&&&&==== ooooooooooooo",
"oooooooooooo  ;;;;---;;;;;;---- +&&&&=== oooooooooooooo",
"ooooooooooo ;;;;------;;;;;;;;;; +&&&== ooooooooooooooo",
"oooooooooo -;;;------;;;;;;-;;;;; +&== oo  oooooooooooo",
"oooooooooo --------;;;;;;---;;;;      oo @@ ooooooooooo",
"oooooooooo ---------------;;;;  %** oo  @@@@ oooooooooo",
"oooooooooo ------------;;;;   **%***  @@@XX@ oooooooooo",
"ooooooooooo ------;;;;;;;  %*%* **%%**@@@@X@ oooooooooo",
"ooooooooooo ---;;;;;;    %%%%*%*  ****X     ooooooooooo",
"ooooooooooo --;;;    oo ...%%%** o **% oooooooooooooooo",
"ooooooooooo --   ooooo ..... %* ooo   ooooooooooooooooo",
"ooooooooooo   @   oooo **%. $  oooooooooooooooooooooooo",
"oooooooooo @@XX@X% oo %**%* % ooooooooooooooooooooooooo",
"oooooooooo @X  X%%% o %*%**% # oooooooooooooooooooooooo",
"oooooooooo X oo %%## %*****%*#  ooooooooooooooooooooooo",
"oooooooooo  oooo %##%******%#*** oooooooooooooooooooooo",
"oooooooooooooooo %##%***%%%%#****  oooooooooooooooooooo",
"ooooooooooooooooo %#%*****%#*%***** ooooooooooooooooooo",
"oooooooooooooooooo %#%*%    %#%****% oooooooooooooooooo",
"ooooooooooooooooooo     oooo  #%%%%# oooooooooooooooooo",
"oooooooooooooooooooooooooooooo ###### ooooooooooooooooo",
"ooooooooooooooooooooooooooooooo ####%% oooooooooooooooo",
"oooooooooooooooooooooooooooooooo %%%%X oooooooooooooooo",
"ooooooooooooooooooooooooooooooooo  %XX oooooooooooooooo",
"ooooooooooooooooooooooooooooooooooo  XX ooooooooooooooo",
"ooooooooooooooooooooooooooooooooooooo XX oooooooooooooo",
"oooooooooooooooooooooooooooooooooooooo XX  oooooooooooo",
"oooooooooooooooooooooooooooooooooooooo XXXX ooooooooooo",
"ooooooooooooooooooooooooooooooooooooooooooooooooooooooo",
"ooooooooooooooooooooooooooooooooooooooooooooooooooooooo",
"ooooooooooooooooooooooooooooooooooooooooooooooooooooooo",
"ooooooooooooooooooooooooooooooooooooooooooooooooooooooo",
"ooooooooooooooooooooooooooooooooooooooooooooooooooooooo",
"ooooooooooooooooooooooooooooooooooooooooooooooooooooooo"
};
