/* XPM */
static char *_8174_6b86be876112a55611098f36d1ebd2b4b3580c224dd73061a698c9c23476ac7f[] = {
/* columns rows colors chars-per-pixel */
"55 55 18 1 ",
"  c black",
". c #421F17",
"X c #3F403A",
"o c #774030",
"O c #3D3550",
"+ c #59585A",
"@ c #764D51",
"# c #9F5542",
"$ c #B28C3D",
"% c #BA9C5C",
"& c #DCAF4E",
"* c #D3936A",
"= c #999CA3",
"- c #EACA88",
"; c #F2D4B5",
": c #CED0D3",
"> c #E9EAEC",
", c #F3F5F5",
/* pixels */
"OOOOOOOOOOOOOOOOOOOOOOOOOOOOOOOOOOOOOOOOOOOOOOOOOOOOOOO",
"OOOOOOOOOOOOOOOOOOOOOOOOOOOOOOOOOOOOOOOOOOOOOOOOOOOOOOO",
"OOOOOOOOOOOOOOOOOOOOOOOOOOOOOOOOOOOOOOOOOOOOOOOOOOOOOOO",
"OOOOOOOOOOOOOOOOOOOOOOOOOOOOOOOOOOOOOOOOOOOOOOOOOOOOOOO",
"OOOOOOOOOOOOOOOOOOOOOOOOOOOOOOOOOOOOOOOOOOOOOOOOOOOOOOO",
"OOOOOOOOOOOOOOOOOOOOOOOOOOOOOOOOOOOOOOOOOOOOOOOOOOOOOOO",
"OOOOOOOOOOOOOOOOOOOOOOOOOOOOOOOOOOOOOOOOOOOOOOOOOOOOOOO",
"OOOOOOOOOOOOOOOOOOOOOOOOOOOOOOOOOOOOOOOOOOOOOOOOOOOOOOO",
"OOOOOOOOOOOOOOOOOOOOOOOOOOOOOOOOOOOOOOOOOOOOOOOOOOOOOOO",
"OOOOOOOOOOOOOOOOOOOOOOOOOOOOOOOOOOOOOOOOOOOOOOOOOOOOOOO",
"OOOOOOOOOOOOOOOOOOOOOOOOOOOOOOO    OOOOOOOOOOOOOOOOOOOO",
"OOOOOOOOOOOOOOOOOOOOOOOOOOOOO  ;;;;  OOOOOOOOOOOOOOOOOO",
"OOOOOOOOOOOOOOOOOOOOOOOOOOOO ;;***;;; OOOOOOOOOOOOOOOOO",
"OOOOOOOOOOOOOOOOOOOOOOOOOOO ;******;;; OOOOOOOOOOOOOOOO",
"OOOOOOOOOOOOOOOOOOOOOOOOOOO *******;;; OOOOOOOOOOOOOOOO",
"OOOOOOOOOOOOOOOOOOOOOOOOOO ********;;;; OOOOOOOOOOOOOOO",
"OOOOOOOOOOOOOOOOOOOOOOOOOO ********;;;; OOOOOOOOOOOOOOO",
"OOOOOOOOOOOOOOOOOOOOOOOOOO *@@*****;;;; OOOOOOOOOOOOOOO",
"OOOOOOOOOOOOOOOOOOOOOOOOOO @*@****   ;; OOOOOOOOOOOOOOO",
"OOOOOOOOOOOOOOOOOOOOOO   OO **@***>>+; OOOOOOOOOOOOOOOO",
"OOOOOOOOOOOOOOOOOOOOO --& O **@****>+; OOOOOOOOOOOOOOOO",
"OOOOOOOOOOOOOOOOOOOO &--&&   @@****;;;; OOOOOOOOOOOOOOO",
"OOOOOOOOOOOOOOOOOOO &&----&- *@****;;; OOOOOOOOOOOOOOOO",
"OOOOOOOOOOOOOOOOOO #o&  ----& =@***;; OOOOOOOOOOOOOOOOO",
"OOOOOOOOOOOOOO    o## == --&--==@*;; OOOOOOOOOOOOOOOOOO",
"OOOOOOOOOOOOO ,, #### = - -&-&-==   OOOOOOOOOOOOOOOOOOO",
"OOOOOOOOOOOO ,,: ###o#  -- &&&--= OOOOOOOOOOOOOOOOOOOOO",
"OOOOOOOOOOOO ,:  o##oo  --- ----= OO    OOOOOOOOOOOOOOO",
"OOOOOOOOOOOO , :: o## : &&&-----& O o.oo OOOOOOOOOOOOOO",
"OOOOOOOOOOOO ,::::   :: --&-----  O ..oo OOOOOOOOOOOOOO",
"OOOOOOOOOOOO ,:::::::: XXXX--&-- &  ooo OOOOOOOOOOOOOOO",
"OOOOOOOOOOOOO :::::::: XXXX  &  &&&. oo OOOOOOOOOOOOOOO",
"OOOOOOOOOOO   ::    : ---- %& O &&&..  OOOOOOOOOOOOOOOO",
"OOOOOOOOOO ooo  $$$$ ----- &% OO     OOOOOOOOOOOOOOOOOO",
"OOOOOOOOOO ooooo$$&& ------   OOOOOOOOOOOOOOOOOOOOOOOOO",
"OOOOOOOOO ooo  o$&&$ --------- OOOOOOOOOOOOOOOOOOOOOOOO",
"OOOOOOOOO oo OO $&&$ &---------  OOOOOOOOOOOOOOOOOOOOOO",
"OOOOOOOOO o OOOO &&$$ &---------& OOOOOOOOOOOOOOOOOOOOO",
"OOOOOOOOO  OOOOOO &&$$  &&&&&&---- OOOOOOOOOOOOOOOOOOOO",
"OOOOOOOOOOOOOOOOOO          &----- OOOOOOOOOOOOOOOOOOOO",
"OOOOOOOOOOOOOOOOOOOOOOOOOOOO  $&--$ OOOOOOOOOOOOOOOOOOO",
"OOOOOOOOOOOOOOOOOOOOOOOOOOOOO &$$$$$ OOOOOOOOOOOOOOOOOO",
"OOOOOOOOOOOOOOOOOOOOOOOOOOOOOO  $$$$& OOOOOOOOOOOOOOOOO",
"OOOOOOOOOOOOOOOOOOOOOOOOOOOOOOOO &&&$ OOOOOOOOOOOOOOOOO",
"OOOOOOOOOOOOOOOOOOOOOOOOOOOOOOOOO ###o OOOOOOOOOOOOOOOO",
"OOOOOOOOOOOOOOOOOOOOOOOOOOOOOOOOOO  #o OOOOOOOOOOOOOOOO",
"OOOOOOOOOOOOOOOOOOOOOOOOOOOOOOOOOOOO #o OOOOOOOOOOOOOOO",
"OOOOOOOOOOOOOOOOOOOOOOOOOOOOOOOOOOOOO #o  OOOOOOOOOOOOO",
"OOOOOOOOOOOOOOOOOOOOOOOOOOOOOOOOOOOOO #ooo OOOOOOOOOOOO",
"OOOOOOOOOOOOOOOOOOOOOOOOOOOOOOOOOOOOOOOOOOOOOOOOOOOOOOO",
"OOOOOOOOOOOOOOOOOOOOOOOOOOOOOOOOOOOOOOOOOOOOOOOOOOOOOOO",
"OOOOOOOOOOOOOOOOOOOOOOOOOOOOOOOOOOOOOOOOOOOOOOOOOOOOOOO",
"OOOOOOOOOOOOOOOOOOOOOOOOOOOOOOOOOOOOOOOOOOOOOOOOOOOOOOO",
"OOOOOOOOOOOOOOOOOOOOOOOOOOOOOOOOOOOOOOOOOOOOOOOOOOOOOOO",
"OOOOOOOOOOOOOOOOOOOOOOOOOOOOOOOOOOOOOOOOOOOOOOOOOOOOOOO"
};
