/* XPM */
static char *_5531_e77517efdcfed579812d9398e99c3f6b00d570d69a274c170323cd7989d8f023[] = {
/* columns rows colors chars-per-pixel */
"55 55 19 1 ",
"  c black",
". c #421F17",
"X c #3F403A",
"o c #774030",
"O c #3D3550",
"+ c #59585A",
"@ c #764D51",
"# c #646369",
"$ c #9F5542",
"% c #B28C3D",
"& c #BA9C5C",
"* c #DCAF4E",
"= c #D3936A",
"- c #999CA3",
"; c #EACA88",
": c #F2D4B5",
"> c #CED0D3",
", c #E9EAEC",
"< c #F3F5F5",
/* pixels */
"OOOOOOOOOOOOOOOOOOOOOOOOOOOOOOOOOOOOOOOOOOOOOOOOOOOOOOO",
"OOOOOOOOOOOOOOOOOOOOOOOOOOOOOOOOOOOOOOOOOOOOOOOOOOOOOOO",
"OOOOOOOOOOOOOOOOOOOOOOOOOOOOOOOOOOOOOOOOOOOOOOOOOOOOOOO",
"OOOOOOOOOOOOOOOOOOOOOOOOOOOOOOOOOOOOOOOOOOOOOOOOOOOOOOO",
"OOOOOOOOOOOOOOOOOOOOOOOOO    OOOOOOOOOOOOOOOOOOOOOOOOOO",
"OOOOOOOOOOOOOOOOOOOOOOO  ::::  OOOOOOOOOOOOOOOOOOOOOOOO",
"OOOOOOOOOOOOOOOOOOOOOO :::::::= OOOOOOOOOOOOOOOOOOOOOOO",
"OOOOOOOOOOOOOOOOOOOOO :===:::::: OOOOOOOOOOOOOOOOOOOOOO",
"OOOOOOOOOOOOOOOOOOOOO =====::::: OOOOOOOOOOOOOOOOOOOOOO",
"OOOOOOOOOOOOOOOOOOOO =======::::= OOOOOOOOOOOOOOOOOOOOO",
"OOOOOOOOOOOOOOOOOOOO =======::::: OOOOOOOOOOOOOOOOOOOOO",
"OOOOOOOOOOOOOOOOOOOO =======::::: OOOOOOOOOOOOOOOOOOOOO",
"OOOOOOOOOOOOOOOOOOOO @@=====::::: OOOOOOOOOOOOOOOOOOOOO",
"OOOOOOOOOOOOOOOOOOOO =@=====::::: OOOOOOOOOOOOOOOOOOOOO",
"OOOOOOOOOOOOOOOOOOOO =@====    :: OOOOOOOOOOOOOOOOOOOOO",
"OOOOOOOOOOOOOOOOOOOO =@====<<+<: OOOOOOOOOOOOOOOOOOOOOO",
"OOOOOOOOOOOOOOOOOOOO @=@====<+<: OOOOOOOOOOOOOOOOOOOOOO",
"OOOOOOOOOOOOOOOOOOOOO  @===::::: OOOOOOOOOOOOOOOOOOOOOO",
"OOOOOOOOOOOOOOOOOOOO    @==:::: OOOOOOOOOOOOOOOOOOOOOOO",
"OOOOOOOOOOOOOOOOOOO >,, =@=:::  OOOOOOOOOOOOOOOOOOOOOOO",
"OOOOOOOOOOOOOOOOOOO >>,,-=@@@ >>  OOOOOOOOOOOOOOOOOOOOO",
"OOOOOOOOOOOOOOOOOO **>#,--===->#> OOOOOOOOOOOOOOOOOOOOO",
"OOOOOOOOOOOOOOOOO *;;;,;;-----**> OOOOOOOOOOOOOOOOOOOOO",
"OOOOOOOOOOOOOOOOO *;**;;;;;;-;;** OOOOOOOOOOOOOOOOOOOOO",
"OOOOOOOOOOOOOOOO *;;* *;;****;;;* OOOOOOOOOOOOOOOOOOOOO",
"OOOOOOOOOOOOOOOO *;*  **;;*;;*;;* OOOOOOOOOOOOOOOOOOOOO",
"OOOOOOOOOOOOOOOO *; ,, ***;*;;;; o OOOOOOOOOOOOOOOOOOOO",
"OOOOOOOOOOOOOOO *;; ,,,  **;**;; $ OOOOOOOOOOOOOOOOOOOO",
"OOOOOOOOOOOOOOO *$ ,,,,, ****** $$$ OOOOOOOOOOOOOOOOOOO",
"OOOOOOOOOOOOOOO $$ ,,,,, XXX&&X $$$ OOOOOOOOOOOOOOOOOOO",
"OOOOOOOOOOOOOO $$$ ,,,, XXXX&&XX $$$ OOOOOOOOOOOOOOOOOO",
"OOOOOOOOOOOOOO $$$$ ,,, ;*;;*;%; oo$ OOOOOOOOOOOOOOOOOO",
"OOOOOOOOOOOOOO $$o.$ , ;*;;;*;%;; o$ OOOOOOOOOOOOOOOOOO",
"OOOOOOOOOOOOOO $$o.   *;;;;;*;%;; $$ OOOOOOOOOOOOOOOOOO",
"OOOOOOOOOOOOOOO  $$ , ;;;;;;**%;;*  OOOOOOOOOOOOOOOOOOO",
"OOOOOOOOOOOOOOOO   , *;;;;**%%%;;; OOOOOOOOOOOOOOOOOOOO",
"OOOOOOOOOOOOOOOO ,,, *;;;*;  ;*;;; OOOOOOOOOOOOOOOOOOOO",
"OOOOOOOOOOOOOOO ,,,, *;;*; , *;*;; OOOOOOOOOOOOOOOOOOOO",
"OOOOOOOOOOOOOOO ,,,, **** ,,, %;** OOOOOOOOOOOOOOOOOOOO",
"OOOOOOOOOOOOOOO ,,, %**%% ,,,, %%% OOOOOOOOOOOOOOOOOOOO",
"OOOOOOOOOOOOOOO ,,, %%%% ,,    %% OOOOOOOOOOOOOOOOOOOOO",
"OOOOOOOOOOOOOOO ,, *%%%* , OOO ** OOOOOOOOOOOOOOOOOOOOO",
"OOOOOOOOOOOOOOO ,, $***   OOOO oo OOOOOOOOOOOOOOOOOOOOO",
"OOOOOOOOOOOOOOO    o$$ OOOOOOO oo OOOOOOOOOOOOOOOOOOOOO",
"OOOOOOOOOOOOOOOOOO o$$ OOOOOOO o OOOOOOOOOOOOOOOOOOOOOO",
"OOOOOOOOOOOOOOOOOO o$ OOOOOOOO o OOOOOOOOOOOOOOOOOOOOOO",
"OOOOOOOOOOOOOOOOO o$ OOOOOOOOO oo  OOOOOOOOOOOOOOOOOOOO",
"OOOOOOOOOOOOOOOOO o OOOOOOOOOO oooo OOOOOOOOOOOOOOOOOOO",
"OOOOOOOOOOOOOOOO o$ OOOOOOOOOOOOOOOOOOOOOOOOOOOOOOOOOOO",
"OOOOOOOOOOOOOOOOOOOOOOOOOOOOOOOOOOOOOOOOOOOOOOOOOOOOOOO",
"OOOOOOOOOOOOOOOOOOOOOOOOOOOOOOOOOOOOOOOOOOOOOOOOOOOOOOO",
"OOOOOOOOOOOOOOOOOOOOOOOOOOOOOOOOOOOOOOOOOOOOOOOOOOOOOOO",
"OOOOOOOOOOOOOOOOOOOOOOOOOOOOOOOOOOOOOOOOOOOOOOOOOOOOOOO",
"OOOOOOOOOOOOOOOOOOOOOOOOOOOOOOOOOOOOOOOOOOOOOOOOOOOOOOO",
"OOOOOOOOOOOOOOOOOOOOOOOOOOOOOOOOOOOOOOOOOOOOOOOOOOOOOOO"
};
