/* XPM */
static char *_4034_c32720aa8425aed91743e62077d5771bcf23b1ca92bbded8ea9baa89ad90e405[] = {
/* columns rows colors chars-per-pixel */
"55 55 15 1 ",
"  c black",
". c #774030",
"X c #3D3550",
"o c #59585A",
"O c #764D51",
"+ c #9F5542",
"@ c #B28C3D",
"# c #DCAF4E",
"$ c #D3936A",
"% c #999CA3",
"& c #EACA88",
"* c #F2D4B5",
"= c #CED0D3",
"- c #E9EAEC",
"; c #F3F5F5",
/* pixels */
"XXXXXXXXXXXXXXXXXXXXXXXXXXXXXXXXXXXXXXXXXXXXXXXXXXXXXXX",
"XXXXXXXXXXXXXXXXXXXXXXXXXXXXXXXXXXXXXXXXXXXXXXXXXXXXXXX",
"XXXXXXXXXXXXXXXXXXXXXXXXXXXXXXXXXXXXXXXXXXXXXXXXXXXXXXX",
"XXXXXXXXXXXXXXXXXXXXXXXXXXXXXXXXXXXXXXXXXXXXXXXXXXXXXXX",
"XXXXXXXXXXXXXXXXXXXXXXXXXXXXXXXXXXXXXXXXXXXXXXXXXXXXXXX",
"XXXXXXXXXXXXXXXXXXXXXXXXXXXXXXXXXXXXXXXXXXXXXXXXXXXXXXX",
"XXXXXXXXXXXXXXXXXXXXXXXXXXXXXXXXXXXXXXXXXXXXXXXXXXXXXXX",
"XXXXXXXXXXXXXXXXXXXXXXXXXXXXXXXXXXXXXXXXXXXXXXXXXXXXXXX",
"XXXXXXXXXXXXXXXXXXXXXXXXXXXXXX    XXXXXXXXXXXXXXXXXXXXX",
"XXXXXXXXXXXXXXXXXXXXXXXXXXXX  ****  XXXXXXXXXXXXXXXXXXX",
"XXXXXXXXXXXXXXXXXXXXXXXXXXX **$$$*** XXXXXXXXXXXXXXXXXX",
"XXXXXXXXXXXXXXXXXXXXXXXXXX *$$$$$$$** XXXXXXXXXXXXXXXXX",
"XXXXXXXXXXXXXXXXXXXXXXXXXX $$$$$$$$** XXXXXXXXXXXXXXXXX",
"XXXXXXXXXXXXXXXXXXXXXXXXX $$$$$$$$$*** XXXXXXXXXXXXXXXX",
"XXXXXXXXXXXXXXXXXXXXXXXXX $$$$$$$$$*** XXXXXXXXXXXXXXXX",
"XXXXXXXXXXXXXXXXXXXXXXXXX $OO$$$$$$*** XXXXXXXXXXXXXXXX",
"XXXXXXXXXXXXXXXXXXXXXXXXX O$O$$$$   ** XXXXXXXXXXXXXXXX",
"XXXXXXXXXXXXXXXXXXXXXXXXXX $$O$$$;;o* XXXXXXXXXXXXXXXXX",
"XXXXXXXXXXXXXXXXXXXXXXX    $$O$$$$;o* XXXXXXXXXXXXXXXXX",
"XXXXXXXXXXXXXXXXXXXXXX -=-  OO$$$$**** XXXXXXXXXXXXXXXX",
"XXXXXXXXXXXXXXXXXXXXX -===-=$O$$$$*** XXXXXXXXXXXXXXXXX",
"XXXXXXXXXXXXXXXXXXXX ==   #--$O$$$** XXXXXXXXXXXXXXXXXX",
"XXXXXXXXXXXXXXXXXXX -= &&& #-=$O$** XXXXXXXXXXXXXXXXXXX",
"XXXXXXXXXXXXXXXXXX -== ##&&@#==$   XXXXXXXXXXXXXXXXXXXX",
"XXXXXXXXXXXXXXXXXX -- &###&@&&&= XXXXXXXXXXXXXXXXXXXXXX",
"XXXXXXXXXXXXXXXXX -- #&#&#@&&&&&= XXXXXXXXXXXXXXXXXXXXX",
"XXXXXXXXXXXXXXXX -- &&&& &&&&&&&= XXXXXXXXXXXXXXXXXXXXX",
"XXXXXXXXXXXXXXX --- &&&##   ##&&& XXXXXXXXXXXXXXXXXXXXX",
"XXXXXXXXXXXXXXX --  #&&&&&&.     XXXXXXXXXXXXXXXXXXXXXX",
"XXXXXXXXXXXXXX -- %%    &&&+++++. XXXXXXXXXXXXXXXXXXXXX",
"XXXXXXXXXXXXXX--- %%% &&   ++++++ XXXXXXXXXXXXXXXXXXXXX",
"XXXXXXXXXXXXX ---%%%% &&&&&  ..++ XXXXXXXXXXXXXXXXXXXXX",
"XXXXXXXXXXXXXX   %%%% &&&&&& +.+ XXXXXXXXXXXXXXXXXXXXXX",
"XXXXXXXXXXXXXXXXX %%%% ##&&&    XXXXXXXXXXXXXXXXXXXXXXX",
"XXXXXXXXXXXXXXXXXX %%%%  ##&&&& XXXXXXXXXXXXXXXXXXXXXXX",
"XXXXXXXXXXXXXXX  XX %% ## &#&&&& XXXXXXXXXXXXXXXXXXXXXX",
"XXXXXXXXXXXXXX .. XX  #### &&&&& XXXXXXXXXXXXXXXXXXXXXX",
"XXXXXXXXXXXXXX ... X @#### #&### XXXXXXXXXXXXXXXXXXXXXX",
"XXXXXXXXXXXXX ..... #@### @@#### XXXXXXXXXXXXXXXXXXXXXX",
"XXXXXXXXXXXXX .. ...#@### #@@##@ XXXXXXXXXXXXXXXXXXXXXX",
"XXXXXXXXXXXXX . X .#@@### ##@@@@ XXXXXXXXXXXXXXXXXXXXXX",
"XXXXXXXXXXXXX  XXX #@@##@ ###@@@ XXXXXXXXXXXXXXXXXXXXXX",
"XXXXXXXXXXXXXXXXXXX @@@@   #### XXXXXXXXXXXXXXXXXXXXXXX",
"XXXXXXXXXXXXXXXXXXXX    XXX ++. XXXXXXXXXXXXXXXXXXXXXXX",
"XXXXXXXXXXXXXXXXXXXXXXXXXXXX +. XXXXXXXXXXXXXXXXXXXXXXX",
"XXXXXXXXXXXXXXXXXXXXXXXXXXXX +. XXXXXXXXXXXXXXXXXXXXXXX",
"XXXXXXXXXXXXXXXXXXXXXXXXXXXXX .  XXXXXXXXXXXXXXXXXXXXXX",
"XXXXXXXXXXXXXXXXXXXXXXXXXXXXX ... XXXXXXXXXXXXXXXXXXXXX",
"XXXXXXXXXXXXXXXXXXXXXXXXXXXXX ++.. XXXXXXXXXXXXXXXXXXXX",
"XXXXXXXXXXXXXXXXXXXXXXXXXXXXXXXXXXXXXXXXXXXXXXXXXXXXXXX",
"XXXXXXXXXXXXXXXXXXXXXXXXXXXXXXXXXXXXXXXXXXXXXXXXXXXXXXX",
"XXXXXXXXXXXXXXXXXXXXXXXXXXXXXXXXXXXXXXXXXXXXXXXXXXXXXXX",
"XXXXXXXXXXXXXXXXXXXXXXXXXXXXXXXXXXXXXXXXXXXXXXXXXXXXXXX",
"XXXXXXXXXXXXXXXXXXXXXXXXXXXXXXXXXXXXXXXXXXXXXXXXXXXXXXX",
"XXXXXXXXXXXXXXXXXXXXXXXXXXXXXXXXXXXXXXXXXXXXXXXXXXXXXXX"
};
