/* XPM */
static char *_9419_2c084da2028716af06e9ed05aeddea71bbe3efdc17308994482860e310819ce0[] = {
/* columns rows colors chars-per-pixel */
"55 55 59 1 ",
"  c gray4",
". c #1D0E1D",
"X c #151519",
"o c #181818",
"O c #201F23",
"+ c #380B35",
"@ c #331F3F",
"# c #212123",
"$ c gray15",
"% c #272529",
"& c #2C2C2D",
"* c #2C2C37",
"= c #342936",
"- c #1D344B",
"; c #3B2E4D",
": c #363744",
"> c #3D3550",
", c #473844",
"< c #413F4D",
"1 c #4A3159",
"2 c #501F67",
"3 c #5B2568",
"4 c #2A4969",
"5 c #3D546A",
"6 c #47525A",
"7 c #63606E",
"8 c #65626D",
"9 c #3274A0",
"0 c #4E7787",
"q c #537DB3",
"w c #941F9D",
"e c #BA27AF",
"r c #A936A4",
"t c #AA33AD",
"y c #807C8A",
"u c #8F7C95",
"i c #987C94",
"p c #C868B6",
"a c #6E82A8",
"s c #4A9BDC",
"d c #52A2EA",
"f c #5DA1E9",
"g c #5DA5EF",
"h c #5CA9FE",
"j c #61B9EA",
"k c #63B4FE",
"l c #6FC0D5",
"z c #7BCADE",
"x c #7ED3E9",
"c c #71C8FF",
"v c #79D5FF",
"b c #96919C",
"n c #9C959B",
"m c #BF85B3",
"M c #AEA5AB",
"N c #BDB3B6",
"B c #E986D4",
"V c #F49BE3",
"C c #85E6FF",
/* pixels */
">>>>>>>>>>>>>>>>>>>>>>>>>>>>>>>>>>>>>>>>>>>>>>>>>>>>>>>",
">>>>>>>>>>>>>>>>>>>>>>>>>>>>>>>>>>>>>>>>>>>>>>>>>>>>>>>",
">>>>>>>>>>>>>>>>>>>>>>>>>>>>>>>>>>>>>>>>>>>>>>>>>>>>>>>",
">>>>>>>>>>>>>>>>>>>>>>>>>>>>>>>>>>>>>>>>>>>>>>>>>>>>>>>",
">>>>>>>>>>>>>>>>>>>>>>>>>>>>>>>>>>>>>>>>>>>>>>>>>>>>>>>",
">>>>>>>>>>>>>>>>>>>>>>>>>>>>>>>>>>>>>>>>>>>>>>>>>>>>>>>",
">>>>>>>>>>>>>>>>>>>>>>>>>>>>>>>>>>>>>>>>>>>>>>>>>>>>>>>",
">>>>>>>>>>>>>>>>>>>>>>>>>>>>>>>>>>>>>>>>>>>>>>>>>>>>>>>",
">>>>>>>>>>>>>>>>>>>>>>>>>>>>>>>>>>>>>>>>>>>>>>>>>>>>>>>",
">>>>>>>>>>>>>>>>>>>>>>>>>>>>>>>>>>>>>>>>>>>>>>>>>>>>>>>",
">>>>>>>>>>>>>>>>>>>>>>>>>>>>>>>>>>>>>>>>>>>>>>>>>>>>>>>",
">>>>>>>>>>>>>>>>>>>>>>>>>>>>>>>>>>>>>>>>>>>>>>>>>>>>>>>",
">>>>>>>>>>>>>>>>>>>>>>>>>>>>>>>>>>>>>>>>>>>>>>>>>>>>>>>",
">>>>>>>>>>>>>>>>>>>>>>>>>>>>>>>>>>>>>>>>>>>>>>>>>>>>>>>",
">>>>>>>>>>>>>>>>>>>>>>>>>>>>>>>>>>>>>>>>>>>>>>>>>>>>>>>",
">>>>>>>>>>>>>>>>>>>>>>>>>>>>>>>>>>>>>>>>>>>>>>>>>>>>>>>",
">>>>>>>>>>>>>>>>>>>>>>>>>>>>>>>>>>>>>>>>>>>>>>>>>>>>>>>",
">>>>>>>>>>>>>>>>>>>>>>>>>>>>>>>>>>>>>>>>>>>>>>>>>>>>>>>",
">>>>>>>>>>>>>>>>>>>>>>>>>>>>>>>>>>>>>>>>>>>>>>>>>>>>>>>",
">>>>>>>>>>>>>>>>>>>>>>>>>>>>>>>>>>>>>>>>>>>>>>>>>>>>>>>",
">>>>>>>>>>>>>>>>>>>>>>>>>>>>>>>>>>>>>>>>>>>>>>>>>>>>>>>",
">>>>>>>>>>>>>>>>>>>>>>>>>>>>>>>>>>>>>>>>>>>>>>>>>>>>>>>",
">>>>>>>>>>>>>>>>>>>>>>>444>>>>444>>>>>>>>>>>>>>>>>>>>>>",
">>>>>>>>>>>>>>>>>>>>>>4qCC4>>4CCq4>>>>>>>>>>>>>>>>>>>>>",
">>>>>>>>>>>>>>>>>>>>>4khCC4>>4CChk4>>>>>>>>>>>>>>>>>>>>",
">>>>>>>>>>>>>>>>>>>>4zCvCC->>5CCvCz4>>>>>>>>>>>>>>>>>>>",
">>>>>>>>>>>>>>>>>>>>4xCCClX%O&lCCCx4>>>>>>>>>>>>>>>>>>>",
">>>>>>>>>>>>>>>>>>>>4fks96nMy80kkkf4>>>>>>>>>>>>>>>>>>>",
">>>>>>>>>>>>>>>>>>>>4kkk.iNNmuagkkk4>>>>>>>>>>>>>>>>>>>",
">>>>>>>>>>>>>>>>>>>>4CCC,BbpVt<kkkk4>>>>>>>>>>>>>>>>>>>",
">>>>>>>>>>>>>>>>>>>>4Ccd+w7re3*4jkk4>>>>>>>>>>>>>>>>>>>",
">>>>>>>>>>>>>>>>>>>>>444=@:12;#>444>>>>>>>>>>>>>>>>>>>>",
">>>>>>>>>>>>>>>>>>>>>>>>>   oo$>>>>>>>>>>>>>>>>>>>>>>>>",
">>>>>>>>>>>>>>>>>>>>>>>>>>>>>>>>>>>>>>>>>>>>>>>>>>>>>>>",
">>>>>>>>>>>>>>>>>>>>>>>>>>>>>>>>>>>>>>>>>>>>>>>>>>>>>>>",
">>>>>>>>>>>>>>>>>>>>>>>>>>>>>>>>>>>>>>>>>>>>>>>>>>>>>>>",
">>>>>>>>>>>>>>>>>>>>>>>>>>>>>>>>>>>>>>>>>>>>>>>>>>>>>>>",
">>>>>>>>>>>>>>>>>>>>>>>>>>>>>>>>>>>>>>>>>>>>>>>>>>>>>>>",
">>>>>>>>>>>>>>>>>>>>>>>>>>>>>>>>>>>>>>>>>>>>>>>>>>>>>>>",
">>>>>>>>>>>>>>>>>>>>>>>>>>>>>>>>>>>>>>>>>>>>>>>>>>>>>>>",
">>>>>>>>>>>>>>>>>>>>>>>>>>>>>>>>>>>>>>>>>>>>>>>>>>>>>>>",
">>>>>>>>>>>>>>>>>>>>>>>>>>>>>>>>>>>>>>>>>>>>>>>>>>>>>>>",
">>>>>>>>>>>>>>>>>>>>>>>>>>>>>>>>>>>>>>>>>>>>>>>>>>>>>>>",
">>>>>>>>>>>>>>>>>>>>>>>>>>>>>>>>>>>>>>>>>>>>>>>>>>>>>>>",
">>>>>>>>>>>>>>>>>>>>>>>>>>>>>>>>>>>>>>>>>>>>>>>>>>>>>>>",
">>>>>>>>>>>>>>>>>>>>>>>>>>>>>>>>>>>>>>>>>>>>>>>>>>>>>>>",
">>>>>>>>>>>>>>>>>>>>>>>>>>>>>>>>>>>>>>>>>>>>>>>>>>>>>>>",
">>>>>>>>>>>>>>>>>>>>>>>>>>>>>>>>>>>>>>>>>>>>>>>>>>>>>>>",
">>>>>>>>>>>>>>>>>>>>>>>>>>>>>>>>>>>>>>>>>>>>>>>>>>>>>>>",
">>>>>>>>>>>>>>>>>>>>>>>>>>>>>>>>>>>>>>>>>>>>>>>>>>>>>>>",
">>>>>>>>>>>>>>>>>>>>>>>>>>>>>>>>>>>>>>>>>>>>>>>>>>>>>>>",
">>>>>>>>>>>>>>>>>>>>>>>>>>>>>>>>>>>>>>>>>>>>>>>>>>>>>>>",
">>>>>>>>>>>>>>>>>>>>>>>>>>>>>>>>>>>>>>>>>>>>>>>>>>>>>>>",
">>>>>>>>>>>>>>>>>>>>>>>>>>>>>>>>>>>>>>>>>>>>>>>>>>>>>>>",
">>>>>>>>>>>>>>>>>>>>>>>>>>>>>>>>>>>>>>>>>>>>>>>>>>>>>>>"
};
