/* XPM */
static char *_4330_dfcc543d1aab1e1aad9e5ad642c92d0a5fe6f6006e9afe8c0b4d0fce4b3eabcd[] = {
/* columns rows colors chars-per-pixel */
"55 55 50 1 ",
"  c gray4",
". c #1D0E1D",
"X c #151519",
"o c #181818",
"O c #201F23",
"+ c #380B35",
"@ c #212123",
"# c gray15",
"$ c #272529",
"% c #2C2C37",
"& c #342936",
"* c #3D3550",
"= c #473844",
"- c #5B2568",
"; c #42495A",
": c #63606E",
"> c #65626D",
", c #124E89",
"< c #487987",
"1 c #941F9D",
"2 c #BA27AF",
"3 c #A936A4",
"4 c #AA33AD",
"5 c #807C8A",
"6 c #8F7C95",
"7 c #987C94",
"8 c #648C9F",
"9 c #5689B1",
"0 c #4886D5",
"q c #5591DE",
"w c #5CA3CB",
"e c #56A0FE",
"r c #5CA9FE",
"t c #60AEFE",
"y c #63B4FE",
"u c #69BDFE",
"i c #6ABEFE",
"p c #6AC6EA",
"a c #7FD6ED",
"s c #78D2FF",
"d c #79D5FF",
"f c #7BD8FF",
"g c #7DDBFF",
"h c #96919C",
"j c #9C959B",
"k c #BF85B3",
"l c #AEA5AB",
"z c #BDB3B6",
"x c #86ADC0",
"c c #85E6FF",
/* pixels */
"*******************************************************",
"*******************************************************",
"*******************************************************",
"*******************************************************",
"*******************************************************",
"*******************************************************",
"*******************************************************",
"*******************************************************",
"*******************************************************",
"*******************************************************",
"*******************************************************",
"*******************************************************",
"*******************************************************",
"*******************************************************",
"*******************************************************",
"*******************************************************",
"*******************************************************",
"*******************************************************",
"*******************************************************",
"*******************************************************",
"*******************************************************",
"*******************************************************",
"***********************,********,**********************",
"**********************,c,******,c,*********************",
"*********************,fcf,****,fcf,********************",
"********************,qricp,**,pcirq,*******************",
"*******************,ccyre0X$O<ueryca,******************",
"*******************,cccgw;jl5>9sgccc,******************",
"********************,sss.7zzz6xfsss,*******************",
"********************,ets=1hk448fste,*******************",
"********************,dcc+1:32-%,ccd,*******************",
"********************,cc,&:::::@*,cc,*******************",
"*********************,,**   oo#**,,********************",
"*******************************************************",
"*******************************************************",
"*******************************************************",
"*******************************************************",
"*******************************************************",
"*******************************************************",
"*******************************************************",
"*******************************************************",
"*******************************************************",
"*******************************************************",
"*******************************************************",
"*******************************************************",
"*******************************************************",
"*******************************************************",
"*******************************************************",
"*******************************************************",
"*******************************************************",
"*******************************************************",
"*******************************************************",
"*******************************************************",
"*******************************************************",
"*******************************************************"
};
