/* XPM */
static char *_5907_b35fe32acd7d327b77eaff5484ef0308b39e59533384fcf81cd0236961555762[] = {
/* columns rows colors chars-per-pixel */
"55 55 68 1 ",
"  c gray4",
". c #1D0E1D",
"X c #151519",
"o c #181818",
"O c #201F23",
"+ c #380B35",
"@ c #331F3F",
"# c #212123",
"$ c gray15",
"% c #272529",
"& c #2C2C37",
"* c #353535",
"= c #3B2E4D",
"- c #363744",
"; c #3D3550",
": c #183465",
"> c #473844",
", c #413F4D",
"< c #4A3159",
"1 c #501F67",
"2 c #5B2568",
"3 c #385674",
"4 c #42495A",
"5 c #63606E",
"6 c #124E89",
"7 c #275C90",
"8 c #2460A0",
"9 c #537DB3",
"0 c #941F9D",
"q c #BA27AF",
"w c #A936A4",
"e c #AA33AD",
"r c #807C8A",
"t c #8F7C95",
"y c #987C94",
"u c #C868B6",
"i c #6E82A8",
"p c #63A8BB",
"a c #3680D4",
"s c #3C87DC",
"d c #568FC8",
"f c #5BA2D5",
"g c #68AEC1",
"h c #6FB4C6",
"j c #68AAD3",
"k c #6FB9DE",
"l c #5594E5",
"z c #5DA5EF",
"x c #56A0FE",
"c c #5CA9FE",
"v c #5EABFE",
"b c #63B4FE",
"n c #69BDFE",
"m c #6ABEFE",
"M c #7FD6ED",
"N c #71C8FF",
"B c #72C9FF",
"V c #79D5FF",
"C c #7BD8FF",
"Z c #96919C",
"A c #9C959B",
"S c #8091A1",
"D c #BF85B3",
"F c #AEA5AB",
"G c #BDB3B6",
"H c #E986D4",
"J c #F49BE3",
"K c #85E6FF",
/* pixels */
";;;;;;;;;;;;;;;;;;;;;;;;;;;;;;;;;;;;;;;;;;;;;;;;;;;;;;;",
";;;;;;;;;;;;;;;;;;;;;;;;;;;;;;;;;;;;;;;;;;;;;;;;;;;;;;;",
";;;;;;;;;;;;;;;;;;;;;;;;;;;;;;;;;;;;;;;;;;;;;;;;;;;;;;;",
";;;;;;;;;;;;;;;;;;;;;;;;;;;;;;;;;;;;;;;;;;;;;;;;;;;;;;;",
";;;;;;;;;;;;;;;;;;;;;;;;;;;;;;;;;;;;;;;;;;;;;;;;;;;;;;;",
";;;;;;;;;;;;;;;;;;;;;;;;;;;;;;;;;;;;;;;;;;;;;;;;;;;;;;;",
";;;;;;;;;;;;;;;;;;;;;;;;;;;;;;;;;;;;;;;;;;;;;;;;;;;;;;;",
";;;;;;;;;;;;;;;;;;;;;;;;;;;;;;;;;;;;;;;;;;;;;;;;;;;;;;;",
";;;;;;;;;;;;;;;;;;;;;;;;;;;;;;;;;;;;;;;;;;;;;;;;;;;;;;;",
";;;;;;;;;;;;;;;;;;;;;;;;;;;;;;;;;;;;;;;;;;;;;;;;;;;;;;;",
";;;;;;;;;;;;;;;;;;;;;;;;;;;;;;;;;;;;;;;;;;;;;;;;;;;;;;;",
";;;;;;;;;;;;;;;;;;;;;;;;;;;;;;;;;;;;;;;;;;;;;;;;;;;;;;;",
";;;;;;;;;;;;;;;;;;;;;;;;;;;;;;;;;;;;;;;;;;;;;;;;;;;;;;;",
";;;;;;;;;;;;;;;;;;;;;;;;;;;;;;;;;;;;;;;;;;;;;;;;;;;;;;;",
";;;;;;;;;;;;;;;;;;;;;;;;;;;;;;;;;;;;;;;;;;;;;;;;;;;;;;;",
";;;;;;;;;;;;;;;;;;;;;;;;;;;;;;;;;;;;;;;;;;;;;;;;;;;;;;;",
";;;;;;;;;;;;;;;;;;;;;;;;;;;;;;;;;;;;;;;;;;;;;;;;;;;;;;;",
";;;;;;;;;;;;;;;;;;;;;;;;;;;;;;;;;;;;;;;;;;;;;;;;;;;;;;;",
";;;;;;;;;;;;;;;;;;;;;;;;;;;;;;;;;;;;;;;;;;;;;;;;;;;;;;;",
";;;;;;;;;;;;;;;;;;;;;;;;;;;;;;;;;;;;;;;;;;;;;;;;;;;;;;;",
";;;;;;;;;;;;;;;;;;;;;;;;;;;;;;;;;;;;;;;;;;;;;;;;;;;;;;;",
";;;;;;;;;;;;;;;;;;;;;;;;66;;;;66;;;;;;;;;;;;;;;;;;;;;;;",
";;;;;;;;;;;;;;;;;;;;;;;6Kj;;;;jK6;;;;;;;;;;;;;;;;;;;;;;",
";;;;;;;;;;;;;;;;;;;;;6xnKK6;;6KKnx6;;;;;;;;;;;;;;;;;;;;",
";;;;;;;;;;;;;;;;;;;;;9xxBK7;;7KBxx6;;;;;;;;;;;;;;;;;;;;",
";;;;;;;;;;;;;;;;;;;;6xxxxfX%OpNxxxx6;;;;;;;;;;;;;;;;;;;",
";;;;;;;;;;;;;;;;;;;;xxxs84AFrSvasxxl;;;;;;;;;;;;;;;;;;;",
";;;;;;;;;;;;;;;;;;;6KKbb.yGGDtizbbKM6;;;;;;;;;;;;;;;;;;",
";;;;;;;;;;;;;;;;;;;6KKKK>HZuJe,dBKKK6;;;;;;;;;;;;;;;;;;",
";;;;;;;;;;;;;;;;;;;;6kcm+05wq2&gmck6;;;;;;;;;;;;;;;;;;;",
";;;;;;;;;;;;;;;;;;;;;6CK:@-<1=#hKC6;;;;;;;;;;;;;;;;;;;;",
";;;;;;;;;;;;;;;;;;;;;;6V3*  oo$6V6;;;;;;;;;;;;;;;;;;;;;",
";;;;;;;;;;;;;;;;;;;;;;;6;;;;;;;;6;;;;;;;;;;;;;;;;;;;;;;",
";;;;;;;;;;;;;;;;;;;;;;;;;;;;;;;;;;;;;;;;;;;;;;;;;;;;;;;",
";;;;;;;;;;;;;;;;;;;;;;;;;;;;;;;;;;;;;;;;;;;;;;;;;;;;;;;",
";;;;;;;;;;;;;;;;;;;;;;;;;;;;;;;;;;;;;;;;;;;;;;;;;;;;;;;",
";;;;;;;;;;;;;;;;;;;;;;;;;;;;;;;;;;;;;;;;;;;;;;;;;;;;;;;",
";;;;;;;;;;;;;;;;;;;;;;;;;;;;;;;;;;;;;;;;;;;;;;;;;;;;;;;",
";;;;;;;;;;;;;;;;;;;;;;;;;;;;;;;;;;;;;;;;;;;;;;;;;;;;;;;",
";;;;;;;;;;;;;;;;;;;;;;;;;;;;;;;;;;;;;;;;;;;;;;;;;;;;;;;",
";;;;;;;;;;;;;;;;;;;;;;;;;;;;;;;;;;;;;;;;;;;;;;;;;;;;;;;",
";;;;;;;;;;;;;;;;;;;;;;;;;;;;;;;;;;;;;;;;;;;;;;;;;;;;;;;",
";;;;;;;;;;;;;;;;;;;;;;;;;;;;;;;;;;;;;;;;;;;;;;;;;;;;;;;",
";;;;;;;;;;;;;;;;;;;;;;;;;;;;;;;;;;;;;;;;;;;;;;;;;;;;;;;",
";;;;;;;;;;;;;;;;;;;;;;;;;;;;;;;;;;;;;;;;;;;;;;;;;;;;;;;",
";;;;;;;;;;;;;;;;;;;;;;;;;;;;;;;;;;;;;;;;;;;;;;;;;;;;;;;",
";;;;;;;;;;;;;;;;;;;;;;;;;;;;;;;;;;;;;;;;;;;;;;;;;;;;;;;",
";;;;;;;;;;;;;;;;;;;;;;;;;;;;;;;;;;;;;;;;;;;;;;;;;;;;;;;",
";;;;;;;;;;;;;;;;;;;;;;;;;;;;;;;;;;;;;;;;;;;;;;;;;;;;;;;",
";;;;;;;;;;;;;;;;;;;;;;;;;;;;;;;;;;;;;;;;;;;;;;;;;;;;;;;",
";;;;;;;;;;;;;;;;;;;;;;;;;;;;;;;;;;;;;;;;;;;;;;;;;;;;;;;",
";;;;;;;;;;;;;;;;;;;;;;;;;;;;;;;;;;;;;;;;;;;;;;;;;;;;;;;",
";;;;;;;;;;;;;;;;;;;;;;;;;;;;;;;;;;;;;;;;;;;;;;;;;;;;;;;",
";;;;;;;;;;;;;;;;;;;;;;;;;;;;;;;;;;;;;;;;;;;;;;;;;;;;;;;",
";;;;;;;;;;;;;;;;;;;;;;;;;;;;;;;;;;;;;;;;;;;;;;;;;;;;;;;"
};
