/* XPM */
static char *_154_e690a99f1d1f8f63e669ca860cade7918b1295f05e5dd55adfcab1636f9610a7[] = {
/* columns rows colors chars-per-pixel */
"74 74 5 1 ",
"  c #3D3550",
". c #EA9744",
"X c #F9D369",
"o c #FEF297",
"O c #FFFDBE",
/* pixels */
"                                                                          ",
"                                                                          ",
"                                                                          ",
"                                                                          ",
"                                                                          ",
"                                                                          ",
"                                                                          ",
"                                                                          ",
"                                                                          ",
"                                                                          ",
"                                                                          ",
"                                                                          ",
"                                                                          ",
"                                                                          ",
"                                                                          ",
"                                                                          ",
"                                                                          ",
"                                                                          ",
"                                                                          ",
"                                                                          ",
"                                                                          ",
"                                                                          ",
"                                                                          ",
"                                                                          ",
"                                                                          ",
"                                                                          ",
"                                                                          ",
"                                                                          ",
"                   OOOOOOOOoooXXXXXXXXXXXXXXXXXXXXXXXXX                   ",
"                    OOOOOOooo........................X                    ",
"                   OOOOOOoooXXXXXXXXXXXXXXXXXXXXXXXX..X                   ",
"                    OOOOoooXXXXXXXXXXXXXXXXXXXXXXXXX.X                    ",
"                   OOOOoooXXXXXXXXXXXXXXXXXXXXXXXXXX..X                   ",
"                   OOOOooo      XXX    XXXXXXXXX XXX.XX                   ",
"                     OoooX      XXX    XXXXXXXX XXX.X                     ",
"                      ooXXXXXX  X  XXXX  X  XXX XX.X                      ",
"                      ooXXXXXX  X  XXXX  X  XX XXX.X                      ",
"                      o.XXXX  XXX  XXXX  XXXX XXXX.X                      ",
"                      X.XXXX  XXX  XXXX  XXXX XXXX.X                      ",
"                      X.XXXX  XXX  XXXX  XXX XX  X.X                      ",
"                     X.XXX  XXXXXXX    XXXX XXX  XX.X                     ",
"                   XX.XXXX  XXXXXXX    XXXX XXXXXXXX.XX                   ",
"                   X..XXXXXXXXXXXXXXXXXXXXXXXXXXXXXX..X                   ",
"                    X.XXXXXXXXXXXXXXXXXXXXXXXXXXXXXX.X                    ",
"                   X..XXXXXXXXXXXXXXXXXXXXXXXXXXXXXX..X                   ",
"                   XX................................X                    ",
"                   XXXXXXXXXXXXXXXXXXXXXXXXXXXXXXXXXXXX                   ",
"                                                                          ",
"                                                                          ",
"                                                                          ",
"                                                                          ",
"                                                                          ",
"                                                                          ",
"                                                                          ",
"                                                                          ",
"                                                                          ",
"                                                                          ",
"                                                                          ",
"                                                                          ",
"                                                                          ",
"                                                                          ",
"                                                                          ",
"                                                                          ",
"                                                                          ",
"                                                                          ",
"                                                                          ",
"                                                                          ",
"                                                                          ",
"                                                                          ",
"                                                                          ",
"                                                                          ",
"                                                                          ",
"                                                                          ",
"                                                                          "
};
