/* XPM */
static char *_134_af04d435dd1c03044fd205b51c36c97a0b40330f6f8d23abc07b9f16b762976f[] = {
/* columns rows colors chars-per-pixel */
"74 74 3 1 ",
"  c #3D3550",
". c #EA9744",
"X c #F9D369",
/* pixels */
"                                                                          ",
"                                                                          ",
"                                                                          ",
"                                                                          ",
"                                                                          ",
"                                                                          ",
"                                                                          ",
"                                                                          ",
"                                                                          ",
"                                                                          ",
"                                                                          ",
"                                                                          ",
"                                                                          ",
"                                                                          ",
"                                                                          ",
"                                                                          ",
"                                                                          ",
"                                                                          ",
"                                                                          ",
"                                                                          ",
"                                                                          ",
"                                                                          ",
"                                                                          ",
"                                                                          ",
"                                                                          ",
"                                                                          ",
"                                                                          ",
"                                                                          ",
"                                                                          ",
"                                                                          ",
"                   XXXXXXXXXXXXXXXXXXXXXXXXXXXXXXXXXXXX                   ",
"                    X................................X                    ",
"                   X..XXXXXXXXXXXXXXXXXXXXXXXXXXXXXX..X                   ",
"                    X.XXXXXXXXXXXXXXXXXXXXXXXXXXXXXX.X                    ",
"                   X..XXXXXXXXXXXXXXXXXXXXXXXXXXXXXX..X                   ",
"                   XX.XXXX      XXX    XXXXXXXXX XXX.XX                   ",
"                     X.XXX      XXX    XXXXXXXX XXX.X                     ",
"                      X.XXXXXX  X  XXXX  X  XXX XX.X                      ",
"                      X.XXXXXX  X  XXXX  X  XX XXX.X                      ",
"                      X.XXXX  XXX  XXXX  XXXX XXXX.X                      ",
"                      X.XXXX  XXX  XXXX  XXXX XXXX.X                      ",
"                      X.XXXX  XXX  XXXX  XXX XX  X.X                      ",
"                     X.XXX  XXXXXXX    XXXX XXX  XX.X                     ",
"                   XX.XXXX  XXXXXXX    XXXX XXXXXXXX.XX                   ",
"                   X..XXXXXXXXXXXXXXXXXXXXXXXXXXXXXX..X                   ",
"                    X.XXXXXXXXXXXXXXXXXXXXXXXXXXXXXX.X                    ",
"                   X..XXXXXXXXXXXXXXXXXXXXXXXXXXXXXX..X                   ",
"                    X................................X                    ",
"                   XXXXXXXXXXXXXXXXXXXXXXXXXXXXXXXXXXXX                   ",
"                                                                          ",
"                                                                          ",
"                                                                          ",
"                                                                          ",
"                                                                          ",
"                                                                          ",
"                                                                          ",
"                                                                          ",
"                                                                          ",
"                                                                          ",
"                                                                          ",
"                                                                          ",
"                                                                          ",
"                                                                          ",
"                                                                          ",
"                                                                          ",
"                                                                          ",
"                                                                          ",
"                                                                          ",
"                                                                          ",
"                                                                          ",
"                                                                          ",
"                                                                          ",
"                                                                          ",
"                                                                          "
};
