/* XPM */
static char *_0453_fb34709122ee7357d07d063784ccd4b625f54642ef733e381a8846b127ef1fb4[] = {
/* columns rows colors chars-per-pixel */
"74 74 5 1 ",
"  c #3D3550",
". c #EA9744",
"X c #F9D369",
"o c #FEF297",
"O c #FFFDBE",
/* pixels */
"                                                                          ",
"                                                                          ",
"                                                                          ",
"                                                                          ",
"                                                                          ",
"                                                                          ",
"                                                                          ",
"                                                                          ",
"                                                                          ",
"                                                                          ",
"                                                                          ",
"                                                                          ",
"                                                                          ",
"                                                                          ",
"                                                                          ",
"                                                                          ",
"                                                                          ",
"                                                                          ",
"                                                                          ",
"                                                                          ",
"                                                                          ",
"                                                                          ",
"                                                                          ",
"                                                                          ",
"                                                                          ",
"                                                                          ",
"                                                                          ",
"                                                                          ",
"                   XXXXXXXXXXXXXooOOOOOOOOOooXXXXXXXXXX                   ",
"                    X..........ooOOOOOOOOOooo........X                    ",
"                   X..XXXXXXXXooOOOOOOOOOoooXXXXXXXX..X                   ",
"                    X.XXXXXXXooOOOOOOOOOOooXXXXXXXXX.X                    ",
"                   X..XXXXXXoooOOOOOOOOOooXXXXXXXXXX..X                   ",
"                   XX.XXXX      OOO    ooXXXXXXX XXX.XX                   ",
"                     X.XXX      OOO    ooXXXXXX XXX.X                     ",
"                      X.XXooOO  O  OOoo  X  XXX XX.X                      ",
"                      X.XooOOO  O  Oooo  X  XX XXX.X                      ",
"                      X.XooO  OOO  oooX  XXXX XXXX.X                      ",
"                      X.ooOO  OOO  ooXX  XXXX XXXX.X                      ",
"                      X.ooOO  OOO  ooXX  XXX XX  X.X                      ",
"                     X.ooO  OOOOOOo    XXXX XXX  XX.X                     ",
"                   XX.XoOO  OOOOOoo    XXXX XXXXXXXX.XX                   ",
"                   X..ooOOOOOOOOoooXXXXXXXXXXXXXXXXX..X                   ",
"                    XooOOOOOOOOoooXXXXXXXXXXXXXXXXXX.X                    ",
"                   XooOOOOOOOOOooXXXXXXXXXXXXXXXXXXX..X                   ",
"                   ooOOOOOOOOOoo.....................X                    ",
"                   ooOOOOOOOOoooXXXXXXXXXXXXXXXXXXXXXXX                   ",
"                                                                          ",
"                                                                          ",
"                                                                          ",
"                                                                          ",
"                                                                          ",
"                                                                          ",
"                                                                          ",
"                                                                          ",
"                                                                          ",
"                                                                          ",
"                                                                          ",
"                                                                          ",
"                                                                          ",
"                                                                          ",
"                                                                          ",
"                                                                          ",
"                                                                          ",
"                                                                          ",
"                                                                          ",
"                                                                          ",
"                                                                          ",
"                                                                          ",
"                                                                          ",
"                                                                          ",
"                                                                          ",
"                                                                          ",
"                                                                          "
};
