/* XPM */
static char *_4862_40aca03ca0bb495f1a06dbd1c9f4a355e09a5a3fb333651d3ebb6eb3a3522395[] = {
/* columns rows colors chars-per-pixel */
"74 74 6 1 ",
"  c #3D3550",
". c #EA9744",
"X c #F9D369",
"o c #EBD071",
"O c #FEF297",
"+ c #FFFDBE",
/* pixels */
"                                                                          ",
"                                                                          ",
"                                                                          ",
"                                                                          ",
"                                                                          ",
"                                                                          ",
"                                                                          ",
"                                                                          ",
"                                                                          ",
"                                                                          ",
"                                                                          ",
"                                                                          ",
"                                                                          ",
"                                                                          ",
"                                                                          ",
"                                                                          ",
"                                                                          ",
"                                                                          ",
"                                                                          ",
"                                                                          ",
"                                                                          ",
"                                                                          ",
"                                                                          ",
"                                                                          ",
"                                                                          ",
"                                                                          ",
"                                                                          ",
"                                                                          ",
"                                                                          ",
"                                                                          ",
"                   XXXXXXXXXXXXXXXXXXXXXXXXXXXXOOO+++++                   ",
"                    X.........................OOO+++++                    ",
"                   X..XXXXXXXXXXXXXXXXXXXXXXXOOO+++++++                   ",
"                    X.XXXXXXXXXXXXXXXXXXXXXXoOOO++++++                    ",
"                   X..XXXXXXXXXXXXXXXXXXXXXoOOO++++++++                   ",
"                   XX.XXXX      XXX    XXXoOOO++ ++++++                   ",
"                     X.XXX      XXX    XXXXOOO+ +++++                     ",
"                      X.XXXXXX  X  XXXX  X  O++ ++++                      ",
"                      X.XXXXXX  X  XXXX  X  ++ +++++                      ",
"                      X.XXXX  XXX  XXXX  OO++ ++++++                      ",
"                      X.XXXX  XXX  XXXX  OO++ ++++++                      ",
"                      X.XXXX  XXX  XXXX  O++ ++  +++                      ",
"                     X.XXX  XXXXXXX    OO++ +++  ++++                     ",
"                   XX.XXXX  XXXXXXX    O+++ ++++++++OOX                   ",
"                   X..XXXXXXXXXXXXXXOOO+++++++++++++OOX                   ",
"                    X.XXXXXXXXXXXXXXOO+++++++++++++OOX                    ",
"                   X..XXXXXXXXXXXXXOO+++++++++++++OO..X                   ",
"                    X.............OOO+++++++++++++OO.X                    ",
"                   XXXXXXXXXXXXXXXOO+++++++++++++OOXXXX                   ",
"                                                                          ",
"                                                                          ",
"                                                                          ",
"                                                                          ",
"                                                                          ",
"                                                                          ",
"                                                                          ",
"                                                                          ",
"                                                                          ",
"                                                                          ",
"                                                                          ",
"                                                                          ",
"                                                                          ",
"                                                                          ",
"                                                                          ",
"                                                                          ",
"                                                                          ",
"                                                                          ",
"                                                                          ",
"                                                                          ",
"                                                                          ",
"                                                                          ",
"                                                                          ",
"                                                                          ",
"                                                                          "
};
