/* XPM */
static char *_4575_9c72903de649eb418ce3c23067132fd277b6a173d37937b3489ba9d8a91fec08[] = {
/* columns rows colors chars-per-pixel */
"74 74 12 1 ",
"  c black",
". c #421F17",
"X c #774030",
"o c #3D3550",
"O c #764D51",
"+ c #B28C3D",
"@ c #DCAF4E",
"# c #D3936A",
"$ c #999CA3",
"% c #F2D4B5",
"& c #CED0D3",
"* c #E9EAEC",
/* pixels */
"oooooooooooooooooooooooooooooooooooooooooooooooooooooooooooooooooooooooooo",
"oooooooooooooooooooooooooooooooooooooooooooooooooooooooooooooooooooooooooo",
"oooooooooooooooooooooooooooooooooooooooooooooooooooooooooooooooooooooooooo",
"oooooooooooooooooooooooooooooooooooooooooooooooooooooooooooooooooooooooooo",
"oooooooooooooooooooooooooooooooooooooooooooooooooooooooooooooooooooooooooo",
"oooooooooooooooooooooooooooooooooooooooooooooooooooooooooooooooooooooooooo",
"oooooooooooooooooooooooooooooooooooooooooooooooooooooooooooooooooooooooooo",
"oooooooooooooooooooooooooooooooooooooooooooooooooooooooooooooooooooooooooo",
"oooooooooooooooooooooooooooooooooooooooooooooooooooooooooooooooooooooooooo",
"oooooooooooooooooooooooooooooooooooooooooooooooooooooooooooooooooooooooooo",
"oooooooooooooooooooooooooooooooooooooooooooooooooooooooooooooooooooooooooo",
"oooooooooooooooooooooooooooooooooooooooooooooooooooooooooooooooooooooooooo",
"oooooooooooooooooooooooooooooooooooooooooooooooooooooooooooooooooooooooooo",
"oooooooooooooooooooooooooooooooooooooooooooooooooooooooooooooooooooooooooo",
"oooooooooooooooooooooooooooooooooooooooooooooooooooooooooooooooooooooooooo",
"oooooooooooooooooooooooooooooooooooooooooooooooooooooooooooooooooooooooooo",
"oooooooooooooooooooooooooooooooooooooooooooooooooooooooooooooooooooooooooo",
"oooooooooooooooooooooooooooooooooooo    oooooooooooooooooooooooooooooooooo",
"oooooooooooooooooooooooooooooooooo  ####  oooooooooooooooooooooooooooooooo",
"ooooooooooooooooooooooooooooooooo O#%%%%#O ooooooooooooooooooooooooooooooo",
"oooooooooooooooooooooooooooooooo O#%%%%%%#O oooooooooooooooooooooooooooooo",
"oooooooooooooooooooooooooooooooo #%%%%%%%%# oooooooooooooooooooooooooooooo",
"ooooooooooooooooooooooooooooooo O#%%%%%%%%#O ooooooooooooooooooooooooooooo",
"ooooooooooooooooooooooooooooooo O#%%%%%%%%#O ooooooooooooooooooooooooooooo",
"ooooooooooooooooooooooooooooooo O#%%%%%%%%#O ooooooooooooooooooooooooooooo",
"ooooooooooooooooooooooooooooooo O#%%%%%%%%#O ooooooooooooooooooooooooooooo",
"ooooooooooooooooooooooooooooooo O##%%%%%%##O ooooooooooooooooooooooooooooo",
"ooooooooooooooooooooooooooooooo O###%%%%###O ooooooooooooooooooooooooooooo",
"oooooooooooooooooooooooooooooooo ########## oooooooooooooooooooooooooooooo",
"oooooooooooooooooooooooooooooooo O########O oooooooooooooooooooooooooooooo",
"ooooooooooooooooooooooooooooooooo O######O ooooooooooooooooooooooooooooooo",
"oooooooooooooooooooooooooooooooooo O####O oooooooooooooooooooooooooooooooo",
"oooooooooooooooooooooooooooooooo    OOOO    oooooooooooooooooooooooooooooo",
"ooooooooooooooooooooooooooooooo &*******&&&& ooooooooooooooooooooooooooooo",
"oooooooooooooooooooooooooooooo $&******&&&&$$ oooooooooooooooooooooooooooo",
"oooooooooooooooooooooooooooooo $$&****&&&&$&& oooooooooooooooooooooooooooo",
"ooooooooooooooooooooooooooooo @ $$&***&&&$&& @ ooooooooooooooooooooooooooo",
"ooooooooooooooooooooooooooooo @ &$&***&&&&&& @ ooooooooooooooooooooooooooo",
"oooooooooooooooooooooooooooo +@ &&&&***&&&&& @+ oooooooooooooooooooooooooo",
"oooooooooooooooooooooooooooo ++ &&&&*&*&&&&& @+ oooooooooooooooooooooooooo",
"oooooooooooooooooooooooooooo ++ &&&&***&&&&& ++ oooooooooooooooooooooooooo",
"oooooooooooooooooooooooooooo + &&&&***&&&**& ++ oooooooooooooooooooooooooo",
"ooooooooooooooooooooooooooooo &&&&***&&&&**&&  ooooooooooooooooooooooooooo",
"ooooooooooooooooooooooooooooo &&&****&&&***&& oooooooooooooooooooooooooooo",
"ooooooooooooooooooooooooooooo &&&****&&****&& oooooooooooooooooooooooooooo",
"ooooooooooooooooooooooooooooo &&****&&&*****& oooooooooooooooooooooooooooo",
"ooooooooooooooooooooooooooooo &&****&&&*****& oooooooooooooooooooooooooooo",
"ooooooooooooooooooooooooooooo &&****&&******* oooooooooooooooooooooooooooo",
"ooooooooooooooooooooooooooooo &*****&&******* oooooooooooooooooooooooooooo",
"oooooooooooooooooooooooooooo &&****&&********* ooooooooooooooooooooooooooo",
"oooooooooooooooooooooooooooo &*****&****     * ooooooooooooooooooooooooooo",
"oooooooooooooooooooooooooooo &****&&&   XX oo  ooooooooooooooooooooooooooo",
"oooooooooooooooooooooooooooo &*      oo XX ooooooooooooooooooooooooooooooo",
"oooooooooooooooooooooooooooo   oo XX oo .. ooooooooooooooooooooooooooooooo",
"ooooooooooooooooooooooooooooooooo XX oo .. ooooooooooooooooooooooooooooooo",
"ooooooooooooooooooooooooooooooooo XX ooooooooooooooooooooooooooooooooooooo",
"ooooooooooooooooooooooooooooooooo XX ooooooooooooooooooooooooooooooooooooo",
"oooooooooooooooooooooooooooooooooooooooooooooooooooooooooooooooooooooooooo",
"oooooooooooooooooooooooooooooooooooooooooooooooooooooooooooooooooooooooooo",
"oooooooooooooooooooooooooooooooooooooooooooooooooooooooooooooooooooooooooo",
"oooooooooooooooooooooooooooooooooooooooooooooooooooooooooooooooooooooooooo",
"oooooooooooooooooooooooooooooooooooooooooooooooooooooooooooooooooooooooooo",
"oooooooooooooooooooooooooooooooooooooooooooooooooooooooooooooooooooooooooo",
"oooooooooooooooooooooooooooooooooooooooooooooooooooooooooooooooooooooooooo",
"oooooooooooooooooooooooooooooooooooooooooooooooooooooooooooooooooooooooooo",
"oooooooooooooooooooooooooooooooooooooooooooooooooooooooooooooooooooooooooo",
"oooooooooooooooooooooooooooooooooooooooooooooooooooooooooooooooooooooooooo",
"oooooooooooooooooooooooooooooooooooooooooooooooooooooooooooooooooooooooooo",
"oooooooooooooooooooooooooooooooooooooooooooooooooooooooooooooooooooooooooo",
"oooooooooooooooooooooooooooooooooooooooooooooooooooooooooooooooooooooooooo",
"oooooooooooooooooooooooooooooooooooooooooooooooooooooooooooooooooooooooooo",
"oooooooooooooooooooooooooooooooooooooooooooooooooooooooooooooooooooooooooo",
"oooooooooooooooooooooooooooooooooooooooooooooooooooooooooooooooooooooooooo",
"oooooooooooooooooooooooooooooooooooooooooooooooooooooooooooooooooooooooooo"
};
