/* XPM */
static char *_893_0235e1244f019fa443ddb396d0d2e006e7ea4c1ab5e5d552ed70f9a45df7d506[] = {
/* columns rows colors chars-per-pixel */
"74 74 13 1 ",
"  c black",
". c #421F17",
"X c #774030",
"o c #3D3550",
"O c #764D51",
"+ c #9F5542",
"@ c #B28C3D",
"# c #DCAF4E",
"$ c #D3936A",
"% c #999CA3",
"& c #F2D4B5",
"* c #CED0D3",
"= c #E9EAEC",
/* pixels */
"oooooooooooooooooooooooooooooooooooooooooooooooooooooooooooooooooooooooooo",
"oooooooooooooooooooooooooooooooooooooooooooooooooooooooooooooooooooooooooo",
"oooooooooooooooooooooooooooooooooooooooooooooooooooooooooooooooooooooooooo",
"oooooooooooooooooooooooooooooooooooooooooooooooooooooooooooooooooooooooooo",
"oooooooooooooooooooooooooooooooooooooooooooooooooooooooooooooooooooooooooo",
"oooooooooooooooooooooooooooooooooooooooooooooooooooooooooooooooooooooooooo",
"oooooooooooooooooooooooooooooooooooooooooooooooooooooooooooooooooooooooooo",
"oooooooooooooooooooooooooooooooooooooooooooooooooooooooooooooooooooooooooo",
"oooooooooooooooooooooooooooooooooooooooooooooooooooooooooooooooooooooooooo",
"oooooooooooooooooooooooooooooooooooooooooooooooooooooooooooooooooooooooooo",
"oooooooooooooooooooooooooooooooooooooooooooooooooooooooooooooooooooooooooo",
"oooooooooooooooooooooooooooooooooooooooooooooooooooooooooooooooooooooooooo",
"oooooooooooooooooooooooooooooooooooooooooooooooooooooooooooooooooooooooooo",
"oooooooooooooooooooooooooooooooooooooooooooooooooooooooooooooooooooooooooo",
"oooooooooooooooooooooooooooooooooooooooooooooooooooooooooooooooooooooooooo",
"oooooooooooooooooooooooooooooooooooooooooooooooooooooooooooooooooooooooooo",
"oooooooooooooooooooooooooooooooooooo    oooooooooooooooooooooooooooooooooo",
"oooooooooooooooooooooooooooooooooo  $$$$  oooooooooooooooooooooooooooooooo",
"ooooooooooooooooooooooooooooooooo O$&&&&$O ooooooooooooooooooooooooooooooo",
"oooooooooooooooooooooooooooooooo O$&&&&&&$O oooooooooooooooooooooooooooooo",
"oooooooooooooooooooooooooooooooo $&&&&&&&&$ oooooooooooooooooooooooooooooo",
"ooooooooooooooooooooooooooooooo O$&&&&&&&&$O ooooooooooooooooooooooooooooo",
"ooooooooooooooooooooooooooooooo O$&&&&&&&&$O ooooooooooooooooooooooooooooo",
"ooooooooooooooooooooooooooooooo O$&&&&&&&&$O ooooooooooooooooooooooooooooo",
"ooooooooooooooooooooooooooooooo O$&&&&&&&&$O ooooooooooooooooooooooooooooo",
"ooooooooooooooooooooooooooooooo O$$&&&&&&$$O ooooooooooooooooooooooooooooo",
"ooooooooooooooooooooooooooooooo O$$$&&&&$$$O ooooooooooooooooooooooooooooo",
"oooooooooooooooooooooooooooooooo $$$$$$$$$$ oooooooooooooooooooooooooooooo",
"oooooooooooooooooooooooooooooooo O$$$$$$$$O oooooooooooooooooooooooooooooo",
"ooooooooooooooooooooooooooooooooo O$$$$$$O ooooooooooooooooooooooooooooooo",
"oooooooooooooooooooooooooooooooooo O$$$$O oooooooooooooooooooooooooooooooo",
"oooooooooooooooooooooooooooooooo    OOOO    oooooooooooooooooooooooooooooo",
"ooooooooooooooooooooooooooooooo *=======**** ooooooooooooooooooooooooooooo",
"oooooooooooooooooooooooooooooo %*======****%% oooooooooooooooooooooooooooo",
"oooooooooooooooooooooooooooooo %%*====****%%% oooooooooooooooooooooooooooo",
"ooooooooooooooooooooooooooooo # %**===***%%* @ ooooooooooooooooooooooooooo",
"ooooooooooooooooooooooooooooo # %%*==****%** @ ooooooooooooooooooooooooooo",
"ooooooooooooooooooooooooooooo # *%%=******** @ ooooooooooooooooooooooooooo",
"ooooooooooooooooooooooooooooo ## *%****==***  oooooooooooooooooooooooooooo",
"oooooooooooooooooooooooooooo @@@ *****====** ooooooooooooooooooooooooooooo",
"oooooooooooooooooooooooooooo @@@ *****====*** oooooooooooooooooooooooooooo",
"ooooooooooooooooooooooooooo ++@ *****======** oooooooooooooooooooooooooooo",
"ooooooooooooooooooooooooooo +++ ****========* oooooooooooooooooooooooooooo",
"ooooooooooooooooooooooooooo XXX ***========== oooooooooooooooooooooooooooo",
"ooooooooooooooooooooooooooo XXX ***========== oooooooooooooooooooooooooooo",
"oooooooooooooooooooooooooooo   ***===========* ooooooooooooooooooooooooooo",
"ooooooooooooooooooooooooooooo ***=======   =*** oooooooooooooooooooooooooo",
"ooooooooooooooooooooooooooooo **======= +++     oooooooooooooooooooooooooo",
"oooooooooooooooooooooooooooo ***====**  +++ oooooooooooooooooooooooooooooo",
"oooooooooooooooooooooooooooo **=====* o +++ oooooooooooooooooooooooooooooo",
"oooooooooooooooooooooooooooo *======* o +++ oooooooooooooooooooooooooooooo",
"oooooooooooooooooooooooooooo *====*** o +++ oooooooooooooooooooooooooooooo",
"ooooooooooooooooooooooooooo **===*    o +++ oooooooooooooooooooooooooooooo",
"ooooooooooooooooooooooooooo **    .. ooo   ooooooooooooooooooooooooooooooo",
"oooooooooooooooooooooooooooo  ooo .. ooooooooooooooooooooooooooooooooooooo",
"ooooooooooooooooooooooooooooooooo .. ooooooooooooooooooooooooooooooooooooo",
"oooooooooooooooooooooooooooooooooo  oooooooooooooooooooooooooooooooooooooo",
"oooooooooooooooooooooooooooooooooooooooooooooooooooooooooooooooooooooooooo",
"oooooooooooooooooooooooooooooooooooooooooooooooooooooooooooooooooooooooooo",
"oooooooooooooooooooooooooooooooooooooooooooooooooooooooooooooooooooooooooo",
"oooooooooooooooooooooooooooooooooooooooooooooooooooooooooooooooooooooooooo",
"oooooooooooooooooooooooooooooooooooooooooooooooooooooooooooooooooooooooooo",
"oooooooooooooooooooooooooooooooooooooooooooooooooooooooooooooooooooooooooo",
"oooooooooooooooooooooooooooooooooooooooooooooooooooooooooooooooooooooooooo",
"oooooooooooooooooooooooooooooooooooooooooooooooooooooooooooooooooooooooooo",
"oooooooooooooooooooooooooooooooooooooooooooooooooooooooooooooooooooooooooo",
"oooooooooooooooooooooooooooooooooooooooooooooooooooooooooooooooooooooooooo",
"oooooooooooooooooooooooooooooooooooooooooooooooooooooooooooooooooooooooooo",
"oooooooooooooooooooooooooooooooooooooooooooooooooooooooooooooooooooooooooo",
"oooooooooooooooooooooooooooooooooooooooooooooooooooooooooooooooooooooooooo",
"oooooooooooooooooooooooooooooooooooooooooooooooooooooooooooooooooooooooooo",
"oooooooooooooooooooooooooooooooooooooooooooooooooooooooooooooooooooooooooo",
"oooooooooooooooooooooooooooooooooooooooooooooooooooooooooooooooooooooooooo",
"oooooooooooooooooooooooooooooooooooooooooooooooooooooooooooooooooooooooooo"
};
