/* XPM */
static char *_8026_05a0e0255dbb6ace085da939eb3ba302f94400685a1b206de18087922e643587[] = {
/* columns rows colors chars-per-pixel */
"74 74 12 1 ",
"  c black",
". c #421F17",
"X c #774030",
"o c #3D3550",
"O c #764D51",
"+ c #B28C3D",
"@ c #DCAF4E",
"# c #D3936A",
"$ c #999CA3",
"% c #F2D4B5",
"& c #CED0D3",
"* c #E9EAEC",
/* pixels */
"oooooooooooooooooooooooooooooooooooooooooooooooooooooooooooooooooooooooooo",
"oooooooooooooooooooooooooooooooooooooooooooooooooooooooooooooooooooooooooo",
"oooooooooooooooooooooooooooooooooooooooooooooooooooooooooooooooooooooooooo",
"oooooooooooooooooooooooooooooooooooooooooooooooooooooooooooooooooooooooooo",
"oooooooooooooooooooooooooooooooooooooooooooooooooooooooooooooooooooooooooo",
"oooooooooooooooooooooooooooooooooooooooooooooooooooooooooooooooooooooooooo",
"oooooooooooooooooooooooooooooooooooooooooooooooooooooooooooooooooooooooooo",
"oooooooooooooooooooooooooooooooooooooooooooooooooooooooooooooooooooooooooo",
"oooooooooooooooooooooooooooooooooooooooooooooooooooooooooooooooooooooooooo",
"oooooooooooooooooooooooooooooooooooooooooooooooooooooooooooooooooooooooooo",
"oooooooooooooooooooooooooooooooooooooooooooooooooooooooooooooooooooooooooo",
"oooooooooooooooooooooooooooooooooooooooooooooooooooooooooooooooooooooooooo",
"oooooooooooooooooooooooooooooooooooooooooooooooooooooooooooooooooooooooooo",
"oooooooooooooooooooooooooooooooooooooooooooooooooooooooooooooooooooooooooo",
"oooooooooooooooooooooooooooooooooooooooooooooooooooooooooooooooooooooooooo",
"oooooooooooooooooooooooooooooooooooooooooooooooooooooooooooooooooooooooooo",
"oooooooooooooooooooooooooooooooooooooooooooooooooooooooooooooooooooooooooo",
"oooooooooooooooooooooooooooooooooooo    oooooooooooooooooooooooooooooooooo",
"oooooooooooooooooooooooooooooooooo  ####  oooooooooooooooooooooooooooooooo",
"ooooooooooooooooooooooooooooooooo O#%%%%#O ooooooooooooooooooooooooooooooo",
"oooooooooooooooooooooooooooooooo O#%%%%%%#O oooooooooooooooooooooooooooooo",
"oooooooooooooooooooooooooooooooo #%%%%%%%%# oooooooooooooooooooooooooooooo",
"ooooooooooooooooooooooooooooooo O#%%%%%%%%#O ooooooooooooooooooooooooooooo",
"ooooooooooooooooooooooooooooooo O#%%%%%%%%#O ooooooooooooooooooooooooooooo",
"ooooooooooooooooooooooooooooooo O#%%%%%%%%#O ooooooooooooooooooooooooooooo",
"ooooooooooooooooooooooooooooooo O#%%%%%%%%#O ooooooooooooooooooooooooooooo",
"ooooooooooooooooooooooooooooooo O##%%%%%%##O ooooooooooooooooooooooooooooo",
"ooooooooooooooooooooooooooooooo O###%%%%###O ooooooooooooooooooooooooooooo",
"oooooooooooooooooooooooooooooooo ########## oooooooooooooooooooooooooooooo",
"oooooooooooooooooooooooooooooooo O########O oooooooooooooooooooooooooooooo",
"ooooooooooooooooooooooooooooooooo O######O ooooooooooooooooooooooooooooooo",
"oooooooooooooooooooooooooooooooooo O####O oooooooooooooooooooooooooooooooo",
"oooooooooooooooooooooooooooooooo    OOOO    oooooooooooooooooooooooooooooo",
"ooooooooooooooooooooooooooooooo &&&&*******& ooooooooooooooooooooooooooooo",
"oooooooooooooooooooooooooooooo $$&&&&******&$ oooooooooooooooooooooooooooo",
"oooooooooooooooooooooooooooooo &&$&&&&****&$$ oooooooooooooooooooooooooooo",
"ooooooooooooooooooooooooooooo @ &&$&&&***&$$ @ ooooooooooooooooooooooooooo",
"ooooooooooooooooooooooooooooo @ &&&&&****&$& @ ooooooooooooooooooooooooooo",
"oooooooooooooooooooooooooooo +@ &&&&&***&&&& @+ oooooooooooooooooooooooooo",
"oooooooooooooooooooooooooooo +@ &&&&&***&&&& ++ oooooooooooooooooooooooooo",
"oooooooooooooooooooooooooooo ++ &&&&&&***&&& ++ oooooooooooooooooooooooooo",
"oooooooooooooooooooooooooooo ++ &&&&&&***&&&& + oooooooooooooooooooooooooo",
"ooooooooooooooooooooooooooooo  &&&**&&&***&&&& ooooooooooooooooooooooooooo",
"oooooooooooooooooooooooooooooo &&***&&&****&&& ooooooooooooooooooooooooooo",
"oooooooooooooooooooooooooooooo &&****&&****&&& ooooooooooooooooooooooooooo",
"oooooooooooooooooooooooooooooo &*****&&&****&& ooooooooooooooooooooooooooo",
"oooooooooooooooooooooooooooooo &*****&&&****&& ooooooooooooooooooooooooooo",
"oooooooooooooooooooooooooooooo *******&&****&& ooooooooooooooooooooooooooo",
"oooooooooooooooooooooooooooooo *******&&*****& ooooooooooooooooooooooooooo",
"ooooooooooooooooooooooooooooo *********&&****&& oooooooooooooooooooooooooo",
"ooooooooooooooooooooooooooooo *     ****&*****& oooooooooooooooooooooooooo",
"ooooooooooooooooooooooooooooo  oo XX   &&&****& oooooooooooooooooooooooooo",
"ooooooooooooooooooooooooooooooooo XX oo      *& oooooooooooooooooooooooooo",
"ooooooooooooooooooooooooooooooooo .. oo XX oo   oooooooooooooooooooooooooo",
"ooooooooooooooooooooooooooooooooo .. oo XX ooooooooooooooooooooooooooooooo",
"ooooooooooooooooooooooooooooooooooooooo XX ooooooooooooooooooooooooooooooo",
"ooooooooooooooooooooooooooooooooooooooo XX ooooooooooooooooooooooooooooooo",
"oooooooooooooooooooooooooooooooooooooooooooooooooooooooooooooooooooooooooo",
"oooooooooooooooooooooooooooooooooooooooooooooooooooooooooooooooooooooooooo",
"oooooooooooooooooooooooooooooooooooooooooooooooooooooooooooooooooooooooooo",
"oooooooooooooooooooooooooooooooooooooooooooooooooooooooooooooooooooooooooo",
"oooooooooooooooooooooooooooooooooooooooooooooooooooooooooooooooooooooooooo",
"oooooooooooooooooooooooooooooooooooooooooooooooooooooooooooooooooooooooooo",
"oooooooooooooooooooooooooooooooooooooooooooooooooooooooooooooooooooooooooo",
"oooooooooooooooooooooooooooooooooooooooooooooooooooooooooooooooooooooooooo",
"oooooooooooooooooooooooooooooooooooooooooooooooooooooooooooooooooooooooooo",
"oooooooooooooooooooooooooooooooooooooooooooooooooooooooooooooooooooooooooo",
"oooooooooooooooooooooooooooooooooooooooooooooooooooooooooooooooooooooooooo",
"oooooooooooooooooooooooooooooooooooooooooooooooooooooooooooooooooooooooooo",
"oooooooooooooooooooooooooooooooooooooooooooooooooooooooooooooooooooooooooo",
"oooooooooooooooooooooooooooooooooooooooooooooooooooooooooooooooooooooooooo",
"oooooooooooooooooooooooooooooooooooooooooooooooooooooooooooooooooooooooooo",
"oooooooooooooooooooooooooooooooooooooooooooooooooooooooooooooooooooooooooo",
"oooooooooooooooooooooooooooooooooooooooooooooooooooooooooooooooooooooooooo"
};
