/* XPM */
static char *_5919_fe78604d685a32328b9c825fd8902adfe9b5e5189708d662f2afccd8ffe50e66[] = {
/* columns rows colors chars-per-pixel */
"74 74 13 1 ",
"  c black",
". c #421F17",
"X c #774030",
"o c #3D3550",
"O c #764D51",
"+ c #9F5542",
"@ c #B28C3D",
"# c #DCAF4E",
"$ c #D3936A",
"% c #999CA3",
"& c #F2D4B5",
"* c #CED0D3",
"= c #E9EAEC",
/* pixels */
"oooooooooooooooooooooooooooooooooooooooooooooooooooooooooooooooooooooooooo",
"oooooooooooooooooooooooooooooooooooooooooooooooooooooooooooooooooooooooooo",
"oooooooooooooooooooooooooooooooooooooooooooooooooooooooooooooooooooooooooo",
"oooooooooooooooooooooooooooooooooooooooooooooooooooooooooooooooooooooooooo",
"oooooooooooooooooooooooooooooooooooooooooooooooooooooooooooooooooooooooooo",
"oooooooooooooooooooooooooooooooooooooooooooooooooooooooooooooooooooooooooo",
"oooooooooooooooooooooooooooooooooooooooooooooooooooooooooooooooooooooooooo",
"oooooooooooooooooooooooooooooooooooooooooooooooooooooooooooooooooooooooooo",
"oooooooooooooooooooooooooooooooooooooooooooooooooooooooooooooooooooooooooo",
"oooooooooooooooooooooooooooooooooooooooooooooooooooooooooooooooooooooooooo",
"oooooooooooooooooooooooooooooooooooooooooooooooooooooooooooooooooooooooooo",
"oooooooooooooooooooooooooooooooooooooooooooooooooooooooooooooooooooooooooo",
"oooooooooooooooooooooooooooooooooooooooooooooooooooooooooooooooooooooooooo",
"oooooooooooooooooooooooooooooooooooooooooooooooooooooooooooooooooooooooooo",
"oooooooooooooooooooooooooooooooooooooooooooooooooooooooooooooooooooooooooo",
"oooooooooooooooooooooooooooooooooooooooooooooooooooooooooooooooooooooooooo",
"oooooooooooooooooooooooooooooooooooo    oooooooooooooooooooooooooooooooooo",
"oooooooooooooooooooooooooooooooooo  $$$$  oooooooooooooooooooooooooooooooo",
"ooooooooooooooooooooooooooooooooo O$&&&&$O ooooooooooooooooooooooooooooooo",
"oooooooooooooooooooooooooooooooo O$&&&&&&$O oooooooooooooooooooooooooooooo",
"oooooooooooooooooooooooooooooooo $&&&&&&&&$ oooooooooooooooooooooooooooooo",
"ooooooooooooooooooooooooooooooo O$&&&&&&&&$O ooooooooooooooooooooooooooooo",
"ooooooooooooooooooooooooooooooo O$&&&&&&&&$O ooooooooooooooooooooooooooooo",
"ooooooooooooooooooooooooooooooo O$&&&&&&&&$O ooooooooooooooooooooooooooooo",
"ooooooooooooooooooooooooooooooo O$&&&&&&&&$O ooooooooooooooooooooooooooooo",
"ooooooooooooooooooooooooooooooo O$$&&&&&&$$O ooooooooooooooooooooooooooooo",
"ooooooooooooooooooooooooooooooo O$$$&&&&$$$O ooooooooooooooooooooooooooooo",
"oooooooooooooooooooooooooooooooo $$$$$$$$$$ oooooooooooooooooooooooooooooo",
"oooooooooooooooooooooooooooooooo O$$$$$$$$O oooooooooooooooooooooooooooooo",
"ooooooooooooooooooooooooooooooooo O$$$$$$O ooooooooooooooooooooooooooooooo",
"oooooooooooooooooooooooooooooooooo O$$$$O oooooooooooooooooooooooooooooooo",
"oooooooooooooooooooooooooooooooo    OOOO    oooooooooooooooooooooooooooooo",
"ooooooooooooooooooooooooooooooo ****=======* ooooooooooooooooooooooooooooo",
"oooooooooooooooooooooooooooooo %%****======*% oooooooooooooooooooooooooooo",
"oooooooooooooooooooooooooooooo %%%****====*%% oooooooooooooooooooooooooooo",
"ooooooooooooooooooooooooooooo @ *%%***===*%% # ooooooooooooooooooooooooooo",
"ooooooooooooooooooooooooooooo @ **%****==*%% # ooooooooooooooooooooooooooo",
"ooooooooooooooooooooooooooooo @ **********%* # ooooooooooooooooooooooooooo",
"oooooooooooooooooooooooooooooo  ***=*****%* ## ooooooooooooooooooooooooooo",
"ooooooooooooooooooooooooooooooo **===***%%* @@@ oooooooooooooooooooooooooo",
"oooooooooooooooooooooooooooooo ***====***** @@@ oooooooooooooooooooooooooo",
"oooooooooooooooooooooooooooooo **======***** @++ ooooooooooooooooooooooooo",
"oooooooooooooooooooooooooooooo *=======***** +++ ooooooooooooooooooooooooo",
"oooooooooooooooooooooooooooooo =========**** XXX ooooooooooooooooooooooooo",
"oooooooooooooooooooooooooooooo =========**** XXX ooooooooooooooooooooooooo",
"ooooooooooooooooooooooooooooo *===========***   oooooooooooooooooooooooooo",
"oooooooooooooooooooooooooooo ***=   ======**** ooooooooooooooooooooooooooo",
"oooooooooooooooooooooooooooo     +++ ======*** ooooooooooooooooooooooooooo",
"oooooooooooooooooooooooooooooooo +++  **=====** oooooooooooooooooooooooooo",
"oooooooooooooooooooooooooooooooo +++ o *=====** oooooooooooooooooooooooooo",
"oooooooooooooooooooooooooooooooo +++ o *======* oooooooooooooooooooooooooo",
"oooooooooooooooooooooooooooooooo +++ o ***====* oooooooooooooooooooooooooo",
"oooooooooooooooooooooooooooooooo +++ o    *===** ooooooooooooooooooooooooo",
"ooooooooooooooooooooooooooooooooo   ooo ..    ** ooooooooooooooooooooooooo",
"ooooooooooooooooooooooooooooooooooooooo .. ooo  oooooooooooooooooooooooooo",
"ooooooooooooooooooooooooooooooooooooooo .. ooooooooooooooooooooooooooooooo",
"oooooooooooooooooooooooooooooooooooooooo  oooooooooooooooooooooooooooooooo",
"oooooooooooooooooooooooooooooooooooooooooooooooooooooooooooooooooooooooooo",
"oooooooooooooooooooooooooooooooooooooooooooooooooooooooooooooooooooooooooo",
"oooooooooooooooooooooooooooooooooooooooooooooooooooooooooooooooooooooooooo",
"oooooooooooooooooooooooooooooooooooooooooooooooooooooooooooooooooooooooooo",
"oooooooooooooooooooooooooooooooooooooooooooooooooooooooooooooooooooooooooo",
"oooooooooooooooooooooooooooooooooooooooooooooooooooooooooooooooooooooooooo",
"oooooooooooooooooooooooooooooooooooooooooooooooooooooooooooooooooooooooooo",
"oooooooooooooooooooooooooooooooooooooooooooooooooooooooooooooooooooooooooo",
"oooooooooooooooooooooooooooooooooooooooooooooooooooooooooooooooooooooooooo",
"oooooooooooooooooooooooooooooooooooooooooooooooooooooooooooooooooooooooooo",
"oooooooooooooooooooooooooooooooooooooooooooooooooooooooooooooooooooooooooo",
"oooooooooooooooooooooooooooooooooooooooooooooooooooooooooooooooooooooooooo",
"oooooooooooooooooooooooooooooooooooooooooooooooooooooooooooooooooooooooooo",
"oooooooooooooooooooooooooooooooooooooooooooooooooooooooooooooooooooooooooo",
"oooooooooooooooooooooooooooooooooooooooooooooooooooooooooooooooooooooooooo",
"oooooooooooooooooooooooooooooooooooooooooooooooooooooooooooooooooooooooooo",
"oooooooooooooooooooooooooooooooooooooooooooooooooooooooooooooooooooooooooo"
};
