/* XPM */
static char *_3383_ba489d35c2bce83457d7ef49f3185118c86b3e12b6fd3939705bd559a6c6c5bd[] = {
/* columns rows colors chars-per-pixel */
"74 74 17 1 ",
"  c black",
". c #3F403A",
"X c #774030",
"o c #3D3550",
"O c #764D51",
"+ c #646369",
"@ c #9F5542",
"# c #C47F66",
"$ c #B28C3D",
"% c #BA9C5C",
"& c #DCAF4E",
"* c #D3936A",
"= c #999CA3",
"- c #EACA88",
"; c #F2D4B5",
": c #CED0D3",
"> c #E9EAEC",
/* pixels */
"oooooooooooooooooooooooooooooooooooooooooooooooooooooooooooooooooooooooooo",
"oooooooooooooooooooooooooooooooooooooooooooooooooooooooooooooooooooooooooo",
"oooooooooooooooooooooooooooooooooooooooooooooooooooooooooooooooooooooooooo",
"oooooooooooooooooooooooooooooooooooooooooooooooooooooooooooooooooooooooooo",
"oooooooooooooooooooooooooooooooooooooooooooooooooooooooooooooooooooooooooo",
"oooooooooooooooooooooooooooooooooooooooooooooooooooooooooooooooooooooooooo",
"oooooooooooooooooooooooooooooooooooooooooooooooooooooooooooooooooooooooooo",
"oooooooooooooooooooooooooooooooooooooooooooooooooooooooooooooooooooooooooo",
"oooooooooooooooooooooooooooooooooooooooooooooooooooooooooooooooooooooooooo",
"oooooooooooooooooooooooooooooooooooooooooooooooooooooooooooooooooooooooooo",
"oooooooooooooooooooooooooooooooooooooooooooooooooooooooooooooooooooooooooo",
"oooooooooooooooooooooooooooooooooooooooooooooooooooooooooooooooooooooooooo",
"oooooooooooooooooooooooooooooooooooooooooooooooooooooooooooooooooooooooooo",
"oooooooooooooooooooooooooooooooooooooooooooooooooooooooooooooooooooooooooo",
"oooooooooooooooooooooooooooooooooooooooooooooooooooooooooooooooooooooooooo",
"oooooooooooooooooooooooooooooooooooooooooooooooooooooooooooooooooooooooooo",
"oooooooooooooooooooooooooooooooooooo    oooooooooooooooooooooooooooooooooo",
"oooooooooooooooooooooooooooooooooo  ****  oooooooooooooooooooooooooooooooo",
"ooooooooooooooooooooooooooooooooo *;;;;;;* ooooooooooooooooooooooooooooooo",
"oooooooooooooooooooooooooooooooo *;;;;;;;;* oooooooooooooooooooooooooooooo",
"oooooooooooooooooooooooooooooooo ;;;;;;;;;; oooooooooooooooooooooooooooooo",
"ooooooooooooooooooooooooooooooo O;;;;;;;;;;O ooooooooooooooooooooooooooooo",
"ooooooooooooooooooooooooooooooo O;;;;;;;;;;O ooooooooooooooooooooooooooooo",
"ooooooooooooooooooooooooooooooo O*;;;;;;;;*O ooooooooooooooooooooooooooooo",
"ooooooooooooooooooooooooooooooo O**********O ooooooooooooooooooooooooooooo",
"ooooooooooooooooooooooooooooooo O*   **   *O ooooooooooooooooooooooooooooo",
"ooooooooooooooooooooooooooooooo O*>+>**>+>*O ooooooooooooooooooooooooooooo",
"oooooooooooooooooooooooooooooooo *>+>;;>+>* oooooooooooooooooooooooooooooo",
"oooooooooooooooooooooooooooooooo *;;;;;;;;* oooooooooooooooooooooooooooooo",
"ooooooooooooooooooooooooooooooooo *;;;;;;* ooooooooooooooooooooooooooooooo",
"oooooooooooooooooooooooooooooooooo *;;;;* oooooooooooooooooooooooooooooooo",
"ooooooooooooooooooooooooooooooooo   *;;*   ooooooooooooooooooooooooooooooo",
"oooooooooooooooooooooooooooooooo >:=O**O=:> oooooooooooooooooooooooooooooo",
"ooooooooooooooooooooooooooooooo :+>======>+: ooooooooooooooooooooooooooooo",
"oooooooooooooooooooooooooooooo &->&&====&&>$$ oooooooooooooooooooooooooooo",
"ooooooooooooooooooooooooooooo &- $&&&&&&&$$$$$ ooooooooooooooooooooooooooo",
"ooooooooooooooooooooooooooooo &   $&&&&&$$  $$$ oooooooooooooooooooooooooo",
"ooooooooooooooooooooooooooooo  @@# $&&$$$$ : $$ oooooooooooooooooooooooooo",
"ooooooooooooooooooooooooooooo @@@@# $$$$$$ :: XX ooooooooooooooooooooooooo",
"ooooooooooooooooooooooooooooo X@@@@ $$$$$ :: XXX ooooooooooooooooooooooooo",
"ooooooooooooooooooooooooooooo XX@@@ .%%.. :: XXX ooooooooooooooooooooooooo",
"ooooooooooooooooooooooooooooo  XX@  .%%.. :: XXX ooooooooooooooooooooooooo",
"ooooooooooooooooooooooooooooo      &-&--- :::   oooooooooooooooooooooooooo",
"ooooooooooooooooooooooooooooo ::: &--&--- :::: ooooooooooooooooooooooooooo",
"ooooooooooooooooooooooooooooo :: $&--&---- ::: ooooooooooooooooooooooooooo",
"oooooooooooooooooooooooooooo ::: $$$&&---- ::: ooooooooooooooooooooooooooo",
"oooooooooooooooooooooooooooo   : $$$$$-----   : oooooooooooooooooooooooooo",
"ooooooooooooooooooooooooooooooo  $$$$ &---- oo  oooooooooooooooooooooooooo",
"oooooooooooooooooooooooooooooooo $$$   ---- oooooooooooooooooooooooooooooo",
"oooooooooooooooooooooooooooooooo $$  o ---- oooooooooooooooooooooooooooooo",
"ooooooooooooooooooooooooooooooooo  ooo &--& oooooooooooooooooooooooooooooo",
"oooooooooooooooooooooooooooooooooooooo &&&& oooooooooooooooooooooooooooooo",
"oooooooooooooooooooooooooooooooooooooo  @@ ooooooooooooooooooooooooooooooo",
"ooooooooooooooooooooooooooooooooooooooo @@ ooooooooooooooooooooooooooooooo",
"oooooooooooooooooooooooooooooooooooooooo @ ooooooooooooooooooooooooooooooo",
"oooooooooooooooooooooooooooooooooooooooo @ ooooooooooooooooooooooooooooooo",
"oooooooooooooooooooooooooooooooooooooooo @ ooooooooooooooooooooooooooooooo",
"oooooooooooooooooooooooooooooooooooooooo @@ oooooooooooooooooooooooooooooo",
"oooooooooooooooooooooooooooooooooooooooooooooooooooooooooooooooooooooooooo",
"oooooooooooooooooooooooooooooooooooooooooooooooooooooooooooooooooooooooooo",
"oooooooooooooooooooooooooooooooooooooooooooooooooooooooooooooooooooooooooo",
"oooooooooooooooooooooooooooooooooooooooooooooooooooooooooooooooooooooooooo",
"oooooooooooooooooooooooooooooooooooooooooooooooooooooooooooooooooooooooooo",
"oooooooooooooooooooooooooooooooooooooooooooooooooooooooooooooooooooooooooo",
"oooooooooooooooooooooooooooooooooooooooooooooooooooooooooooooooooooooooooo",
"oooooooooooooooooooooooooooooooooooooooooooooooooooooooooooooooooooooooooo",
"oooooooooooooooooooooooooooooooooooooooooooooooooooooooooooooooooooooooooo",
"oooooooooooooooooooooooooooooooooooooooooooooooooooooooooooooooooooooooooo",
"oooooooooooooooooooooooooooooooooooooooooooooooooooooooooooooooooooooooooo",
"oooooooooooooooooooooooooooooooooooooooooooooooooooooooooooooooooooooooooo",
"oooooooooooooooooooooooooooooooooooooooooooooooooooooooooooooooooooooooooo",
"oooooooooooooooooooooooooooooooooooooooooooooooooooooooooooooooooooooooooo",
"oooooooooooooooooooooooooooooooooooooooooooooooooooooooooooooooooooooooooo",
"oooooooooooooooooooooooooooooooooooooooooooooooooooooooooooooooooooooooooo"
};
