/* XPM */
static char *_389_eccdf0fa14f8b7df0c8ba0c0263a69c5815a6c8903294b5fd9198aa7901452e9[] = {
/* columns rows colors chars-per-pixel */
"74 74 17 1 ",
"  c black",
". c #3F403A",
"X c #774030",
"o c #3D3550",
"O c #764D51",
"+ c #646369",
"@ c #9F5542",
"# c #C47F66",
"$ c #B28C3D",
"% c #BA9C5C",
"& c #DCAF4E",
"* c #D3936A",
"= c #999CA3",
"- c #EACA88",
"; c #F2D4B5",
": c #CED0D3",
"> c #E9EAEC",
/* pixels */
"oooooooooooooooooooooooooooooooooooooooooooooooooooooooooooooooooooooooooo",
"oooooooooooooooooooooooooooooooooooooooooooooooooooooooooooooooooooooooooo",
"oooooooooooooooooooooooooooooooooooooooooooooooooooooooooooooooooooooooooo",
"oooooooooooooooooooooooooooooooooooooooooooooooooooooooooooooooooooooooooo",
"oooooooooooooooooooooooooooooooooooooooooooooooooooooooooooooooooooooooooo",
"oooooooooooooooooooooooooooooooooooooooooooooooooooooooooooooooooooooooooo",
"oooooooooooooooooooooooooooooooooooooooooooooooooooooooooooooooooooooooooo",
"oooooooooooooooooooooooooooooooooooooooooooooooooooooooooooooooooooooooooo",
"oooooooooooooooooooooooooooooooooooooooooooooooooooooooooooooooooooooooooo",
"oooooooooooooooooooooooooooooooooooooooooooooooooooooooooooooooooooooooooo",
"oooooooooooooooooooooooooooooooooooooooooooooooooooooooooooooooooooooooooo",
"oooooooooooooooooooooooooooooooooooooooooooooooooooooooooooooooooooooooooo",
"oooooooooooooooooooooooooooooooooooooooooooooooooooooooooooooooooooooooooo",
"oooooooooooooooooooooooooooooooooooooooooooooooooooooooooooooooooooooooooo",
"oooooooooooooooooooooooooooooooooooooooooooooooooooooooooooooooooooooooooo",
"oooooooooooooooooooooooooooooooooooo    oooooooooooooooooooooooooooooooooo",
"oooooooooooooooooooooooooooooooooo  ****  oooooooooooooooooooooooooooooooo",
"ooooooooooooooooooooooooooooooooo *;;;;;;* ooooooooooooooooooooooooooooooo",
"oooooooooooooooooooooooooooooooo *;;;;;;;;* oooooooooooooooooooooooooooooo",
"oooooooooooooooooooooooooooooooo ;;;;;;;;;; oooooooooooooooooooooooooooooo",
"ooooooooooooooooooooooooooooooo O;;;;;;;;;;O ooooooooooooooooooooooooooooo",
"ooooooooooooooooooooooooooooooo O;;;;;;;;;;O ooooooooooooooooooooooooooooo",
"ooooooooooooooooooooooooooooooo O*;;;;;;;;*O ooooooooooooooooooooooooooooo",
"ooooooooooooooooooooooooooooooo O*   ;;   *O ooooooooooooooooooooooooooooo",
"ooooooooooooooooooooooooooooooo O*>+>**>+>*O ooooooooooooooooooooooooooooo",
"ooooooooooooooooooooooooooooooo O*>+>**>+>*O ooooooooooooooooooooooooooooo",
"oooooooooooooooooooooooooooooooo *;;>;;>;;* oooooooooooooooooooooooooooooo",
"oooooooooooooooooooooooooooooooo *;;;;;;;;* oooooooooooooooooooooooooooooo",
"ooooooooooooooooooooooooooooooooo *;;;;;;* ooooooooooooooooooooooooooooooo",
"oooooooooooooooooooooooooooooooooo *;;;;* oooooooooooooooooooooooooooooooo",
"ooooooooooooooooooooooooooooooooo   *;;*   ooooooooooooooooooooooooooooooo",
"oooooooooooooooooooooooooooooooo >:=O**O=:> oooooooooooooooooooooooooooooo",
"ooooooooooooooooooooooooooooooo :+>======>+: ooooooooooooooooooooooooooooo",
"oooooooooooooooooooooooooooooo &&---====--&$ ooooooooooooooooooooooooooooo",
"oooooooooooooooooooooooooooooo &&&-------&&$$ oooooooooooooooooooooooooooo",
"ooooooooooooooooooooooooooooo && &&&----&&& & oooooooooooooooooooooooooooo",
"oooooooooooooooooooooooooooo &   $$&&--&&&   & ooooooooooooooooooooooooooo",
"oooooooooooooooooooooooooooo  @@# $$$&&&$ @@@  ooooooooooooooooooooooooooo",
"oooooooooooooooooooooooooooo @@@@# $$$&$$ @@## ooooooooooooooooooooooooooo",
"oooooooooooooooooooooooooooo X@@@@ $$$$$$ @@@@ ooooooooooooooooooooooooooo",
"oooooooooooooooooooooooooooo XX@@@ ..%%.. X@@@ ooooooooooooooooooooooooooo",
"oooooooooooooooooooooooooooo  XX@  ..%%.. XX@@ ooooooooooooooooooooooooooo",
"ooooooooooooooooooooooooooooo     &&-&----    oooooooooooooooooooooooooooo",
"oooooooooooooooooooooooooooooo : &---&---- : ooooooooooooooooooooooooooooo",
"oooooooooooooooooooooooooooooo : &---&---- : ooooooooooooooooooooooooooooo",
"oooooooooooooooooooooooooooooo : &---&---- : ooooooooooooooooooooooooooooo",
"oooooooooooooooooooooooooooooo : &&&&$----- : oooooooooooooooooooooooooooo",
"oooooooooooooooooooooooooooooo : $&&$ &&--- : oooooooooooooooooooooooooooo",
"ooooooooooooooooooooooooooooo :: $$$   &&&- : oooooooooooooooooooooooooooo",
"ooooooooooooooooooooooooooooo :: $$  : $&&& : oooooooooooooooooooooooooooo",
"ooooooooooooooooooooooooooooo :: $$ :: $$$& :: ooooooooooooooooooooooooooo",
"ooooooooooooooooooooooooooooo :  $$  : $$$$ :: ooooooooooooooooooooooooooo",
"ooooooooooooooooooooooooooooo  o XX o   XX     ooooooooooooooooooooooooooo",
"oooooooooooooooooooooooooooooooo XX ooo XX ooooooooooooooooooooooooooooooo",
"ooooooooooooooooooooooooooooooooo  ooooo X ooooooooooooooooooooooooooooooo",
"oooooooooooooooooooooooooooooooooooooooo X ooooooooooooooooooooooooooooooo",
"oooooooooooooooooooooooooooooooooooooooo @ ooooooooooooooooooooooooooooooo",
"oooooooooooooooooooooooooooooooooooooooo @@ oooooooooooooooooooooooooooooo",
"oooooooooooooooooooooooooooooooooooooooooooooooooooooooooooooooooooooooooo",
"oooooooooooooooooooooooooooooooooooooooooooooooooooooooooooooooooooooooooo",
"oooooooooooooooooooooooooooooooooooooooooooooooooooooooooooooooooooooooooo",
"oooooooooooooooooooooooooooooooooooooooooooooooooooooooooooooooooooooooooo",
"oooooooooooooooooooooooooooooooooooooooooooooooooooooooooooooooooooooooooo",
"oooooooooooooooooooooooooooooooooooooooooooooooooooooooooooooooooooooooooo",
"oooooooooooooooooooooooooooooooooooooooooooooooooooooooooooooooooooooooooo",
"oooooooooooooooooooooooooooooooooooooooooooooooooooooooooooooooooooooooooo",
"oooooooooooooooooooooooooooooooooooooooooooooooooooooooooooooooooooooooooo",
"oooooooooooooooooooooooooooooooooooooooooooooooooooooooooooooooooooooooooo",
"oooooooooooooooooooooooooooooooooooooooooooooooooooooooooooooooooooooooooo",
"oooooooooooooooooooooooooooooooooooooooooooooooooooooooooooooooooooooooooo",
"oooooooooooooooooooooooooooooooooooooooooooooooooooooooooooooooooooooooooo",
"oooooooooooooooooooooooooooooooooooooooooooooooooooooooooooooooooooooooooo",
"oooooooooooooooooooooooooooooooooooooooooooooooooooooooooooooooooooooooooo",
"oooooooooooooooooooooooooooooooooooooooooooooooooooooooooooooooooooooooooo"
};
