/* XPM */
static char *_4167_733635c5dd16a5785cb5aa934fb667d9992091462646f43daa2997c6112ee981[] = {
/* columns rows colors chars-per-pixel */
"74 74 17 1 ",
"  c black",
". c #3F403A",
"X c #774030",
"o c #3D3550",
"O c #764D51",
"+ c #646369",
"@ c #9F5542",
"# c #C47F66",
"$ c #B28C3D",
"% c #BA9C5C",
"& c #DCAF4E",
"* c #D3936A",
"= c #999CA3",
"- c #EACA88",
"; c #F2D4B5",
": c #CED0D3",
"> c #E9EAEC",
/* pixels */
"oooooooooooooooooooooooooooooooooooooooooooooooooooooooooooooooooooooooooo",
"oooooooooooooooooooooooooooooooooooooooooooooooooooooooooooooooooooooooooo",
"oooooooooooooooooooooooooooooooooooooooooooooooooooooooooooooooooooooooooo",
"oooooooooooooooooooooooooooooooooooooooooooooooooooooooooooooooooooooooooo",
"oooooooooooooooooooooooooooooooooooooooooooooooooooooooooooooooooooooooooo",
"oooooooooooooooooooooooooooooooooooooooooooooooooooooooooooooooooooooooooo",
"oooooooooooooooooooooooooooooooooooooooooooooooooooooooooooooooooooooooooo",
"oooooooooooooooooooooooooooooooooooooooooooooooooooooooooooooooooooooooooo",
"oooooooooooooooooooooooooooooooooooooooooooooooooooooooooooooooooooooooooo",
"oooooooooooooooooooooooooooooooooooooooooooooooooooooooooooooooooooooooooo",
"oooooooooooooooooooooooooooooooooooooooooooooooooooooooooooooooooooooooooo",
"oooooooooooooooooooooooooooooooooooooooooooooooooooooooooooooooooooooooooo",
"oooooooooooooooooooooooooooooooooooooooooooooooooooooooooooooooooooooooooo",
"oooooooooooooooooooooooooooooooooooooooooooooooooooooooooooooooooooooooooo",
"oooooooooooooooooooooooooooooooooooooooooooooooooooooooooooooooooooooooooo",
"oooooooooooooooooooooooooooooooooooo    oooooooooooooooooooooooooooooooooo",
"oooooooooooooooooooooooooooooooooo  ****  oooooooooooooooooooooooooooooooo",
"ooooooooooooooooooooooooooooooooo *;;;;;;* ooooooooooooooooooooooooooooooo",
"oooooooooooooooooooooooooooooooo *;;;;;;;;* oooooooooooooooooooooooooooooo",
"oooooooooooooooooooooooooooooooo ;;;;;;;;;; oooooooooooooooooooooooooooooo",
"ooooooooooooooooooooooooooooooo O;;;;;;;;;;O ooooooooooooooooooooooooooooo",
"ooooooooooooooooooooooooooooooo O;;;;;;;;;;O ooooooooooooooooooooooooooooo",
"ooooooooooooooooooooooooooooooo O*;;;;;;;;*O ooooooooooooooooooooooooooooo",
"ooooooooooooooooooooooooooooooo O*   ;;   *O ooooooooooooooooooooooooooooo",
"ooooooooooooooooooooooooooooooo O*>+>**>+>*O ooooooooooooooooooooooooooooo",
"ooooooooooooooooooooooooooooooo O*>+>**>+>*O ooooooooooooooooooooooooooooo",
"oooooooooooooooooooooooooooooooo *;;>;;>;;* oooooooooooooooooooooooooooooo",
"oooooooooooooooooooooooooooooooo *;;;;;;;;* oooooooooooooooooooooooooooooo",
"ooooooooooooooooooooooooooooooooo *;;;;;;* ooooooooooooooooooooooooooooooo",
"oooooooooooooooooooooooooooooooooo *;;;;* oooooooooooooooooooooooooooooooo",
"ooooooooooooooooooooooooooooooooo   *;;*   ooooooooooooooooooooooooooooooo",
"oooooooooooooooooooooooooooooooo >:=O**O=:> oooooooooooooooooooooooooooooo",
"ooooooooooooooooooooooooooooooo :+>======>+: ooooooooooooooooooooooooooooo",
"oooooooooooooooooooooooooooooo $$---====----& oooooooooooooooooooooooooooo",
"oooooooooooooooooooooooooooooo $&&&-------&&& oooooooooooooooooooooooooooo",
"oooooooooooooooooooooooooooooo & &&&---&&&& && ooooooooooooooooooooooooooo",
"ooooooooooooooooooooooooooooo &   &&&&&&&$$   & oooooooooooooooooooooooooo",
"ooooooooooooooooooooooooooooo  @@@ $&&&$$$ #@@  oooooooooooooooooooooooooo",
"ooooooooooooooooooooooooooooo ##@@ $$&$$$ #@@@@ oooooooooooooooooooooooooo",
"ooooooooooooooooooooooooooooo @@@@ $$$$$$ @@@@X oooooooooooooooooooooooooo",
"ooooooooooooooooooooooooooooo @@@X ..%%.. @@@XX oooooooooooooooooooooooooo",
"ooooooooooooooooooooooooooooo @@XX ..%%..  @XX  oooooooooooooooooooooooooo",
"oooooooooooooooooooooooooooooo    ----&-&&     ooooooooooooooooooooooooooo",
"ooooooooooooooooooooooooooooooo : ----&---& : oooooooooooooooooooooooooooo",
"ooooooooooooooooooooooooooooooo : ----&---& : oooooooooooooooooooooooooooo",
"ooooooooooooooooooooooooooooooo : ----&---& : oooooooooooooooooooooooooooo",
"oooooooooooooooooooooooooooooo : -----$&&&& : oooooooooooooooooooooooooooo",
"oooooooooooooooooooooooooooooo : ---&& $&&$ : oooooooooooooooooooooooooooo",
"oooooooooooooooooooooooooooooo : -&&&   $$$ :: ooooooooooooooooooooooooooo",
"oooooooooooooooooooooooooooooo : &&&$ :  $$ :: ooooooooooooooooooooooooooo",
"ooooooooooooooooooooooooooooo :: &$$$ :: $$ :: ooooooooooooooooooooooooooo",
"ooooooooooooooooooooooooooooo :: $$$$ :  $$  : ooooooooooooooooooooooooooo",
"ooooooooooooooooooooooooooooo     XX   o XX o  ooooooooooooooooooooooooooo",
"ooooooooooooooooooooooooooooooooo XX ooo XX oooooooooooooooooooooooooooooo",
"ooooooooooooooooooooooooooooooooo X ooooo  ooooooooooooooooooooooooooooooo",
"ooooooooooooooooooooooooooooooooo X oooooooooooooooooooooooooooooooooooooo",
"ooooooooooooooooooooooooooooooooo @ oooooooooooooooooooooooooooooooooooooo",
"oooooooooooooooooooooooooooooooo @@ oooooooooooooooooooooooooooooooooooooo",
"oooooooooooooooooooooooooooooooooooooooooooooooooooooooooooooooooooooooooo",
"oooooooooooooooooooooooooooooooooooooooooooooooooooooooooooooooooooooooooo",
"oooooooooooooooooooooooooooooooooooooooooooooooooooooooooooooooooooooooooo",
"oooooooooooooooooooooooooooooooooooooooooooooooooooooooooooooooooooooooooo",
"oooooooooooooooooooooooooooooooooooooooooooooooooooooooooooooooooooooooooo",
"oooooooooooooooooooooooooooooooooooooooooooooooooooooooooooooooooooooooooo",
"oooooooooooooooooooooooooooooooooooooooooooooooooooooooooooooooooooooooooo",
"oooooooooooooooooooooooooooooooooooooooooooooooooooooooooooooooooooooooooo",
"oooooooooooooooooooooooooooooooooooooooooooooooooooooooooooooooooooooooooo",
"oooooooooooooooooooooooooooooooooooooooooooooooooooooooooooooooooooooooooo",
"oooooooooooooooooooooooooooooooooooooooooooooooooooooooooooooooooooooooooo",
"oooooooooooooooooooooooooooooooooooooooooooooooooooooooooooooooooooooooooo",
"oooooooooooooooooooooooooooooooooooooooooooooooooooooooooooooooooooooooooo",
"oooooooooooooooooooooooooooooooooooooooooooooooooooooooooooooooooooooooooo",
"oooooooooooooooooooooooooooooooooooooooooooooooooooooooooooooooooooooooooo",
"oooooooooooooooooooooooooooooooooooooooooooooooooooooooooooooooooooooooooo"
};
