/* XPM */
static char *_85_d495d4b736784e68227a0af37c8d797fda994fa3784d1062c2bd5cebe7170b09[] = {
/* columns rows colors chars-per-pixel */
"74 74 16 1 ",
"  c black",
". c #3F403A",
"X c #774030",
"o c #3D3550",
"O c #59585A",
"+ c #764D51",
"@ c #9F5542",
"# c #B28C3D",
"$ c #BA9C5C",
"% c #DCAF4E",
"& c #D3936A",
"* c #EACA88",
"= c #F2D4B5",
"- c #CED0D3",
"; c #E9EAEC",
": c #F3F5F5",
/* pixels */
"oooooooooooooooooooooooooooooooooooooooooooooooooooooooooooooooooooooooooo",
"oooooooooooooooooooooooooooooooooooooooooooooooooooooooooooooooooooooooooo",
"oooooooooooooooooooooooooooooooooooooooooooooooooooooooooooooooooooooooooo",
"oooooooooooooooooooooooooooooooooooooooooooooooooooooooooooooooooooooooooo",
"oooooooooooooooooooooooooooooooooooooooooooooooooooooooooooooooooooooooooo",
"oooooooooooooooooooooooooooooooooooooooooooooooooooooooooooooooooooooooooo",
"oooooooooooooooooooooooooooooooooooooooooooooooooooooooooooooooooooooooooo",
"oooooooooooooooooooooooooooooooooooooooooooooooooooooooooooooooooooooooooo",
"oooooooooooooooooooooooooooooooooooooooooooooooooooooooooooooooooooooooooo",
"oooooooooooooooooooooooooooooooooooooooooooooooooooooooooooooooooooooooooo",
"oooooooooooooooooooooooooooooooooooooooooooooooooooooooooooooooooooooooooo",
"oooooooooooooooooooooooooooooooooooooooooooooooooooooooooooooooooooooooooo",
"oooooooooooooooooooooooooooooooooooooooooooooooooooooooooooooooooooooooooo",
"oooooooooooooooooooooooooooooooooooooooooooooooooooooooooooooooooooooooooo",
"oooooooooooooooooooooooooooooooooooooooooooooooooooooooooooooooooooooooooo",
"oooooooooooooooooooooooooooooooooooooooooooooooooooooooooooooooooooooooooo",
"oooooooooooooooooooooooooooooooooooooooooooooooooooooooooooooooooooooooooo",
"oooooooooooooooooooooooooooooooooooooooooooooooooooooooooooooooooooooooooo",
"oooooooooooooooooooooooooooooooooooooooooooooooooooooooooooooooooooooooooo",
"oooooooooooooooooooooooooooooooooooooooooooooooooooooooooooooooooooooooooo",
"ooooooooooooooooooooooooooo    ooooooooooooooooooooooooooooooooooooooooooo",
"ooooooooooooooooooooooooo  ====  ooooooooooooooooooooooooooooooooooooooooo",
"oooooooooooooooooooooooo ===&&&== oooooooooooooooooooooooooooooooooooooooo",
"ooooooooooooooooooooooo ==&&&&&&&= ooooooooooooooooooooooooooooooooooooooo",
"ooooooooooooooooooooooo ==&&&&&&&& ooooooooooooooooooooooooooooooooooooooo",
"oooooooooooooooooooooo ===&&&&&&&&& oooooooooooooooooooooooooooooooooooooo",
"oooooooooooooooooooooo ===&&&&&&&&& oooooooooooooooooooooooooooooooooooooo",
"oooooooooooooooooooooo ===&&&&&&++& oooooooooooooooooooooooooooooooooooooo",
"oooooooooooooooooooooo ==   &&&&+&+ oooooooooooooooooooooooooooooooooooooo",
"ooooooooooooooooooooooo =O::&&&+&& ooooooooooooooooooooooooooooooooooooooo",
"ooooooooooooooooooooooo =O:&&&&+&& ooooooooooooooooooooooooooooooooooooooo",
"oooooooooooooooooooooo ====&&&&++                 oooooooooooooooooooooooo",
"ooooooooooooooooooooooo ===&&&&+ ----;;;;;;---;;;;  oooooooooooooooooooooo",
"oooooooooooooooooooooooo ==&&&+ ;;;;;;;;;;------;;;; ooooooooooooooooooooo",
"ooooooooooooooooooooo  oo ==&+ ;;;;;-;;;;;;------;;;- oooooooooooooooooooo",
"oooooooooooooooooooo @@ oo      ;;;;---;;;;;;-------- oooooooooooooooooooo",
"ooooooooooooooooooo @@@@  oo **%  ;;;;--------------- oooooooooooooooooooo",
"ooooooooooooooooooo @XX@@@  ***%**   ;;;;------------ oooooooooooooooooooo",
"ooooooooooooooooooo @X@@@@**%%** *%*%  ;;;;;;;------ ooooooooooooooooooooo",
"oooooooooooooooooooo     X****  *%*%%%%    ;;;;;;--- ooooooooooooooooooooo",
"ooooooooooooooooooooooooo %** o **%%%... oo    ;;;-- ooooooooooooooooooooo",
"oooooooooooooooooooooooooo   ooo *% ..... ooooo   -- ooooooooooooooooooooo",
"ooooooooooooooooooooooooooooooooo  $ .%** oooo   @   ooooooooooooooooooooo",
"oooooooooooooooooooooooooooooooooo % *%**% oo %X@XX@@ oooooooooooooooooooo",
"ooooooooooooooooooooooooooooooooo # %**%*% o %%%X  X@ oooooooooooooooooooo",
"oooooooooooooooooooooooooooooooo  #*%*****% ##%% oo X oooooooooooooooooooo",
"ooooooooooooooooooooooooooooooo ***#%******%##% oooo  oooooooooooooooooooo",
"ooooooooooooooooooooooooooooo  ****#%%%%***%##% oooooooooooooooooooooooooo",
"oooooooooooooooooooooooooooo *****%*#%*****%#% ooooooooooooooooooooooooooo",
"ooooooooooooooooooooooooooo %****%#%    %*%#% oooooooooooooooooooooooooooo",
"ooooooooooooooooooooooooooo #%%%%#  oooo     ooooooooooooooooooooooooooooo",
"oooooooooooooooooooooooooo ###### oooooooooooooooooooooooooooooooooooooooo",
"ooooooooooooooooooooooooo %%#### ooooooooooooooooooooooooooooooooooooooooo",
"ooooooooooooooooooooooooo X%%%% oooooooooooooooooooooooooooooooooooooooooo",
"ooooooooooooooooooooooooo XX%  ooooooooooooooooooooooooooooooooooooooooooo",
"oooooooooooooooooooooooo XX  ooooooooooooooooooooooooooooooooooooooooooooo",
"ooooooooooooooooooooooo XX ooooooooooooooooooooooooooooooooooooooooooooooo",
"ooooooooooooooooooooo  XX oooooooooooooooooooooooooooooooooooooooooooooooo",
"oooooooooooooooooooo XXXX oooooooooooooooooooooooooooooooooooooooooooooooo",
"oooooooooooooooooooooooooooooooooooooooooooooooooooooooooooooooooooooooooo",
"oooooooooooooooooooooooooooooooooooooooooooooooooooooooooooooooooooooooooo",
"oooooooooooooooooooooooooooooooooooooooooooooooooooooooooooooooooooooooooo",
"oooooooooooooooooooooooooooooooooooooooooooooooooooooooooooooooooooooooooo",
"oooooooooooooooooooooooooooooooooooooooooooooooooooooooooooooooooooooooooo",
"oooooooooooooooooooooooooooooooooooooooooooooooooooooooooooooooooooooooooo",
"oooooooooooooooooooooooooooooooooooooooooooooooooooooooooooooooooooooooooo",
"oooooooooooooooooooooooooooooooooooooooooooooooooooooooooooooooooooooooooo",
"oooooooooooooooooooooooooooooooooooooooooooooooooooooooooooooooooooooooooo",
"oooooooooooooooooooooooooooooooooooooooooooooooooooooooooooooooooooooooooo",
"oooooooooooooooooooooooooooooooooooooooooooooooooooooooooooooooooooooooooo",
"oooooooooooooooooooooooooooooooooooooooooooooooooooooooooooooooooooooooooo",
"oooooooooooooooooooooooooooooooooooooooooooooooooooooooooooooooooooooooooo",
"oooooooooooooooooooooooooooooooooooooooooooooooooooooooooooooooooooooooooo",
"oooooooooooooooooooooooooooooooooooooooooooooooooooooooooooooooooooooooooo"
};
