/* XPM */
static char *_9090_25cc44c394791b2950a71d826dd5a2a66303ddfdbf75b4961091304cf561839a[] = {
/* columns rows colors chars-per-pixel */
"74 74 16 1 ",
"  c black",
". c #3F403A",
"X c #774030",
"o c #3D3550",
"O c #59585A",
"+ c #764D51",
"@ c #9F5542",
"# c #B28C3D",
"$ c #BA9C5C",
"% c #DCAF4E",
"& c #D3936A",
"* c #EACA88",
"= c #F2D4B5",
"- c #CED0D3",
"; c #E9EAEC",
": c #F3F5F5",
/* pixels */
"oooooooooooooooooooooooooooooooooooooooooooooooooooooooooooooooooooooooooo",
"oooooooooooooooooooooooooooooooooooooooooooooooooooooooooooooooooooooooooo",
"oooooooooooooooooooooooooooooooooooooooooooooooooooooooooooooooooooooooooo",
"oooooooooooooooooooooooooooooooooooooooooooooooooooooooooooooooooooooooooo",
"oooooooooooooooooooooooooooooooooooooooooooooooooooooooooooooooooooooooooo",
"oooooooooooooooooooooooooooooooooooooooooooooooooooooooooooooooooooooooooo",
"oooooooooooooooooooooooooooooooooooooooooooooooooooooooooooooooooooooooooo",
"oooooooooooooooooooooooooooooooooooooooooooooooooooooooooooooooooooooooooo",
"oooooooooooooooooooooooooooooooooooooooooooooooooooooooooooooooooooooooooo",
"oooooooooooooooooooooooooooooooooooooooooooooooooooooooooooooooooooooooooo",
"oooooooooooooooooooooooooooooooooooooooooooooooooooooooooooooooooooooooooo",
"oooooooooooooooooooooooooooooooooooooooooooooooooooooooooooooooooooooooooo",
"oooooooooooooooooooooooooooooooooooooooooooooooooooooooooooooooooooooooooo",
"oooooooooooooooooooooooooooooooooooooooooooooooooooooooooooooooooooooooooo",
"oooooooooooooooooooooooooooooooooooooooooooooooooooooooooooooooooooooooooo",
"oooooooooooooooooooooooooooooooooooooooooooooooooooooooooooooooooooooooooo",
"oooooooooooooooooooooooooooooooooooooooooooooooooooooooooooooooooooooooooo",
"oooooooooooooooooooooooooooooooooooooooooooooooooooooooooooooooooooooooooo",
"oooooooooooooooooooooooooooooooooooooooooooooooooooooooooooooooooooooooooo",
"oooooooooooooooooooooooooooooooooooooooooooooooooooooooooooooooooooooooooo",
"ooooooooooooooooooooooooooooooooooooooooooo    ooooooooooooooooooooooooooo",
"ooooooooooooooooooooooooooooooooooooooooo  ====  ooooooooooooooooooooooooo",
"oooooooooooooooooooooooooooooooooooooooo ==&&&=== oooooooooooooooooooooooo",
"ooooooooooooooooooooooooooooooooooooooo =&&&&&&&== ooooooooooooooooooooooo",
"ooooooooooooooooooooooooooooooooooooooo &&&&&&&&== ooooooooooooooooooooooo",
"oooooooooooooooooooooooooooooooooooooo &&&&&&&&&=== oooooooooooooooooooooo",
"oooooooooooooooooooooooooooooooooooooo &&&&&&&&&=== oooooooooooooooooooooo",
"oooooooooooooooooooooooooooooooooooooo &++&&&&&&=== oooooooooooooooooooooo",
"oooooooooooooooooooooooooooooooooooooo +&+&&&&   == oooooooooooooooooooooo",
"ooooooooooooooooooooooooooooooooooooooo &&+&&&::O= ooooooooooooooooooooooo",
"ooooooooooooooooooooooooooooooooooooooo &&+&&&&:O= ooooooooooooooooooooooo",
"oooooooooooooooooooooooo                 ++&&&&==== oooooooooooooooooooooo",
"oooooooooooooooooooooo  ;;;;---;;;;;;---- +&&&&=== ooooooooooooooooooooooo",
"ooooooooooooooooooooo ;;;;------;;;;;;;;;; +&&&== oooooooooooooooooooooooo",
"oooooooooooooooooooo -;;;------;;;;;;-;;;;; +&== oo  ooooooooooooooooooooo",
"oooooooooooooooooooo --------;;;;;;---;;;;      oo @@ oooooooooooooooooooo",
"oooooooooooooooooooo ---------------;;;;  %** oo  @@@@ ooooooooooooooooooo",
"oooooooooooooooooooo ------------;;;;   **%***  @@@XX@ ooooooooooooooooooo",
"ooooooooooooooooooooo ------;;;;;;;  %*%* **%%**@@@@X@ ooooooooooooooooooo",
"ooooooooooooooooooooo ---;;;;;;    %%%%*%*  ****X     oooooooooooooooooooo",
"ooooooooooooooooooooo --;;;    oo ...%%%** o **% ooooooooooooooooooooooooo",
"ooooooooooooooooooooo --   ooooo ..... %* ooo   oooooooooooooooooooooooooo",
"ooooooooooooooooooooo   @   oooo **%. $  ooooooooooooooooooooooooooooooooo",
"oooooooooooooooooooo @@XX@X% oo %**%* % oooooooooooooooooooooooooooooooooo",
"oooooooooooooooooooo @X  X%%% o %*%**% # ooooooooooooooooooooooooooooooooo",
"oooooooooooooooooooo X oo %%## %*****%*#  oooooooooooooooooooooooooooooooo",
"oooooooooooooooooooo  oooo %##%******%#*** ooooooooooooooooooooooooooooooo",
"oooooooooooooooooooooooooo %##%***%%%%#****  ooooooooooooooooooooooooooooo",
"ooooooooooooooooooooooooooo %#%*****%#*%***** oooooooooooooooooooooooooooo",
"oooooooooooooooooooooooooooo %#%*%    %#%****% ooooooooooooooooooooooooooo",
"ooooooooooooooooooooooooooooo     oooo  #%%%%# ooooooooooooooooooooooooooo",
"oooooooooooooooooooooooooooooooooooooooo ###### oooooooooooooooooooooooooo",
"ooooooooooooooooooooooooooooooooooooooooo ####%% ooooooooooooooooooooooooo",
"oooooooooooooooooooooooooooooooooooooooooo %%%%X ooooooooooooooooooooooooo",
"ooooooooooooooooooooooooooooooooooooooooooo  %XX ooooooooooooooooooooooooo",
"ooooooooooooooooooooooooooooooooooooooooooooo  XX oooooooooooooooooooooooo",
"ooooooooooooooooooooooooooooooooooooooooooooooo XX ooooooooooooooooooooooo",
"oooooooooooooooooooooooooooooooooooooooooooooooo XX  ooooooooooooooooooooo",
"oooooooooooooooooooooooooooooooooooooooooooooooo XXXX oooooooooooooooooooo",
"oooooooooooooooooooooooooooooooooooooooooooooooooooooooooooooooooooooooooo",
"oooooooooooooooooooooooooooooooooooooooooooooooooooooooooooooooooooooooooo",
"oooooooooooooooooooooooooooooooooooooooooooooooooooooooooooooooooooooooooo",
"oooooooooooooooooooooooooooooooooooooooooooooooooooooooooooooooooooooooooo",
"oooooooooooooooooooooooooooooooooooooooooooooooooooooooooooooooooooooooooo",
"oooooooooooooooooooooooooooooooooooooooooooooooooooooooooooooooooooooooooo",
"oooooooooooooooooooooooooooooooooooooooooooooooooooooooooooooooooooooooooo",
"oooooooooooooooooooooooooooooooooooooooooooooooooooooooooooooooooooooooooo",
"oooooooooooooooooooooooooooooooooooooooooooooooooooooooooooooooooooooooooo",
"oooooooooooooooooooooooooooooooooooooooooooooooooooooooooooooooooooooooooo",
"oooooooooooooooooooooooooooooooooooooooooooooooooooooooooooooooooooooooooo",
"oooooooooooooooooooooooooooooooooooooooooooooooooooooooooooooooooooooooooo",
"oooooooooooooooooooooooooooooooooooooooooooooooooooooooooooooooooooooooooo",
"oooooooooooooooooooooooooooooooooooooooooooooooooooooooooooooooooooooooooo",
"oooooooooooooooooooooooooooooooooooooooooooooooooooooooooooooooooooooooooo"
};
