/* XPM */
static char *_6880_57e3ee5fd582ea1db7ebc983a5ba0e99cd632c8d5970a9a84eaf9b7ce49adff5[] = {
/* columns rows colors chars-per-pixel */
"55 55 11 1 ",
"  c black",
". c #774030",
"X c #3D3550",
"o c #764D51",
"O c #9F5542",
"+ c #DCAF4E",
"@ c #D3936A",
"# c #999CA3",
"$ c #F2D4B5",
"% c #CED0D3",
"& c #E9EAEC",
/* pixels */
"XXXXXXXXXXXXXXXXXXXXXXXXXXXXXXXXXXXXXXXXXXXXXXXXXXXXXXX",
"XXXXXXXXXXXXXXXXXXXXXXXXXXXXXXXXXXXXXXXXXXXXXXXXXXXXXXX",
"XXXXXXXXXXXXXXXXXXXXXXXXXXXXXXXXXXXXXXXXXXXXXXXXXXXXXXX",
"XXXXXXXXXXXXXXXXXXXXXXXXXXXXXXXXXXXXXXXXXXXXXXXXXXXXXXX",
"XXXXXXXXXXXXXXXXXXXXXXXXXXXXXXXXXXXXXXXXXXXXXXXXXXXXXXX",
"XXXXXXXXXXXXXXXXXXXXXXXXXXXXXXXXXXXXXXXXXXXXXXXXXXXXXXX",
"XXXXXXXXXXXXXXXXXXXXXXXXX    XXXXXXXXXXXXXXXXXXXXXXXXXX",
"XXXXXXXXXXXXXXXXXXXXXXX  @@@@  XXXXXXXXXXXXXXXXXXXXXXXX",
"XXXXXXXXXXXXXXXXXXXXXX o@$$$$@o XXXXXXXXXXXXXXXXXXXXXXX",
"XXXXXXXXXXXXXXXXXXXXX o@$$$$$$@o XXXXXXXXXXXXXXXXXXXXXX",
"XXXXXXXXXXXXXXXXXXXXX @$$$$$$$$@ XXXXXXXXXXXXXXXXXXXXXX",
"XXXXXXXXXXXXXXXXXXXX o@$$$$$$$$@o XXXXXXXXXXXXXXXXXXXXX",
"XXXXXXXXXXXXXXXXXXXX o@$$$$$$$$@o XXXXXXXXXXXXXXXXXXXXX",
"XXXXXXXXXXXXXXXXXXXX o@$$$$$$$$@o XXXXXXXXXXXXXXXXXXXXX",
"XXXXXXXXXXXXXXXXXXXX o@$$$$$$$$@o XXXXXXXXXXXXXXXXXXXXX",
"XXXXXXXXXXXXXXXXXXXX o@@$$$$$$@@o XXXXXXXXXXXXXXXXXXXXX",
"XXXXXXXXXXXXXXXXXXXX o@@@$$$$@@@o XXXXXXXXXXXXXXXXXXXXX",
"XXXXXXXXXXXXXXXXXXXXX @@@@@@@@@@ XXXXXXXXXXXXXXXXXXXXXX",
"XXXXXXXXXXXXXXXXXXXXX o@@@@@@@@o XXXXXXXXXXXXXXXXXXXXXX",
"XXXXXXXXXXXXXXXXXXXXXX o@@@@@@o XXXXXXXXXXXXXXXXXXXXXXX",
"XXXXXXXXXXXXXXXXXXXXXXX o@@@@o XXXXXXXXXXXXXXXXXXXXXXXX",
"XXXXXXXXXXXXXXXXXXXXX    oooo    XXXXXXXXXXXXXXXXXXXXXX",
"XXXXXXXXXXXXXXXXXXXX %%%%&&&&%%%% XXXXXXXXXXXXXXXXXXXXX",
"XXXXXXXXXXXXXXXXXXX ##%%%%&&%%%%%# XXXXXXXXXXXXXXXXXXXX",
"XXXXXXXXXXXXXXXXXXX ###%%%%%%%%%## XXXXXXXXXXXXXXXXXXXX",
"XXXXXXXXXXXXXXXXXX + %##%%%%%%%%# + XXXXXXXXXXXXXXXXXXX",
"XXXXXXXXXXXXXXXXXX + %%#%%%%%%%## + XXXXXXXXXXXXXXXXXXX",
"XXXXXXXXXXXXXXXXXX + %%%%%%%%&%#% + XXXXXXXXXXXXXXXXXXX",
"XXXXXXXXXXXXXXXXX ++ %%%&&%%&&#%% + XXXXXXXXXXXXXXXXXXX",
"XXXXXXXXXXXXXXXXX ++ %&%%&&&&%%%% ++ XXXXXXXXXXXXXXXXXX",
"XXXXXXXXXXXXXXXXX + %%&&%%&&%%%%%% + XXXXXXXXXXXXXXXXXX",
"XXXXXXXXXXXXXXXX OO %%&&&%%%%%%%%% OO XXXXXXXXXXXXXXXXX",
"XXXXXXXXXXXXXXXX OO %&&&&%%%%%%%%% OO XXXXXXXXXXXXXXXXX",
"XXXXXXXXXXXXXXXX .. &&&%&&&%%&%%%% .. XXXXXXXXXXXXXXXXX",
"XXXXXXXXXXXXXXXX .. &&&%%&&&&%%&%% .. XXXXXXXXXXXXXXXXX",
"XXXXXXXXXXXXXXXXX  %&%&&%%%%%%%&&%%  XXXXXXXXXXXXXXXXXX",
"XXXXXXXXXXXXXXXXXX %&%&&&%%%%%&&&%% XXXXXXXXXXXXXXXXXXX",
"XXXXXXXXXXXXXXXXXX &&%%&&&%%%&&&&%% XXXXXXXXXXXXXXXXXXX",
"XXXXXXXXXXXXXXXXX %&&%%&&&&%&&&&&&%% XXXXXXXXXXXXXXXXXX",
"XXXXXXXXXXXXXXXXX &&&%%&&&&&&&&&&&%% XXXXXXXXXXXXXXXXXX",
"XXXXXXXXXXXXXXXXX &&%%%%&&&&&&&&&&&% XXXXXXXXXXXXXXXXXX",
"XXXXXXXXXXXXXXXXX &%%%%%%&&&&&%&&&&% XXXXXXXXXXXXXXXXXX",
"XXXXXXXXXXXXXXXXXX %%%%%%%%&&%%%&&& XXXXXXXXXXXXXXXXXXX",
"XXXXXXXXXXXXXXXXXXX  %%%%%%&%%%%%  XXXXXXXXXXXXXXXXXXXX",
"XXXXXXXXXXXXXXXXXXX .            . XXXXXXXXXXXXXXXXXXXX",
"XXXXXXXXXXXXXXXXXXX .O XXXXXXXX O. XXXXXXXXXXXXXXXXXXXX",
"XXXXXXXXXXXXXXXXXX .OO XXXXXXXX OO. XXXXXXXXXXXXXXXXXXX",
"XXXXXXXXXXXXXXXXXX .O XXXXXXXXXX O. XXXXXXXXXXXXXXXXXXX",
"XXXXXXXXXXXXXXXXX .OO XXXXXXXXXX OO. XXXXXXXXXXXXXXXXXX",
"XXXXXXXXXXXXXXXXXXXXXXXXXXXXXXXXXXXXXXXXXXXXXXXXXXXXXXX",
"XXXXXXXXXXXXXXXXXXXXXXXXXXXXXXXXXXXXXXXXXXXXXXXXXXXXXXX",
"XXXXXXXXXXXXXXXXXXXXXXXXXXXXXXXXXXXXXXXXXXXXXXXXXXXXXXX",
"XXXXXXXXXXXXXXXXXXXXXXXXXXXXXXXXXXXXXXXXXXXXXXXXXXXXXXX",
"XXXXXXXXXXXXXXXXXXXXXXXXXXXXXXXXXXXXXXXXXXXXXXXXXXXXXXX",
"XXXXXXXXXXXXXXXXXXXXXXXXXXXXXXXXXXXXXXXXXXXXXXXXXXXXXXX"
};
