/* XPM */
static char *_9090_5780f1b51e07a4f18bcf2fa6c5fcb65763e8052ca12c829315d5c4359c2c5225[] = {
/* columns rows colors chars-per-pixel */
"55 55 13 1 ",
"  c black",
". c #421F17",
"X c #774030",
"o c #3D3550",
"O c #764D51",
"+ c #9F5542",
"@ c #B28C3D",
"# c #DCAF4E",
"$ c #D3936A",
"% c #999CA3",
"& c #F2D4B5",
"* c #CED0D3",
"= c #E9EAEC",
/* pixels */
"ooooooooooooooooooooooooooooooooooooooooooooooooooooooo",
"ooooooooooooooooooooooooooooooooooooooooooooooooooooooo",
"ooooooooooooooooooooooooooooooooooooooooooooooooooooooo",
"ooooooooooooooooooooooooooooooooooooooooooooooooooooooo",
"ooooooooooooooooooooooooooooooooooooooooooooooooooooooo",
"ooooooooooooooooooooooooooooooooooooooooooooooooooooooo",
"ooooooooooooooooooooooooooooooooooooooooooooooooooooooo",
"ooooooooooooooooooooooooooooooooooooooooooooooooooooooo",
"ooooooooooooooooooooooooo    oooooooooooooooooooooooooo",
"ooooooooooooooooooooooo  $$$$  oooooooooooooooooooooooo",
"oooooooooooooooooooooo O$&&&&$O ooooooooooooooooooooooo",
"ooooooooooooooooooooo O$&&&&&&$O oooooooooooooooooooooo",
"ooooooooooooooooooooo $&&&&&&&&$ oooooooooooooooooooooo",
"oooooooooooooooooooo O$&&&&&&&&$O ooooooooooooooooooooo",
"oooooooooooooooooooo O$&&&&&&&&$O ooooooooooooooooooooo",
"oooooooooooooooooooo O$&&&&&&&&$O ooooooooooooooooooooo",
"oooooooooooooooooooo O$&&&&&&&&$O ooooooooooooooooooooo",
"oooooooooooooooooooo O$$&&&&&&$$O ooooooooooooooooooooo",
"oooooooooooooooooooo O$$$&&&&$$$O ooooooooooooooooooooo",
"ooooooooooooooooooooo $$$$$$$$$$ oooooooooooooooooooooo",
"ooooooooooooooooooooo O$$$$$$$$O oooooooooooooooooooooo",
"oooooooooooooooooooooo O$$$$$$O ooooooooooooooooooooooo",
"ooooooooooooooooooooooo O$$$$O oooooooooooooooooooooooo",
"ooooooooooooooooooooo    OOOO    oooooooooooooooooooooo",
"oooooooooooooooooooo *=======**** ooooooooooooooooooooo",
"ooooooooooooooooooo %*======****%% oooooooooooooooooooo",
"ooooooooooooooooooo %%*====****%%% oooooooooooooooooooo",
"oooooooooooooooooo # %**===***%%* @ ooooooooooooooooooo",
"oooooooooooooooooo # %%*==****%** @ ooooooooooooooooooo",
"oooooooooooooooooo # *%%=******** @ ooooooooooooooooooo",
"oooooooooooooooooo ## *%****==***  oooooooooooooooooooo",
"ooooooooooooooooo @@@ *****====** ooooooooooooooooooooo",
"ooooooooooooooooo @@@ *****====*** oooooooooooooooooooo",
"oooooooooooooooo ++@ *****======** oooooooooooooooooooo",
"oooooooooooooooo +++ ****========* oooooooooooooooooooo",
"oooooooooooooooo XXX ***========== oooooooooooooooooooo",
"oooooooooooooooo XXX ***========== oooooooooooooooooooo",
"ooooooooooooooooo   ***===========* ooooooooooooooooooo",
"oooooooooooooooooo ***=======   =*** oooooooooooooooooo",
"oooooooooooooooooo **======= +++     oooooooooooooooooo",
"ooooooooooooooooo ***====**  +++ oooooooooooooooooooooo",
"ooooooooooooooooo **=====* o +++ oooooooooooooooooooooo",
"ooooooooooooooooo *======* o +++ oooooooooooooooooooooo",
"ooooooooooooooooo *====*** o +++ oooooooooooooooooooooo",
"oooooooooooooooo **===*    o +++ oooooooooooooooooooooo",
"oooooooooooooooo **    .. ooo   ooooooooooooooooooooooo",
"ooooooooooooooooo  ooo .. ooooooooooooooooooooooooooooo",
"oooooooooooooooooooooo .. ooooooooooooooooooooooooooooo",
"ooooooooooooooooooooooo  oooooooooooooooooooooooooooooo",
"ooooooooooooooooooooooooooooooooooooooooooooooooooooooo",
"ooooooooooooooooooooooooooooooooooooooooooooooooooooooo",
"ooooooooooooooooooooooooooooooooooooooooooooooooooooooo",
"ooooooooooooooooooooooooooooooooooooooooooooooooooooooo",
"ooooooooooooooooooooooooooooooooooooooooooooooooooooooo",
"ooooooooooooooooooooooooooooooooooooooooooooooooooooooo"
};
