/* XPM */
static char *_2282_9f2d9aff1e00db92c98150a0d1461eb65b5d8af0b88e00cd56d426e6b153f225[] = {
/* columns rows colors chars-per-pixel */
"55 55 12 1 ",
"  c black",
". c #421F17",
"X c #774030",
"o c #3D3550",
"O c #764D51",
"+ c #B28C3D",
"@ c #DCAF4E",
"# c #D3936A",
"$ c #999CA3",
"% c #F2D4B5",
"& c #CED0D3",
"* c #E9EAEC",
/* pixels */
"ooooooooooooooooooooooooooooooooooooooooooooooooooooooo",
"ooooooooooooooooooooooooooooooooooooooooooooooooooooooo",
"ooooooooooooooooooooooooooooooooooooooooooooooooooooooo",
"ooooooooooooooooooooooooooooooooooooooooooooooooooooooo",
"ooooooooooooooooooooooooooooooooooooooooooooooooooooooo",
"ooooooooooooooooooooooooooooooooooooooooooooooooooooooo",
"ooooooooooooooooooooooooooooooooooooooooooooooooooooooo",
"ooooooooooooooooooooooooooooooooooooooooooooooooooooooo",
"ooooooooooooooooooooooooooooooooooooooooooooooooooooooo",
"ooooooooooooooooooooooooo    oooooooooooooooooooooooooo",
"ooooooooooooooooooooooo  ####  oooooooooooooooooooooooo",
"oooooooooooooooooooooo O#%%%%#O ooooooooooooooooooooooo",
"ooooooooooooooooooooo O#%%%%%%#O oooooooooooooooooooooo",
"ooooooooooooooooooooo #%%%%%%%%# oooooooooooooooooooooo",
"oooooooooooooooooooo O#%%%%%%%%#O ooooooooooooooooooooo",
"oooooooooooooooooooo O#%%%%%%%%#O ooooooooooooooooooooo",
"oooooooooooooooooooo O#%%%%%%%%#O ooooooooooooooooooooo",
"oooooooooooooooooooo O#%%%%%%%%#O ooooooooooooooooooooo",
"oooooooooooooooooooo O##%%%%%%##O ooooooooooooooooooooo",
"oooooooooooooooooooo O###%%%%###O ooooooooooooooooooooo",
"ooooooooooooooooooooo ########## oooooooooooooooooooooo",
"ooooooooooooooooooooo O########O oooooooooooooooooooooo",
"oooooooooooooooooooooo O######O ooooooooooooooooooooooo",
"ooooooooooooooooooooooo O####O oooooooooooooooooooooooo",
"ooooooooooooooooooooo    OOOO    oooooooooooooooooooooo",
"oooooooooooooooooooo &&&&*******& ooooooooooooooooooooo",
"ooooooooooooooooooo $$&&&&******&$ oooooooooooooooooooo",
"ooooooooooooooooooo &&$&&&&****&$$ oooooooooooooooooooo",
"oooooooooooooooooo @ &&$&&&***&$$ @ ooooooooooooooooooo",
"oooooooooooooooooo @ &&&&&****&$& @ ooooooooooooooooooo",
"ooooooooooooooooo +@ &&&&&***&&&& @+ oooooooooooooooooo",
"ooooooooooooooooo +@ &&&&&***&&&& ++ oooooooooooooooooo",
"ooooooooooooooooo ++ &&&&&&***&&& ++ oooooooooooooooooo",
"ooooooooooooooooo ++ &&&&&&***&&&& + oooooooooooooooooo",
"oooooooooooooooooo  &&&**&&&***&&&& ooooooooooooooooooo",
"ooooooooooooooooooo &&***&&&****&&& ooooooooooooooooooo",
"ooooooooooooooooooo &&****&&****&&& ooooooooooooooooooo",
"ooooooooooooooooooo &*****&&&****&& ooooooooooooooooooo",
"ooooooooooooooooooo &*****&&&****&& ooooooooooooooooooo",
"ooooooooooooooooooo *******&&****&& ooooooooooooooooooo",
"ooooooooooooooooooo *******&&*****& ooooooooooooooooooo",
"oooooooooooooooooo *********&&****&& oooooooooooooooooo",
"oooooooooooooooooo *     ****&*****& oooooooooooooooooo",
"oooooooooooooooooo  oo XX   &&&****& oooooooooooooooooo",
"oooooooooooooooooooooo XX oo      *& oooooooooooooooooo",
"oooooooooooooooooooooo .. oo XX oo   oooooooooooooooooo",
"oooooooooooooooooooooo .. oo XX ooooooooooooooooooooooo",
"oooooooooooooooooooooooooooo XX ooooooooooooooooooooooo",
"oooooooooooooooooooooooooooo XX ooooooooooooooooooooooo",
"ooooooooooooooooooooooooooooooooooooooooooooooooooooooo",
"ooooooooooooooooooooooooooooooooooooooooooooooooooooooo",
"ooooooooooooooooooooooooooooooooooooooooooooooooooooooo",
"ooooooooooooooooooooooooooooooooooooooooooooooooooooooo",
"ooooooooooooooooooooooooooooooooooooooooooooooooooooooo",
"ooooooooooooooooooooooooooooooooooooooooooooooooooooooo"
};
