/* XPM */
static char *_5116_a701a58ce6524bf7085fcd3debe92af80997100277ff4ea651645e2eaddfa6ef[] = {
/* columns rows colors chars-per-pixel */
"55 55 11 1 ",
"  c black",
". c #774030",
"X c #764D51",
"o c #9F5542",
"O c #DCAF4E",
"+ c #D3936A",
"@ c #999CA3",
"# c #F2D4B5",
"$ c #CED0D3",
"% c #E9EAEC",
"& c None",
/* pixels */
"&&&&&&&&&&&&&&&&&&&&&&&&&&&&&&&&&&&&&&&&&&&&&&&&&&&&&&&",
"&&&&&&&&&&&&&&&&&&&&&&&&&&&&&&&&&&&&&&&&&&&&&&&&&&&&&&&",
"&&&&&&&&&&&&&&&&&&&&&&&&&&&&&&&&&&&&&&&&&&&&&&&&&&&&&&&",
"&&&&&&&&&&&&&&&&&&&&&&&&&&&&&&&&&&&&&&&&&&&&&&&&&&&&&&&",
"&&&&&&&&&&&&&&&&&&&&&&&&&&&&&&&&&&&&&&&&&&&&&&&&&&&&&&&",
"&&&&&&&&&&&&&&&&&&&&&&&&&&&&&&&&&&&&&&&&&&&&&&&&&&&&&&&",
"&&&&&&&&&&&&&&&&&&&&&&&&&&&&&&&&&&&&&&&&&&&&&&&&&&&&&&&",
"&&&&&&&&&&&&&&&&&&&&&&&&&&&&&&&&&&&&&&&&&&&&&&&&&&&&&&&",
"&&&&&&&&&&&&&&&&&&&&&&&&&&&&&&&&&&&&&&&&&&&&&&&&&&&&&&&",
"&&&&&&&&&&&&&&&&&&&&&&&&&    &&&&&&&&&&&&&&&&&&&&&&&&&&",
"&&&&&&&&&&&&&&&&&&&&&&&  ++++  &&&&&&&&&&&&&&&&&&&&&&&&",
"&&&&&&&&&&&&&&&&&&&&&& X+####+X &&&&&&&&&&&&&&&&&&&&&&&",
"&&&&&&&&&&&&&&&&&&&&& X+######+X &&&&&&&&&&&&&&&&&&&&&&",
"&&&&&&&&&&&&&&&&&&&&& +########+ &&&&&&&&&&&&&&&&&&&&&&",
"&&&&&&&&&&&&&&&&&&&& X+########+X &&&&&&&&&&&&&&&&&&&&&",
"&&&&&&&&&&&&&&&&&&&& X+########+X &&&&&&&&&&&&&&&&&&&&&",
"&&&&&&&&&&&&&&&&&&&& X+########+X &&&&&&&&&&&&&&&&&&&&&",
"&&&&&&&&&&&&&&&&&&&& X+########+X &&&&&&&&&&&&&&&&&&&&&",
"&&&&&&&&&&&&&&&&&&&& X++######++X &&&&&&&&&&&&&&&&&&&&&",
"&&&&&&&&&&&&&&&&&&&&& +++####+++ &&&&&&&&&&&&&&&&&&&&&&",
"&&&&&&&&&&&&&&&&&&&&& X++++++++X &&&&&&&&&&&&&&&&&&&&&&",
"&&&&&&&&&&&&&&&&&&&&&& X++++++X &&&&&&&&&&&&&&&&&&&&&&&",
"&&&&&&&&&&&&&&&&&&&&&&& X++++X &&&&&&&&&&&&&&&&&&&&&&&&",
"&&&&&&&&&&&&&&&&&&&&&&   XXXX   &&&&&&&&&&&&&&&&&&&&&&&",
"&&&&&&&&&&&&&&&&&&&&& $$$%%%%$$$ &&&&&&&&&&&&&&&&&&&&&&",
"&&&&&&&&&&&&&&&&&&&& @@$$$$$$$$$@ &&&&&&&&&&&&&&&&&&&&&",
"&&&&&&&&&&&&&&&&&&& @$@@$$$$$$$@@@ &&&&&&&&&&&&&&&&&&&&",
"&&&&&&&&&&&&&&&&&& O $$@$$$$$$$$$ O &&&&&&&&&&&&&&&&&&&",
"&&&&&&&&&&&&&&&&&& O $$$%$$$$%%$$ O &&&&&&&&&&&&&&&&&&&",
"&&&&&&&&&&&&&&&&& OO $%$%%$$%%$$$ OO &&&&&&&&&&&&&&&&&&",
"&&&&&&&&&&&&&&&&& O $$%%$%%%%$$$$$ O &&&&&&&&&&&&&&&&&&",
"&&&&&&&&&&&&&&&& oo $$%%%$%%$$$$$$ oo &&&&&&&&&&&&&&&&&",
"&&&&&&&&&&&&&&&& oo $%%%%$$$$$$$$$ oo &&&&&&&&&&&&&&&&&",
"&&&&&&&&&&&&&&&& .. $%%$%%%$$%$$$$ .. &&&&&&&&&&&&&&&&&",
"&&&&&&&&&&&&&&&& .. $%$$$%%%%$$$$$ .. &&&&&&&&&&&&&&&&&",
"&&&&&&&&&&&&&&&&&  $%%%$$$%%$$$$$$$  &&&&&&&&&&&&&&&&&&",
"&&&&&&&&&&&&&&&&&& $%%%$$$$$$$$%$$$ &&&&&&&&&&&&&&&&&&&",
"&&&&&&&&&&&&&&&&&& %%%%%$$$$$$$%$$$ &&&&&&&&&&&&&&&&&&&",
"&&&&&&&&&&&&&&&&& $%%%%%%$$$$$%%%$$$ &&&&&&&&&&&&&&&&&&",
"&&&&&&&&&&&&&&&&& %%$$%%%%$$$%%%%$$$ &&&&&&&&&&&&&&&&&&",
"&&&&&&&&&&&&&&&&& %%$$$%%%%$%%$%%%$$ &&&&&&&&&&&&&&&&&&",
"&&&&&&&&&&&&&&&&& %$$$$$%%%%%%$%%%$$ &&&&&&&&&&&&&&&&&&",
"&&&&&&&&&&&&&&&&&& $$$$$$$%%%$$$%%% &&&&&&&&&&&&&&&&&&&",
"&&&&&&&&&&&&&&&&&&&  $$$$$$%$$$$$  &&&&&&&&&&&&&&&&&&&&",
"&&&&&&&&&&&&&&&&&&& .            . &&&&&&&&&&&&&&&&&&&&",
"&&&&&&&&&&&&&&&&&&& .o &&&&&&&& o. &&&&&&&&&&&&&&&&&&&&",
"&&&&&&&&&&&&&&&&&& .oo &&&&&&&& oo. &&&&&&&&&&&&&&&&&&&",
"&&&&&&&&&&&&&&&&&& .o &&&&&&&&&& o. &&&&&&&&&&&&&&&&&&&",
"&&&&&&&&&&&&&&&&& .oo &&&&&&&&&& oo. &&&&&&&&&&&&&&&&&&",
"&&&&&&&&&&&&&&&&&&&&&&&&&&&&&&&&&&&&&&&&&&&&&&&&&&&&&&&",
"&&&&&&&&&&&&&&&&&&&&&&&&&&&&&&&&&&&&&&&&&&&&&&&&&&&&&&&",
"&&&&&&&&&&&&&&&&&&&&&&&&&&&&&&&&&&&&&&&&&&&&&&&&&&&&&&&",
"&&&&&&&&&&&&&&&&&&&&&&&&&&&&&&&&&&&&&&&&&&&&&&&&&&&&&&&",
"&&&&&&&&&&&&&&&&&&&&&&&&&&&&&&&&&&&&&&&&&&&&&&&&&&&&&&&",
"&&&&&&&&&&&&&&&&&&&&&&&&&&&&&&&&&&&&&&&&&&&&&&&&&&&&&&&"
};
