/* XPM */
static char *_4535_02b6794218f601f4749d4c8780ce49ae7e02364381a445747178d1fe78deb6e8[] = {
/* columns rows colors chars-per-pixel */
"55 55 13 1 ",
"  c black",
". c #421F17",
"X c #774030",
"o c #764D51",
"O c #9F5542",
"+ c #B28C3D",
"@ c #DCAF4E",
"# c #D3936A",
"$ c #999CA3",
"% c #F2D4B5",
"& c #CED0D3",
"* c #E9EAEC",
"= c None",
/* pixels */
"=======================================================",
"=======================================================",
"=======================================================",
"=======================================================",
"=======================================================",
"=======================================================",
"=======================================================",
"=======================================================",
"=========================    ==========================",
"=======================  ####  ========================",
"====================== o#%%%%#o =======================",
"===================== o#%%%%%%#o ======================",
"===================== #%%%%%%%%# ======================",
"==================== o#%%%%%%%%#o =====================",
"==================== o#%%%%%%%%#o =====================",
"==================== o#%%%%%%%%#o =====================",
"==================== o#%%%%%%%%#o =====================",
"==================== o##%%%%%%##o =====================",
"==================== o###%%%%###o =====================",
"===================== ########## ======================",
"===================== o########o ======================",
"====================== o######o =======================",
"======================= o####o ========================",
"=====================    oooo    ======================",
"==================== &&&&*******& =====================",
"=================== $$&&&&******&$ ====================",
"=================== $$$&&&&****&$$ ====================",
"================== + &$$&&&***&$$ @ ===================",
"================== + &&$&&&&**&$$ @ ===================",
"================== + &&&&&&&&&&$& @ ===================",
"===================  &&&*&&&&&$& @@ ===================",
"==================== &&***&&&$$& +++ ==================",
"=================== &&&****&&&&& +++ ==================",
"=================== &&******&&&&& +OO =================",
"=================== &*******&&&&& OOO =================",
"=================== *********&&&& XXX =================",
"=================== *********&&&& XXX =================",
"================== &***********&&&   ==================",
"================= &&&*   ******&&&& ===================",
"=================     OOO ******&&& ===================",
"===================== OOO  &&*****&& ==================",
"===================== OOO = &*****&& ==================",
"===================== OOO = &******& ==================",
"===================== OOO = &&&****& ==================",
"===================== OOO =    &***&& =================",
"======================   === ..    && =================",
"============================ .. ===  ==================",
"============================ .. =======================",
"=============================  ========================",
"=======================================================",
"=======================================================",
"=======================================================",
"=======================================================",
"=======================================================",
"======================================================="
};
