/* XPM */
static char *_03_299b996084f902135fa1813e1fb07fbeb4430140c4ebccfa2d8d5d77b19c1f03[] = {
/* columns rows colors chars-per-pixel */
"55 55 12 1 ",
"  c black",
". c #421F17",
"X c #774030",
"o c #764D51",
"O c #B28C3D",
"+ c #DCAF4E",
"@ c #D3936A",
"# c #999CA3",
"$ c #F2D4B5",
"% c #CED0D3",
"& c #E9EAEC",
"* c None",
/* pixels */
"*******************************************************",
"*******************************************************",
"*******************************************************",
"*******************************************************",
"*******************************************************",
"*******************************************************",
"*******************************************************",
"*******************************************************",
"*******************************************************",
"*************************    **************************",
"***********************  @@@@  ************************",
"********************** o@$$$$@o ***********************",
"********************* o@$$$$$$@o **********************",
"********************* @$$$$$$$$@ **********************",
"******************** o@$$$$$$$$@o *********************",
"******************** o@$$$$$$$$@o *********************",
"******************** o@$$$$$$$$@o *********************",
"******************** o@$$$$$$$$@o *********************",
"******************** o@@$$$$$$@@o *********************",
"******************** o@@@$$$$@@@o *********************",
"********************* @@@@@@@@@@ **********************",
"********************* o@@@@@@@@o **********************",
"********************** o@@@@@@o ***********************",
"*********************** o@@@@o ************************",
"*********************    oooo    **********************",
"******************** %&&&&&&&%%%% *********************",
"******************* #%&&&&&&%%%%## ********************",
"******************* ##%&&&&%%%%#%% ********************",
"****************** + ##%&&&%%%#%% + *******************",
"****************** + %#%&&&%%%%%% + *******************",
"***************** O+ %%%%&&&%%%%% +O ******************",
"***************** OO %%%%&%&%%%%% +O ******************",
"***************** OO %%%%&&&%%%%% OO ******************",
"***************** O %%%%&&&%%%&&% OO ******************",
"****************** %%%%&&&%%%%&&%%  *******************",
"****************** %%%&&&&%%%&&&%% ********************",
"****************** %%%&&&&%%&&&&%% ********************",
"****************** %%&&&&%%%&&&&&% ********************",
"****************** %%&&&&%%%&&&&&% ********************",
"****************** %%&&&&%%&&&&&&& ********************",
"****************** %&&&&&%%&&&&&&& ********************",
"***************** %%&&&&%%&&&&&&&&& *******************",
"***************** %&&&&&%&&&&     & *******************",
"***************** %&&&&%%%   XX **  *******************",
"***************** %&      ** XX ***********************",
"*****************   ** XX ** .. ***********************",
"********************** XX ** .. ***********************",
"********************** XX *****************************",
"********************** XX *****************************",
"*******************************************************",
"*******************************************************",
"*******************************************************",
"*******************************************************",
"*******************************************************",
"*******************************************************"
};
