/* XPM */
static char *_6856_4af0f4f28d806c6c83c5b471b26de301c5160e1d16853da9358a59dfe80474d6[] = {
/* columns rows colors chars-per-pixel */
"55 55 17 1 ",
"  c black",
". c #3F403A",
"X c #774030",
"o c #3D3550",
"O c #764D51",
"+ c #646369",
"@ c #9F5542",
"# c #C47F66",
"$ c #B28C3D",
"% c #BA9C5C",
"& c #DCAF4E",
"* c #D3936A",
"= c #999CA3",
"- c #EACA88",
"; c #F2D4B5",
": c #CED0D3",
"> c #E9EAEC",
/* pixels */
"ooooooooooooooooooooooooooooooooooooooooooooooooooooooo",
"ooooooooooooooooooooooooooooooooooooooooooooooooooooooo",
"ooooooooooooooooooooooooooooooooooooooooooooooooooooooo",
"ooooooooooooooooooooooooooooooooooooooooooooooooooooooo",
"ooooooooooooooooooooooooooooooooooooooooooooooooooooooo",
"ooooooooooooooooooooooooooooooooooooooooooooooooooooooo",
"ooooooooooooooooooooooooo    oooooooooooooooooooooooooo",
"ooooooooooooooooooooooo  ****  oooooooooooooooooooooooo",
"oooooooooooooooooooooo *;;;;;;* ooooooooooooooooooooooo",
"ooooooooooooooooooooo *;;;;;;;;* oooooooooooooooooooooo",
"ooooooooooooooooooooo ;;;;;;;;;; oooooooooooooooooooooo",
"oooooooooooooooooooo O;;;;;;;;;;O ooooooooooooooooooooo",
"oooooooooooooooooooo O;;;;;;;;;;O ooooooooooooooooooooo",
"oooooooooooooooooooo O*;;;;;;;;*O ooooooooooooooooooooo",
"oooooooooooooooooooo O*   ;;   *O ooooooooooooooooooooo",
"oooooooooooooooooooo O*>+>**>+>*O ooooooooooooooooooooo",
"oooooooooooooooooooo O*>+>**>+>*O ooooooooooooooooooooo",
"ooooooooooooooooooooo *;;>;;>;;* oooooooooooooooooooooo",
"ooooooooooooooooooooo *;;;;;;;;* oooooooooooooooooooooo",
"oooooooooooooooooooooo *;;;;;;* ooooooooooooooooooooooo",
"ooooooooooooooooooooooo *;;;;* oooooooooooooooooooooooo",
"oooooooooooooooooooooo   *;;*   ooooooooooooooooooooooo",
"ooooooooooooooooooooo >:=O**O=:> oooooooooooooooooooooo",
"oooooooooooooooooooo :+>======>+: ooooooooooooooooooooo",
"ooooooooooooooooooo &&---====--&$ ooooooooooooooooooooo",
"ooooooooooooooooooo &&&-------&&$$ oooooooooooooooooooo",
"oooooooooooooooooo && &&&----&&& & oooooooooooooooooooo",
"ooooooooooooooooo &   $$&&--&&&   & ooooooooooooooooooo",
"ooooooooooooooooo  @@# $$$&&&$ @@@  ooooooooooooooooooo",
"ooooooooooooooooo @@@@# $$$&$$ @@## ooooooooooooooooooo",
"ooooooooooooooooo X@@@@ $$$$$$ @@@@ ooooooooooooooooooo",
"ooooooooooooooooo XX@@@ ..%%.. X@@@ ooooooooooooooooooo",
"ooooooooooooooooo  XX@  ..%%.. XX@@ ooooooooooooooooooo",
"oooooooooooooooooo     &&-&----    oooooooooooooooooooo",
"ooooooooooooooooooo : &---&---- : ooooooooooooooooooooo",
"ooooooooooooooooooo : &---&---- : ooooooooooooooooooooo",
"ooooooooooooooooooo : &---&---- : ooooooooooooooooooooo",
"ooooooooooooooooooo : &&&&$----- : oooooooooooooooooooo",
"ooooooooooooooooooo : $&&$ &&--- : oooooooooooooooooooo",
"oooooooooooooooooo :: $$$   &&&- : oooooooooooooooooooo",
"oooooooooooooooooo :: $$  : $&&& : oooooooooooooooooooo",
"oooooooooooooooooo :: $$ :: $$$& :: ooooooooooooooooooo",
"oooooooooooooooooo :  $$  : $$$$ :: ooooooooooooooooooo",
"oooooooooooooooooo  o XX o   XX     ooooooooooooooooooo",
"ooooooooooooooooooooo XX ooo XX ooooooooooooooooooooooo",
"oooooooooooooooooooooo  ooooo X ooooooooooooooooooooooo",
"ooooooooooooooooooooooooooooo X ooooooooooooooooooooooo",
"ooooooooooooooooooooooooooooo @ ooooooooooooooooooooooo",
"ooooooooooooooooooooooooooooo @@ oooooooooooooooooooooo",
"ooooooooooooooooooooooooooooooooooooooooooooooooooooooo",
"ooooooooooooooooooooooooooooooooooooooooooooooooooooooo",
"ooooooooooooooooooooooooooooooooooooooooooooooooooooooo",
"ooooooooooooooooooooooooooooooooooooooooooooooooooooooo",
"ooooooooooooooooooooooooooooooooooooooooooooooooooooooo",
"ooooooooooooooooooooooooooooooooooooooooooooooooooooooo"
};
