/* XPM */
static char *_824_b4d77872c7cc586b8a6d424dd1f4111c5ea00b9bf160d2397725dd561e1d0bb2[] = {
/* columns rows colors chars-per-pixel */
"55 55 17 1 ",
"  c black",
". c #3F403A",
"X c #774030",
"o c #3D3550",
"O c #764D51",
"+ c #646369",
"@ c #9F5542",
"# c #C47F66",
"$ c #B28C3D",
"% c #BA9C5C",
"& c #DCAF4E",
"* c #D3936A",
"= c #999CA3",
"- c #EACA88",
"; c #F2D4B5",
": c #CED0D3",
"> c #E9EAEC",
/* pixels */
"ooooooooooooooooooooooooooooooooooooooooooooooooooooooo",
"ooooooooooooooooooooooooooooooooooooooooooooooooooooooo",
"ooooooooooooooooooooooooooooooooooooooooooooooooooooooo",
"ooooooooooooooooooooooooooooooooooooooooooooooooooooooo",
"ooooooooooooooooooooooooooooooooooooooooooooooooooooooo",
"ooooooooooooooooooooooooooooooooooooooooooooooooooooooo",
"ooooooooooooooooooooooooo    oooooooooooooooooooooooooo",
"ooooooooooooooooooooooo  ****  oooooooooooooooooooooooo",
"oooooooooooooooooooooo *;;;;;;* ooooooooooooooooooooooo",
"ooooooooooooooooooooo *;;;;;;;;* oooooooooooooooooooooo",
"ooooooooooooooooooooo ;;;;;;;;;; oooooooooooooooooooooo",
"oooooooooooooooooooo O;;;;;;;;;;O ooooooooooooooooooooo",
"oooooooooooooooooooo O;;;;;;;;;;O ooooooooooooooooooooo",
"oooooooooooooooooooo O*;;;;;;;;*O ooooooooooooooooooooo",
"oooooooooooooooooooo O*   ;;   *O ooooooooooooooooooooo",
"oooooooooooooooooooo O*>+>**>+>*O ooooooooooooooooooooo",
"oooooooooooooooooooo O*>+>**>+>*O ooooooooooooooooooooo",
"ooooooooooooooooooooo *;;>;;>;;* oooooooooooooooooooooo",
"ooooooooooooooooooooo *;;;;;;;;* oooooooooooooooooooooo",
"oooooooooooooooooooooo *;;;;;;* ooooooooooooooooooooooo",
"ooooooooooooooooooooooo *;;;;* oooooooooooooooooooooooo",
"oooooooooooooooooooooo   *;;*   ooooooooooooooooooooooo",
"ooooooooooooooooooooo >:=O**O=:> oooooooooooooooooooooo",
"oooooooooooooooooooo :+>======>+: ooooooooooooooooooooo",
"ooooooooooooooooooo $$---====----& oooooooooooooooooooo",
"ooooooooooooooooooo $&&&-------&&& oooooooooooooooooooo",
"ooooooooooooooooooo & &&&---&&&& && ooooooooooooooooooo",
"oooooooooooooooooo &   &&&&&&&$$   & oooooooooooooooooo",
"oooooooooooooooooo  @@@ $&&&$$$ #@@  oooooooooooooooooo",
"oooooooooooooooooo ##@@ $$&$$$ #@@@@ oooooooooooooooooo",
"oooooooooooooooooo @@@@ $$$$$$ @@@@X oooooooooooooooooo",
"oooooooooooooooooo @@@X ..%%.. @@@XX oooooooooooooooooo",
"oooooooooooooooooo @@XX ..%%..  @XX  oooooooooooooooooo",
"ooooooooooooooooooo    ----&-&&     ooooooooooooooooooo",
"oooooooooooooooooooo : ----&---& : oooooooooooooooooooo",
"oooooooooooooooooooo : ----&---& : oooooooooooooooooooo",
"oooooooooooooooooooo : ----&---& : oooooooooooooooooooo",
"ooooooooooooooooooo : -----$&&&& : oooooooooooooooooooo",
"ooooooooooooooooooo : ---&& $&&$ : oooooooooooooooooooo",
"ooooooooooooooooooo : -&&&   $$$ :: ooooooooooooooooooo",
"ooooooooooooooooooo : &&&$ :  $$ :: ooooooooooooooooooo",
"oooooooooooooooooo :: &$$$ :: $$ :: ooooooooooooooooooo",
"oooooooooooooooooo :: $$$$ :  $$  : ooooooooooooooooooo",
"oooooooooooooooooo     XX   o XX o  ooooooooooooooooooo",
"oooooooooooooooooooooo XX ooo XX oooooooooooooooooooooo",
"oooooooooooooooooooooo X ooooo  ooooooooooooooooooooooo",
"oooooooooooooooooooooo X oooooooooooooooooooooooooooooo",
"oooooooooooooooooooooo @ oooooooooooooooooooooooooooooo",
"ooooooooooooooooooooo @@ oooooooooooooooooooooooooooooo",
"ooooooooooooooooooooooooooooooooooooooooooooooooooooooo",
"ooooooooooooooooooooooooooooooooooooooooooooooooooooooo",
"ooooooooooooooooooooooooooooooooooooooooooooooooooooooo",
"ooooooooooooooooooooooooooooooooooooooooooooooooooooooo",
"ooooooooooooooooooooooooooooooooooooooooooooooooooooooo",
"ooooooooooooooooooooooooooooooooooooooooooooooooooooooo"
};
