/* XPM */
static char *_5938_73dccfcd06c89886a380bdd92805a29c4c097789a1d9654dcc06b4737b95f5a1[] = {
/* columns rows colors chars-per-pixel */
"55 55 16 1 ",
"  c black",
". c #3F403A",
"X c #774030",
"o c #3D3550",
"O c #59585A",
"+ c #764D51",
"@ c #9F5542",
"# c #B28C3D",
"$ c #BA9C5C",
"% c #DCAF4E",
"& c #D3936A",
"* c #EACA88",
"= c #F2D4B5",
"- c #CED0D3",
"; c #E9EAEC",
": c #F3F5F5",
/* pixels */
"ooooooooooooooooooooooooooooooooooooooooooooooooooooooo",
"ooooooooooooooooooooooooooooooooooooooooooooooooooooooo",
"ooooooooooooooooooooooooooooooooooooooooooooooooooooooo",
"ooooooooooooooooooooooooooooooooooooooooooooooooooooooo",
"ooooooooooooooooooooooooooooooooooooooooooooooooooooooo",
"ooooooooooooooooooooooooooooooooooooooooooooooooooooooo",
"ooooooooooooooooooooooooooooooooooooooooooooooooooooooo",
"ooooooooooooooooooooooooooooooooooooooooooooooooooooooo",
"ooooooooooooooooooooooooooooooooooooooooooooooooooooooo",
"ooooooooooooooooooooooooooooooooooooooooooooooooooooooo",
"oooooooooooooooooo    ooooooooooooooooooooooooooooooooo",
"oooooooooooooooo  ====  ooooooooooooooooooooooooooooooo",
"ooooooooooooooo ===&&&== oooooooooooooooooooooooooooooo",
"oooooooooooooo ==&&&&&&&= ooooooooooooooooooooooooooooo",
"oooooooooooooo ==&&&&&&&& ooooooooooooooooooooooooooooo",
"ooooooooooooo ===&&&&&&&&& oooooooooooooooooooooooooooo",
"ooooooooooooo ===&&&&&&&&& oooooooooooooooooooooooooooo",
"ooooooooooooo ===&&&&&&++& oooooooooooooooooooooooooooo",
"ooooooooooooo ==   &&&&+&+ oooooooooooooooooooooooooooo",
"oooooooooooooo =O::&&&+&& ooooooooooooooooooooooooooooo",
"oooooooooooooo =O:&&&&+&& ooooooooooooooooooooooooooooo",
"ooooooooooooo ====&&&&++                 oooooooooooooo",
"oooooooooooooo ===&&&&+ ----;;;;;;---;;;;  oooooooooooo",
"ooooooooooooooo ==&&&+ ;;;;;;;;;;------;;;; ooooooooooo",
"oooooooooooo  oo ==&+ ;;;;;-;;;;;;------;;;- oooooooooo",
"ooooooooooo @@ oo      ;;;;---;;;;;;-------- oooooooooo",
"oooooooooo @@@@  oo **%  ;;;;--------------- oooooooooo",
"oooooooooo @XX@@@  ***%**   ;;;;------------ oooooooooo",
"oooooooooo @X@@@@**%%** *%*%  ;;;;;;;------ ooooooooooo",
"ooooooooooo     X****  *%*%%%%    ;;;;;;--- ooooooooooo",
"oooooooooooooooo %** o **%%%... oo    ;;;-- ooooooooooo",
"ooooooooooooooooo   ooo *% ..... ooooo   -- ooooooooooo",
"oooooooooooooooooooooooo  $ .%** oooo   @   ooooooooooo",
"ooooooooooooooooooooooooo % *%**% oo %X@XX@@ oooooooooo",
"oooooooooooooooooooooooo # %**%*% o %%%X  X@ oooooooooo",
"ooooooooooooooooooooooo  #*%*****% ##%% oo X oooooooooo",
"oooooooooooooooooooooo ***#%******%##% oooo  oooooooooo",
"oooooooooooooooooooo  ****#%%%%***%##% oooooooooooooooo",
"ooooooooooooooooooo *****%*#%*****%#% ooooooooooooooooo",
"oooooooooooooooooo %****%#%    %*%#% oooooooooooooooooo",
"oooooooooooooooooo #%%%%#  oooo     ooooooooooooooooooo",
"ooooooooooooooooo ###### oooooooooooooooooooooooooooooo",
"oooooooooooooooo %%#### ooooooooooooooooooooooooooooooo",
"oooooooooooooooo X%%%% oooooooooooooooooooooooooooooooo",
"oooooooooooooooo XX%  ooooooooooooooooooooooooooooooooo",
"ooooooooooooooo XX  ooooooooooooooooooooooooooooooooooo",
"oooooooooooooo XX ooooooooooooooooooooooooooooooooooooo",
"oooooooooooo  XX oooooooooooooooooooooooooooooooooooooo",
"ooooooooooo XXXX oooooooooooooooooooooooooooooooooooooo",
"ooooooooooooooooooooooooooooooooooooooooooooooooooooooo",
"ooooooooooooooooooooooooooooooooooooooooooooooooooooooo",
"ooooooooooooooooooooooooooooooooooooooooooooooooooooooo",
"ooooooooooooooooooooooooooooooooooooooooooooooooooooooo",
"ooooooooooooooooooooooooooooooooooooooooooooooooooooooo",
"ooooooooooooooooooooooooooooooooooooooooooooooooooooooo"
};
