/* XPM */
static char *_1600_214563cdfe74d5d288b3dc537e13207c23dd2563f27cc239a00ac06756e54ed4[] = {
/* columns rows colors chars-per-pixel */
"55 55 15 1 ",
"  c black",
". c #774030",
"X c #3D3550",
"o c #59585A",
"O c #764D51",
"+ c #9F5542",
"@ c #B28C3D",
"# c #DCAF4E",
"$ c #D3936A",
"% c #999CA3",
"& c #EACA88",
"* c #F2D4B5",
"= c #CED0D3",
"- c #E9EAEC",
"; c #F3F5F5",
/* pixels */
"XXXXXXXXXXXXXXXXXXXXXXXXXXXXXXXXXXXXXXXXXXXXXXXXXXXXXXX",
"XXXXXXXXXXXXXXXXXXXXXXXXXXXXXXXXXXXXXXXXXXXXXXXXXXXXXXX",
"XXXXXXXXXXXXXXXXXXXXXXXXXXXXXXXXXXXXXXXXXXXXXXXXXXXXXXX",
"XXXXXXXXXXXXXXXXXXXXXXXXXXXXXXXXXXXXXXXXXXXXXXXXXXXXXXX",
"XXXXXXXXXXXXXXXXXXXXXXXXXXXXXXXXXXXXXXXXXXXXXXXXXXXXXXX",
"XXXXXXXXXXXXXXXXXXXXXXXXXXXXXXXXXXXXXXXXXXXXXXXXXXXXXXX",
"XXXXXXXXXXXXXXXXXXXXXXXXXXXXXXXXXXXXXXXXXXXXXXXXXXXXXXX",
"XXXXXXXXXXXXXXXXXXXXXXXXXXXXXXXXXXXXXXXXXXXXXXXXXXXXXXX",
"XXXXXXXXXXXXXXXXXXXXX    XXXXXXXXXXXXXXXXXXXXXXXXXXXXXX",
"XXXXXXXXXXXXXXXXXXX  ****  XXXXXXXXXXXXXXXXXXXXXXXXXXXX",
"XXXXXXXXXXXXXXXXXX ***$$$** XXXXXXXXXXXXXXXXXXXXXXXXXXX",
"XXXXXXXXXXXXXXXXX **$$$$$$$* XXXXXXXXXXXXXXXXXXXXXXXXXX",
"XXXXXXXXXXXXXXXXX **$$$$$$$$ XXXXXXXXXXXXXXXXXXXXXXXXXX",
"XXXXXXXXXXXXXXXX ***$$$$$$$$$ XXXXXXXXXXXXXXXXXXXXXXXXX",
"XXXXXXXXXXXXXXXX ***$$$$$$$$$ XXXXXXXXXXXXXXXXXXXXXXXXX",
"XXXXXXXXXXXXXXXX ***$$$$$$OO$ XXXXXXXXXXXXXXXXXXXXXXXXX",
"XXXXXXXXXXXXXXXX **   $$$$O$O XXXXXXXXXXXXXXXXXXXXXXXXX",
"XXXXXXXXXXXXXXXXX *o;;$$$O$$ XXXXXXXXXXXXXXXXXXXXXXXXXX",
"XXXXXXXXXXXXXXXXX *o;$$$$O$$    XXXXXXXXXXXXXXXXXXXXXXX",
"XXXXXXXXXXXXXXXX ****$$$$OO  -=- XXXXXXXXXXXXXXXXXXXXXX",
"XXXXXXXXXXXXXXXXX ***$$$$O$=-===- XXXXXXXXXXXXXXXXXXXXX",
"XXXXXXXXXXXXXXXXXX **$$$O$--#   == XXXXXXXXXXXXXXXXXXXX",
"XXXXXXXXXXXXXXXXXXX **$O$=-# &&& =- XXXXXXXXXXXXXXXXXXX",
"XXXXXXXXXXXXXXXXXXXX   $==#@&&## ==- XXXXXXXXXXXXXXXXXX",
"XXXXXXXXXXXXXXXXXXXXXX =&&&@&###& -- XXXXXXXXXXXXXXXXXX",
"XXXXXXXXXXXXXXXXXXXXX =&&&&&@#&#&# -- XXXXXXXXXXXXXXXXX",
"XXXXXXXXXXXXXXXXXXXXX =&&&&&&& &&&& -- XXXXXXXXXXXXXXXX",
"XXXXXXXXXXXXXXXXXXXXX &&&##   ##&&& --- XXXXXXXXXXXXXXX",
"XXXXXXXXXXXXXXXXXXXXXX     .&&&&&&#  -- XXXXXXXXXXXXXXX",
"XXXXXXXXXXXXXXXXXXXXX .+++++&&&    %% -- XXXXXXXXXXXXXX",
"XXXXXXXXXXXXXXXXXXXXX ++++++   && %%% ---XXXXXXXXXXXXXX",
"XXXXXXXXXXXXXXXXXXXXX ++..  &&&&& %%%%--- XXXXXXXXXXXXX",
"XXXXXXXXXXXXXXXXXXXXXX +.+ &&&&&& %%%%   XXXXXXXXXXXXXX",
"XXXXXXXXXXXXXXXXXXXXXXX    &&&## %%%% XXXXXXXXXXXXXXXXX",
"XXXXXXXXXXXXXXXXXXXXXXX &&&&##  %%%% XXXXXXXXXXXXXXXXXX",
"XXXXXXXXXXXXXXXXXXXXXX &&&&#& ## %% XX  XXXXXXXXXXXXXXX",
"XXXXXXXXXXXXXXXXXXXXXX &&&&& ####  XX .. XXXXXXXXXXXXXX",
"XXXXXXXXXXXXXXXXXXXXXX ###&# ####@ X ... XXXXXXXXXXXXXX",
"XXXXXXXXXXXXXXXXXXXXXX ####@@ ###@# ..... XXXXXXXXXXXXX",
"XXXXXXXXXXXXXXXXXXXXXX @##@@# ###@#... .. XXXXXXXXXXXXX",
"XXXXXXXXXXXXXXXXXXXXXX @@@@## ###@@#. X . XXXXXXXXXXXXX",
"XXXXXXXXXXXXXXXXXXXXXX @@@### @##@@# XXX  XXXXXXXXXXXXX",
"XXXXXXXXXXXXXXXXXXXXXXX ####   @@@@ XXXXXXXXXXXXXXXXXXX",
"XXXXXXXXXXXXXXXXXXXXXXX .++ XXX    XXXXXXXXXXXXXXXXXXXX",
"XXXXXXXXXXXXXXXXXXXXXXX .+ XXXXXXXXXXXXXXXXXXXXXXXXXXXX",
"XXXXXXXXXXXXXXXXXXXXXXX .+ XXXXXXXXXXXXXXXXXXXXXXXXXXXX",
"XXXXXXXXXXXXXXXXXXXXXX  . XXXXXXXXXXXXXXXXXXXXXXXXXXXXX",
"XXXXXXXXXXXXXXXXXXXXX ... XXXXXXXXXXXXXXXXXXXXXXXXXXXXX",
"XXXXXXXXXXXXXXXXXXXX ..++ XXXXXXXXXXXXXXXXXXXXXXXXXXXXX",
"XXXXXXXXXXXXXXXXXXXXXXXXXXXXXXXXXXXXXXXXXXXXXXXXXXXXXXX",
"XXXXXXXXXXXXXXXXXXXXXXXXXXXXXXXXXXXXXXXXXXXXXXXXXXXXXXX",
"XXXXXXXXXXXXXXXXXXXXXXXXXXXXXXXXXXXXXXXXXXXXXXXXXXXXXXX",
"XXXXXXXXXXXXXXXXXXXXXXXXXXXXXXXXXXXXXXXXXXXXXXXXXXXXXXX",
"XXXXXXXXXXXXXXXXXXXXXXXXXXXXXXXXXXXXXXXXXXXXXXXXXXXXXXX",
"XXXXXXXXXXXXXXXXXXXXXXXXXXXXXXXXXXXXXXXXXXXXXXXXXXXXXXX"
};
