/* XPM */
static char *_4544_7dd8777e5d5f90e164fb76e9025a5e9979403c1e59b5d5aa43b7c2a8036e2502[] = {
/* columns rows colors chars-per-pixel */
"55 55 15 1 ",
"  c black",
". c #774030",
"X c #3D3550",
"o c #59585A",
"O c #764D51",
"+ c #9F5542",
"@ c #B28C3D",
"# c #DCAF4E",
"$ c #D3936A",
"% c #999CA3",
"& c #EACA88",
"* c #F2D4B5",
"= c #CED0D3",
"- c #E9EAEC",
"; c #F3F5F5",
/* pixels */
"XXXXXXXXXXXXXXXXXXXXXXXXXXXXXXXXXXXXXXXXXXXXXXXXXXXXXXX",
"XXXXXXXXXXXXXXXXXXXXXXXXXXXXXXXXXXXXXXXXXXXXXXXXXXXXXXX",
"XXXXXXXXXXXXXXXXXXXXXXXXXXXXXXXXXXXXXXXXXXXXXXXXXXXXXXX",
"XXXXXXXXXXXXXXXXXXXXXXXXXXXXXXXXXXXXXXXXXXXXXXXXXXXXXXX",
"XXXXXXXXXXXXXXXXXXXXXXXXXXXXXXXXXXXXXXXXXXXXXXXXXXXXXXX",
"XXXXXXXXXXXXXXXXXXXXXXXXXXXXXXXXXXXXXXXXXXXXXXXXXXXXXXX",
"XXXXXXXXXXXXXXXXXXXXXXXXXXXXXXXXXXXXXXXXXXXXXXXXXXXXXXX",
"XXXXXXXXXXXXXXXXXXXXXXXXXXXXXXXXXXXXXXXXXXXXXXXXXXXXXXX",
"XXXXXXXXXXXXXXXXXXXXXXXXXXXXXXX    XXXXXXXXXXXXXXXXXXXX",
"XXXXXXXXXXXXXXXXXXXXXXXXXXXXX  ****  XXXXXXXXXXXXXXXXXX",
"XXXXXXXXXXXXXXXXXXXXXXXXXXXX **$$$*** XXXXXXXXXXXXXXXXX",
"XXXXXXXXXXXXXXXXXXXXXXXXXXX *$$$$$$$** XXXXXXXXXXXXXXXX",
"XXXXXXXXXXXXXXXXXXXXXXXXXXX $$$$$$$$** XXXXXXXXXXXXXXXX",
"XXXXXXXXXXXXXXXXXXXXXXXXXX $$$$$$$$$*** XXXXXXXXXXXXXXX",
"XXXXXXXXXXXXXXXXXXXXXXXXXX $$$$$$$$$*** XXXXXXXXXXXXXXX",
"XXXXXXXXXXXXXXXXXXXXXXXXXX $OO$$$$$$*** XXXXXXXXXXXXXXX",
"XXXXXXXXXXXXXXXXXXXXXXXXXX O$O$$$$   ** XXXXXXXXXXXXXXX",
"XXXXXXXXXXXXXXXXXXXXXXXXXXX $$O$$$;;o* XXXXXXXXXXXXXXXX",
"XXXXXXXXXXXXXXXXXXXXXXXXXX  $$O$$$$;o* XXXXXXXXXXXXXXXX",
"XXXXXXXXXXXXXXXXXXXXXXXXX -  OO$$$$**** XXXXXXXXXXXXXXX",
"XXXXXXXXXXXXXXXXXXXXXXX  ==-$$O$$$$*** XXXXXXXXXXXXXXXX",
"XXXXXXXXXXXXXXXXXXXXXX =   #--$O$$$** XXXXXXXXXXXXXXXXX",
"XXXXXXXXXXXXXXXXXXXX  = &&& #-=$O$** XXXXXXXXXXXXXXXXXX",
"XXXXXXXXXXXXXXXXXX  -== ##&&@#==$   XXXXXXXXXXXXXXXXXXX",
"XXXXXXXXXXXXXXXXX --== &###&@&&&= XXXXXXXXXXXXXXXXXXXXX",
"XXXXXXXXXXXXXXX  --== #&#&#@&&&&&= XXXXXXXXXXXXXXXXXXXX",
"XXXXXXXXXXXXX  ---== &&&&& &&&&&&= XXXXXXXXXXXXXXXXXXXX",
"XXXXXXXXXXX  ---==   &&&##   ##&&& XXXXXXXXXXXXXXXXXXXX",
"XXXXXX     ---==  %% #&&&&&&.     XXXXXXXXXXXXXXXXXXXXX",
"XXXXXX ----===  %%%%%    &&&+++++. XXXXXXXXXXXXXXXXXXXX",
"XXXXXX --==   %%%%%%%%%%    ++++++ XXXXXXXXXXXXXXXXXXXX",
"XXXXXXX -  %%%%%%%%%%%% &&&#  ..++ XXXXXXXXXXXXXXXXXXXX",
"XXXXXXX %%%%%%%%%%%%%%% &&&&# +.+ XXXXXXXXXXXXXXXXXXXXX",
"XXXXXXX %%%%%%%%%%%%%% #&&&&&    XXXXXXXXXXXXXXXXXXXXXX",
"XXXXXXXX %%%%%%%  %%%% #&&&&&@#& XXXXXXXXXXXXXXXXXXXXXX",
"XXXXXXXX %%%%%% ++ %%% #&&&&&@#&& XXXXXXXXXXXXXXXXXXXXX",
"XXXXXXXXX %%%%% +++ % #&&&&#@@#&& XXXXXXXXXXXXXXXXXXXXX",
"XXXXXXXXXX %%% ++.++ @#&&&#&  &&& XXXXXXXXXXXXXXXXXXXXX",
"XXXXXXXXXXX    +. .# @#&&#&  #&&&# XXXXXXXXXXXXXXXXXXXX",
"XXXXXXXXXXXXXX . X #@@#&#@@ @@###@ XXXXXXXXXXXXXXXXXXXX",
"XXXXXXXXXXXXXX  XX #@@##@# X @@@@@ XXXXXXXXXXXXXXXXXXXX",
"XXXXXXXXXXXXXXXXXXX #@@@# XX #@@@# XXXXXXXXXXXXXXXXXXXX",
"XXXXXXXXXXXXXXXXXXXX     XXX #### XXXXXXXXXXXXXXXXXXXXX",
"XXXXXXXXXXXXXXXXXXXXXXXXXXXXX ... XXXXXXXXXXXXXXXXXXXXX",
"XXXXXXXXXXXXXXXXXXXXXXXXXXXXXX .. XXXXXXXXXXXXXXXXXXXXX",
"XXXXXXXXXXXXXXXXXXXXXXXXXXXXXX .. XXXXXXXXXXXXXXXXXXXXX",
"XXXXXXXXXXXXXXXXXXXXXXXXXXXXXXX .  XXXXXXXXXXXXXXXXXXXX",
"XXXXXXXXXXXXXXXXXXXXXXXXXXXXXXX ... XXXXXXXXXXXXXXXXXXX",
"XXXXXXXXXXXXXXXXXXXXXXXXXXXXXXX .... XXXXXXXXXXXXXXXXXX",
"XXXXXXXXXXXXXXXXXXXXXXXXXXXXXXXXXXXXXXXXXXXXXXXXXXXXXXX",
"XXXXXXXXXXXXXXXXXXXXXXXXXXXXXXXXXXXXXXXXXXXXXXXXXXXXXXX",
"XXXXXXXXXXXXXXXXXXXXXXXXXXXXXXXXXXXXXXXXXXXXXXXXXXXXXXX",
"XXXXXXXXXXXXXXXXXXXXXXXXXXXXXXXXXXXXXXXXXXXXXXXXXXXXXXX",
"XXXXXXXXXXXXXXXXXXXXXXXXXXXXXXXXXXXXXXXXXXXXXXXXXXXXXXX",
"XXXXXXXXXXXXXXXXXXXXXXXXXXXXXXXXXXXXXXXXXXXXXXXXXXXXXXX"
};
