/* XPM */
static char *_3000_a932bf11d1f4925d749dee5646e3b35d010ed0ec522da3a175bebd4ab98f5c22[] = {
/* columns rows colors chars-per-pixel */
"74 74 66 1 ",
"  c #85345C",
". c #89365B",
"X c #9F3E53",
"o c #A63C4A",
"O c #A93E4B",
"+ c #A7404D",
"@ c #AD434E",
"# c #B1454D",
"$ c #B8464D",
"% c #B9494F",
"& c #A64151",
"* c #B04750",
"= c #B34A51",
"- c #BC4B50",
"; c #BC5456",
": c #BE5758",
"> c #C24B4F",
", c #CE4E4F",
"< c #C44E51",
"1 c #C94F50",
"2 c #C65254",
"3 c #CD5253",
"4 c #CE5957",
"5 c #C25B5A",
"6 c #CB5D5A",
"7 c #D25553",
"8 c #D45955",
"9 c #D35E59",
"0 c #C7625E",
"q c #CC635E",
"w c #D4635C",
"e c #D9665D",
"r c #DA695F",
"t c #CC6760",
"y c #CE6962",
"u c #D16C63",
"i c #DB6E62",
"p c #D67266",
"a c #DC7365",
"s c #D77568",
"d c #DD7768",
"f c #DF796A",
"g c #E27E6D",
"h c #E3826E",
"j c #E48570",
"k c #E98771",
"l c #E68B73",
"z c #E88872",
"x c #E79176",
"c c #E89377",
"v c #E99578",
"b c #EB9D7D",
"n c #ECA27E",
"m c #EEA580",
"M c #EFA982",
"N c #F2B188",
"B c #F5BB8D",
"V c #FAC794",
"C c #FBCA97",
"Z c #FBCC98",
"A c #FDD19B",
"S c #FCD9A6",
"D c #FEE9B6",
"F c #FFEDBA",
"G c #FFF0BD",
"H c None",
/* pixels */
"HHHHHHHHHHHHHHHHHHHHHHHHHHHHHHHHHHHHHHHHHHHHHHHHHHHHHHHHHHHHHHHHHHHHHHHHHH",
"HHHHHHHHHHHHHHHHHHHHHHHHHHHHHHHHHHHHHHHHHHHHHHHHHHHHHHHHHHHHHHHHHHHHHHHHHH",
"HHHHHHHHHHHHHHHHHHHHHHHHHHHHHHHHHHHHHHHHHHHHHHHHHHHHHHHHHHHHHHHHHHHHHHHHHH",
"HHHHHHHHHHHHHHHHHHHHHHHHHHHHHHHHHHHHHHHHHHHHHHHHHHHHHHHHHHHHHHHHHHHHHHHHHH",
"HHHHHHHHHHHHHHHHHHHHHHHHHHHHHHHHHHHHHHHHHHHHHHHHHHHHHHHHHHHHHHHHHHHHHHHHHH",
"HHHHHHHHHHHHHHHHHHHHHHHHHHHHHHHHHHHHHHHHHHHHHHHHHHHHHHHHHHHHHHHHHHHHHHHHHH",
"HHHHHHHHHHHHHHHHHHHHHHHHHHHHHHHHHHHHHHHHHHHHHHHHHHHHHHHHHHHHHHHHHHHHHHHHHH",
"HHHHHHHHHHHHHHHHHHHHHHHHHHHHHHHHHHHHHHHHHHHHHHHHHHHHHHHHHHHHHHHHHHHHHHHHHH",
"HHHHHHHHHHHHHHHHHHHHHHHHHHHHHHHHHHHHHHHHHHHHHHHHHHHHHHHHHHHHHHHHHHHHHHHHHH",
"HHHHHHHHHHHHHHHHHHHHHHHHHHHHHHHHHHHHHHHHHHHHHHHHHHHHHHHHHHHHHHHHHHHHHHHHHH",
"HHHHHHHHHHHHHHHHHHHHHHHHHHHHHHHHHHHHHHHHHHHHHHHHHHHHHHHHHHHHHHHHHHHHHHHHHH",
"HHHHHHHHHHHHHHHHHHHHHHHHHHHHHHHHHHHHHHHHHHHHHHHHHHHHHHHHHHHHHHHHHHHHHHHHHH",
"HHHHHHHHHHHHHHHHHHHHHHHHHHHHHHHHHHHHHHHHHHHHHHHHHHHHHHHHHHHHHHHHHHHHHHHHHH",
"ghgghfhgggghggggggggha783@@@HHHHHHHHHHHHHHHHHHHHHHHHHHHHHHHHHHHHHHHHHHHHHH",
"hggghhhghhhfhhhhhhggha,7<@@@HHHHHHHHHHHHHHHHHHHHHHHHHHHHHHHHHHHHHHHHHHHHHH",
"ggghfvnnnnnnnbnnnbgggd9w4#%%HHHHHHHHHHHHHHHHHHHHHHHHHHHHHHHHHHHHHHHHHHHHHH",
"gggggbmnmnmmnmmmmmfhghhjg,87HHHHHHHHHHHHHHHHHHHHHHHHHHHHHHHHHHHHHHHHHHHHHH",
"hgggghjhjjjjhjjjjhhfhffhi,77HHHHHHHHHHHHHHHHHHHHHHHHHHHHHHHHHHHHHHHHHHHHHH",
"gggggggggfggffhfffjhggjjg,88HHHHHHHHHHHHHHHHHHHHHHHHHHHHHHHHHHHHHHHHHHHHHH",
"ggggggggggggfhfjfjfggfwi9$%%HHHHHHHHHHHHHHHHHHHHHHHHHHHHHHHHHHHHHHHHHHHHHH",
"hjjhhhhhjjhjhjjhhhhhja,7<@@@HHHHHHHHHHHHHHHHHHHHHHHHHHHHHHHHHHHHHHHHHHHHHH",
"iiiiiaiiiiiiiiiiiiaiae78<@@@HHHHHHHHHHHHHHHHHHHHHHHHHHHHHHHHHHHHHHHHHHHHHH",
"HHHHHHHHHHHHHHHHHHHHHHHHHHHHHHHHHHHHHHHHHHHHHHHHHHHHHHHHHHHHHHHHHHHHHHHHHH",
"HHHHHHHHHHHHHHHHHHHHHHHHHHHHHHHHHHHHHHHHHHHHHHHHHHHHHHHHHHHHHHHHHHHHHHHHHH",
"HHHHHHHHHHHHHHHHHHHHHHHHHHHHHHHHHHHHHHHHHHHHHHHHHHHHHHHHHHHHHHHHHHHHHHHHHH",
"HHH@@387dhggggghe78-@@HHHH@@>87ihgggggghghi78<@@HHHHHHHHHHHHHHHHHHHHHHHHHH",
"HH@#@277dgggghghe78-@@HHH@@@>87ihggggggggha,8<@@@HHHHHHHHHHHHHHHHHHHHHHHHH",
"HH@@o17,dgggfgfhe,7%o@HHH+@+>7,rhgfggfggghr,7>o@@HHHHHHHHHHHHHHHHHHHHHHHHH",
"HH<<>eiighvvccxggeg4>>HHH<<>wiiggjvcxcccccgraw>1<HHHHHHHHHHHHHHHHHHHHHHHHH",
"HH887fjjgjMnmMngggjr78HHH877ajhgglMmmmMmMbggji787HHHHHHHHHHHHHHHHHHHHHHHHH",
"HH877aggghvcvvcggggr,8HHH787igggghvcccvvlcgggi778HHHHHHHHHHHHHHHHHHHHHHHHH",
"HH--$ahggggfgfggggh6$>HHH--$uhggggdggfgggggghu#--HHHHHHHHHHHHHHHHHHHHHHHHH",
"HH@@oszhhhhhhhhhhgk5o@HHH@@oyzhjhhhhhhhhhjhhjyo@@HHHHHHHHHHHHHHHHHHHHHHHHH",
"HH@@@wiiaiaiiiaiieg5@@HHH@@@6iiiiaiiaiiaiiiia6@@@HHHHHHHHHHHHHHHHHHHHHHHHH",
"HHHHHHHHHHHHHHHHHHHHHHHHHHHHHHHHHHHHHHHHHHHHHHHHHHHHHHHHHHHHHHHHHHHHHHHHHH",
"HHHHHHHHHHHHHHHHHHHHHHHHHHHHHHHHHHHHHHHHHHHHHHHHHHHHHHHHHHHHHHHHHHHHHHHHHH",
"HHHHHHHHHHHHHHHHHHHHHHHHHHHHHHHHHHHHHHHHHHHHHHHHHHHHHHHHHHHHHHHHHHHHHHHHHH",
"HHH@ophhggghgggggggggggggggggfggggj=@@HHH#Ouhgggghhhghgh=@@HHHHHHHHHHHHHHH",
"HH@#@phggggggggghjhhhhjhhhhhjjggggh=@@HH@@ouhgggggggghhg*@@HHHHHHHHHHHHHHH",
"HH@@ophggghggggglvcnmMmnmnmnmmvgggh=o@HH@@ouhglxjlljjjgg@+@HHHHHHHHHHHHHHH",
"HH2<>igggggghggghffhljvMmnnbmmvfggh4>2HH22>ihgvnmmmmmmgg22<HHHHHHHHHHHHHHH",
"HH787gggggggggggghgggfhhgjhjjhhgggg877HH787ahfvbvbbbbvfh878HHHHHHHHHHHHHHH",
"HH77,ghgggggggggghghhhggggggfgggfhh877HH77,ihgfggggggggg877HHHHHHHHHHHHHHH",
"HH7875qhghhhhggggfgggfghgggggggghfh878HH777ahghggggggggg877HHHHHHHHHHHHHHH",
"HH223@o==sddsgkkhhhffgfhgggggggghfh433HH33,ahfhggggghfjh433HHHHHHHHHHHHHHH",
"HH   &#@@@+@o;uquqpkhzhhhhggggghhhj=@@HH@@oyhhhfggggfhgg@@@HHHHHHHHHHHHHHH",
"HH.. O#@@@@@#@o+oo#5;5;fhfhffhgfffh=@@HH@@+uhhghfhggfhgg*@#HHHHHHHHHHHHHHH",
"HH.. &@@#@@@@@###*@@ooo*===========@+@HH@#@2888898888888#@@HHHHHHHHHHHHHHH",
"HHHHHHHHHHHHHHHHHHHHHHHHHHHHHHHHHHHHHHHHHHHHHHHHHHHHHHHHHHHHHHHHHHHHHHHHHH",
"HHHHHHHHHHHHHHHHHHHHHHHHHHHHHHHHHHHHHHHHHHHHHHHHHHHHHHHHHHHHHHHHHHHHHHHHHH",
"HHHHHHHHHHHHHHHHHHHHHHHHHHHHH.. 287fhgggggggggggggggg=@@HH777ajj;@@HHHHHHH",
"gjggjggggghgghggggje777HHHHHH.. 277gggjggjgggjggghggg*@@HH777agh;o*HHHHHHH",
"gggghghggjghggggggje777HHHHHH.  277gggggggggggggghggg=@@HH78,agj;O@HHHHHHH",
"jggggggggggghgghgghe137HHHHHH&@OaggggggggggghggjggghgfffHHggggggfffHHHHHHH",
"gggggggggggggggggggaeeeHHHHHH@@@fgggggjgggjgggggggggggggHHggggggghgHHHHHHH",
"gghhjghghghgghggggghhjjHHHHHH##@sgggggggggggghghghggghhhHHhhggggghhHHHHHHH",
"aadggaffgggggggggggggggHHHHHH&&oaggggggggggggggggggggsaaHHpspfhggagHHHHHHH",
"mmmmbmbmbbvlljgggghggggHHHHHH   <7,fggggghhgghgghgggh*oOHH@@ouhh9,,HHHHHHH",
"ZAZZZZAAZABmMcggggggghgHHHHHH.. 187fgggggggggghgggggg=@@HH@#ophhw77HHHHHHH",
"VVCCCCVCVZNvnjaggggggggHHHHHH.. <87fggggggggggggggggg=@*HH@@@uhhw77HHHHHHH",
"CZVZCCCCCZBNBblcjggggggHHHHHHHHHHHHHHHHHHHHHHHHHHHHHHHHHHHHHHHHHHHHHHHHHHH",
"CCVZCZZCZCZZZBbMlgggghgHHHHHHHHHHHHHHHHHHHHHHHHHHHHHHHHHHHHHHHHHHHHHHHHHHH",
"ZCZCCCCCCCCVZNvmlghgghhHH.. X#@@@@@*@*@@@377HH@#OujggggghgggggggggghpO@@HH",
"CCCCCCCCCCCCZBNBvggggghHH.. X#@*#@@@@#@@@477HH@#ouhghgghgggghgghggghp@*@HH",
"CCCCZCCCCCCCCZZSmagggggHH.. X#*O#*@*O**@O387HH@*ouhghgghgggggggggggkaO*OHH",
"CCCCCCCCCCZCCCCZbgggggkHH**O*O**@@@@@@O*#aggHHgffggggggggggjggggjgggggggHH",
"CZCCCCCZCCCCCCCAbggggggHH**#*OO*@@@@*#*@&dggHHgghggghgggggggggggggggggggHH",
"CCCCCCCCCZCCCCVAbgggggjHH**O#*O**@@@@@O*@fjgHHjhhhggggghgjggggjggggggjggHH",
"VVZBVCCCCZCCCCCAmagggggHH&OXO@@@@*@*@@@*@ifaHHpaigggghggjggggggggggggpppHH",
"SSSSACCCCCCCCCCAvggggggHH   X*O*@@@#*@@#@373HHOOouhggggggggggghgggggioOOHH",
"GGFGSBCCCCZCCCCZmagggggHH...X#*@@@@@@@@@@377HH#*ouhggjhggggghghgggfjaO**HH",
"DDFGSCCCCCCCCCCAmaggggkHHH. X#O@*@@*#@@@@387HH*@oujggggghgghgggggjgjpO*OHH",
"HDDFSVCCCCCCCCCAmgjgggjHHHHHHHHHHHHHHHHHHHHHHHHHHHHHHHHHHHHHHHHHHHHHHHHHHH",
"HFDFSCCCCCCCCZCZmggggggHHHHHHHHHHHHHHHHHHHHHHHHHHHHHHHHHHHHHHHHHHHHHHHHHHH"
};
