/* XPM */
static char *_9611_34a19b610c1e9e7b1f752d80767c9c08581149cd5e635d10757d1c74a6e4d2fd[] = {
/* columns rows colors chars-per-pixel */
"74 74 66 1 ",
"  c #85345C",
". c #89365B",
"X c #9F3E53",
"o c #A63C4A",
"O c #A93E4B",
"+ c #A7404D",
"@ c #AD434E",
"# c #B1454D",
"$ c #B8464D",
"% c #B9494F",
"& c #A64151",
"* c #B04750",
"= c #B34A51",
"- c #BC4B50",
"; c #BC5456",
": c #BE5758",
"> c #C24B4F",
", c #CE4E4F",
"< c #C44E51",
"1 c #C94F50",
"2 c #C65254",
"3 c #CD5253",
"4 c #CE5957",
"5 c #C25B5A",
"6 c #CB5D5A",
"7 c #D25553",
"8 c #D45955",
"9 c #D35E59",
"0 c #C7625E",
"q c #CC635E",
"w c #D4635C",
"e c #D9665D",
"r c #DA695F",
"t c #CC6760",
"y c #CE6962",
"u c #D16C63",
"i c #DB6E62",
"p c #D67266",
"a c #DC7365",
"s c #D77568",
"d c #DD7768",
"f c #DF796A",
"g c #E27E6D",
"h c #E3826E",
"j c #E48570",
"k c #E98771",
"l c #E68B73",
"z c #E88872",
"x c #E79176",
"c c #E89377",
"v c #E99578",
"b c #EB9C7C",
"n c #EDA27E",
"m c #EEA581",
"M c #EFA983",
"N c #F3B48A",
"B c #F5BB8E",
"V c #FAC694",
"C c #FBCA97",
"Z c #FCCE99",
"A c #FDD19B",
"S c #FCD9A6",
"D c #FEE9B6",
"F c #FFEDBA",
"G c #FFF0BD",
"H c None",
/* pixels */
"HHHHHHHHHHHHHHHHHHHHHHHHHHHHHHHHHHHHHHHHHHHHHHHHHHHHHHHHHHHHHHHHHHHHHHHHHH",
"HHHHHHHHHHHHHHHHHHHHHHHHHHHHHHHHHHHHHHHHHHHHHHHHHHHHHHHHHHHHHHHHHHHHHHHHHH",
"HHHHHHHHHHHHHHHHHHHHHHHHHHHHHHHHHHHHHHHHHHHHHHHHHHHHHHHHHHHHHHHHHHHHHHHHHH",
"HHHHHHHHHHHHHHHHHHHHHHHHHHHHHHHHHHHHHHHHHHHHHHHHHHHHHHHHHHHHHHHHHHHHHHHHHH",
"HHHHHHHHHHHHHHHHHHHHHHHHHHHHHHHHHHHHHHHHHHHHHHHHHHHHHHHHHHHHHHHHHHHHHHHHHH",
"HHHHHHHHHHHHHHHHHHHHHHHHHHHHHHHHHHHHHHHHHHHHHHHHHHHHHHHHHHHHHHHHHHHHHHHHHH",
"HHHHHHHHHHHHHHHHHHHHHHHHHHHHHHHHHHHHHHHHHHHHHHHHHHHHHHHHHHHHHHHHHHHHHHHHHH",
"HHHHHHHHHHHHHHHHHHHHHHHHHHHHHHHHHHHHHHHHHHHHHHHHHHHHHHHHHHHHHHHHHHHHHHHHHH",
"HHHHHHHHHHHHHHHHHHHHHHHHHHHHHHHHHHHHHHHHHHHHHHHHHHHHHHHHHHHHHHHHHHHHHHHHHH",
"HHHHHHHHHHHHHHHHHHHHHHHHHHHHHHHHHHHHHHHHHHHHHHHHHHHHHHHHHHHHHHHHHHHHHHHHHH",
"HHHHHHHHHHHHHHHHHHHHHHHHHHHHHHHHHHHHHHHHHHHHHHHHHHHHHHHHHHHHHHHHHHHHHHHHHH",
"HHHHHHHHHHHHHHHHHHHHHHHHHHHHHHHHHHHHHHHHHHHHHHHHHHHHHHHHHHHHHHHHHHHHHHHHHH",
"HHHHHHHHHHHHHHHHHHHHHHHHHHHHHHHHHHHHHHHHHHHHHHHHHHHHHHHHHHHHHHHHHHHHHHHHHH",
"HHHHHHHHHHHHHHHHHHHHHHHHHHHHHHHHHHHHHHHHHHHHHH@@@<87ahgggggfggggfhhggggghg",
"HHHHHHHHHHHHHHHHHHHHHHHHHHHHHHHHHHHHHHHHHHHHHH@@@>7,ahgghhhhhhhhhfhhhgghhg",
"HHHHHHHHHHHHHHHHHHHHHHHHHHHHHHHHHHHHHHHHHHHHHH%%#4e9dhggbnnnnbnnnnnnvggggg",
"HHHHHHHHHHHHHHHHHHHHHHHHHHHHHHHHHHHHHHHHHHHHHH787ggghgggbnmnmmnmmmbmbgghgg",
"HHHHHHHHHHHHHHHHHHHHHHHHHHHHHHHHHHHHHHHHHHHHHH771iggggggjhjhjjjjjjjjhggggg",
"HHHHHHHHHHHHHHHHHHHHHHHHHHHHHHHHHHHHHHHHHHHHHH887ajhhggghfhghfhfgdggghgggh",
"HHHHHHHHHHHHHHHHHHHHHHHHHHHHHHHHHHHHHHHHHHHHHH--$9iedgggfhfhfhfhgggggfgggg",
"HHHHHHHHHHHHHHHHHHHHHHHHHHHHHHHHHHHHHHHHHHHHHH@@O<7,ijhjhjjhjhhhjjhjhjjhhh",
"HHHHHHHHHHHHHHHHHHHHHHHHHHHHHHHHHHHHHHHHHHHHHH@@@188iaiiiiiipiiaiiiiiiiiii",
"HHHHHHHHHHHHHHHHHHHHHHHHHHHHHHHHHHHHHHHHHHHHHHHHHHHHHHHHHHHHHHHHHHHHHHHHHH",
"HHHHHHHHHHHHHHHHHHHHHHHHHHHHHHHHHHHHHHHHHHHHHHHHHHHHHHHHHHHHHHHHHHHHHHHHHH",
"HHHHHHHHHHHHHHHHHHHHHHHHHHHHHHHHHHHHHHHHHHHHHHHHHHHHHHHHHHHHHHHHHHHHHHHHHH",
"HHHHHHHHHHHHHHHHHHHHHHHHHH@@>87ihgggggghghi78<@@HHHH@@-87ehfgggggd783@@HHH",
"HHHHHHHHHHHHHHHHHHHHHHHHH@@@<8,ihgggggggggi38<@@@HHH#@>83ejggghghd783@@@HH",
"HHHHHHHHHHHHHHHHHHHHHHHHH@@o>7,rggfggfggghi,7>o@@HHH@o%7,ehgggfgga,7<+@@HH",
"HHHHHHHHHHHHHHHHHHHHHHHHH<<>wiigccccxccvhgfii9<1<HHH,>6aidgxlccvjgiie><<HH",
"HHHHHHHHHHHHHHHHHHHHHHHHH877ajggnMMnmmmMzghhhg,78HHH77rjghgnMmmMjggjd787HH",
"HHHHHHHHHHHHHHHHHHHHHHHHH877igggccccvcvvhggggi788HHH87ehgggxvvvvhgghd788HH",
"HHHHHHHHHHHHHHHHHHHHHHHHH--$uhgggggfgfgggggghu#--HHH%$qhfggggfgfgggga$--HH",
"HHHHHHHHHHHHHHHHHHHHHHHHH@@oqhhhhhhhhhhhhhhhjyo@@HHH@o5kghhhhhhhjjhjdo@@HH",
"HHHHHHHHHHHHHHHHHHHHHHHHH@@@6giiariiaiiaiiaia6@@@HHH@@5aiiiiaiiaiiiiyO#@HH",
"HHHHHHHHHHHHHHHHHHHHHHHHHHHHHHHHHHHHHHHHHHHHHHHHHHHHHHHHHHHHHHHHHHHHHHHHHH",
"HHHHHHHHHHHHHHHHHHHHHHHHHHHHHHHHHHHHHHHHHHHHHHHHHHHHHHHHHHHHHHHHHHHHHHHHHH",
"HHHHHHHHHHHHHHHHHHHHHHHHHHHHHHHHHHHHHHHHHHHHHHHHHHHHHHHHHHHHHHHHHHHHHHHHHH",
"HHHHHHHHHHHHHHH@@*gghhhghghgghuO@HHH@@=hfghgggggggggggggggggggghjggjsO@HHH",
"HHHHHHHHHHHHHHH@@=hgfhgggfggghuo#@HH@@=hggghhhhhhhjhhhhjhhggggggggggpO*@HH",
"HHHHHHHHHHHHHHH@@@ggjlzllzljghyo@@HH@@=hghfvMnmnnnnmmMncvlgghghggggjpO@OHH",
"HHHHHHHHHHHHHHH<<2ggbMmMmmMvghi>2<HH2>3hgggcmnnnnnMvhzhggggggggggggjd<1<HH",
"HHHHHHHHHHHHHHH878hfvbbbbvbvgja787HH789hggghhhhjhhhhfgggghggghghggggg788HH",
"HHHHHHHHHHHHHHH778ghgggfggggghi,77HH738hggggfghfhfhfhhhgghghgggggggjg,77HH",
"HHHHHHHHHHHHHHH878ggggghgggggga788HH778gggggghgghhfhhfghgfgfghhhgggt<777HH",
"HHHHHHHHHHHHHHH334hhggggggggghi133HH334hgghfhffhfggfgfghkhkhfsdsf==OO224HH",
"HHHHHHHHHHHHHHH@@*fhggggghghgjuo@@HH@@=hfghhhhghhhhjkhkuqyqu:o@@OOO=X   HH",
"HHHHHHHHHHHHHHH@@@hfhfggfhghgguO@@HH@@=hgfhffhfhghf;::5@OOOo@@@@O***O...HH",
"HHHHHHHHHHHHHHH@@@8888888888882@@@HH@@@============oOOO@*@#@@@#@**O%X ..HH",
"HHHHHHHHHHHHHHHHHHHHHHHHHHHHHHHHHHHHHHHHHHHHHHHHHHHHHHHHHHHHHHHHHHHHHHHHHH",
"HHHHHHHHHHHHHHHHHHHHHHHHHHHHHHHHHHHHHHHHHHHHHHHHHHHHHHHHHHHHHHHHHHHHHHHHHH",
"HHHHHHH@@;hga787HH@@=gggggggggggggghghg782 ..HHHHHHHHHHHHHHHHHHHHHHHHHHHHH",
"HHHHHHH@@;hga187HH@@*ghghgghjgggghggggd382...HHHHHHH777ahgggggghgggjgjggjg",
"HHHHHHH@O;kga177HH@@=gjfggggggggghggfhf871 ..HHHHHHH887ahgghgggggggggggggg",
"HHHHHHHfffggggggHHfffgghhghgghgggghggjgfgaO@&HHHHHHH33,ahggghgghgggggggggg",
"HHHHHHHgggggggggHHgggfgggghggggjggggggggjd&*@HHHHHHHeeedhggggggggggggggggg",
"HHHHHHHhghgghgggHHjgjhggggggghggghgggggggd@##HHHHHHHhhhhgghgggghjgggkggggj",
"HHHHHHHddggggasaHHdsdghggggghgghghgggggdgioX&HHHHHHHggggggggggfgggigagaagd",
"HHHHHHH7,9gguoo@HHOO@ghfghggggggggghghd771  .HHHHHHHgggggggggzxzbbmbmvmmmm",
"HHHHHHH879hku@@@HH#@=ggghgghggggggggggg782 ..HHHHHHHggghggggfbMnVSZZCAAACZ",
"HHHHHHH879hhu@@@HH@@=gggggggggggggggggg182 ..HHHHHHHhgggggggfcnvBCCCVCVCVC",
"HHHHHHHHHHHHHHHHHHHHHHHHHHHHHHHHHHHHHHHHHHHHHHHHHHHHhggghfzxlMNNVCCCCCCCCC",
"HHHHHHHHHHHHHHHHHHHHHHHHHHHHHHHHHHHHHHHHHHHHHHHHHHHHggghhfbMnVAZCCCCCCCCCC",
"HH@@@phggggggghgggghhgghuO@@HH783@@@@*#@#@@@#X ..HHHgggghfcnvBCCCCCCCCZCCC",
"HH@@OphgghhgghgghggggggjuO@@HH783@#@@@@@@@@@#X ..HHHhgghhfmNNVCCCCCZCCCCCC",
"HH@@OuhggggggggggggggggkpO**HH882@@@@@*@@@@@#X  .HHHggggggNZZCCCCCCCCCCCCC",
"HHggggggggjggggggjggggggggggHHggd@@#*@@@@**@*O@@@HHHgjgggaNZCCCCCCCCCCCCCC",
"HHhgghggggggggjgggggggggggggHHggf@@@@@@@@@@@O##*#HHHggggggNZVCCCCCCZCCCZCC",
"HHhhhgggggjggggggjggggggggggHHggf@@*@*#@@@#@**O*#HHHgjggggNZCCCCCCCCCCCCCC",
"HHpppggghgggggggggggjgggguppHHgai@@@@**@*@O*@OXO&HHHgggggaNZCCCCCZCCCVVVVC",
"HHO@ophgggghhghgggggggggyo@OHH773@@@@@@@*@*@*X ..HHHgggjggNZVCZCCCCCCASSSS",
"HH@#OphggggggghggggggggkuO@*HH773@@*@#@@O@@@#X ..HHHggggggNZCCCCCCCCVSGFFF",
"HH@#OphghgghgggggjgggggkuO*@HH773@@@@@#@*#@@#X  HHHHgggggdNZCCCCCCCCVSFDDD",
"HHHHHHHHHHHHHHHHHHHHHHHHHHHHHHHHHHHHHHHHHHHHHHHHHHHHjggggaNZCCCCCCCCVSFDDH",
"HHHHHHHHHHHHHHHHHHHHHHHHHHHHHHHHHHHHHHHHHHHHHHHHHHHHggggjgNZCCCCCCZCVSFDFH"
};
