/* XPM */
static char *_8752_ad84f20887f990b53e9b67671a1a391a24dea89ba980f1c33a21e7c5389cce5e[] = {
/* columns rows colors chars-per-pixel */
"74 74 66 1 ",
"  c #85345C",
". c #89365B",
"X c #9F3E53",
"o c #A63C4A",
"O c #A93E4B",
"+ c #A7404D",
"@ c #AD434E",
"# c #B1454D",
"$ c #B8464D",
"% c #B9494F",
"& c #A64151",
"* c #B04750",
"= c #B34A51",
"- c #BC4B50",
"; c #BC5456",
": c #BE5758",
"> c #C24B4F",
", c #CE4E4F",
"< c #C44E51",
"1 c #C94F50",
"2 c #C65254",
"3 c #CD5253",
"4 c #CE5957",
"5 c #C25B5A",
"6 c #CB5D5A",
"7 c #D25553",
"8 c #D45955",
"9 c #D35E59",
"0 c #C7625E",
"q c #CC635E",
"w c #D4635C",
"e c #D9665D",
"r c #DA695F",
"t c #CC6760",
"y c #CE6962",
"u c #D16C63",
"i c #DB6E62",
"p c #D67266",
"a c #DC7365",
"s c #D77568",
"d c #DD7768",
"f c #DF796A",
"g c #E27E6D",
"h c #E3826E",
"j c #E48570",
"k c #E98771",
"l c #E68B73",
"z c #E88872",
"x c #E79176",
"c c #E89377",
"v c #E99578",
"b c #EB9D7D",
"n c #ECA27E",
"m c #EEA580",
"M c #EFA982",
"N c #F2B188",
"B c #F5BB8D",
"V c #FAC794",
"C c #FBCA97",
"Z c #FBCC98",
"A c #FDD19B",
"S c #FCD9A6",
"D c #FEE9B6",
"F c #FFEDBA",
"G c #FFF0BD",
"H c None",
/* pixels */
"HHHHHHHHHHHHHHHHHHHHHHHHHHHHHHHHHHHHHHHHHHHHHHHHHHHghgghdmACCCCCCCCCCSFDFH",
"HHHHHHHHHHHHHHHHHHHHHHHHHHHHHHHHHHHHHHHHHHHHHHHHHHHgggghamAVCCCCCCCZCSFDDH",
"HH@@OphgggggggggggjggggguO=#HH777@**#@@*@@@@#X .HHHhgggggmCVCCCCCCCCCSFDDD",
"HH@#@phghgghhgghgggggjgjuO*#HH773@@@*@@@*@@@#X ..HHghgghamZCCCCCCCCCBSGFFF",
"HHO@oihggggggghggggggggjuoOOHH,71@@*@@@*@@@@#X  .HHgghghamAVCZCCCCCCVASSSS",
"HHpppfhfggjggggggjgggggggupaHHagi@@@@@@@@@*@@@X&&HHhggggdmACCCCCCCCCCCCCVC",
"HHhhhjfggghgghhggggggggggggjHHjjf@*@@#@@@*@#@@###HHgggghdmACCCCCCCCCCCCCCC",
"HHhghfhhgggggggggghgggggggggHHggd@@@@@@*#@@@@@@@*HHgghghamACCZCCCCCCCCCCCC",
"HHfffggggjgggggjgghghggggfgfHHggd@@@@*@#*@@@@@@@*HHgggggdmZCCCCCCCCCCCCZCZ",
"HH*#@ahgggggggggggggggghuO@#HH773@@@@@@@@@@@#X ..HHggggjamACCCCCCCCCCCCCCZ",
"HH@@OphggggjggggghhggggjuO@@HH773@*@@@@@@@@@#X ..HHggzggfmNmBCCCCCCCCCCCCC",
"HH@@OphggggggggggggghggjuO**HH783@@@*#@@**@@#X ..HHgggggfkmmNACBCCCCCZCCCC",
"HHHHHHHHHHHHHHHHHHHHHHHHHHHHHHHHHHHHHHHHHHHHHHHHHHHgggggfzmmBACCCCCCCCCCZC",
"HHHHHHHHHHHHHHHHHHHHHHHHHHHHHHHHHHHHHHHHHHHHHHHHHHHjggjggfmzmBNBCCCCCCCCCC",
"HHHHHHH779gjuO=*HH@@*hggggggggggggggghf372...HHHHHHggggggfffzmmNCCCVCVCCCC",
"HHHHHHH77ejguO**HH#@*gjgggggggggggggghf782 ..HHHHHHgggggggfammmNAAAAAAAAAA",
"HHHHHHH7,9hhuO@OHHOO#gggjgggggjghgghghf77<  .HHHHHHgggggggggjllvbmbmbmmmmm",
"HHHHHHHfaghgfaasHHssdggggggggggggggggggagpo@&HHHHHHgggggggggggggdggagaagid",
"HHHHHHHhhgggghhhHHhhhgggggggjgggggggggghgd@@@HHHHHHjgjjggggggggghhhggggggg",
"HHHHHHHggggghgggHHggggghhgghgggghgggggggjd@*@HHHHHHieiigggggggggggghgggggf",
"HHHHHHHfdfggggffHHfffhgggghggggggghggggfgaO&&HHHHHH771egggggggjgghggghgggg",
"HHHHHHH@O;jha387HH@@*gggggggghghggggggf772 ..HHHHHH877igggggggggggggggghgg",
"HHHHHHH@O;hha777HH@@*gggghhgghggghghggg772 ..HHHHHH477ujggjggggghgggghhggg",
"HHHHHHH@@;hga377HH@@=hggggggggghggggggd782 ..HHHHHHHHHHHHHHHHHHHHHHHHHHHHH",
"HHHHHHHHHHHHHHHHHHHHHHHHHHHHHHHHHHHHHHHHHHHHHHHHHHHHHHHHHHHHHHHHHHHHHHHHHH",
"HHHHHHHHHHHHHHHHHHHHHHHHHHHHHHHHHHHHHHHHHHHHHHHHHHHHHHHHHHHHHHHHHHHHHHHHHH",
"HHHHHHHHHHHHHHH@@*8888888888892@@*HH@@@======*==*=*OOOO@**#@@@*@@@@@& ..HH",
"HHHHHHHHHHHHHHH@@*fgghfgfhfhfhyO#@HH@@=hffhfhhgfghd;:;5#OOOO@*@@#@@@& ..HH",
"HHHHHHHHHHHHHHH@@*ghgggghhgggjyO@@HH@@*hgggggggghghkjhkpquyu;O@O@@O@&   HH",
"HHHHHHHHHHHHHHH334gggggghfgggha,33HH334hhfgggggggggggfghhjhjgadsd-*@#222HH",
"HHHHHHHHHHHHHHH878gggggghghhgha,87HH778hgggggggggggggggggggfghhhggh02787HH",
"HHHHHHHHHHHHHHH777ghggggfhfgghi347HH778ggggggggggfggghgggggggggfgggjg377HH",
"HHHHHHHHHHHHHHH778ggvbbvbbbcgji787HH779gggghhjhjhhhgfggggggggggggggga778HH",
"HHHHHHHHHHHHHHH1>2ggbMMnnmMbghu>21HH213hggfvmnnmnmmvllhgfggghgghghgha>2>HH",
"HHHHHHHHHHHHHHH@@@ggllllklkjggyO@@HH+@*hggfvmnnnnnmmmMncvlggggggggghpo@@HH",
"HHHHHHHHHHHHHHH@@*gggggggggggguO@@HH@@=hghghhjjhjjhhhhhhjhghhgghghghs@@@HH",
"HHHHHHHHHHHHHHH#@*hgghhhghggghuO@HHH@@=hggggggggfgggggggggggggghggghp@@HHH",
"HHHHHHHHHHHHHHHHHHHHHHHHHHHHHHHHHHHHHHHHHHHHHHHHHHHHHHHHHHHHHHHHHHHHHHHHHH",
"HHHHHHHHHHHHHHHHHHHHHHHHHHHHHHHHHHHHHHHHHHHHHHHHHHHHHHHHHHHHHHHHHHHHHHHHHH",
"HHHHHHHHHHHHHHHHHHHHHHHHHHHHHHHHHHHHHHHHHHHHHHHHHHHHHHHHHHHHHHHHHHHHHHHHHH",
"HHHHHHHHHHHHHHHHHHHHHHHHH@#O6aiiiaiirarariiig4O@@HHH@O2giiaiiiiiiiiiw@@@HH",
"HHHHHHHHHHHHHHHHHHHHHHHHH@@Oyjghhhhhhhhjhjhhlqo@@HHH@o5khhhhhhhhhhhjsO@@HH",
"HHHHHHHHHHHHHHHHHHHHHHHHH--$uggggggffgggfhhfhr$%-HHH%$6kfggfffffggghp$--HH",
"HHHHHHHHHHHHHHHHHHHHHHHHH777ijgglvvvvvcvjfhhhi787HHH77eggghcvvvvjgggd777HH",
"HHHHHHHHHHHHHHHHHHHHHHHHH787ijhgnnnnMMnMxfhhha,88HHH77rghhgnMnMMjghjd777HH",
"HHHHHHHHHHHHHHHHHHHHHHHHH<1-waiavvxxvvcchhgriw><1HHH1%6grahcvvvvhgiiu<<<HH",
"HHHHHHHHHHHHHHHHHHHHHHHHH@@O>7,ihfggggfgfhr,7>+@@HHH@@%7,ehfgffgga13,O@@HH",
"HHHHHHHHHHHHHHHHHHHHHHHHH@@@187ihggggggghha38<@@@HHH#@%83rhggghggg773@#@HH",
"HHHHHHHHHHHHHHHHHHHHHHHHHH@@<83ihgggghggghi38<@@HHHH@@-87ehggghgjd773@@HHH",
"HHHHHHHHHHHHHHHHHHHHHHHHHHHHHHHHHHHHHHHHHHHHHHHHHHHHHHHHHHHHHHHHHHHHHHHHHH",
"HHHHHHHHHHHHHHHHHHHHHHHHHHHHHHHHHHHHHHHHHHHHHHHHHHHHHHHHHHHHHHHHHHHHHHHHHH",
"HHHHHHHHHHHHHHHHHHHHHHHHHHHHHHHHHHHHHHHHHHHHHHHHHHHHHHHHHHHHHHHHHHHHHHHHHH",
"HHHHHHHHHHHHHHHHHHHHHHHHHHHHHHHHHHHHHHHHHHHHHH@@@177iiiiiiiiiiiiiiiiiiiiia",
"HHHHHHHHHHHHHHHHHHHHHHHHHHHHHHHHHHHHHHHHHHHHHH@@O<71ajggjhjghjhjjjjgjhjjhh",
"HHHHHHHHHHHHHHHHHHHHHHHHHHHHHHHHHHHHHHHHHHHHHH<-=8eegggggggggggggffggffhgg",
"HHHHHHHHHHHHHHHHHHHHHHHHHHHHHHHHHHHHHHHHHHHHHH777gjhggggggggfgggggggghghgg",
"HHHHHHHHHHHHHHHHHHHHHHHHHHHHHHHHHHHHHHHHHHHHHH74,aggghgggjjhjjhjjjjjhfhfgg",
"HHHHHHHHHHHHHHHHHHHHHHHHHHHHHHHHHHHHHHHHHHHHHH787ahhhfggbmmmmmmmnmnmnfghgh",
"HHHHHHHHHHHHHHHHHHHHHHHHHHHHHHHHHHHHHHHHHHHHHH%%$4e9ahggbmbnnnnnnnnnvfhhgh",
"HHHHHHHHHHHHHHHHHHHHHHHHHHHHHHHHHHHHHHHHHHHHHH@@@>7,ahgghhhhhhjfhhhhhhhfgg",
"HHHHHHHHHHHHHHHHHHHHHHHHHHHHHHHHHHHHHHHHHHHHHH@@@277ahggggggfhfhggggggghgg",
"HHHHHHHHHHHHHHHHHHHHHHHHHHHHHHHHHHHHHHHHHHHHHHHHHHHHHHHHHHHHHHHHHHHHHHHHHH",
"HHHHHHHHHHHHHHHHHHHHHHHHHHHHHHHHHHHHHHHHHHHHHHHHHHHHHHHHHHHHHHHHHHHHHHHHHH",
"HHHHHHHHHHHHHHHHHHHHHHHHHHHHHHHHHHHHHHHHHHHHHHHHHHHHHHHHHHHHHHHHHHHHHHHHHH",
"HHHHHHHHHHHHHHHHHHHHHHHHHHHHHHHHHHHHHHHHHHHHHHHHHHHHHHHHHHHHHHHHHHHHHHHHHH",
"HHHHHHHHHHHHHHHHHHHHHHHHHHHHHHHHHHHHHHHHHHHHHHHHHHHHHHHHHHHHHHHHHHHHHHHHHH",
"HHHHHHHHHHHHHHHHHHHHHHHHHHHHHHHHHHHHHHHHHHHHHHHHHHHHHHHHHHHHHHHHHHHHHHHHHH",
"HHHHHHHHHHHHHHHHHHHHHHHHHHHHHHHHHHHHHHHHHHHHHHHHHHHHHHHHHHHHHHHHHHHHHHHHHH",
"HHHHHHHHHHHHHHHHHHHHHHHHHHHHHHHHHHHHHHHHHHHHHHHHHHHHHHHHHHHHHHHHHHHHHHHHHH",
"HHHHHHHHHHHHHHHHHHHHHHHHHHHHHHHHHHHHHHHHHHHHHHHHHHHHHHHHHHHHHHHHHHHHHHHHHH",
"HHHHHHHHHHHHHHHHHHHHHHHHHHHHHHHHHHHHHHHHHHHHHHHHHHHHHHHHHHHHHHHHHHHHHHHHHH",
"HHHHHHHHHHHHHHHHHHHHHHHHHHHHHHHHHHHHHHHHHHHHHHHHHHHHHHHHHHHHHHHHHHHHHHHHHH",
"HHHHHHHHHHHHHHHHHHHHHHHHHHHHHHHHHHHHHHHHHHHHHHHHHHHHHHHHHHHHHHHHHHHHHHHHHH",
"HHHHHHHHHHHHHHHHHHHHHHHHHHHHHHHHHHHHHHHHHHHHHHHHHHHHHHHHHHHHHHHHHHHHHHHHHH"
};
