/* XPM */
static char *_0178_1915ddf792fe8cb8fca5bd66d53805b878c2d3100622ea74a5e18b03c03ecf70[] = {
/* columns rows colors chars-per-pixel */
"24 50 212 2 ",
"   c #010100",
".  c #0B0403",
"X  c #0D0804",
"o  c #0D0D0E",
"O  c #04070B",
"+  c #140203",
"@  c #1B0B02",
"#  c #160807",
"$  c #181207",
"%  c #0E0F11",
"&  c #111213",
"*  c #1A1513",
"=  c #0F1113",
"-  c #2A0406",
";  c #3B080B",
":  c #231406",
">  c #261608",
",  c #291A0A",
"<  c #291A14",
"1  c #341A0F",
"2  c #28250C",
"3  c #35250B",
"4  c #28231E",
"5  c #372E11",
"6  c #3C310F",
"7  c #2F1C22",
"8  c #1F2226",
"9  c #262523",
"0  c #272929",
"q  c #322B23",
"w  c #372E27",
"e  c #3C332A",
"r  c #2A2E33",
"t  c #252B30",
"y  c #2B3131",
"u  c #2E363A",
"i  c #353534",
"p  c #353B3B",
"a  c #44070C",
"s  c #431709",
"d  c #480F11",
"f  c #5E0E13",
"g  c #5A1413",
"h  c #570B0E",
"j  c #610D13",
"k  c #6E0E18",
"l  c #671A1A",
"z  c #741319",
"x  c #781719",
"c  c #43270C",
"v  c #5D350E",
"b  c #4A3B14",
"n  c #5C3212",
"m  c #472C11",
"M  c #7A241C",
"N  c #653A12",
"B  c #6C3413",
"V  c #723C19",
"C  c #68390A",
"Z  c #532F29",
"A  c #68292C",
"S  c #643D3C",
"D  c #663E28",
"F  c #3D403F",
"G  c #574916",
"H  c #6E4114",
"J  c #7B4918",
"K  c #64531D",
"L  c #69551B",
"P  c #774D11",
"I  c #594C3E",
"U  c #574637",
"Y  c #7C4222",
"T  c #755A23",
"R  c #744A32",
"E  c #766535",
"W  c #3A4241",
"Q  c #414344",
"!  c #4D4C48",
"~  c #574D43",
"^  c #5A5047",
"/  c #4C5152",
"(  c #5B5B5D",
")  c #575754",
"_  c #4F4B51",
"`  c #6C4243",
"'  c #7A4C45",
"]  c #69584F",
"[  c #776553",
"{  c #6C6C6C",
"}  c #686765",
"|  c #7C7C7C",
" . c #747474",
".. c #86181E",
"X. c #862A1D",
"o. c #903A1E",
"O. c #931F20",
"+. c #992825",
"@. c #B92B29",
"#. c #AC2E26",
"$. c #CB2E2E",
"%. c #C4302C",
"&. c #CB3530",
"*. c #D73430",
"=. c #E03431",
"-. c #864C1A",
";. c #8B531B",
":. c #9D5B1F",
">. c #955A1E",
",. c #A45B1F",
"<. c #92611F",
"1. c #9C5D21",
"2. c #8A4F2D",
"3. c #B15125",
"4. c #977A29",
"5. c #8C6C29",
"6. c #A66422",
"7. c #AC6323",
"8. c #A76726",
"9. c #B06623",
"0. c #B56B25",
"q. c #BA6D26",
"w. c #BA6929",
"e. c #A77A29",
"r. c #B87128",
"t. c #CD4A32",
"y. c #FC453A",
"u. c #C27329",
"i. c #88554A",
"p. c #885951",
"a. c #9A614C",
"s. c #976642",
"d. c #81705D",
"f. c #A1664A",
"g. c #BA724A",
"h. c #AE6E54",
"j. c #BE7954",
"k. c #B77555",
"l. c #8A766B",
"z. c #C67E55",
"x. c #C87D53",
"c. c #C4784F",
"v. c #AC812C",
"b. c #BC9B34",
"n. c #B48D30",
"m. c #C2842E",
"M. c #D59A37",
"N. c #CE9334",
"B. c #E29B37",
"V. c #C5A336",
"C. c #CBA438",
"Z. c #D2AA37",
"A. c #E3B43F",
"S. c #9B866F",
"D. c #B3987C",
"F. c #AF8D70",
"G. c #C78056",
"H. c #C88057",
"J. c #CA8258",
"K. c #C58F5B",
"L. c #D1865A",
"P. c #D5895A",
"I. c #E9BD42",
"U. c #F8BD43",
"Y. c #E9A640",
"T. c #D0976E",
"R. c #E5A47A",
"E. c #F2C344",
"W. c #F5C946",
"Q. c #FACC49",
"!. c #FFD54B",
"~. c #FFDB4D",
"^. c #FFE04E",
"/. c #FFE450",
"(. c #FFEA53",
"). c #FFEC6F",
"_. c #7D7E81",
"`. c #7F8080",
"'. c #838383",
"]. c #8A8A89",
"[. c #898787",
"{. c #8F8F90",
"}. c #BCA083",
"|. c #A7A7A7",
" X c #B8B4B1",
".X c #C9A98B",
"XX c #DCAA86",
"oX c #DCBB9A",
"OX c #E2B08A",
"+X c #E6B993",
"@X c #BCC5AA",
"#X c #ECC19A",
"$X c #E8E095",
"%X c #EAC6A3",
"&X c #EDC9A5",
"*X c #EECCA9",
"=X c #F2CEAA",
"-X c #F8CBA3",
";X c #F5D2AD",
":X c #FAD3AC",
">X c #FFDCB4",
",X c #EAC9B0",
"<X c #FFE2BA",
"1X c #B9C1CA",
"2X c #C0C5C8",
"3X c #D7D9D9",
"4X c #D1D0CE",
"5X c #E7E9E8",
"6X c #EDF0F1",
"7X c #F7F9F9",
"8X c #FFF2E9",
"9X c None",
/* pixels */
"9X9X9X9X9X9X9X9X9X9X9X          9X9X9X9X9X9X9X9X",
"9X9X9X9X9X9X9X9X9X  q D.D.D.}.[     9X9X9X9X9X9X",
"9X9X9X9X9X9X9X9X^ d.S.>X:X:X>X.X] R X 9X9X9X9X9X",
"9X9X9X9X9X9X9Xe F.-X+XOX&X&X%X=X-XT.I * 9X9X9X9X",
"9X9X9X9X9X9X  .XR.g.z.z.+X&X&X&X&X*X<Xq 9X9X9X9X",
"9X9X9X9X9X9XO 2.J.H.z.J.G.+X*X&X&X&X;Xq 9X9X9X9X",
"9X9X9X9X9XX f.G.H.H.H.H.G.J.OX*X&X&X&XJ.m   9X9X",
"9X9X9X9X9XX z.J.z.H.G.G.H.c.XX;X&X&X&X-XU   9X9X",
"9X9X9X9X9XX j.L.H.z.H.H.H.z.XX*X&X&X%X>X~   9X9X",
"9X9X9X9X9XO f.h.j.H.H.H.J.x.OX;X*X&X%X>XI   9X9X",
"9X9X9X9X9X. S S a.L.z.G.J.k.T.oX+X*X%X>XI   9X9X",
"9X9X9X9X9X. h.' a.J.z.z.J.< O O e ;X%X>XI   9X9X",
"9X9X9X9X9XX G.` a.P.z.H.z. X2X`.~ *X=XI & 9X9X9X",
"9X9X9X9X9X. i.h.a.f.J.G.x.XX8X X_ ;X:X4 9X9X9X9X",
"9X9X9X9X9X. 7 R S i.L.z.z.L.,X XS.=X>Xq 9X9X9X9X",
"9X9X9X9X9X9X    7 ' z.z.x.+X*X*X:X*X.X4 9X9X9X9X",
"9X9X9X9X9X9X9X9X  < ' H.z.+X&X,X&XoXX 9X9X9X9X9X",
"9X9X9X9X9X9X9X    Z k.` z.+X;X<X.X* 9X9X9X9X9X9X",
"9X9X9X9X9X    {.1X.Xw.2.i.p.d.` 9       9X9X9X9X",
"9X9X9X9X2 T L $X@X) N w.o.D 2.V D ]._.E 6 9X9X9X",
"9X9X9X9X5 (.~.V.v . $ -.K.T.8.H 5.1X1X).K   9X9X",
"9X9X9X9X2 E.E.2 ..&.a * 4X7X( O O .   V.L   9X9X",
"9X9X9X9X> q.0.: a #.*.$.# O d x O.&.. J w.n   9X",
"9X9X9X9X9X1 4Xi   Y Q.Y.C.3.=...+ x j Y.Q.W.n.  ",
"9X9X9X9X9Xo 6X| & $ 5.^.(.J a a ; f ..v G K G 9X",
"9X9X9X9X9X& 5X|.r   q 4.4.6 b b ; ; a _ 9   9X9X",
"9X9X9X9X9Xo 5X|.8 9 ( O   1.U.4.    o 5X{   9X9X",
"9X9X9X9X9Xo 5X|.0 < } ( . b.M.n   $ { 6X(   9X9X",
"9X9X9X9X9X& 5XQ 3 -.6.6.:.3   c 1.N X 3X}   9X9X",
"9X9X9X9X9X% 7Xy P I.M.,.7.-.H >.7.N   3X{   9X9X",
"9X9X9X9X0 _.| E C.~.E.N.9.0.q.,.;.n.5. .r   9X9X",
"9X9X9X9Xi 7Xo V.~.E.W.W.6.:.,.>.v.!.^.6     9X9X",
"9X9X9X9Xi 6X% b.Q.E.Q.E.H H v 4.~.E.I.5     9X9X",
"9X9X9X9Xi 6Xo b.!.W.Q.A.o     K !.E.r.>     9X9X",
"9X9X9X9Xi 7XO V.n.J e.W.O ( 8 G ^.E.r.:     9X9X",
"9X9X9X9X% ) c Z.A.8.H G ! S.y m B.m.,.v.6   9X9X",
"9X9X9X9X. s -.A.(.n.> r | './ w V 6.m.^.K   9X9X",
"9X9X9X9X> u.7.M.A.T t {.| | {./ @ r.W.E.G   9X9X",
"9X9X9X9X: 9.6.;.@ y ].| _._.S.W @ r.I.<.@   9X9X",
"9X9X9X9X: 9.J 6.3 r [.| | '.p O > 7.;.: 9X9X9X9X",
"9X9X9Xd 3.6.>.u.c 0 ].`.`.[.y + M 7.P @ 9X9X9X9X",
"9X9X  g y.t.t.B Z ( `.`.| '.y - +.o.X.# 9X9X9X9X",
"9X9X  d %.@.$.+ / {.`.`.'.]./ 1 f k z + 9X9X9X9X",
"9X9X  - ..z k + F  .{ { { { | Q . j j + 9X9X9X9X",
"9X9X  - O.z .                   + j f + 9X9X9X9X",
"9X  x *.+.. 9X9X9X9X9X9X9X9X9X9X9X+ z #     9X9X",
"9X  M y.#.  9X9X9X9X9X9X9X9X9X9X9X. z h h ; 9X9X",
"9Xg @.%.l   9X9X9X9X9X9X9X9X9X9X9X. Z A A Z & 9X",
"  +.t.l   9X9X9X9X9X9X9X9X9X9X9X9XO u F u W i   ",
"  t F 8   9X9X9X9X9X9X9X9X9X9X9X9X9X9X9X9X9X9X9X"
};
