/* XPM */
static char *_3939_5cf64d8ba00626f045576f16004e5181061e562cbdef76cd0a9d468189909d06[] = {
/* columns rows colors chars-per-pixel */
"74 74 79 1 ",
"  c #85345C",
". c #89365B",
"X c #8F3859",
"o c #9F3E53",
"O c #923958",
"+ c #A53C4A",
"@ c #A93E4B",
"# c #A7404D",
"$ c #AD434D",
"% c #B2464D",
"& c #B9474E",
"* c #B5484F",
"= c #BA494F",
"- c #A84150",
"; c #B44C52",
": c #BC4B50",
"> c #BB5356",
", c #BF5758",
"< c #C14B4F",
"1 c #CE4E4F",
"2 c #C34E51",
"3 c #CC4F50",
"4 c #C55154",
"5 c #CD5253",
"6 c #CA5857",
"7 c #C15A59",
"8 c #CC5C59",
"9 c #D25553",
"0 c #D45955",
"q c #D55E59",
"w c #D6625B",
"e c #D8665D",
"r c #D9695F",
"t c #CC6760",
"y c #CE6A62",
"u c #D36D63",
"i c #DB6E62",
"p c #D67165",
"a c #DD7265",
"s c #D77568",
"d c #DC7768",
"f c #DF7869",
"g c #E17E6C",
"h c #E3816E",
"j c #E48570",
"k c #E88771",
"l c #E68C73",
"z c #E88872",
"x c #E79076",
"c c #E89377",
"v c #E99578",
"b c #EB9D7D",
"n c #ECA17E",
"m c #EEA581",
"M c #EFA983",
"N c #F1AD85",
"B c #F3B389",
"V c #F5BA8D",
"C c #F6BE90",
"Z c #FAC693",
"A c #FBCA97",
"S c #FBCC99",
"D c #FDD19B",
"F c #FCD5A2",
"G c #FCD9A6",
"H c #FCDCAC",
"J c #FCE2B5",
"K c #FEE9B6",
"L c #FCE2B8",
"P c #FFEDBB",
"I c #FFF0BD",
"U c #FFEFC1",
"Y c #FFF1C4",
"T c #FFF5CB",
"R c #FEF7D1",
"E c #FEFAD5",
"W c #FFFDDB",
"Q c #FFFFE2",
"! c None",
/* pixels */
"!!!!!!!!!!!!!!!!!!!!!!!!!!!!!!!!!!!!!!!!!!!!!!!!!!!!!!!!!!!!!!!!!!!!!!!!!!",
"PWEPEERGZSBbmlg!h!!!g!gbnnZASZFPKKKKKTWYTEWUSZSZSBbmkggg!!!h!gbmmZSZDPKKKP",
"PWRPEETGZSBbmlggg!!ggggbmbZASZFPKKKKKTWYYWEYSSASSNbmlggg!!hgghnnmZSZSPKKKK",
"YWWYWWEGZDBbnlggg!!jhggbbvZSZZFIPPPPKTQTRWWYSZAZSNbnkghh!!ggggbbbZSAFPPPPP",
"HJJHJJJSZSCBVbggg!!ggggNVBZAZASGGGGGFHLJHJJGAAAASVBCxggg!!hgggBBBASZSHGGGG",
"ZZZZZZZASZSSDmggj!!ggggVDSAAASAZAZZZZZZZZZZZAAAAZSSDvfgg!!ggggZDSSZSAZZZZZ",
"ZSSAZAAAZSAZSbagg!!ggggVSAAAAAASAASAAAZSASSAAZAASSZDvggg!!ghghZAZAAASAAAZZ",
"AAAAAAAASSSADbghg!!ggggCSAAAAAAAAAAAASSZAAAAASAASZZDvggg!!ggggZSAAAAAAAASS",
"ASAAAAAAZSZZDbggg!!hgggVAAAAAAAAAAAAAASAAAAAAAAASZZSlghg!!ggghZAAAAAAASASS",
"AAAAAASASZSAFmggg!!gghgCSSAAAASASAAAAAAAASAAAAASZSSDvghg!!hgggZSSAAAAAASAS",
"ASAAAAAAZSCBVvggj!!ggggNVBZAAAAAAAASSAAASASASSSZSCBVlggh!!ggggBVBASAAAAAAA",
"AASAAASZASBvbkggg!!ggjgvmvZAZASZAAAAAAAAAAAAZSZASNbbkggg!!hgggbbbZAZAAAAAA",
"SZSSZSZASDBnMxghg!!hgggbmmASSAAASAAAAAAAAAAAAASSDBnMlggg!!ggggmmmSSSAAAAAA",
"ASSASSSZNVnlxhggh!!ggggkllNVBAAAAAAAAAAAAAAAASVNBblljggg!!hggglllNVBZAASSA",
"AAZZZZSNbnlfggggg!!gggggggvbbCAAAAAAAAAAAAAAASNbnhgggggg!!ghgggggbbbZAAAAA",
"SDDDDDDVnMlgghggg!!hggggggmmmSSSDDSDDDSDDDSDSDBnNlgggghg!!gggggggmmNSSDDSS",
"mmmvmmmzllkgggggg!!gghgggglllbbbmmmmmmmmmmbbbbcllhgghghg!!ggggggglllbmbbbm",
"gaggagfdggggggggg!!gggggggggggggafffigagaagggggggggggfgg!!ggggghggggagggga",
"gggggggghgggghhgj!!hhghhggggggggggggfgggggghgghggghghjhh!!jhjjgghghggghhgg",
"gggggggggghghaeur!!rrergggjggggggggggggggggggggghgghieee!!reeegggggggggggg",
"kgggggggghgghr159!!9591fjggggggggggggggjggggghghggghq359!!9555ggghgggggggg",
"ggggjggggggghr909!!9999fgggghghhgggggjggggjgghgghggjw909!!9999ggggghhghhgg",
"ggjggggjghgghi999!!9999dhgghgggggggggggjgggggghhggghw999!!9999ggggghgghggg",
"!!!!!!!!!!!!!!!!!!!!!!!!!!!!!!!!!!!!!!!!!!!!!!!!!!!!!!!!!!!!!!!!!!!!!!!!!!",
"!!!!!!!!!!!!!!!!!!!!!!!!!!!!!!!!!!!!!!!!!!!!!!!!!!!!!!!!!!!!!!!!!!!!!!!!!!",
"!!!!!!!!!!!!!!!!!!!!!!!!!!!!!!!!!!!!!!!!!!!!!!!!!!!!!!!!!!!!!!!!!!!!!!!!!!",
"!. O%$-%$$$$%$%-%$$%X .!!.. o%-$;*@;%%-;*$$%-...!!...$$$$%-$*-%-%$$$$%O .!",
"!. O%-%%%%-%-$%$-$$$X..!!.. o%%$*@;@--%--$$$- ..!!...-$$$$%$$$$%-$%$-&O .!",
"!  X%@@-$$$$$$$@$$$$X  !!   o%@$%@-%-@%@$$@$-   !!   $$$$$$$$$$$$$$$$$X  !",
"!642+pp-uu$uu@py$at+244!!434%-g7%g7;g7;g,;g:@444!!444@,f;$yp$up$uu$uu+244!",
"!000>djgjhgjhhhjgkp>009!!00067jggjggjggjggjt4090!!0004yhghghfhhghhghd>900!",
"!05qzgggfjggggfhfhhkq59!!993akgggggggggggggkg999!!999hhggghhhhggggggglw99!",
"!90qhggggggggfggggghq90!!909ihgggggggffgggggf990!!099fhhhgfggfggggggghq90!",
"!3<6hgghlllllllhghgh624!!32<uhggglllkkllhgggg<4<!!234fhfghlllllllggggh823!",
"!$@>hggcnnnMnMmgggfh;@$!!$$+tkggjmMMMmmMlgghs@$$!!$$$dhgflMMnMnnmhgggh>@$!",
"!$$>hgghhhhhhhhgghgh:$%!!$%@thggggjghhhjhgghd$$$!!$$$fhghhhhlhhhhhgggh>@$!",
"!-$>hggghggghggggggh;$$!!!$@thggggggggggghghd$$$!!$$$fhhgggggggggggggh>$$!",
"!!!!!!!!!!!!!!!!!!!!!!!!!!!!!!!!!!!!!!!!!!!!!!!!!!!!!!!!!!!!!!!!!!!!!!!!!!",
"!!!!!!!!!!!!!!!!!!!!!!!!!!!!!!!!!!!!!!!!!!!!!!!!!!!!!!!!!!!!!!!!!!!!!!!!!!",
"!!!!!!!!!!!!!!!!!!!!!!!!!!!!!!!!!!!!!!!!!!!!!!!!!!!!!!!!!!!!!!!!!!!!!!!!!!",
"%$$iaiiiiiiiiiiiiiairaariiiiiiii;$$!!%$@8aiiaiiiiiiiiiiiiiaaraariiiaw$%$!!",
"$$$jhhjhhhhhhhhjhhhhhhhjjjhhjhhk;@$!!$$@ylhjhjhhjhhhhhhhhhhhhhhhhhhks+$$!!",
":::fghgggggghhffgfgfhffggggggggg4=:!!:=&uhgggfggfhfgfhgggfgffhhhggghp===!!",
"999ggfghgghghfcvvvvvcvvvlggggggg090!!099iggghhfhccvvvcvvvvcvlfhfggghd999!!",
"099hhhgfhggghgnnNnnnnnnBbdggghhjq90!!009akghgggjnnnnnnNnMnnMvfhggghhf999!!",
"2<4iiahhggghghccvvvcvccvlggggiii422!!22=waifggghvcvnxvvvvvvvlhhgggrae242!!",
"$$$595fhgggggggfhfffhfhfggggj959%$#!!$$#291ijgggffhfgfgfgffffhfhhd192#$$!!",
"$$$990ghgghhgghfhhhghfhhggggj099%$$!!$$$209ihggghhhhggghhhhghhhfhd595$%$!!",
"$$%999ghggghggghhggghgghggggj099%$%!!!$$205ahggghhhggghgghghgggghd905$$!!!",
"!!!!!!!!!!!!!!!!!!!!!!!!!!!!!!!!!!!!!!!!!!!!!!!!!!!!!!!!!!!!!!!!!!!!!!!!!!",
"!!!!!!!!!!!!!!!!!!!!!!!!!!!!!!!!!!!!!!!!!!!!!!!!!!!!!!!!!!!!!!!!!!!!!!!!!!",
"!!!!!!!!!!!!!!!!!!!!!!!!!!!!!!!!!!!!!!!!!!!!!!!!!!!!!!!!!!!!!!!!!!!!!!!!!!",
"iaiiiiia090%$$!!$%@299wgaiiiiiiiiiiiiiiiiiiauaiaiiiaq50=$$!!!%$:09waiiaiai",
"hhhhjjhjq39&$$!!$$@<91rhhhhhjjjgjjgjggjjhjhhjjhhhjhkw39&$$!!!$@:91rkhhhhhh",
"ggggggggiwr2=:!!<==5rwdggggggggfgggggggggggghfhhggggiei4::!!!::6iwahgggggg",
"gggggggghjkw90!!099ghkgggggggggggggggggggggghfffgggghhjw99!!!01ijhhggggggg",
"jjjjhggggggq99!!595rhggghjjjjhjjjjjjhhhjhjjjjjjjjjgggfgw59!!!95rhggggghhjj",
"mmnmlghghgkq99!!009ihhhglmnmmmmnmmmmmmmmmnmmmnmnmmjghhkw90!!!09rkhggggbmnM",
"nbnmxfghrqr:&*!!*=&6rqaglnbnnnnnbbbmnnnbnnnnnnnbbbhgiqr2&:!!!*&4wqahggvnnn",
"hhhhhggh039%$$!!$$#:91ihfhhhhhhhgjjghhhhhhhhhhhhhhgjq39&@$!!!$$=91rhgghhhh",
"fhgfggghq90&$$!!$%$205ajfhhfggggggghfhfhggggggggfhgjw90=$$!!!$$:05rhggghfh",
"!!!!!!!!!!!!!!!!!!!!!!!!!!!!!!!!!!!!!!!!!!!!!!!!!!!!!!!!!!!!!!!!!!!!!!!!!!",
"!!!!!!!!!!!!!!!!!!!!!!!!!!!!!!!!!!!!!!!!!!!!!!!!!!!!!!!!!!!!!!!!!!!!!!!!!!",
"!!!!!!!!!!!!!!!!!!!!!!!!!!!!!!!!!!!!!!!!!!!!!!!!!!!!!!!!!!!!!!!!!!!!!!!!!!",
"!!!!!!!!!!!!!!!!!!!!!!!!!!!!!!!!!!!!!!!!!!!!!!!!!!!!!!!!!!!!!!!!!!!!!!!!!!",
"!!!!!!!!!!!!!!!!!!!!!!!!!!!!!!!!!!!!!!!!!!!!!!!!!!!!!!!!!!!!!!!!!!!!!!!!!!",
"!!!!!!!!!!!!!!!!!!!!!!!!!!!!!!!!!!!!!!!!!!!!!!!!!!!!!!!!!!!!!!!!!!!!!!!!!!",
"!!!!!!!!!!!!!!!!!!!!!!!!!!!!!!!!!!!!!!!!!!!!!!!!!!!!!!!!!!!!!!!!!!!!!!!!!!",
"!!!!!!!!!!!!!!!!!!!!!!!!!!!!!!!!!!!!!!!!!!!!!!!!!!!!!!!!!!!!!!!!!!!!!!!!!!",
"!!!!!!!!!!!!!!!!!!!!!!!!!!!!!!!!!!!!!!!!!!!!!!!!!!!!!!!!!!!!!!!!!!!!!!!!!!",
"!!!!!!!!!!!!!!!!!!!!!!!!!!!!!!!!!!!!!!!!!!!!!!!!!!!!!!!!!!!!!!!!!!!!!!!!!!",
"!!!!!!!!!!!!!!!!!!!!!!!!!!!!!!!!!!!!!!!!!!!!!!!!!!!!!!!!!!!!!!!!!!!!!!!!!!",
"!!!!!!!!!!!!!!!!!!!!!!!!!!!!!!!!!!!!!!!!!!!!!!!!!!!!!!!!!!!!!!!!!!!!!!!!!!",
"!!!!!!!!!!!!!!!!!!!!!!!!!!!!!!!!!!!!!!!!!!!!!!!!!!!!!!!!!!!!!!!!!!!!!!!!!!"
};
