/* XPM */
static char *_590_f98691b9bdc2baf124d01f13227166c1e8b9f39de2bb7be20d162d6e5184fa5c[] = {
/* columns rows colors chars-per-pixel */
"74 74 76 1 ",
"  c #86355C",
". c #89365B",
"X c #8F3859",
"o c #953B57",
"O c #9C3D54",
"+ c #923958",
"@ c #A63B49",
"# c #A93E4B",
"$ c #A6414F",
"% c #AE444E",
"& c #B2454D",
"* c #B6494F",
"= c #BA494F",
"- c #A54051",
"; c #A84150",
": c #B54C52",
"> c #BB4C51",
", c #BB5255",
"< c #CF4F4F",
"1 c #C24E51",
"2 c #CB4F51",
"3 c #C65253",
"4 c #CE5252",
"5 c #C15758",
"6 c #C35C5A",
"7 c #D25553",
"8 c #D45A56",
"9 c #D55E59",
"0 c #C6605C",
"q c #CA645F",
"w c #D6625B",
"e c #D8665E",
"r c #D7695F",
"t c #D9685F",
"y c #CC6660",
"u c #CD6860",
"i c #DB6D62",
"p c #D67266",
"a c #DA7367",
"s c #DC7668",
"d c #DF7969",
"f c #E27F6D",
"g c #E3816E",
"h c #E68570",
"j c #E68C74",
"k c #E88972",
"l c #E79076",
"z c #E99679",
"x c #EB9D7D",
"c c #EDA17F",
"v c #EEA480",
"b c #EFA983",
"n c #F1AD85",
"m c #F3B389",
"M c #F5BA8D",
"N c #F6BE90",
"B c #FAC693",
"V c #FBCA97",
"C c #FBCC99",
"Z c #FDD19B",
"A c #FCD5A2",
"S c #FCD9A6",
"D c #FCDCAC",
"F c #FCE2B5",
"G c #FEE9B6",
"H c #FCE2B8",
"J c #FFEDBB",
"K c #FFF0BD",
"L c #FEEFC1",
"P c #FFF1C4",
"I c #FFF5CB",
"U c #FEF7D1",
"Y c #FEFAD5",
"T c #FFFDDB",
"R c #FFFFE2",
"E c None",
/* pixels */
"EEEEEEEEEEEEEEEEEEEEEEEEEEEEEEEEEEEEEEEEEEEEEEEEEEEffffgsxZCCVCVVVVCBDJGGE",
"EEEEEEEEEEE&%%agffffffffffgfffhffff977&%%X..EEEEEEEfgffgsvCBVVVVVVVVBSJGGE",
"EEEEEEEEEEE$$#pgffgfgffgfffffffffff8<7&$%.  EEEEEEEffffgfvCVVVVVVCVVBSJGGE",
"EEEEEEEEEEE,,:sgffffffffgfffffffffgw9w=:*o+oEEEEEEEgffffsxCVVCVVVVVVVSGGGE",
"EEEEEEEEEEEgggffffffffgffffffffffffggg878&&&EEEEEEEgfffgfvCVVVVVVVVVBDKGJE",
"EEEEEEEEEEEffffffgffffffffffffffgffdff877&$%EEEEEEEffffgsvCBVVVVVVVVVCZZZE",
"EEEEEEEEEEEhghffffffffffffffffhffffggh878&%&EEEEEEEffffffhbxmCVBVVVVVVVBVE",
"EEEEEEEEEEE006dffffffgfffhfffffffffirr311OOOEEEEEEEffgfffjvxmCVVVVVVVVCVVE",
"EEEEEEEEEEE##@agffffgffgffgffffffgg747&$%.  EEEEEEEffhfffhxzmCBVVVVVVBVBBE",
"EEEEEEEEEEE&&$agffffffffffffffgffdg978&%%X. EEEEEEEfddffffffjvxmCVVVCmxcvE",
"EEEEEEEEEEEEEEEEEEEEEEEEEEEEEEEEEEEEEEEEEEEEEEEEEEEfhdffffffjvxmCVVVZmcvcE",
"EEEEEEEEEEEEEEEEEEEEEEEEEEEEEEEEEEEEEEEEEEEEEEEEEEEffdfdffffjvxmVBBBVmxxxE",
"EEEEEEEEEEEEEEEEEEEEEEEEEEEEEEEEEEEEEEEEEEEEEEEEEEE777whdhdhgfgffffgffffgE",
"E&$,gffffgffffgffffg:%%EE778=$&&%%;%&&%%%%%%; ..EEE777ehddhddggdfffdffffEE",
"E%#>hfffffffgffffffg:#%EE777>%&%%%&%%%&%%%%&;   EEE774ugggdhdhgdffffffgffE",
"E,,0gfffgffffffffffg6,,EEw9e>%;%%%;&;&;&%%%%$o+oEEE777ihdghdhdggfgffffffEE",
"EgggffgfffffgffffffdhhhEEggk6#;&%&%&%%;&%%%%&&&&EEEEEEEEEEEEEEEEEEEEEEEEEE",
"EfffffffgfffffffffffddfEEffg6#&%;&;&;%&%%%%%%$%%EEEEEEEEEEEEEEEEEEEEEEEEEE",
"EgkgffffffgfffhfffffhhhEEggk6#&%&&%;&&%%%%%%%&&&EEE877rhffffffffffffffffgE",
"E66qgffffffffffffffhq66EEeet,#&%%%&&;%&;%&%&$oooEEE774wgffffffgfffffgffffE",
"E$@>gffffgfffffffffg&@#EE777=$;&%%%%%%%%%%%&;   EEE772rgfffffdfdfddfddfffE",
"E&$,hfffffffffgffffh:%&EE877>%&;%%%%%%%&%%%%-...EEEwe9igdfffhjhjzzzzzlgjhE",
"EEEEEEEEEEEEEEEEEEEEEEEEEEEEEEEEEEEEEEEEEEEEEEEEEEEhgfgfgffflbcMZZZCZBccvE",
"EEEEEEEEEEEEEEEEEEEEEEEEEEEEEEEEEEEEEEEEEEEEEEEEEEEffffffffdjczmVVVVCnxccE",
"EEEEEEEEEEEEEEEEEEEEEEEEEEEEEEEEEEEEEEEEEEEEEEEEEEEffffffglhxmbMCVVVCMbnnE",
"EEEEEEEEEEEE&#agffffhfffffgfhfffggg977&%%X .EEEEEEEffgffdjbcmZCCVVVVVCCCCE",
"EEEEEEEEEEE&%$agfffgfffggfffffffggg977&%&X..EEEEEEEffffffjcznCVVVVVVVVVVVE",
"EEEEEEEEEEE##@agffffffffffffffffgdg4<7&$$. .EEEEEEEfgffgdzmbMCVVVVVVVVVVCE",
"EEEEEEEEEEEuuudffffffffffffffffffffiia311-OOEEEEEEEfgfffdcZCCVVVVCVVVVVVVE",
"EEEEEEEEEEEghgffffffgffffffffffffffggg878&&&EEEEEEEgfffgdcCVCVVVVVVVVVCCVE",
"EEEEEEEEEEEffffffffgfffffffffhffgffffg877&%%EEEEEEEffffgdcZVVVVVVVVVBSILPE",
"EEEEEEEEEEEgfgfffffffffghffffffffffgfg878&%%EEEEEEEfffffdcCVVVCVVCVVBHTYYE",
"EEEEEEEEEEE::&agfffffffffffgfffgfdg989*%*+.XEEEEEEEffgffdxZVVCVCCVVCBFRYTE",
"EEEEEEEEEEE%;#pgffffffgffffffffffgg847&$%. .EEEEEEEffffgsvZBVVVVVVVVBDIPPE",
"EEEEEEEEEEE%%%sgfffgffgffgffgfffgfg877*%%X..EEEEEEEffffgsxCVVVVVVVVVBDIPPE",
"EEEEEEEEEEEEEEEEEEEEEEEEEEEEEEEEEEEEEEEEEEEEEEEEEEEgfffffxZVVCVVVVVCBFRTTE",
"EEEEEEEEEEEEEEEEEEEEEEEEEEEEEEEEEEEEEEEEEEEEEEEEEEEgfffgfvCVVVCVVVVVVDIPIE",
"EEEEEEEEEEEEEEEEEEEEEEEEEEEEEEEEEEEEEEEEEEEEEEEEEEEffffgsvCVVVVVVVVCBSGGGE",
"E&$,hfgffffffffgfffg:$%EE7781#%%&;%%%&%%%%%%; ..EEEffffffzZVVVVVVCVVBSJGGE",
"E&#,gfffffgfffffgffg:%%EE778>$%%%&%&;%%%%%%&; ..EEEffgfgavCVVVCVVVVVVSJGGE",
"E%#,gffffgfffffffffg:#%EE777=#%%%&%;%%%%%%%:$   EEEhfffffvZVVVVVVVVCBDJGGE",
"EdsdfffffffffgffffffdsdEEfff6#&%;&&&%%%%%%%%%%%$EEEffffhfzZVVVVVVVVVBSGGGE",
"EfggffffffffffffffffgffEEffh6#&%&;%;%%&;%%%%%&%%EEEfffffavVNVVVVVCVVBSKJJE",
"EggfffffffgfffgffgfffggEEffh6#&%&%&&%%%&%%%%%%&%EEEfffffsvCVVVVVVVVVVCAAAE",
"EssdffffffgfffgffffgsssEEdsf5$&;%%:%;&&%%&%%%--$EEEfffffsvVNVVVVVVVVVVBBBE",
"E%@:hffffffffffffffg:#%EE777=%%&%%%%%%;%&;%&- . EEEfffhffkvlmVVVVVVVVVVVVE",
"E%%,gffffffffgfffffg>%%EE778=%;&%%%%%&&&&&%%; ..EEEffffffkvvmZVVVVVVVVVVVE",
"E%#,gfffgfffffffgffg:$%EE778=%&;%%%%&;;&%;%%-...EEEhffffdhvvnVNBVVVVVBBBBE",
"EEEEEEEEEEEEEEEEEEEEEEEEEEEEEEEEEEEEEEEEEEEEEEEEEEEfffffffffgcxmCBVVCmzccE",
"EEEEEEEEEEEEEEEEEEEEEEEEEEEEEEEEEEEEEEEEEEEEEEEEEEEhffffffffjvcmZVCCCMxvcE",
"EEEEEEEEEEEEEEEEEEEEEEEEEEEEEEEEEEEEEEEEEEEEEEEEEEEdfaffffffkxznNMNMBnzzxE",
"EEEEEEEEEEEE&$:ffffhfffggfffffffffff784%&$ ..EEEEEE772wgfffffffffdfffffffE",
"EEEEEEEEEEEE$$&fgdgdffffffgfffffffgd774$%- . EEEEEE794rfffffffgfffffffffEE",
"EEEEEEEEEEEE>:,fgdggfgffffffffffffgd888;&&XX+EEEEEE777rhfgffffffgfffffgffE",
"EEEEEEEEEEEEgggffffffffffffffffffffffff787%%%EEEEEE777rgffffgfffffgfffffEE",
"EEEEEEEEEEEEfdfffffgffgffgffhfffffgdffd774$%%EEEEEEEEEEEEEEEEEEEEEEEEEEEEE",
"EEEEEEEEEEEEggkfffffgffffffffffffgdgghd787&&&EEEEEEEEEEEEEEEEEEEEEEEEEEEEE",
"EEEEEEEEEEEEuqqffffffffggffffgffgdgfiir31>OOOEEEEEE777egffffffffffffgfffgE",
"EEEEEEEEEEEE##%ffffffffgffffffffgdgd443$$$  .EEEEEE777egffffffgfffffffffEE",
"EEEEEEEEEEEE%%&ffffffffdffffffffdggd774%&; ..EEEEEE772rgfffffsffafsffffffE",
"EEEEEEEEEEEE%%&ffffffffgdggfffgfffgf774%&$ .EEEEEEEiiragffffgljzvcccczjljE",
"EEEEEEEEEEEEEEEEEEEEEEEEEEEEEEEEEEEEEEEEEEEEEEEEEEEgggfffffflncMZZZCZMcvvE",
"E%$,hfgfggfdddfffgfg:%%EE778>%%&%&%&&%%%%%%%-...EEEfdfdgffddjcznCBVBZmzcxE",
"E&#,hdffffgggffffffg:%%EE778>%%&;%%%%%%%%%%%; ..EEEffggffgljxMnBVVVVVBmmmE",
"E%$,gfffgffffhfffhff:%%EE778>$&%%%%%%:%&;;%&$...EEEffffffjbvmZCCVVVVVVCCCE",
"EfdfgfffffffffffffffdffEEffg6#&%%%%%%%&;&&%%%%%$EEEggffffhxzmCBVVVVVVVBVBE",
"EffffffffffffffffffffffEEfdh6#%%%%%&%&%&%%%%%%%%EEEgffgffkMmNVVVVVCVVZSASE",
"EgggffgfffgfffffffffgggEEggh6#&%&&;&%;%%&%%%%%&%EEEgfffgfvAVCVVVVVVCBFYUUE",
"EppsfffffgffffgfffffppaEEfff5$&&%;&;&&%%%;%%%---EEEffffgfzCVVVBCVVVVBDTYYE",
"E##>gffffffffffffffg:#$EE<<7=$%%%&&%%;%%&&%%- . EEEggffffzCVVVCVVVVCBFTYYE",
"E%#,gffffffffgfffffg:%&EE778=%%%&;&;%;&%%&%%$ ..EEEfdgfgsvCVVVCVCVVVBDPJPE",
"E%#,hffgfgfffffgfffh:$%EEE78=$%%%%%%&&%%;&;&; ..EEEgggdgfvZBVCBCVVVVBFTUUE",
"EEEEEEEEEEEEEEEEEEEEEEEEEEEEEEEEEEEEEEEEEEEEEEEEEEEfffffdvCVVCVVVVVVBFTYTE",
"EEEEEEEEEEEEEEEEEEEEEEEEEEEEEEEEEEEEEEEEEEEEEEEEEEEfgffgdxCVCVVCVVVVBDPJJE"
};
