/* XPM */
static char *_1209_e07bb5804bfee68aaea4d72fff960d2cc5155b3fc04b6c4bb440a0f22178f3fb[] = {
/* columns rows colors chars-per-pixel */
"74 74 76 1 ",
"  c #86355C",
". c #89365B",
"X c #8F3859",
"o c #953B57",
"O c #9C3D54",
"+ c #923958",
"@ c #A63B49",
"# c #A93E4B",
"$ c #A6414F",
"% c #AE444E",
"& c #B2454D",
"* c #B6494F",
"= c #BA494F",
"- c #A54051",
"; c #A84150",
": c #B54C52",
"> c #BB4C51",
", c #BB5255",
"< c #CF4F4F",
"1 c #C24E51",
"2 c #CB4F51",
"3 c #C65253",
"4 c #CE5252",
"5 c #C15758",
"6 c #C35C5A",
"7 c #D25553",
"8 c #D45A56",
"9 c #D55E59",
"0 c #C6605C",
"q c #CA645F",
"w c #D6625B",
"e c #D8665E",
"r c #D7695F",
"t c #D9685F",
"y c #CC6660",
"u c #CD6860",
"i c #DB6D62",
"p c #D67266",
"a c #DA7367",
"s c #DC7668",
"d c #DF7969",
"f c #E27F6D",
"g c #E3816E",
"h c #E68570",
"j c #E68C74",
"k c #E88972",
"l c #E79076",
"z c #E99679",
"x c #EB9D7D",
"c c #EDA17F",
"v c #EEA480",
"b c #EFA983",
"n c #F1AD85",
"m c #F3B389",
"M c #F5BA8D",
"N c #F6BE90",
"B c #FAC693",
"V c #FBCA97",
"C c #FBCC99",
"Z c #FDD19B",
"A c #FCD5A2",
"S c #FCD9A6",
"D c #FCDCAC",
"F c #FCE2B5",
"G c #FEE9B6",
"H c #FCE2B8",
"J c #FFEDBB",
"K c #FFF0BD",
"L c #FEEFC1",
"P c #FFF1C4",
"I c #FFF5CB",
"U c #FEF7D1",
"Y c #FEFAD5",
"T c #FFFDDB",
"R c #FFFFE2",
"E c None",
/* pixels */
"EGGJSBVVVVVVVCVZvsfffffEEEEEEEEEEEEEEEEEEEEEEEEEEEEEEEEEEEEEEEEEEEEEEEEEEE",
"EGGJSVVVVVVVVVBZxdfffffEEEEEEE. X&%&779gffffgfffffgfffffffhp%%;EEEEEEEEEEE",
"EGGJSBVVCVVCVVVZvdfffffEEEEEEE  .&%%728fffffffffffffffhfffhp@%%EEEEEEEEEEE",
"EGGJSVVVVVVVVVBZxdgffffEEEEEEE++o&&>99rffffffffghffffffffffs>,,EEEEEEEEEEE",
"EJJJSBVVVVVVVVVZxffffffEEEEEEE&%&878gggfffffgfffffffhfffffffhhhEEEEEEEEEEE",
"EZCZCVVCVVVVVVBCxdffffgEEEEEEE%;&778fffffffgffffffffffffffffdddEEEEEEEEEEE",
"EVBVVVVVVVVVCmxbjffffffEEEEEEE&&&879hggffffgffgfffffffffffffhhhEEEEEEEEEEE",
"EVVCVVVVVVCVCmxvjfffgffEEEEEEEOOO1=1ieifffffffffffffffffffgd600EEEEEEEEEEE",
"EBBBVCVVVVBBVmxvjffffffEEEEEEE  X%#%727gfffgfgffffgfffffffgp@##EEEEEEEEEEE",
"EvvxmCBVVCmxvlddfffffffEEEEEEE. X%%&878gffffffffffffffgfffga%%%EEEEEEEEEEE",
"EvvxmZVCVCmxvldhdffffffEEEEEEEEEEEEEEEEEEEEEEEEEEEEEEEEEEEEEEEEEEEEEEEEEEE",
"ExvxmVBBBVmxvjdgffffdffEEEEEEEEEEEEEEEEEEEEEEEEEEEEEEEEEEEEEEEEEEEEEEEEEEE",
"Effffffgfgfgggdgfdhr487EEEEEEEEEEEEEEEEEEEEEEEEEEEEEEEEEEEEEEEEEEEEEEEEEEE",
"EEfffffddgdgdgdgffgr777EEEX  #%;%%%&;%&%%%%%%>777EE%%:gffffffgffffgffg,%&E",
"Egffffffgghdhdhdffge478EEE   #%%%%%&&;&%%%&&%=777EE%#:gfgffffffgffgffg,@%E",
"EEfffffgffdhdhdhffge777EEE+o+%%%&%%;%&%%%%%;%>ewwEE,,6gfffgffffffffffg6,,E",
"EEEEEEEEEEEEEEEEEEEEEEEEEE&&&%%%&&&&%%%%%&&;#6kfhEEhggffffffgfffgfffffghgE",
"EEEEEEEEEEEEEEEEEEEEEEEEEE%%%%%%%;%;%&;%%;&&#6ffdEEdfffffgfffffffffffffdfE",
"Efffffffdggdgfffffge477EEE&&%%%%;&&%&;%%;&;&#6kfhEEhggfgffffffgfffgfffghgE",
"Efgfffgggggggfffffgr787EEEooo%%%%&&;&&%%%&&;#3ieeEE66qffffgfgffffffffgy66E",
"Edffddfddddggdgdffgr<74EEE   ;&%%%%%%%%%;%;&%*777EE%@&gffffffffffgfffh:@%E",
"EkgklxllzxlhjgggfffawwwEEE.. ;%%%%%%%%%:&&%&%>777EE%%:gfffgffffgfffffh,%%E",
"EbvcNZZCCZMccldgffdggggEEEEEEEEEEEEEEEEEEEEEEEEEEEEEEEEEEEEEEEEEEEEEEEEEEE",
"EcxxmVVVBVmzcldgfffffffEEEEEEEEEEEEEEEEEEEEEEEEEEEEEEEEEEEEEEEEEEEEEEEEEEE",
"EnmnMCVCVCMbmzhlgffffhfEEEEEEEEEEEEEEEEEEEEEEEEEEEEEEEEEEEEEEEEEEEEEEEEEEE",
"ECCVVVVVVVCCZMccjffffffEEEEEEE. X%%&878gfffffffffffgffffffha%%EEEEEEEEEEEE",
"EVVVVVVVVVVBCmxckffffffEEEEEEE..X&%&779gffffhffffgffgfffffgp%%%EEEEEEEEEEE",
"EVVVVVVVVVVVCMbmzdgfffgEEEEEEE  .;$&744gffffffffffffffgfffga@##EEEEEEEEEEE",
"EVVVVVVVVCVVVCCZcdfffffEEEEEEEOO;113iaafffffffffffgfgffffffdquuEEEEEEEEEEE",
"ECCCVVVVVVVVVVBCxdfffgfEEEEEEE&%&878ggffffffffffffffffffffffghhEEEEEEEEEEE",
"EPLISBVVVVVVVVVZxdfffffEEEEEEE%%&778fffffffffffhffffffgffffffffEEEEEEEEEEE",
"EYYTFBCVVVCVVVVZvdffffgEEEEEEE%%&878gfffhfffffffffgffffffffffggEEEEEEEEEEE",
"EYYTHBVVVVVVVVBZxsgffffEEEEEEEXXo&&:889gfffgffffffffgfffffga:::EEEEEEEEEEE",
"EIIUDVVVVVCVCVVZxfgfffgEEEEEEE  X&%&748gfffffffffgffffffffgp@%%EEEEEEEEEEE",
"EPLIDVVVVCVVVVBZxffffffEEEEEEE  .%%&778gfffffffgfffgffgfffga%%%EEEEEEEEEEE",
"ETYRHBVVVVCVVVVZzfgfgffEEEEEEEEEEEEEEEEEEEEEEEEEEEEEEEEEEEEEEEEEEEEEEEEEEE",
"EIIIDBVVVCVVVVVZxsffgffEEEEEEEEEEEEEEEEEEEEEEEEEEEEEEEEEEEEEEEEEEEEEEEEEEE",
"EGGGSVVVVVVVVVVZvffffffEEEEEEEEEEEEEEEEEEEEEEEEEEEEEEEEEEEEEEEEEEEEEEEEEEE",
"EGGJSBVVVVVCVVBZzfffffgEEE . #%%&&%;&%%%%%%%%>877EE&%:gfffgffffffffffh,#%E",
"EGGJSVVVVVVVVVVZxfffffgEEE . %%%;%%&;%%%%%&%%=777EE;%:gfgfffffgffffffh,%%E",
"EGGJSBVVVVVCVVVZvsfffffEEE   ;%%&;&%:%;%&&;&%=7<7EE%#:hfffgffffgfffffh:#%E",
"EGGJSBVVVVVVVVVZzffffffEEE%%;%%%%&%&%%&%;&%&%5fffEEsssfffffffffffffgffdddE",
"EJJKSBVVVVVVVVVCvffffffEEE%&%%%%&&;&%%%%%%%%#6gffEEgggfffffffffffgfffffffE",
"EAZAZVVVVVVVVVVZzfffgffEEE&&%%%%%;%&%%%%%%%%#6hffEEggfdffgfffgfffffffffggE",
"EVBBVVVVVVVVVBBVxffffffEEE;;#%%%;&%%%%%%%%%%$6gddEEsssffffhfffhffffgffsasE",
"EVVVVVVVBVVVCnxvkffffffEEE   %%%%&%%%%&;%%%%%=747EE%#:hffffffffffgfffg,#%E",
"EVVVVVVVVVVVZmxvjffffffEEE . O&%;%%%%%%:%;&%$=877EE%#:hffffffffffffffg,#%E",
"EBBBBVVVVVBBVnxxhfffffhEEE.. ;%%&&%%%%%%%:&%%=877EE%%:fffffffffffffffg,%%E",
"ExcxmCBVVCmxcjfffffdfffEEEEEEEEEEEEEEEEEEEEEEEEEEEEEEEEEEEEEEEEEEEEEEEEEEE",
"EvcxMCCCVZmxnjfffffffggEEEEEEEEEEEEEEEEEEEEEEEEEEEEEEEEEEEEEEEEEEEEEEEEEEE",
"ExxxnNNMNNblxgffffffdddEEEEEEEEEEEEEEEEEEEEEEEEEEEEEEEEEEEEEEEEEEEEEEEEEEE",
"Edffffdfffffffffffgw277EEEEEE.. ;%%477dfffffhffffffgfffgfff:%%EEEEEEEEEEEE",
"EEffffffffffffffffgr777EEEEEE   ;%%474dfffffdhfffffffgffdgf%%%EEEEEEEEEEEE",
"Efgfffgfgfffffgfffgr478EEEEEE+X.;=%899ffffffhdfffgffffffggd,::EEEEEEEEEEEE",
"EEffgffffffgffffgfge777EEEEEE%&%487dhdfffffgdhdhffffffgfgdggggEEEEEEEEEEEE",
"EEEEEEEEEEEEEEEEEEEEEEEEEEEEE%%%477dffffffffhdhdfffgffffggfdffEEEEEEEEEEEE",
"EEEEEEEEEEEEEEEEEEEEEEEEEEEEE&&%487fgggffffgfffggfffffffdgggggEEEEEEEEEEEE",
"Efffffffffffffffgdhr777EEEEEEOOO>3=ratfgfffffffffffffgffdgguyqEEEEEEEEEEEE",
"EEffggfggfffffffffge477EEEEEE   $%$<<<dffgfffgggffffffffggd%@%EEEEEEEEEEEE",
"Efdfddddddffffffffgr<77EEEEEE.. %%%477dfdffffddgffffffgfdgg%%&EEEEEEEEEEEE",
"EjljxccxcvzjjhffffgaritEEEEEEE .;%%487fgfffgffgffffffffffgd:%%EEEEEEEEEEEE",
"EvbcMZZZZZMcbldgffdhgggEEEEEEEEEEEEEEEEEEEEEEEEEEEEEEEEEEEEEEEEEEEEEEEEEEE",
"ExxxmCBVBCmzcjdffffdfffEEE.. ;%%%%%%%%%%%&&%%>878EE%%:gffffddffffffffg,%;E",
"EmmmNCVVVVNmmcklhfffffgEEE ..;%%%%%%%&%%%%%%%>777EE%%:gfffgfgfffffgffg,%&E",
"ECZCCVCVVVCVZMcbjfffgffEEE.. ;%%%%%%%%;&&%%%%=777EE&%,gdfffhfffffhfffh,#%E",
"EBBBBCBVVVVVVmxcjffffffEEE%%%%%%%%%%%%&&;&%%%6gffEEdddggfgffffffffffffdfdE",
"ESASZBCVVCVVVNmMlffffffEEE%%%%%%&&&;%%%;%%%%#5gffEEfgddhfffffffffffffffffE",
"EUUYFBCVVVVVVCVZcdffffgEEE&%%%%%;%&%%%%::%%%#6hfgEEghhgdfffgfffffffffffhhE",
"EYYTFBVBCVVVVVVCxffffffEEE-;#;%%&&%&%%;%%%%%$,fddEEppsgdffffgfffffffffappE",
"EYYTFBCCVVVVVVVZxdfffffEEE   ;%%;%;&&%&&%&&%%>747EE%@%hggffffffffffffh:@%E",
"ELJPSBVVVVVVVVVZxdfffffEEE.. ;%%%&&&;&;&;%;%%>777EE%$,gdffgffffgfhffdh,%&E",
"EYUYFBVVVVVVVVBZxffffgfEEE.. ;%%&;%;%%%%&&&%%=87EEE%%:ggfffffffffffffh,#;E",
"EYYRHBVVVVVVVVVZxdgffgfEEEEEEEEEEEEEEEEEEEEEEEEEEEEEEEEEEEEEEEEEEEEEEEEEEE",
"EJJPDBVVVVCVVVVZxdgffffEEEEEEEEEEEEEEEEEEEEEEEEEEEEEEEEEEEEEEEEEEEEEEEEEEE"
};
