/* XPM */
static char *_301_c32f44009bfe12065f6d5e1d6cda316c8df74f01dbcfeda8056828b8c7d55549[] = {
/* columns rows colors chars-per-pixel */
"74 74 3 1 ",
"  c #3F403A",
". c #3D3550",
"X c gray96",
/* pixels */
"..........................................................................",
"..........................................................................",
"..........................................................................",
"..........................................................................",
"..........................................................................",
"..........................................................................",
"..........................................................................",
"..........................................................................",
"..........................................................................",
"..........................................................................",
"..........................................................................",
"..........................................................................",
"..........................................................................",
"..........................................................................",
"..........................................................................",
"..........................................................................",
"..........................................................................",
"..........................................................................",
"..........................................................................",
"..........................................................................",
"..........................................................................",
"..........................................................................",
"..........................................................................",
"..........................................................................",
"..........................................................................",
"..........................................................................",
"..........................................................................",
"..........................................................................",
"..........................................................................",
"..........................................................................",
"..........................................................................",
".....................XXXXXXXXXXXXXXXXXXXXXXXXXXXXXXXXXXXX.................",
"......................XXXXXXXXXXXXXXXXXXXXXXXXXXXXXXXXXX..................",
".....................XXXXXXXXXXXXXXXXXXXXXXXXXXXXXXXXXXXX.................",
"......................XXXXXXXXXXXXXXXXXXXXXXXXXXXXXXXXXX..................",
".....................XXXXXXXXXXXXXXXXXXXXXXXXXXXXXXXXXXXX.................",
".....................XXXXXX       XXX    XXXXXXXXXX XXXXX.................",
".......................XXXX       XXX    XXXXXXXXX XXXX...................",
"........................XXX XXXX  X  XXXX  XX  XXX XXX....................",
"........................XXXXXXXX  X  XXXX  XX  XX XXXX....................",
"........................XXXXXX  XXX  XXXX  XXXXX XXXXX....................",
"........................XXXXXX  XXX  XXXX  XXXXX XXXXX....................",
"........................XXXXXX  XXX  XXXX  XXXX XX  XX....................",
".......................XXXXX  XXXXX  XXXX  XXX XXX  XXX...................",
".....................XXXXXXX  XXXXXXX    XXXXX XXXXXXXXXX.................",
".....................XXXXXXX  XXXXXXX    XXXX XXXXXXXXXXX.................",
"......................XXXXXXXXXXXXXXXXXXXXXXXXXXXXXXXXXX..................",
".....................XXXXXXXXXXXXXXXXXXXXXXXXXXXXXXXXXXXX.................",
"......................XXXXXXXXXXXXXXXXXXXXXXXXXXXXXXXXXX..................",
".....................XXXXXXXXXXXXXXXXXXXXXXXXXXXXXXXXXXXX.................",
"..........................................................................",
"..........................................................................",
"..........................................................................",
"..........................................................................",
"..........................................................................",
"..........................................................................",
"..........................................................................",
"..........................................................................",
"..........................................................................",
"..........................................................................",
"..........................................................................",
"..........................................................................",
"..........................................................................",
"..........................................................................",
"..........................................................................",
"..........................................................................",
"..........................................................................",
"..........................................................................",
"..........................................................................",
"..........................................................................",
"..........................................................................",
"..........................................................................",
"..........................................................................",
".........................................................................."
};
