/* XPM */
static char *_608_5fca1cb6c658b8d0157f4d698b31a451c6415fa18d55408b9e74b44fde06ad24[] = {
/* columns rows colors chars-per-pixel */
"74 74 5 1 ",
"  c #3F403A",
". c #3D3550",
"X c #AFADB8",
"o c #CED0D3",
"O c gray96",
/* pixels */
"..........................................................................",
"..........................................................................",
"..........................................................................",
"..........................................................................",
"..........................................................................",
"..........................................................................",
"..........................................................................",
"..........................................................................",
"..........................................................................",
"..........................................................................",
"..........................................................................",
"..........................................................................",
"..........................................................................",
"..........................................................................",
"..........................................................................",
"..........................................................................",
"..........................................................................",
"..........................................................................",
"..........................................................................",
"..........................................................................",
"..........................................................................",
"..........................................................................",
"..........................................................................",
"..........................................................................",
"..........................................................................",
"..........................................................................",
"..........................................................................",
"..........................................................................",
"..........................................................................",
"....................XXXXXXXXXXXXXXXXXXXXXXXXXXXXXXXXXXXXXX................",
"....................XOOOOOOOOOOOOOOOOOOOOOOOOOOOOOOOOOOOOX................",
"....................XXOOOOOOOOOOOOOOOOOOOOOOOOOOOOOOOOOOXX................",
"....................XOOOOOOOOOOOOOOOOOOOOOOOOOOOOOOOOOOOOX................",
"....................XXOOOOOOOOOOOOOOOOOOOOOOOOOOOOOOOOOOXX................",
"....................XOOOOOOOOOOOOOOOOOOOOOOOOOOOOOOOOOOOOX................",
"....................XOOOOOO       oOO    oOOOOOOOOO OOOOOX................",
"......................XOOOO       oOO    oOOOOOOOO OOOOX..................",
".......................XOOO oOOO  o..oOOO  oO  oOO OOOX...................",
".......................XOOOOOOOO  o..oOOO  oO  oO OOOOX...................",
".......................XOOOOOO  oOO..oOOO  oOOOO OOOOOX...................",
".......................XOOOOOO  oOO..oOOO  oOOOO OOOOOX...................",
".......................XOOOOOO  oOO..oOOO  oOOO OO  oOX...................",
"......................XOOOOO  oOOOO..oOOO  oOO OOO  oOOX..................",
"....................XOOOOOOO  oOOOOOO    oOOOO OOOOOOOOOOX................",
"....................XOOOOOOO  oOOOOOO    oOOO OOOOOOOOOOOX................",
"....................XXOOOOOOOOOOOOOOOOOOOOOOOOOOOOOOOOOOXX................",
"....................XOOOOOOOOOOOOOOOOOOOOOOOOOOOOOOOOOOOOX................",
"....................XXOOOOOOOOOOOOOOOOOOOOOOOOOOOOOOOOOOXX................",
"....................XOOOOOOOOOOOOOOOOOOOOOOOOOOOOOOOOOOOOX................",
"....................XXXXXXXXXXXXXXXXXXXXXXXXXXXXXXXXXXXXXX................",
"..........................................................................",
"..........................................................................",
"..........................................................................",
"..........................................................................",
"..........................................................................",
"..........................................................................",
"..........................................................................",
"..........................................................................",
"..........................................................................",
"..........................................................................",
"..........................................................................",
"..........................................................................",
"..........................................................................",
"..........................................................................",
"..........................................................................",
"..........................................................................",
"..........................................................................",
"..........................................................................",
"..........................................................................",
"..........................................................................",
"..........................................................................",
"..........................................................................",
"..........................................................................",
".........................................................................."
};
