/* XPM */
static char *_4280_38d5c40c5681b4032155cf0ae550f015af4e53b376f62314d39cef19b8db76d2[] = {
/* columns rows colors chars-per-pixel */
"74 74 5 1 ",
"  c #3F403A",
". c #3D3550",
"X c #837F90",
"o c #AFADB8",
"O c gray96",
/* pixels */
"..........................................................................",
"..........................................................................",
"..........................................................................",
"..........................................................................",
"..........................................................................",
"..........................................................................",
"..........................................................................",
"..........................................................................",
"..........................................................................",
"..........................................................................",
"..........................................................................",
"..........................................................................",
"..........................................................................",
"..........................................................................",
"..........................................................................",
"..........................................................................",
"..........................................................................",
"..........................................................................",
"..........................................................................",
"..........................................................................",
"..........................................................................",
"..........................................................................",
"..........................................................................",
"..........................................................................",
"..........................................................................",
"..........................................................................",
"..........................................................................",
"...................XXXXXXXXXXXXXXXXXXXXXXXXXXXXXXXXXXXXXXXX...............",
"...................XooooooooooooooooooooooooooooooooooooooX...............",
"...................XoOOOOOOOOOOOOOOOOOOOOOOOOOOOOOOOOOOOOoX...............",
"...................XooOOOOOOOOOOOOOOOOOOOOOOOOOOOOOOOOOOooX...............",
"...................XoOOOOOOOOOOOOOOOOOOOOOOOOOOOOOOOOOOOOoX...............",
"...................XooOOOOOOOOOOOOOOOOOOOOOOOOOOOOOOOOOOooX...............",
"...................XoOOOOOOOOOOOOOOOOOOOOOOOOOOOOOOOOOOOOoX...............",
"...................XoOOOOOO       OOO    OOOOOOOOOO OOOOOoX...............",
".....................XoOOOO       OOO    OOOOOOOOO OOOOoX.................",
"......................XoOOO OOOO  O  OOOO  OO  OOO OOOoX..................",
"......................XoOOOOOOOO  O  OOOO  OO  OO OOOOoX..................",
"......................XoOOOOOO  OOO  OOOO  OOOOO OOOOOoX..................",
"......................XoOOOOOO  OOO  OOOO  OOOOO OOOOOoX..................",
"......................XoOOOOOO  OOO  OOOO  OOOO OO  OOoX..................",
".....................XoOOOOO  OOOOO  OOOO  OOO OOO  OOOoX.................",
"...................XoOOOOOOO  OOOOOOO    OOOOO OOOOOOOOOOoX...............",
"...................XoOOOOOOO  OOOOOOO    OOOO OOOOOOOOOOOoX...............",
"...................XooOOOOOOOOOOOOOOOOOOOOOOOOOOOOOOOOOOooX...............",
"...................XoOOOOOOOOOOOOOOOOOOOOOOOOOOOOOOOOOOOOoX...............",
"...................XooOOOOOOOOOOOOOOOOOOOOOOOOOOOOOOOOOOooX...............",
"...................XoOOOOOOOOOOOOOOOOOOOOOOOOOOOOOOOOOOOOoX...............",
"...................XooooooooooooooooooooooooooooooooooooooX...............",
"...................XXXXXXXXXXXXXXXXXXXXXXXXXXXXXXXXXXXXXXXX...............",
"..........................................................................",
"..........................................................................",
"..........................................................................",
"..........................................................................",
"..........................................................................",
"..........................................................................",
"..........................................................................",
"..........................................................................",
"..........................................................................",
"..........................................................................",
"..........................................................................",
"..........................................................................",
"..........................................................................",
"..........................................................................",
"..........................................................................",
"..........................................................................",
"..........................................................................",
"..........................................................................",
"..........................................................................",
"..........................................................................",
"..........................................................................",
"..........................................................................",
"..........................................................................",
".........................................................................."
};
