/* XPM */
static char *_172_b26dbc96eee0f1a27ebe6f5ce8eca5a1c4d8adee3489dc138ca3871772bd0a0d[] = {
/* columns rows colors chars-per-pixel */
"74 74 2 1 ",
"  c #3D3550",
". c #BA9C5C",
/* pixels */
"                                                                          ",
"                                                                          ",
"                                                                          ",
"                                                                          ",
"                                                                          ",
"                                                                          ",
"                                                                          ",
"                                                                          ",
"                                                                          ",
"                                                                          ",
"                                                                          ",
"                                                                          ",
"                                                                          ",
"                                                                          ",
"                                                                          ",
"                                                                          ",
"                                                                          ",
"                                                                          ",
"                                                                          ",
"                                     ..                                   ",
"                                      .                                   ",
"                                 .     .                                  ",
"                                    .  .                                  ",
"                                .  ...  .                                 ",
"                               .   ...  ..                                ",
"                                  .....  .                                ",
"                                  .....  .                                ",
"                                 ....... ..                               ",
"                                ......... .                               ",
"                                .......... .                              ",
"                               .............                              ",
"                               ..............                             ",
"                             . ..............                             ",
"                              ................                            ",
"                              ................                            ",
"                             ..................                           ",
"                             ..................                           ",
"                          . ....................                          ",
"                            ...................                           ",
"                         . ....................                           ",
"                           ...................                            ",
"                          ...................                             ",
"                          ...................                             ",
"                         ...................                              ",
"                          ..................                              ",
"                          .................                               ",
"                           ................                               ",
"                           ...............                                ",
"                           . .............                                ",
"                           .  ...........                                 ",
"                            .  ..........                                 ",
"                            .  .........                                  ",
"                             .  ........                                  ",
"                             .   ......                                   ",
"                              .  ......                                   ",
"                               .  ....                                    ",
"                               .. ....                                    ",
"                               ..  ..                                     ",
"                                .. ..                                     ",
"                                 . .                                      ",
"                                 ..                                       ",
"                                                                          ",
"                                                                          ",
"                                                                          ",
"                                                                          ",
"                                                                          ",
"                                                                          ",
"                                                                          ",
"                                                                          ",
"                                                                          ",
"                                                                          ",
"                                                                          ",
"                                                                          ",
"                                                                          "
};
