/* XPM */
static char *_2108_a98592ea534af8aae10b20afffd06cec8e053ff12a4e1d51de2236dfbc816979[] = {
/* columns rows colors chars-per-pixel */
"74 74 2 1 ",
"  c #3D3550",
". c #BA9C5C",
/* pixels */
"                                                                          ",
"                                                                          ",
"                                                                          ",
"                                                                          ",
"                                                                          ",
"                                                                          ",
"                                                                          ",
"                                                                          ",
"                                                                          ",
"                                                                          ",
"                                                                          ",
"                                                                          ",
"                                                                          ",
"                                                                          ",
"                                                                          ",
"                                                                          ",
"                                    ..                                    ",
"                                    ..                                    ",
"                                   . .                                    ",
"                                   ....                                   ",
"                                  . ...                                   ",
"                                 ....  .                                  ",
"                                 ....  .                                  ",
"                               ... ...  .                                 ",
"                               .......  ..                                ",
"                               ........  .                                ",
"                              .........  .                                ",
"                              .......... ..                               ",
"                             ............ .                               ",
"                             ............. .                              ",
"                            ................                              ",
"                            .................                             ",
"                           ..................                             ",
"                           ...................                            ",
"                          ..............                                  ",
"                          ............  .......                           ",
"                         ...........  .........                           ",
"                         .........  ..    .... .                          ",
"                        ......... . . .   .... ..                         ",
"                        ........         ...  ...                         ",
"                        ........      .. .. ......                        ",
"                         ...... ...  .. .. .......                        ",
"                         ..... ...  ...   .   ...                         ",
"                         .... ...  ...       ....                         ",
"                          ... ... ..    .  ... .                          ",
"                          .. ....    ... .......                          ",
"                           . ...... ..  .......                           ",
"                           . ....  .  .........                           ",
"                           .  .. .  ........ .                            ",
"                           .      ......... ..                            ",
"                            .   ..............                            ",
"                            .  ..............                             ",
"                             .  ......... ..                              ",
"                             .   ...... ...                               ",
"                              .  .........                                ",
"                               .  ..... .                                 ",
"                               .. .......                                 ",
"                               ..  .....                                  ",
"                                .. .. .                                   ",
"                                 . ...                                    ",
"                                 ....                                     ",
"                                  ..                                      ",
"                                   .                                      ",
"                                                                          ",
"                                                                          ",
"                                                                          ",
"                                                                          ",
"                                                                          ",
"                                                                          ",
"                                                                          ",
"                                                                          ",
"                                                                          ",
"                                                                          ",
"                                                                          "
};
