/* XPM */
static char *_396_3a96b0348e47aa797a7d6e9b6567f49c15e3af8873561340e64dc8f0a9642e1d[] = {
/* columns rows colors chars-per-pixel */
"74 74 2 1 ",
"  c #3D3550",
". c #BA9C5C",
/* pixels */
"                                                                          ",
"                                                                          ",
"                                                                          ",
"                                                                          ",
"                                                                          ",
"                                                                          ",
"                                                                          ",
"                                                                          ",
"                                                                          ",
"                                                                          ",
"                                                                          ",
"                                                                          ",
"                                                                          ",
"                                                                          ",
"                                                                          ",
"                                                                          ",
"                                                                          ",
"                                                                          ",
"                                                                          ",
"                                                                          ",
"                                                                          ",
"                                 .                                        ",
"                                 ..                                       ",
"                               ... .                                      ",
"                               .....     .                                ",
"                               ......                                     ",
"                              .......                                     ",
"                              ........                                    ",
"                             ..........                                   ",
"                             ..........                                   ",
"                            ............                                  ",
"                            .............                                 ",
"                           ...............                                ",
"                           ................                               ",
"                          .................                               ",
"                          .................                               ",
"                         ...................                              ",
"                         ...................                              ",
"                        ......................                            ",
"                        .......................                           ",
"                        ........................                          ",
"                         ........................                         ",
"                          .......................                         ",
"                          .......................                         ",
"                           ................... .                          ",
"                           .....................                          ",
"                            ...................                           ",
"                             ..................                           ",
"                             ............... .                            ",
"                              ............. ..                            ",
"                               ...............                            ",
"                               ..............                             ",
"                                ......... ..                              ",
"                                 ...... ...                               ",
"                                  ........                                ",
"                                   .... .                                 ",
"                                    .....                                 ",
"                                     ...                                  ",
"                                      .                                   ",
"                                     .                                    ",
"                                                                          ",
"                                                                          ",
"                                                                          ",
"                                                                          ",
"                                                                          ",
"                                                                          ",
"                                                                          ",
"                                                                          ",
"                                                                          ",
"                                                                          ",
"                                                                          ",
"                                                                          ",
"                                                                          ",
"                                                                          "
};
