/* XPM */
static char *_1922_cde7f02f579fa1adaa5dd7877cd0fcaee5745ab0e57c849e7cac246915e13a75[] = {
/* columns rows colors chars-per-pixel */
"74 74 253 2 ",
"   c #1A1737",
".  c #251C35",
"X  c #2A1D39",
"o  c #33153D",
"O  c #34233A",
"+  c #3C253C",
"@  c #2B313A",
"#  c #43283E",
"$  c #4E2A3D",
"%  c #542D3E",
"&  c #4D333D",
"*  c #70232D",
"=  c #772C3B",
"-  c #7E313B",
";  c #5E743A",
":  c #3B1642",
">  c #2F2F4E",
",  c #3D3550",
"<  c #363D58",
"1  c #293D61",
"2  c #323966",
"3  c #451642",
"4  c #4A2A42",
"5  c #582E42",
"6  c #5B3341",
"7  c #5A3B4C",
"8  c #4D3850",
"9  c #5F355C",
"0  c #673645",
"q  c #713B43",
"w  c #793848",
"e  c #69375B",
"r  c #3A4766",
"t  c #374C6E",
"y  c #3B5578",
"u  c #2E627F",
"i  c #514B5C",
"p  c #74454C",
"a  c #674754",
"s  c #6C4B50",
"d  c #774854",
"f  c #755958",
"g  c #4B6F42",
"h  c #474B6B",
"j  c #4E5764",
"k  c #545A69",
"l  c #485573",
"z  c #595A73",
"x  c #565B7D",
"c  c #6E5D71",
"v  c #4F6B77",
"b  c #59677B",
"n  c #6C6974",
"m  c #AB1A3A",
"M  c #87323D",
"N  c #B82732",
"B  c #E33B2C",
"V  c #985030",
"C  c #9A7230",
"Z  c #ED4C2C",
"A  c #FB4826",
"S  c #EB5225",
"D  c #853C49",
"F  c #8E2551",
"G  c #8E3554",
"H  c #884547",
"J  c #95424C",
"K  c #974949",
"L  c #975B47",
"P  c #874B55",
"I  c #885757",
"U  c #955352",
"Y  c #A24E4A",
"T  c #B1524E",
"R  c #B6564D",
"E  c #BC584F",
"W  c #A45956",
"Q  c #946657",
"!  c #B16A4E",
"~  c #B6684C",
"^  c #AA665B",
"/  c #835A75",
"(  c #BE5B63",
")  c #836974",
"_  c #986D77",
"`  c #87787A",
"'  c #A77868",
"]  c #B57C69",
"[  c #B06B73",
"{  c #C25C4F",
"}  c #D9504E",
"|  c #C75E50",
" . c #CB5E5C",
".. c #FF515D",
"X. c #CC6F4F",
"o. c #EA7356",
"O. c #C15D60",
"+. c #D36E69",
"@. c #E5786E",
"#. c #6C9165",
"$. c #F88B34",
"%. c #8F8278",
"&. c #B8826E",
"*. c #B78E78",
"=. c #F19759",
"-. c #FFA35F",
";. c #C5876F",
":. c #D49968",
">. c #CE9278",
",. c #D49577",
"<. c #EE8572",
"1. c #ED9B79",
"2. c #F69879",
"3. c #F2A574",
"4. c #FFDE74",
"5. c #FFE27D",
"6. c #3D5C83",
"7. c #3C6689",
"8. c #466788",
"9. c #5C648D",
"0. c #487288",
"q. c #54758A",
"w. c #4D6F90",
"e. c #5B6299",
"r. c #467798",
"t. c #70698E",
"y. c #687885",
"u. c #74788D",
"i. c #646E99",
"p. c #66729B",
"a. c #5D66A2",
"s. c #8E7987",
"d. c #B27884",
"f. c #4F8497",
"g. c #588695",
"h. c #708F95",
"j. c #659599",
"k. c #73AD97",
"l. c #4B8BAC",
"z. c #4E94B2",
"x. c #7D9EA8",
"c. c #72B5A3",
"v. c #77C8AE",
"b. c #6DCDC7",
"n. c #8E8888",
"m. c #B3918F",
"M. c #AAAB9C",
"N. c #878CB4",
"B. c #9196B3",
"V. c #AE9DAA",
"C. c #B29FB1",
"Z. c #95B0B9",
"A. c #A2A5A8",
"S. c #A4A2AD",
"D. c #A9A3AD",
"F. c #B3A6AE",
"G. c #B9A8AD",
"H. c #ABAAB5",
"J. c #B4AAB4",
"K. c #BBACB2",
"L. c #B1B5BA",
"P. c #BBB4B8",
"I. c #CE948B",
"U. c #CF988B",
"Y. c #D49789",
"T. c #EA9A89",
"R. c #D4A690",
"E. c #EFA98E",
"W. c #F9A785",
"Q. c #E9A897",
"!. c #FBB799",
"~. c #C59FA3",
"^. c #C6A8AD",
"/. c #D6A8AA",
"(. c #D6B6A9",
"). c #CAA3B6",
"_. c #C3ACB2",
"`. c #CBAEB4",
"'. c #D2ABB4",
"]. c #C7B6B7",
"[. c #CEBABD",
"{. c #D3B3B4",
"}. c #DAB6B4",
"|. c #D6BCB9",
" X c #EEA9A6",
".X c #E9B8A6",
"XX c #F8BAA7",
"oX c #E3BAB6",
"OX c #E7BBB8",
"+X c #FAB8B6",
"@X c #84CDAA",
"#X c #B9C7B8",
"$X c #FFE181",
"%X c #C8C6B7",
"&X c #D9C5B9",
"*X c #D2D4BB",
"=X c #FDC9AB",
"-X c #E5C8BA",
";X c #F7C9B2",
":X c #E5DABC",
">X c #F8D6BA",
",X c #E6E4BE",
"<X c #FBE7BC",
"1X c #959AC3",
"2X c #9CA1C7",
"3X c #9EA4C8",
"4X c #8EBEC4",
"5X c #A5AAC7",
"6X c #ADB7C7",
"7X c #B5B9C7",
"8X c #B3BCC5",
"9X c #B2BCCC",
"0X c #B6BCD0",
"qX c #C1BFC4",
"wX c #FFBBC1",
"eX c #B5C4CC",
"rX c #BBC7CC",
"tX c #B6CBCE",
"yX c #B3C4D2",
"uX c #B7C8D4",
"iX c #BACCD2",
"pX c #BCD3D5",
"aX c #AEEEC7",
"sX c #B6D3E0",
"dX c #C5C7CA",
"fX c #DAC8C4",
"gX c #D1D1CC",
"hX c #C7CBD6",
"jX c #D5CDD9",
"kX c #C2D6D3",
"lX c #C8D7D9",
"zX c #D5D8D7",
"xX c #E1CBC4",
"cX c #EBD3C6",
"vX c #EAD7C8",
"bX c #F1D0C9",
"nX c #F8D9C8",
"mX c #C6E3DA",
"MX c #D6E5DC",
"NX c #FBE8C7",
"BX c #F1EACF",
"VX c #E6E8D8",
"CX c #FBF3D4",
"ZX c #FAF7D9",
"AX c #CED0E2",
"SX c #D3D5E4",
"DX c #D6D8E8",
"FX c #DADCE8",
"GX c #D8EBE5",
"HX c #E5E6EA",
"JX c #EEEDEB",
"KX c #F8FEE6",
"LX c #F4F8F2",
/* pixels */
", , , , , , , , , , , , , , , , , , , , , , , , , , , , , , , , , , , , , , , , , , , , , , , , , , , , , , , , , , , , , , , , , , , , , , , , , , ",
", , , , , , , , , , , , , , , , , , , , , , , , , , , , , , , , , , , , , , , , , , , , , , , , , , , , , , , , , , , , , , , , , , , , , , , , , , ",
", , , , , , , , , , , , , , , , , , , , , , , , , , , , , , , , , , , , , , , , , , , , , , , , , , , , , , , , , , , , , , , , , , , , , , , , , , ",
", , , , , , , , , , , , , , , , , , , , , , , , , , , , , , , , , , , , , , , , , , , , , , , , , , , , , , , , , , , , , , , , , , , , , , , , , , ",
", , , , , , , , , , , , , , , , , , , , , , , , , , , , , , , , , , , , , , , , , , , , , , , , , , , , , , , , , , , , , , , , , , , , , , , , , , ",
", , , , , , , , , , , , , , , , , , , , , , , , , , , , , , , , , , , , , , , , , , , , , , , , , , , , , , , , , , , , , , , , , , , , , , , , , , ",
", , , , , , , , , , , , , , , , , , , , , , , , , , , , , , , , , , , , , , , , , , , , , , , , , , , , , , , , , , , , , , , , , , , , , , , , , , ",
", , , , , , , , , , , , , , , , , , , , , , , , , , , , , , , , , , , , , , , , , , , , , , , , , , , , , , , , , , , , , , , , , , , , , , , , , , ",
", , , , , , , , , , , , , , , , , , , , , , , , , , , , 8 * * * * 7 , , , , , , , , , , , , , , , , , , , , , , , , , , , , , , , , , , , , , , , , ",
", , , , , , , , , , , , , , , , , , , , , , , , , , , , d B B Z B N w , , , , , , , , , , , , , , , , , , , , , , , , , , , , , , , , , , , , , , , ",
", , , , , , , , , , , , , , , , , , , , , , , , , , , D +.{.>X=XOXo.B 0 , , , , , , , , , , , , , , , , , , , , , , , , , , , , , , , , , , , , , , ",
", , , , , , , , , , , , , , , , , , , , , , , , , , K I.VXKXXX!.ZXCX XN e , , , , , , , , , , , , , , , , , , , , , , , , , , , , , , , , , , , , , ",
", , , , , , , , , , , , , , , , , , , , , , , , , P ~.nXCX=XA 2.CXCXCXT.N i , , , , , , , , , , , , , , , , , , , , , , , , , , , , , , , , , , , , ",
", , , , , , , , , , , , , , , , , - M - - w M - M [ VX>X>X<.A 2.>X;XCXNX .m = M = M - w w , , , , , , , , , , , , , , , , , , , , , , , , , , , , , ",
", , , , , , , , , , , , , , , , , G d.*.Y.U.Y.Y.R.xXKXCXCXW.=.>XZXCXKXKX;XT.Y.Y.[ I.[ d.F 9 , , , , , , , , , , , , , , , , , , , , , , , , , , , , ",
", , , , , , , , , , , , , , , , 8 O.vXBXCX:XCXCXCXZXKX>XZXCX>XZXKXKXKXKXZXCXCXBXBXBXvXvX} V., , , , , , , , , , , , , , , , , , , , , , , , , , , , ",
", , , , , , , , , , , , , , , r j | cXNXZX(.ZXnX;XNXCX!.nX>XKXvX>X=XCXNXNX;XCXNXZX;X>X>X@.J., , , , , , , , , , , , , , , , , , , , , , , , , , , , ",
", , , , , , , , , , , , , , g.k.#. .@.!.-XR.XXQ.!.Q.T.=XT.XXZX(.>X@.=XE.!.<.XXXXW.2.!.<.+X#XkXpXpXpXkXkXkXkXkXkXkXkXkXkXkXeX, , , , , , , , , , , , ",
", , , , , , , , , , , , , 8 j.c.B.| +.<. XY.E.,.T.T.o.>X<.@.CXT.>X+.!.+.1.+.<.Q.<.o.!..X+XdXmXmXmXmXmXkXmXmXkXkXmXmXmXmXpXyXL., , , , , , , , , , , ",
", , , , , , , , , , , , , v v v v | T.E.:XY.nX.X.XoX!.>XE.<.BX.X;X/.-XT.XXE.E.;X;XT.;XnX+X7XyXrXtXiXtXeXpXiXrXtXpXrXpXtXL.H.A., , , , , , , , , , , ",
", , , , , , , , , , , , k.c.t y l ( /.{.cX(.NX>X:XnXNX>X=X;XBX>X>XnXvX>XnX>X<XnXNX>XbXJXOXD.6X9XtX6X9XeXeX6X9XtX6XtXmXpXH._.H.8X, , , , , , , , , , ",
", , , , , , , , , , , , v.j.l r.q.K d.m.I.m.U.U.U.I.U.U.I.U.I.I.I.I.R.U.U.U.U.R.I.bXwXfX/.H.9XuXrX6XyXiX8XeXiXrXeXmXGX8XH._.J.6X6X8 , , , , , , , , ",
", , , , , , , , , , 8 c.c.l w.f.k f %.%.` ) ` ) n.n.) n.) n.n.` %.) ` %.` n.` n.M.zXJ.F.F.6XyXiX6X9XiXeX9XeXrX8XpXmXiXS._.K._.H.6X0X, , , , , , , , ",
", , , , , , , , , , j.v.v u f.v y 0.q.g.j.9.j.q.g.j.v j.q.g.j.q.j.8.g.j.q.j.q.g.tXpXA.A.H.yXiX8XeXtXtX6XyXiX9XuXmXmXL.F.`.`.K._.H.6X, , , , , , , , ",
", , , , , , , , , , v.j.y q.q.y 8.r.< 8.i.t.p.i.i.p.r p.i.i.p.p.h.h e.p.i.p.p.Z.hXL.A.S.6XpXeX8XyXtX6X9XtXrXeXmXmXtXK._.`.{.J._.J.5Xq., , , , , , , ",
", , , , , , , , , c.c.y 0.g.y 8.f.0.> t.N.N.N.N.B.eXi N.N.N.N.B.6X9.N.N.N.N.7XDXzXS.A.5XuXtX6XyXiXeX9XyXtXeXpXGXtXK.`._.'.'._.G._.n.y 9., , , , , , ",
", , , , , , , , n @Xv v g.b 8.q.j.h < t.u.u.u.y.h.M.k u.u.u.p.n.M.k u.u.u.u.gXzXgXH.H.eXpX8X0XiXkX6XyXhXrXrXmXmXL.P.].].[.[.]._.K.d r l , , , , , , ",
", , , , , , , n.k.h.q.y.y.b y.y.b b v i j b j j k k i j k k j k j j k k k A.P.8XP.7XrXiXiXeXdXrXrXrXrXdXeXgXdXdXP.[.[.[.[.[.[.[.u.I a z b , , , , , ",
", , , , , , 8 c.c.l 8.f.y 8.f.8.y w.0.r y 0.y y 8.0.t 7.r.y y 7.r.2 6.w.p.6X6XuX5X9XyXtX6XyXiXeX7XyXiX6XmXGXeX_.`._.`._.'.'.`.~.6 w D , t x , , , , ",
", , , , , , h.aX0.7.r.8.7.r.q.y r.r.0.7.r.r.y 0.r.0.7.7.f.y 7.r.0.6.r.g.6XtXyXtX9XuXiX8XyXyXuX6XyXuX9XuXGXMXL.{.`._._.K.'.`._._ 0 D # D > y , , , , ",
", , , , , , h.aXr.z.7.f.z.l.r.l.z.r.r.l.l.q.l.z.r.f.z.z.7.l.z.r.r.l.z.4XuXsXsXyXsXsXyXuXsXsXyXsXsXyXiXpXGXMXJ._.K.F.G.F._.G.V.w # 0 X H   7., , , , ",
", , , , , , #.@Xh.B.n k.x.x.h.x.x.h.B.x.h.n N.x.n x.x.x.n x.x.y.h.x.Z.hXlXlXkXkXlXlX7XlXlXiXhXlXlXdXlXhXMXhXK.K.K.G.G.G.J.G.e % % 5 $ 0 > 6., , , , ",
", , , , , , h 1.!.1.1.2.1.1.W.3.1.3.W.3.2.,.3.1.1.W.1.1.W.3.1.1.W.1.bXnXnXnXnXnXnXbXnXnXnXnXnXbXnXnXnXbX-XwX|.OXOXOXoXoXOXY.| { | E | E 0 9., , , , ",
", , , , , , t.;.,.,.,.,.>.,.,.,.>.,.,.,.,.;.,.3.1.>.>.I.,.,.R.R.>.-XvXvXNXbXcXbXcXbXcXcXcXbXcXcXbXcXxXbXxXxXfX&X&X{.{.{./.U K K K K K K s , , , , , ",
", , , , , , , f d - V V = - V V w = V V = d W $.! r a G #.g w.n ^ ].'.%X*XdX_.(.(._.^.(.(.^.^.(.(.^._.|.K.H.H.S.S.S.S.S.n . . . . . . q z , , , , , ",
", , , , , , , ' E S $.S N S $.S N B $.S m G ] C v z.d ..; @ u ` $X|.wX[.*XbX X=X=X X X=X=X X X=X=X X).bX{.H.J.D.S.S.S.B.X + X   . 5 . R 9., , , , , ",
", , , , , , , ' ..<X<X....<X<X....<X<X..F w [   O h o F o   . s.^.D.).D.[.+XZXLXwX+XZXLX+X+XCXKXbX X).bXoXJ.].K.`._.G.c 0 D w # = 6 & | x , , , , , ",
", , , , , , , Q A $X5.A A $X5.A A 5.4.A F 9 ' : , , , , , , , , , , , , [.XXNXCXXX XNXCXXX XNXCX+X).C.;X}.K.].`.`.^.V.5 D J w 0 % L ! X.x , , , , , ",
", , , , , , , ! S 4.4.S Z $X$XA A 5.4.Z = d ! 3 , , , , , , , , , , , , fXoXvXNX+X!.NXCX+X!.NXCX+X).G.bX}.J.P.'.`._.[ 5 D Y w w % ~ L | x , , , , , ",
", , , , , , , ' M &.F.[ [ G.V.[ [ %X%X/.w I &.3 , , , , , , , , , , , , fX;X&XzXjXOXzXVXjXwXHXVXVXwX`.nX}.K._.`.`./.{ E { { { 0 $ =.+ | x , , , , , ",
", , , , , , , ' I c B.B.1XB.1XB.7X5XgXlX) I ] 3 , , , , , , , , , , , , xXbX[.zXDXAXSXSXDXFXFXHXLXjX|.nX}.P.].'.`.;.| / / P o.0 & =.. | b , , , , , ",
", , , , , , , ' ^ ) 1X1X2X1X2X0X5XdXVX6Xs.Q ] 3 , , , , , , , , , , , , fXbX-XDXDXDXDXSXFXHXHXLXHXjXfXnX}.P.K.{.m.L  .i.9.e.o.w q L . | x , , , , , ",
", , , , , , , ' ' c 1X2X2X3X0X0X0XJXhX1Xs.Q ] 3 , , , , , , , , , , , , fXvXfXSXDXDXDXFXHXFXLXLXDXjXoXnX}.K.].'.H L | a.a.a.o.q L H . | x , , , , , ",
", , , , , , , ' ^ c 1X2X2X5XuX0XMXzX5X1Xs.I ] 3 , , , , , , , , , , , , [.vX-XAXDXDXDXHXFXHXLXFXSXjX|.nX}.P._.d.w L | t.i.t.o.4 X.q X | x , , , , , ",
", , , , , , , ' _ ) B.2X5XuX6XzXHX0X2X2Xs.f &.3 , , , , , , , , , , , , [.bX-XAXDXDXHXHXHXLXHXDXDXjX|.nX}.K.G.U w L J / / / E O X.w . | x , , , , , ",
", , , , , , , ' Q ) 1X2X0X0XuXVXhX3X2X1Xs.f &.3 , , , , , , , , , , , , [.vX&XAXDXFXHXFXLXJXFXDXDXjX|.nX}.K.) J w L 5 9.9.9.L $ H D X | x , , , , , ",
", , , , , , , ' Q n 1X0X0X6XHXlX5X1X1X1Xs.f ] 3 , , , , , , , , , , , , [.vX-XAXDXHXFXLXLXFXDXDXDXjX&XnX}.V.0 J D L K e.a.e.X.5 6 D . | x , , , , , ",
", , , , , , , %.I ) 1X0X5XzXHX5X1X5X5X3Xs.f &.3 , , , , , , , , , , , , [.nX-XAXHXFXHXLXFXDXDXDXDXjXfXnX}.c a J w ! | a.a.a.~ w $ J . | x , , , , , ",
", , , , , , , ' Q n H.5XL.VXuX2X3X3X3X1Xs.f ] c 8 , , , , , , , , , , , [.vX-XhXHXzXJXHXSXSXSXDXDXjX|.nX~.7 0 J w ! | _ _ s.w G + G X | z , , , , , ",
", , , , 8 n z Q f c B.h.n 8X1XB.B.1X1XN.t.f I.C., , , , , , , , , , , , [.bX&XfXgXfXzXvXdXqXhXAXSXhX[.nX^ e a J D L T U Y Y 0 D $ J X | b , , , , , ",
", , , , _ V a k b l c ! p ` m.I.m.m.U.m.' f }.C., , , , , , , , , , , , [.nX-X%X%X%X%X%X|.|.fXvXvXfX].;XY 7 s J w q D 0 J D $ 5 6 J . | x , , , , , ",
", , 8 n ;.L ` Z.4Xn L X.K ^ =.=.=.=.=.=.:.%.-XF., , , , , , , , , , , , [.bX:XP.&X%XL.P.#X-X&X>XnX>X(.!.Y 0 a J w 0 D % D , + O % H . E x , , , , , ",
", , , m.~ H m.*XP._ ;.T D L ~ L X.o.L ~ ] P.xXC., , , , , , , , , , , , [.nXNX%X<XgXdXdX#X-X&X|.|.-Xn.W.Y a e J D 0 J 5 0 c r 1 > 9 > K x , , , , , ",
", , y.R.H Q ) _ ' *.;.U P P P p W T p I ^.].fXJ., , , , , , , , , , , , [.vX:X[.NXzXjXjX#X&X[.{.]./.f T.W a a U d p P p 0 g.g.0.r y < d x , , , , , ",
", , n 3.I I s s I &.] P P P W W ^ ^ W I.OX[.fXK., , , , , , , , , , , , [.fXxXgXVXSXAXlXdX&X|.|.|.;.Q T.U a f P d e P a I 7.c.8.h h h W b 8 , , , , ",
", , z -.H ~ L L L =.X.w w w E E E E ( OX|.P.fXC., , , , , , , , , , , , [.&X-XVXJXDXSXAX:X].}.}./.{ U W.Y 8 s D q 6 0 5 J 7.b.y 2 2 1 | x , , , , , ",
", , c -.D X.| ~ | $.~ 5 q % K K Y Y ~.}.}.P.fXC., , , , , , , , , , , , [.&X-XzXGXFXzXhXNXG.].{.^ Y P 1.V , 7 w % 4 X > D 7.b.7.2 2 1 R x , , , , , ",
", , z -.D X.X.X.~ X.~ 4 0 8 d p d m._.].].].[.C., , , , , , , , , , , , ].%X-X#X#XgXlXgX,XK.].m.a d s ;.p 8 7 % # + O : 0 y b.7.2 2 < Y z , , , , , ",
", , z =.H X.~ ~ ! ~ ~ 4 0 f &.&.>.fXxXxXxXxX&XD., , , , , , , , , , , , ].&X<X,XBX,X,X:X<X_.xX*.&.&.&.;.W I P H H H H V H 8 v.7.2 2 8 J e , , , , , ",
", , i ! 5 & & & & f V O 5 I &.&.|.xXfXfXfXfX%XF.D.G.D.F.F.F.F.F.F.F.D.D.P.&X*X:X:X:X:X:X&XP./.&.&.&.&.&.W I I K H H D H p + 7.0.1 < # V $ , , , , , ",
", , & % p = p = q q q q q q q _ _.K.G.S.D.J.A.G.G.G.G.G.G.G.G.G.G.G.G.K._._._._.^._._._._.^.p p q q q q w p d 0 = . O O O + O O O O + O O O O O . , ",
", , p q | | ~ | | | | | | | +.OX-X`.(.D.G.J.G.K.^._._._.K._.^._._.G.G.`.oXOXOX-XOXOX-XOXoX,.| | { | | | | ~ ~ H V # % % % % % % % % % % % % % % + , ",
", , - = R R R R R R R R R R R.oX}.`.{.D.F.J.`.{.{.{.(.].{.{.{.{.{.K.K.`.}.oXoXoXoXoXoXoX/.E R R R R R R E ^ ^ H w O % $ $ % & $ % $ $ % % $ & % O , ",
", , + 7 6 6 6 6 6 6 6 6 6 ) K.K.G.K.F.S.S.H.D.D.S.D.D.D.S.D.S.D.S.A.D.K.G.G.K.K.K.K.G.G.) % 0 % 6 6 6 % % a 0 6 &   X X X X X X X X X X X X . . . , ",
", , , , , , , , , , , , , , , , , , , , , , , , , , , , , , , , , , , , , , , , , , , , , , , , , , , , , , , , , , , , , , , , , , , , , , , , , , ",
", , , , , , , , , , , , , , , , , , , , , , , , , , , , , , , , , , , , , , , , , , , , , , , , , , , , , , , , , , , , , , , , , , , , , , , , , , ",
", , , , , , , , , , , , , , , , , , , , , , , , , , , , , , , , , , , , , , , , , , , , , , , , , , , , , , , , , , , , , , , , , , , , , , , , , , ",
", , , , , , , , , , , , , , , , , , , , , , , , , , , , , , , , , , , , , , , , , , , , , , , , , , , , , , , , , , , , , , , , , , , , , , , , , , ",
", , , , , , , , , , , , , , , , , , , , , , , , , , , , , , , , , , , , , , , , , , , , , , , , , , , , , , , , , , , , , , , , , , , , , , , , , , ",
", , , , , , , , , , , , , , , , , , , , , , , , , , , , , , , , , , , , , , , , , , , , , , , , , , , , , , , , , , , , , , , , , , , , , , , , , , ",
", , , , , , , , , , , , , , , , , , , , , , , , , , , , , , , , , , , , , , , , , , , , , , , , , , , , , , , , , , , , , , , , , , , , , , , , , , ",
", , , , , , , , , , , , , , , , , , , , , , , , , , , , , , , , , , , , , , , , , , , , , , , , , , , , , , , , , , , , , , , , , , , , , , , , , , ",
", , , , , , , , , , , , , , , , , , , , , , , , , , , , , , , , , , , , , , , , , , , , , , , , , , , , , , , , , , , , , , , , , , , , , , , , , , ",
", , , , , , , , , , , , , , , , , , , , , , , , , , , , , , , , , , , , , , , , , , , , , , , , , , , , , , , , , , , , , , , , , , , , , , , , , , "
};
