/* XPM */
static char *_7982_2c41c743d3b97ca6fddaa1c1cb1791e163bb7d14ea5ea404ed793ffefcf4a3bd[] = {
/* columns rows colors chars-per-pixel */
"74 74 256 2 ",
"   c #1A1E27",
".  c #181736",
"X  c #241C36",
"o  c #271B38",
"O  c #2C1E39",
"+  c #35163D",
"@  c #1C2231",
"#  c #282738",
"$  c #34233A",
"%  c #3C253B",
"&  c #43273A",
"*  c #44293E",
"=  c #4D2A3D",
"-  c #552833",
";  c #542D3D",
":  c #4C3037",
">  c #54313F",
",  c #6E2430",
"<  c #772C3B",
"1  c #68363E",
"2  c #7E313A",
"3  c #6A5B39",
"4  c #3B1642",
"5  c #312F4B",
"6  c #3D3550",
"7  c #363C57",
"8  c #293D61",
"9  c #323966",
"0  c #451642",
"q  c #4A2A42",
"w  c #582D43",
"e  c #473649",
"r  c #543547",
"t  c #5B3341",
"y  c #5E3D4E",
"u  c #503658",
"i  c #643443",
"p  c #6D3444",
"a  c #683C49",
"s  c #723B43",
"d  c #773846",
"f  c #7D3949",
"g  c #6D2D56",
"h  c #702C50",
"j  c #384767",
"k  c #354A65",
"l  c #30566F",
"z  c #374C74",
"x  c #3B5676",
"c  c #3C557B",
"v  c #514E5B",
"b  c #68444D",
"n  c #74454D",
"m  c #79584A",
"M  c #684754",
"N  c #774753",
"B  c #6C5559",
"V  c #76585A",
"C  c #536C54",
"Z  c #776E50",
"A  c #474B6B",
"S  c #4F4C6B",
"D  c #4D5764",
"F  c #535A69",
"G  c #445977",
"H  c #595A73",
"J  c #565B7D",
"K  c #685C6F",
"L  c #476679",
"P  c #546E73",
"I  c #59687B",
"U  c #6D6C70",
"Y  c #696976",
"T  c #A41A3C",
"R  c #8A323C",
"E  c #BA2732",
"W  c #FC321A",
"Q  c #CA2F32",
"!  c #E53E2C",
"~  c #964D30",
"^  c #985330",
"/  c #9A7230",
"(  c #FB4826",
")  c #F14F2D",
"_  c #EB5225",
"`  c #FB7135",
"'  c #843B4A",
"]  c #873E48",
"[  c #942351",
"{  c #903551",
"}  c #FF2F67",
"|  c #884547",
" . c #904747",
".. c #95414D",
"X. c #954A48",
"o. c #9B484A",
"O. c #985A47",
"+. c #864B54",
"@. c #8E5152",
"#. c #88575A",
"$. c #975754",
"%. c #AA474F",
"&. c #A24F4A",
"*. c #AE514F",
"=. c #B6564D",
"-. c #BD584F",
";. c #A55B57",
":. c #8C655B",
">. c #946556",
",. c #956E50",
"<. c #A7654A",
"1. c #B6684C",
"2. c #AA665A",
"3. c #B66D52",
"4. c #B57856",
"5. c #885967",
"6. c #835D7A",
"7. c #BC5662",
"8. c #846973",
"9. c #956D75",
"0. c #87787B",
"q. c #A87969",
"w. c #B87663",
"e. c #B37E6B",
"r. c #B06F75",
"t. c #D64D4D",
"y. c #C25C4F",
"u. c #CF5F4F",
"i. c #C75E50",
"p. c #CB5E5C",
"a. c #F74E56",
"s. c #CC6E4F",
"d. c #EB7455",
"f. c #EA5464",
"g. c #D37068",
"h. c #F0726B",
"j. c #708D5E",
"k. c #FB8A33",
"l. c #FDA826",
"z. c #B38856",
"x. c #A49E5F",
"c. c #95837D",
"v. c #B7826E",
"b. c #AE8776",
"n. c #CE8755",
"m. c #F0975A",
"M. c #C5AA5D",
"N. c #FFA85E",
"B. c #C88971",
"V. c #CE9277",
"C. c #CC947B",
"Z. c #D59779",
"A. c #EB846F",
"S. c #EE9976",
"D. c #EB9B7A",
"F. c #F49A79",
"G. c #D3B16D",
"H. c #EBA776",
"J. c #DDD070",
"K. c #FAD273",
"L. c #3E5B83",
"P. c #3C6688",
"I. c #485E84",
"U. c #615B8A",
"Y. c #476789",
"T. c #4A7487",
"R. c #547788",
"E. c #54708C",
"W. c #446D94",
"Q. c #5B6299",
"!. c #477697",
"~. c #70698E",
"^. c #667986",
"/. c #74798C",
"(. c #646E99",
"). c #66719C",
"_. c #5D66A2",
"`. c #717DA1",
"'. c #907989",
"]. c #B07783",
"[. c #57848C",
"{. c #588694",
"}. c #568F96",
"|. c #728D8E",
" X c #638C97",
".X c #679897",
"XX c #79939A",
"oX c #6FAF99",
"OX c #4A89AA",
"+X c #5690A9",
"@X c #4F94B2",
"#X c #7E99A2",
"$X c #7790A9",
"%X c #7D9EA8",
"&X c #75A7AB",
"*X c #74BAA4",
"=X c #78C8AF",
"-X c #6DCDC7",
";X c #898885",
":X c #8F9590",
">X c #AE8D8B",
",X c #BE958D",
"<X c #ACAA96",
"1X c #9687A1",
"2X c #8792AA",
"3X c #878CB5",
"4X c #8D93BC",
"5X c #9598B9",
"6X c #A195A1",
"7X c #8FAAB1",
"8X c #ABABB4",
"9X c #CF958C",
"0X c #CF988B",
"qX c #D49789",
"wX c #EA9A89",
"eX c #D2AD8E",
"rX c #F7A487",
"tX c #FCAA83",
"yX c #EDAA91",
"uX c #E9A897",
"iX c #FBB799",
"pX c #C69EA1",
"aX c #D4B4AF",
"sX c #ECB8A5",
"dX c #87D3B3",
"fX c #A7C6A8",
"gX c #FFE482",
"hX c #FFF08D",
"jX c #CCC6A7",
"kX c #FBC8AA",
"lX c #F1C9B2",
"zX c #F9D6B9",
"xX c #FFEABC",
"cX c #9499C2",
"vX c #989CC4",
"bX c #9CA1C7",
"nX c #9DA3C8",
"mX c #8EBEC4",
"MX c #A5ABC8",
"NX c #AAB0CB",
"BX c #B3B9CC",
"VX c #B5BCD0",
"CX c #BBC3C4",
"ZX c #BCC3D1",
"AX c #AFECC7",
"SX c #CDD3D3",
"DX c #E6D8C6",
"FX c #F5DDC2",
"GX c #DAE3DB",
"HX c #FAE7C9",
"JX c #E4EBDB",
"KX c #F2EFD2",
"LX c #FBF3D4",
"PX c #F8F8DB",
"IX c #EBF6E1",
"UX c #F6FEE6",
/* pixels */
"6 6 6 6 6 6 6 6 6 6 6 6 6 6 6 6 6 6 6 6 6 6 6 6 6 6 6 6 6 6 6 6 6 6 6 6 6 6 6 6 6 6 6 6 6 6 6 6 6 6 6 6 6 6 6 6 6 6 6 6 6 6 6 6 6 6 6 6 6 6 6 6 6 6 ",
"6 6 6 6 6 6 6 6 6 6 6 6 6 6 6 6 6 6 6 6 6 6 6 6 6 6 6 6 6 6 6 6 6 6 6 6 6 6 6 6 6 6 6 6 6 6 6 6 6 6 6 6 6 6 6 6 6 6 6 6 6 6 6 6 6 6 6 6 6 6 6 6 6 6 ",
"6 6 6 6 6 6 6 6 6 6 6 6 6 6 6 6 6 6 6 6 6 6 6 6 6 6 6 6 6 6 6 6 6 6 6 6 6 6 6 6 6 6 6 6 6 6 6 6 6 6 6 6 6 6 6 6 6 6 6 6 6 6 6 6 6 6 6 6 6 6 6 6 6 6 ",
"6 6 6 6 6 6 6 6 6 6 6 6 6 6 6 6 6 6 6 6 6 6 6 6 6 6 6 6 6 6 6 6 6 6 6 6 6 6 6 6 6 6 6 6 6 6 6 6 6 6 6 6 6 6 6 6 6 6 6 6 6 6 6 6 6 6 6 6 6 6 6 6 6 6 ",
"6 6 6 6 6 6 6 6 6 6 6 6 6 6 6 6 6 6 6 6 6 6 6 6 6 6 6 6 6 6 6 6 6 6 6 6 6 6 6 6 6 6 6 6 6 6 6 6 6 6 6 6 6 6 6 6 6 6 6 6 6 6 6 6 6 6 6 6 6 6 6 6 6 6 ",
"6 6 6 6 6 6 6 6 6 6 6 6 6 6 6 6 6 6 6 6 6 6 6 6 6 6 6 6 6 6 6 6 6 6 6 6 6 6 6 6 6 6 6 6 6 6 6 6 6 6 6 6 6 6 6 6 6 6 6 6 6 6 6 6 6 6 6 6 6 6 6 6 6 6 ",
"6 6 6 6 6 6 6 6 6 6 6 6 6 6 6 6 6 6 6 6 6 6 6 6 6 6 6 6 6 6 6 6 6 6 6 6 6 6 6 6 6 6 6 6 6 6 6 6 6 6 6 6 6 6 6 6 6 6 6 6 6 6 6 6 6 6 6 6 6 6 6 6 6 6 ",
"6 6 6 6 6 6 6 6 6 6 6 6 6 6 6 6 6 6 6 6 6 6 6 6 6 6 6 6 6 6 6 6 6 6 6 6 6 6 6 6 6 6 6 6 6 6 6 6 6 6 6 6 6 6 6 6 6 6 6 6 6 6 6 6 6 6 6 6 6 6 6 6 6 6 ",
"6 6 6 6 6 6 6 6 6 6 6 6 6 6 6 6 6 6 6 6 6 6 6 6 6 6 6 6 e , , , , u 6 6 6 6 6 6 6 6 6 6 6 6 6 6 6 6 6 6 6 6 6 6 6 6 6 6 6 6 6 6 6 6 6 6 6 6 6 6 6 6 ",
"6 6 6 6 6 6 6 6 6 6 6 6 6 6 6 6 6 6 6 6 6 6 6 6 6 6 6 6 f ! ! ) ! E p 6 6 6 6 6 6 6 6 6 6 6 6 6 6 6 6 6 6 6 6 6 6 6 6 6 6 6 6 6 6 6 6 6 6 6 6 6 6 6 ",
"6 6 6 6 6 6 6 6 6 6 6 6 6 6 6 6 6 6 6 6 6 6 6 6 6 6 7 ' g.aXzXkXsXd.! h 6 6 6 6 6 6 6 6 6 6 6 6 6 6 6 6 6 6 6 6 6 6 6 6 6 6 6 6 6 6 6 6 6 6 6 6 6 6 ",
"6 6 6 6 6 6 6 6 6 6 6 6 6 6 6 6 6 6 6 6 6 6 6 6 6 6 %.9XJXIXiXkXUXHXuXQ g 6 6 6 6 6 6 6 6 6 6 6 6 6 6 6 6 6 6 6 6 6 6 6 6 6 6 6 6 6 6 6 6 6 6 6 6 6 ",
"6 6 6 6 6 6 6 6 6 6 6 6 6 6 6 6 6 6 6 6 6 6 6 6 6 ' pXFXLXkX) F.LXLXLXrXE u 6 6 6 6 e 6 6 6 6 6 6 6 6 6 6 6 6 6 6 6 6 6 6 6 6 6 6 6 6 6 6 6 6 6 6 6 ",
"6 6 6 6 6 6 6 6 6 6 6 6 6 6 6 6 6 h < R 2 f 2 R ' r.JXFXzXA.W F.FXlXLXHXf.[ < R 2 2 < < h 6 6 6 6 6 6 6 6 6 6 6 6 6 6 6 6 6 6 6 6 6 6 6 6 6 6 6 6 6 ",
"6 6 6 6 6 6 6 6 6 6 6 6 6 6 6 6 e %.].v.qX0XqXqX9XlXUXLXLXrXm.zXLXPXUXUXkXwXqXC.].qXr.].T 7 u 6 6 6 6 6 6 6 6 6 6 6 6 6 6 6 6 6 6 6 6 6 6 6 6 6 6 6 ",
"6 6 6 6 6 6 6 6 6 6 6 6 6 6 6 6 7 p.DXKXLXDXLXLXLXUXUXzXPXHXFXUXUXUXUXUXPXKXLXKXKXKXDXDXt.u 6 6 6 6 6 6 6 6 6 6 6 6 6 6 6 6 6 6 6 6 6 6 6 6 6 6 6 6 ",
"6 6 6 6 6 6 6 6 6 6 6 6 6 6 6 A v p.DXLXPXaXPXHXzXFXLXiXFXzXUXDXzXkXUXFXHXzXPXHXLXzXzXzXt.5 6 7 6 6 6 6 6 6 6 6 6 6 # e 7 6 6 6 6 6 6 6 6 6 6 6 6 6 ",
"6 6 6 6 6 6 6 6 6 6 6 6 6 6 .X.Xj.p.h.iXlX0XsXuXiXuXwXkXuXiXUXuXzXh.kXwXiXA.sXiXrXF.iXA.a.U .X.X.X.X.X.X.X|..X.X.X.X.XoX.XP.6 6 6 6 6 6 6 6 6 6 6 6 ",
"6 6 6 6 6 6 6 6 6 6 6 6 6 I..X*XoXp.g.h.sXqXrXqXwXwXd.zXh.A.IXwXzXg.sXg.wXd.A.uXA.d.iXh.t.j.*XoXoX=X*XoX=X*XoXoX=X*X*XoX}.P.k e 6 6 6 6 6 6 6 6 6 6 ",
"6 6 6 6 6 6 6 6 6 6 6 6 6 P P L H p.wXuXDX9XzXsXsXlXuXzXyXh.KXsXsXsXlXwXsXyXyXlXkXwXsXiXt.F T.T.T.OXj.L }.[.P P .XP .X}.x 7 5 L 6 6 6 6 6 6 6 6 6 6 ",
"6 6 6 6 6 6 6 6 6 6 6 6 .XoXx c G 7.aXaXDXaXFXFXFXFXHXzXkXlXHXzXDXFXFXFXFXzXFXHXHXlXaXaXt.$ x L.T.l c Y.P G Y.T.x T.=X.X5 s 5 c 6 6 6 6 6 6 6 6 6 6 ",
"6 6 6 6 6 6 6 6 6 6 6 |.dX.Xx !.I %.].>XB.9X9X9XqXqX9X9X0X0X0X0X9X9X9X9X0X9X9X0X9XuXe.r.T 5 P.{.[.c W.}.L Y.{.R.c =X=XG : s q z G 6 6 6 6 6 6 6 6 6 ",
"6 6 6 6 6 6 6 6 6 6 6 *XoXL Y.{.L B 0.c.0.8.'.U ;X;X8.;XU ;X'.0.c.8.'.c.0.;X0.c.0.<X1 - - z !.[.x P.{.L c E.R.G .X=X}.# p t s 6 z Q.6 6 6 6 6 6 6 6 ",
"6 6 6 6 6 6 6 6 6 6 .X=XP c {.L G T.R. X XE..XE. X XY..XE. X.XR..XT.{.}.R..X[.}.[.oX#   7 Y.{.G P.!.R.x W. XI T.=X*X6 = f d w a 7 z 6 6 6 6 6 6 6 6 ",
"6 6 6 6 6 6 6 6 6 .X=X.Xc !.R.x Y.T.7 I.(.(.).(.(.).k ).(.).).(.`.z (.(.(.(.(.)./.k   @ c {.T.c W.{.c I.R.[.L =X=XI p p ' ..* s r j I.e 6 6 6 6 6 6 ",
"6 6 6 6 6 6 6 6 6 oX*XG Y.{.G Y.!.R.5 ).3X1X3X3X5XBXS 2X3X3X3X4XBXH $X3X3X3X5X5X7X@   k !.{.x Y.{.L L.E.[.L .XdXR.y ] p { ..p = ] 5 z I.6 6 6 6 6 6 ",
"6 6 6 6 6 6 6 e Y dXP I. XP Y.E. XA 7 ~./.|././.:X<XD /./././.:X<XU ^./././.6X<X:X5 6 E. XL Y.E. XA E. XP E.7X*X7 M N n $.@.+.a b n j x 6 6 6 6 6 6 ",
"6 6 6 6 6 6 6 XXoX|.I ^.^.I ^.R.Y I P v D H D D D F v D F D A D F D D F D D D F v F I [.^.I ^.^.Y R.[.^.Y |.XXU B B 5.V 5.5.V V v 5.B H E.e 6 6 6 6 ",
"6 6 6 6 6 6 7 *X*XG !.{.x P.{.L c W.T.j L.Y.c z P.T.9 L.T.c L.P.P.z L.T.x x P.!.9 L.!.[.z Y.{.L L.!.[.G .XdXY s d d ] p { ] ' ' w p ' q x I.6 6 6 6 ",
"6 6 6 6 6 6  XAXT.P.P.L P.!.}.c !.!.T.P.W.R.c W.P.T.P.!.{.c P.!.T.L.W.{.x P.!.[.L.W.!.x W.!.!.c !.!.c E.AXdXu ] ' p i i { ] p ' p ] q n 5 c 6 6 6 6 ",
"6 6 6 6 6 6 |.AX!.@XT.OX@XOX!.OX@XOX!.@X@XY.OX@XOX!.@X@XP.OX@X!.!.@X@XW.@X@XOXP.@X@XP.OX@XOX!.@X@XW.OX+XAX%Xe s 1 & * * p ; q ' q p O { . P.6 6 6 6 ",
"6 6 6 6 6 6 j.fX|.2XY %X%X$X|.2X&X/.#X%XXXY %X%X^.%X%X%X^.%X%XY XX%X&X/.%X%X|.#X%X%XY %X%X|.|.%X%XY &X:XfX|.y w ; w > w t > > t : t : i 5 I.6 6 6 6 ",
"6 6 6 6 6 6 S D.iXD.F.F.S.S.tXF.S.F.tXS.D.D.S.S.S.H.S.D.tXF.D.S.H.F.S.F.F.H.F.tXS.S.H.S.S.S.H.F.S.F.H.A.g.;.3.i.i.-.-.y.y.y.y.y.i.i.-.-.a U.6 6 6 6 ",
"6 6 6 6 6 6 ~.v.Z.V.Z.Z.V.V.V.Z.V.V.V.Z.V.b.D.H.H.C.V.0XeXZ.eXeXV.C.Z.G.H.Z.V.Z.V.V.V.Z.Z.V.B.V.Z.V.V.V.w.v.e.2.2.@.X.X.X.X.X.X.X.X. .&.M 6 6 6 6 6 ",
"6 6 6 6 6 6 6 B m < ~ ~ < 2 ^ ~ < < ~ ~ < N 2.k.3.k M { j.C !.Y ~ N { j.x.#.1 ~ ^ 2 < ^ ^ R , ~ ^ 2 i ;.i 6 6 o X o . o o X # . X X X s H 6 6 6 6 6 ",
"6 6 6 6 6 6 6 q.y._ k._ E _ k.` E ! k.` T ..w./ U @XN a.3 # P.Z l.&.} j.x.S.Q k.` Q Q k.` Q Q k.` Q [ g.X.# 6 o X X . o # * O . X t X =.I.e 6 6 6 6 ",
"6 6 6 6 6 6 6 q.a.xXxXa.a.HXxXa.a.xXxXa.[ h q.. O A + [ + . o + 1 + h + B f.zXLXh.} zXxXa.a.kXLXh.T h h.o.e N i d i & ; p | d & s > > i.J 6 6 6 6 6 ",
"6 6 6 6 6 6 6 2.( gXgX( ( gXK.( ( gXK.( [ y 2.4 6 6 6 5 6 6 e 6 e 6 e 6 V ( K.hX) W K.hX` W K.hXd.T w A.&.r N f ' w p w ' { f p ; O.1.u.J 6 6 6 6 6 ",
"6 6 6 6 6 6 7 2.) K.K.) ) K.K.( ) gXgX) h N q.0 6 6 6 6 6 6 6 6 6 6 6 6 9.u.M.K.` W K.hX) W K.K.m.T w A.&.e M ] f i | i ] %.d p ; 1.O.i.J 6 6 6 6 6 ",
"6 6 6 6 6 6 6 q.R v.<Xr.'.aX<Xr.r.jXaXaX' #.w.0 6 6 6 6 6 6 6 6 6 6 6 e b.s.#.<X1X7.8XeX6Xp.CXeXsX%.| D.&.y a ] ' 1.-.-.y.y.y.p = m.& i.J 6 6 6 6 6 ",
"6 6 6 6 6 6 6 q.#.K 4X5X4X5XcX5XNXMXSXSX6.#.e.0 6 6 6 6 6 6 6 6 6 6 6 6 ].Z.$.5X5X3XvX5XvXMXMXVXJX'.O.F.&.y M ..' 1.i.5.K 5.u.d : m.X i.J 6 6 6 6 6 ",
"6 6 6 6 6 6 6 q.2.6.5XbXvXvXvXZXMXSXJXMX'.>.e.0 6 6 6 6 6 6 6 6 6 6 6 6 b.H.2.8XbXvXvXvXVXVXVXIXZX1X2.tX&.y y ..f <.i.Q.Q.Q.d.' 1 ,.X u.J 6 6 6 6 6 ",
"6 6 6 6 6 6 6 q.q.6.vXvXnXnXVXVXBXJXSXcX'.>.e.0 6 6 6 6 6 6 6 6 6 6 6 6 9.C.b.5XnXvXnXMXZXNXGXGXMX'.2.F.&.y y ..f <.i._._.Q.d.d ^ @.X i.J 6 6 6 6 6 ",
"6 6 6 6 6 6 5 q.>.8.cXvXvXNXVXBXGXGXMXcX'.#.e.0 6 6 6 6 6 6 6 6 6 6 6 6 #.C.4.4XnXvXvXSXNXSXJXNXnX3X>.tX&.y b { f O.i.~.~.(.d.q s.n X i.J 6 6 6 6 6 ",
"6 6 6 6 6 6 6 q.9.8.4XMXnXZXNXSXJXBXvXvX'.V v.0 6 6 6 6 6 6 6 6 6 6 6 6 5.Z.4.3XvXnXVXVXVXIXZXnXnX1X>.tX&.b y ..s O. .6.6.6.1.$ i.s O i.J 6 6 6 6 6 ",
"6 6 6 6 6 6 6 q.:.8.cXvXVXVXZXIXSXMXnXvX'.V v.0 6 6 6 6 6 6 6 6 6 6 6 6 #.qX4.3XvXNXVXNXGXGXnXbXnX1X>.tXo.y y ..f O.w U.U.U.O.q | f X i.J 6 6 6 6 6 ",
"6 6 6 6 6 6 6 q.:.8.cXNXVXVXJXSXnXvXbXvX'.V e.0 6 6 6 6 6 6 6 6 6 6 6 6 #.Z.4.3XnXSXMXGXJXNXnXbXvX1X>.tX&.M a ..] <.o.Q._.Q.s.w i ..X i.J e 6 6 6 6 ",
"6 6 6 6 6 6 6 q.:.Y cXVXNXGXGXNXnXvXMX5X'.m v.0 6 6 6 6 6 6 6 6 6 6 6 6 #.wX4.4XVXVXZXIXVXnXnXbXbX1X>.tXo.y y ..d <.i._._._.3.d q ..X i.J 6 6 6 6 6 ",
"6 6 6 6 6 6 6 q.:.8.8XNX8XJXZXnXvXvXnXvX'.V e.0 e 6 6 6 6 6 6 6 6 6 6 6 :.Z.4.2XBX5XSXSX5X3X5XbXbX1X:.tX&.b y ..f <.i.9.'.'.d { % ..O i.J 6 6 6 6 6 ",
"6 6 6 6 e U J :.B K 2X/.0.8XcXcXcXcXcX$X~.B e.0 6 6 6 6 6 6 6 6 6 6 6 6 #.Z.<.9.b.b.x.c.9.8.$X4X4X'.m tX&.y y ..' O.*.$.%.&.1 ' * o.X i.J 6 6 6 6 6 ",
"6 6 6 6 9.<.M I I H K 4.| 0.,X,X,X,X,X,Xq.B e.0 6 6 6 6 6 6 6 6 6 6 6 6 5.D.z.| ,.Z Z Z m <.8.,X,Xb.m tX&.y N ..' p ..i  .] = w 1 { X i.J 6 6 6 6 6 ",
"6 6 6 U n.$.U 7XmXY O.s. .>.m.m.m.m.m.m.n.V e.0 6 6 6 6 6 6 6 6 6 6 6 6 5.H.M.B z.C C D Z z.4.m.m.m.#.tX&.M g o.f i ] q ' ' % % ; ] X =.J 6 6 6 6 6 ",
"6 6 6 >X3.| :XlXaX0.B.=.] @.1.O.d.s.O.1.3.B e.0 6 6 6 6 6 6 6 6 6 6 6 6 #.H.G.Z N.;XU  XC z.;.<.<.s.m H.&.a y { ' p { t p K k 8 5 u 5  .U.6 6 6 6 6 ",
"6 6 /.eX+.$.8.q.9.b.B.@.+.+.@.n ;.;.n @.@.B r.q 6 6 6 6 6 6 6 6 6 6 6 6 5.V.G.Z J.8X6X2XC z.@.+.n ;.B wX$.M M @.N n @.n a [.{.T.j x j +.J 6 6 6 6 6 ",
"6 6 Y S.+.#.b B >.v.w.#.+.+.2.;.=.2.;.2.;.K b.r 6 6 6 6 6 6 6 6 6 6 6 6 :.b.v.:X<X5X3X1Xj.q.$.;.$.2.$.wX$.M B #.N M +.M #.P.&XY.A A A ;.I 6 6 6 6 6 ",
"6 6 Y N. .<.O.O.1.n.i.f d d -.=.-.y.=.=.=.B w.0 6 6 6 6 6 6 6 6 6 6 6 6 5.,.n.jXDXMX4X$Xx.| &.*.=.-.$.tX;.e N ] p w i w  .P.-Xc 9 9 8 i.J 6 6 6 6 6 ",
"6 6 K N.] s.s.i.u.s.3.; p ; &.o.o.&. .o.o.B q.0 6 6 6 6 6 6 6 6 6 6 6 6 #.,.4.:X8X7XcX$XJ.;  .|  .o.| D.~ 6 y d w q O % ' P.-XP.9 9 8 =.J 6 6 6 6 6 ",
"6 6 K N.] s.i.i.s.n.1.q i r N b +.+.b n +.B :.+ 6 6 6 6 6 6 6 6 6 6 6 6 N ,.n.C j.oX:X|.J.> b b b +.B B.| 6 r > % q $ % i x -XP.9 9 7 &.H 6 6 6 6 6 ",
"6 6 F m.| s.4.3.1.4.<.q i #.v.v.v.v.v.v.v.b.>.o 6 6 6 6 6 6 e 6 6 6 6 6 b z.J.M.M.J.J.M.m.t v.v.v.v.v.B.2.+.#.| | | | | ~ v =XP.9 9 r o.a 6 6 6 6 6 ",
"6 6 v 1.r : : : : ~ ~ $ q #.v.v.v.v.e.q.q.b.#.$ & & & & & & & = % & $ X b ,.x.M.M.M.M.z.z.b v.v.v.v.v.v.$.#.@. . .| ' | f 6 P.P.8 8 q | q e 6 6 6 6 ",
"6 6 q t s s s s n 1 1 n s s s s 1 1 > X $ 6 X = - - ; ; ; - ; ; - = = 1 b s s s s s n 1 s s s s s s s s s n N i > X $ $ O $ $ $ $ $ $ % $ $ $ $ X 6 ",
"6 6 s s i.i.i.i.i.i.i.i.u.i.i.i.y.n  .% : r ; 1 p 1 p 1 1 1 1 1 1 ; 1 n =.y.i.i.i.i.y.y.i.i.i.i.i.i.i.y.u.-.3. . .& ; ; > ; ; ; ; ; ; ; ; > ; ; % 6 ",
"6 6 s s =.=.=.=.=.=.=.=.=.=.=.=.=.s | $ = e |  . . . . . . . . . .i 1 s &.1.=.=.-.=.=.-.=.=.=.=.=.=.=.=.=.2.;.| | % = ; = = = ; = = ; = ; = - = % 6 ",
"6 6 * > t 1 > > 1 > t t t t t t t > & . X % O O O O O O O O O O O . $ > > 1 > > t t > t t > t t t t t t > b b > ; X O O O O O O O O O O O O O O . 6 ",
"6 6 6 6 6 6 6 6 6 6 6 6 6 6 6 6 6 6 6 6 6 6 6 6 6 6 6 6 6 6 6 6 6 6 6 6 6 6 6 6 6 6 6 6 6 6 6 6 6 6 6 6 6 6 6 6 6 6 6 6 6 6 6 6 6 6 6 6 6 6 6 6 6 6 ",
"6 6 6 6 6 6 6 6 6 6 6 6 6 6 6 6 6 6 6 6 6 6 6 6 6 6 6 6 6 6 6 6 6 6 6 6 6 6 6 6 6 6 6 6 6 6 6 6 6 6 6 6 6 6 6 6 6 6 6 6 6 6 6 6 6 6 6 6 6 6 6 6 6 6 ",
"6 6 6 6 6 6 6 6 6 6 6 6 6 6 6 6 6 6 6 6 6 6 6 6 6 6 6 6 6 6 6 6 6 6 6 6 6 6 6 6 6 6 6 6 6 6 6 6 6 6 6 6 6 6 6 6 6 6 6 6 6 6 6 6 6 6 6 6 6 6 6 6 6 6 ",
"6 6 6 6 6 6 6 6 6 6 6 6 6 6 6 6 6 6 6 6 6 6 6 6 6 6 6 6 6 6 6 6 6 6 6 6 6 6 6 6 6 6 6 6 6 6 6 6 6 6 6 6 6 6 6 6 6 6 6 6 6 6 6 6 6 6 6 6 6 6 6 6 6 6 ",
"6 6 6 6 6 6 6 6 6 6 6 6 6 6 6 6 6 6 6 6 6 6 6 6 6 6 6 6 6 6 6 6 6 6 6 6 6 6 6 6 6 6 6 6 6 6 6 6 6 6 6 6 6 6 6 6 6 6 6 6 6 6 6 6 6 6 6 6 6 6 6 6 6 6 ",
"6 6 6 6 6 6 6 6 6 6 6 6 6 6 6 6 6 6 6 6 6 6 6 6 6 6 6 6 6 6 6 6 6 6 6 6 6 6 6 6 6 6 6 6 6 6 6 6 6 6 6 6 6 6 6 6 6 6 6 6 6 6 6 6 6 6 6 6 6 6 6 6 6 6 ",
"6 6 6 6 6 6 6 6 6 6 6 6 6 6 6 6 6 6 6 6 6 6 6 6 6 6 6 6 6 6 6 6 6 6 6 6 6 6 6 6 6 6 6 6 6 6 6 6 6 6 6 6 6 6 6 6 6 6 6 6 6 6 6 6 6 6 6 6 6 6 6 6 6 6 ",
"6 6 6 6 6 6 6 6 6 6 6 6 6 6 6 6 6 6 6 6 6 6 6 6 6 6 6 6 6 6 6 6 6 6 6 6 6 6 6 6 6 6 6 6 6 6 6 6 6 6 6 6 6 6 6 6 6 6 6 6 6 6 6 6 6 6 6 6 6 6 6 6 6 6 ",
"6 6 6 6 6 6 6 6 6 6 6 6 6 6 6 6 6 6 6 6 6 6 6 6 6 6 6 6 6 6 6 6 6 6 6 6 6 6 6 6 6 6 6 6 6 6 6 6 6 6 6 6 6 6 6 6 6 6 6 6 6 6 6 6 6 6 6 6 6 6 6 6 6 6 ",
"6 6 6 6 6 6 6 6 6 6 6 6 6 6 6 6 6 6 6 6 6 6 6 6 6 6 6 6 6 6 6 6 6 6 6 6 6 6 6 6 6 6 6 6 6 6 6 6 6 6 6 6 6 6 6 6 6 6 6 6 6 6 6 6 6 6 6 6 6 6 6 6 6 6 "
};
