/* XPM */
static char *_4744_82b20f149c294e54a9b0650a0c7c43c38772db29739cbc2e9d1d2a5e588cdb5a[] = {
/* columns rows colors chars-per-pixel */
"74 74 253 2 ",
"   c #181834",
".  c #241C36",
"X  c #271B38",
"o  c #2C1E39",
"O  c #35163D",
"+  c #1C2231",
"@  c #282738",
"#  c #34233A",
"$  c #3C253B",
"%  c #4D1C37",
"&  c #72183F",
"*  c #44283C",
"=  c #4D2A3D",
"-  c #552833",
";  c #542D3D",
":  c #4C3037",
">  c #54313F",
",  c #6E2430",
"<  c #772C3B",
"1  c #68363E",
"2  c #7E313A",
"3  c #3B1642",
"4  c #312F4B",
"5  c #3D3550",
"6  c #363C57",
"7  c #293D61",
"8  c #323966",
"9  c #451642",
"0  c #77174C",
"q  c #4A2A42",
"w  c #582D43",
"e  c #4A364F",
"r  c #543547",
"t  c #5B3341",
"y  c #5E3D4E",
"u  c #643443",
"i  c #6D3444",
"p  c #683C49",
"a  c #723B43",
"s  c #793947",
"d  c #762B55",
"f  c #623D65",
"g  c #384767",
"h  c #30566F",
"j  c #374C70",
"k  c #3C5678",
"l  c #514E5B",
"z  c #68444D",
"x  c #74454D",
"c  c #79584A",
"v  c #684754",
"b  c #774753",
"n  c #6C5559",
"m  c #76585A",
"M  c #536C54",
"N  c #776E50",
"B  c #484C6B",
"V  c #4D5764",
"C  c #535A69",
"Z  c #445977",
"A  c #595A73",
"S  c #565B7D",
"D  c #685C6F",
"F  c #476679",
"G  c #546E73",
"H  c #59687B",
"J  c #6D6C70",
"K  c #696976",
"L  c #88183C",
"P  c #9B1B35",
"I  c #A5193C",
"U  c #BD1D32",
"Y  c #8D303B",
"T  c #B82636",
"R  c #B32C37",
"E  c #FC321A",
"W  c #C92A2F",
"Q  c #E53E2C",
"!  c #975130",
"~  c #AB5C34",
"^  c #DA5130",
"/  c #FB4826",
"(  c #F14F2D",
")  c #FB7135",
"_  c #881746",
"`  c #971743",
"'  c #8D1450",
"]  c #A41B43",
"[  c #843B4A",
"{  c #873E48",
"}  c #903050",
"|  c #A72642",
" . c #B12E44",
".. c #A83647",
"X. c #B83A43",
"o. c #853B68",
"O. c #884547",
"+. c #95414D",
"@. c #954848",
"#. c #985A47",
"$. c #864B54",
"%. c #8E5152",
"&. c #88575A",
"*. c #975754",
"=. c #AD464B",
"-. c #A24F4A",
";. c #B34C4B",
":. c #B6554D",
">. c #BC574D",
",. c #A55B57",
"<. c #8C655B",
"1. c #946556",
"2. c #956E50",
"3. c #A7654A",
"4. c #B6684C",
"5. c #AA665A",
"6. c #B57254",
"7. c #885967",
"8. c #835D7A",
"9. c #BC5662",
"0. c #846973",
"q. c #956D75",
"w. c #87787B",
"e. c #A87969",
"r. c #B87663",
"t. c #B37E6B",
"y. c #B06F75",
"u. c #CD4A49",
"i. c #C5594C",
"p. c #D95945",
"a. c #C75E50",
"s. c #CB5E5C",
"d. c #F74E56",
"f. c #CD6C4F",
"g. c #D97451",
"h. c #EB6B4F",
"j. c #E37C53",
"k. c #EA5464",
"l. c #D37068",
"z. c #F0726B",
"x. c #708D5E",
"c. c #FB8A33",
"v. c #FDA826",
"b. c #B38856",
"n. c #A49E5F",
"m. c #95837D",
"M. c #B7826E",
"N. c #AE8776",
"B. c #CE8755",
"V. c #ED8D56",
"C. c #F99857",
"Z. c #C5AA5D",
"A. c #FFA85E",
"S. c #C88971",
"D. c #CE9277",
"F. c #CC947B",
"G. c #D59779",
"H. c #EB846F",
"J. c #EE9976",
"K. c #EB9B7A",
"L. c #F49A79",
"P. c #D3B16D",
"I. c #EBA776",
"U. c #DDD070",
"Y. c #FAD273",
"T. c #3E5B83",
"R. c #3C6688",
"E. c #485E84",
"W. c #476789",
"Q. c #4A7487",
"!. c #547788",
"~. c #446D94",
"^. c #576B91",
"/. c #477697",
"(. c #70698E",
"). c #667986",
"_. c #74798C",
"`. c #646E99",
"'. c #66719C",
"]. c #5D66A2",
"[. c #907989",
"{. c #B07783",
"}. c #57848C",
"|. c #588694",
" X c #568F96",
".X c #638C97",
"XX c #748F92",
"oX c #679897",
"OX c #6FAF99",
"+X c #4A89AA",
"@X c #5690A9",
"#X c #4F94B2",
"$X c #7E99A2",
"%X c #7790A9",
"&X c #7D9EA8",
"*X c #75A7AB",
"=X c #74BAA4",
"-X c #78C8AF",
";X c #6DCDC7",
":X c #898885",
">X c #8F9590",
",X c #AE8D8B",
"<X c #BE958D",
"1X c #ACAA96",
"2X c #8E8DA6",
"3X c #878CB5",
"4X c #8D93BC",
"5X c #9598B9",
"6X c #A195A1",
"7X c #8FAAB1",
"8X c #ABABB4",
"9X c #CF958C",
"0X c #CF988B",
"qX c #D49789",
"wX c #EA9A89",
"eX c #D2AD8E",
"rX c #F7A487",
"tX c #FCAA83",
"yX c #EDAA91",
"uX c #E9A897",
"iX c #FBB799",
"pX c #C69EA1",
"aX c #D4B4AF",
"sX c #ECB8A5",
"dX c #87D3B3",
"fX c #A7C6A8",
"gX c #FFE482",
"hX c #FFF08D",
"jX c #CCC6A7",
"kX c #F6C8AE",
"lX c #F9D6B9",
"zX c #FFEABC",
"xX c #969BC3",
"cX c #9CA1C7",
"vX c #9DA3C8",
"bX c #8EBEC4",
"nX c #A5ABC8",
"mX c #AAB0CB",
"MX c #B3B9CC",
"NX c #B5BCD0",
"BX c #BBC3C4",
"VX c #BCC3D1",
"CX c #AFECC7",
"ZX c #CDD3D3",
"AX c #EDDAC4",
"SX c #DAE3DB",
"DX c #FAE7C9",
"FX c #E4EBDB",
"GX c #F2EFD2",
"HX c #FBF3D4",
"JX c #F8F8DB",
"KX c #EBF6E1",
"LX c #F6FEE6",
/* pixels */
"5 5 5 5 5 5 5 5 5 5 5 5 5 5 5 5 5 5 5 5 5 5 5 5 5 5 5 5 5 5 5 5 5 5 5 5 5 5 5 5 5 5 5 5 5 5 5 5 5 5 5 5 5 5 5 5 5 5 5 5 5 5 5 5 5 5 5 5 5 5 5 5 5 5 ",
"5 5 5 5 5 5 5 5 5 5 5 5 5 5 5 5 5 5 5 5 5 5 5 5 5 5 5 5 5 5 5 5 5 5 5 5 5 5 5 5 5 5 5 5 5 5 5 5 5 5 5 5 5 5 5 5 5 5 5 5 5 5 5 5 5 5 5 5 5 5 5 5 5 5 ",
"5 5 5 5 5 5 5 5 5 5 5 5 5 5 5 5 5 5 5 5 5 5 5 5 5 5 5 5 5 5 5 5 5 5 5 5 5 5 5 5 5 5 5 5 5 5 5 5 5 5 5 5 5 5 5 5 5 5 5 5 5 5 5 5 5 5 5 5 5 5 5 5 5 5 ",
"5 5 5 5 5 5 5 5 5 5 5 5 5 5 5 5 5 5 5 5 5 5 5 5 5 5 5 5 5 5 5 5 5 5 5 5 5 5 5 5 5 5 5 5 5 5 5 5 5 5 5 5 5 5 5 5 5 5 5 5 5 5 5 5 5 5 5 5 5 5 5 5 5 5 ",
"5 5 5 5 5 5 5 5 5 5 5 5 5 5 5 5 5 5 5 5 5 5 5 5 5 5 5 5 5 5 5 5 5 5 5 5 5 5 5 5 5 5 5 5 5 5 5 5 5 5 5 5 5 5 5 5 5 5 5 5 5 5 5 5 5 5 5 5 5 5 5 5 5 5 ",
"5 5 5 5 5 5 5 5 5 5 5 5 5 5 5 5 5 5 5 5 5 5 5 5 5 5 5 5 5 5 5 5 5 5 5 5 5 5 5 5 5 5 5 5 5 5 5 5 5 5 5 5 5 5 5 5 5 5 5 5 5 5 5 5 5 5 5 5 5 5 5 5 5 5 ",
"5 5 5 5 5 5 5 5 5 5 5 5 5 5 5 5 5 5 5 5 5 5 5 5 5 5 5 5 5 5 5 5 5 5 5 5 5 5 5 5 5 5 5 5 5 5 5 5 5 5 5 5 5 5 5 5 5 5 5 5 5 5 5 5 5 5 5 5 5 5 5 5 5 5 ",
"5 5 5 5 5 5 5 5 5 5 5 5 5 5 5 5 5 5 5 5 5 5 5 5 5 5 5 5 5 5 5 5 5 5 5 5 5 5 5 5 5 5 5 5 5 5 5 5 5 5 5 5 5 5 5 5 5 5 5 5 5 5 5 5 5 5 5 5 5 5 5 5 5 5 ",
"5 5 5 5 5 5 5 5 5 5 5 5 5 5 5 5 5 5 5 5 5 5 5 5 5 5 5 5 e , , , , y 5 5 5 5 5 5 5 5 5 5 5 5 5 5 5 5 5 5 5 5 5 5 5 5 5 5 5 5 5 5 5 5 5 5 5 5 5 5 5 5 ",
"5 5 5 5 5 5 5 5 5 5 5 5 5 5 5 5 5 5 5 5 5 5 5 5 5 5 5 5 b Q Q ( Q U d 5 5 5 5 5 5 5 5 5 5 5 5 5 5 5 5 5 5 5 5 5 5 5 5 5 5 5 5 5 5 5 5 5 5 5 5 5 5 5 ",
"5 5 5 5 5 5 5 5 5 5 5 5 5 5 5 5 5 5 5 5 5 5 5 5 5 5 6 [ l.aXlXkXsXh.^ & e 5 5 5 5 5 5 5 5 5 5 5 5 5 5 5 5 5 5 5 5 5 5 5 5 5 5 5 5 5 5 5 5 5 5 5 5 5 ",
"5 5 5 5 5 5 5 5 5 5 5 5 5 5 5 5 5 5 5 5 5 5 5 5 5 5 ..9XGXKXiXiXLXDXsXW y 5 5 5 5 5 5 5 5 5 5 5 5 5 5 5 5 5 5 5 5 5 5 5 5 5 5 5 5 5 5 5 5 5 5 5 5 5 ",
"5 5 5 5 5 5 5 5 5 5 5 5 5 5 5 5 5 5 5 4 5 5 5 5 5 $.pXAXHXkX( L.JXHXHXwXT e 5 5 5 5 5 5 5 5 5 5 5 5 5 5 5 5 5 5 5 5 5 5 5 5 5 5 5 5 5 5 5 5 5 5 5 5 ",
"5 5 5 5 5 5 5 5 5 5 5 5 5 5 5 5 5 i s Y Y s 2 Y s y.FXlXlXH.E rXAXkXHXHXk.Y < Y < s 2 _ i 5 5 5 5 5 5 5 5 5 5 5 5 5 5 5 5 5 5 5 5 5 5 5 5 5 5 5 5 5 ",
"5 5 5 5 5 5 5 5 5 5 5 5 5 5 5 5 6 =.{.t.0X0XqXqX9XlXLXHXHXtXV.lXHXHXLXLXsXwXqXF.y.9Xy.y...e 5 5 5 5 5 5 5 5 5 5 5 5 5 5 5 5 5 5 5 5 5 5 5 5 5 5 5 5 ",
"5 5 5 5 5 5 5 5 5 5 5 5 5 5 5 5 e 9.AXGXGXAXHXHXGXLXLXlXHXDXDXJXLXLXLXLXJXHXHXGXAXHXAXSXu.e 5 5 5 5 5 5 5 5 5 5 5 5 5 5 5 5 5 5 5 5 5 5 5 5 5 5 5 5 ",
"5 5 5 5 5 5 5 5 5 5 5 5 5 5 5 V l s.lXGXGXaXLXDXlXDXHXiXAXlXLXAXkXkXHXDXDXlXHXDXHXkXlXlXp.q 5 5 5 5 5 5 5 5 5 5 5 5 @ 5 5 5 5 5 5 5 5 5 5 5 5 5 5 5 ",
"5 5 5 5 5 5 5 5 5 5 5 5 5 5 oXoXXXs.H.sXkX9XsXuXiXuXwXkXuXiXLXsXlXz.kXyXiXH.sXkXrXL.iXH.p.G oXoXoXoXoXoXoXoXXXoXoXOXoXOXoXQ.5 5 5 5 5 5 5 5 5 5 5 5 ",
"5 5 5 5 5 5 5 5 5 5 5 5 5 S  X=XXXs.l.z.sXqXrXqXrXwXh.lXz.z.KXwXlXl.sXl.L.k.z.uXL.h.iXz.d.XX-XOXOX-X=XOX=X=XOXOX=X=X-XOX XR.g 5 5 5 5 5 5 5 5 5 5 5 ",
"5 5 5 5 5 5 5 5 5 5 5 5 5 !.G F M s.wXyXlX9XlXsXsXsXsXlXyXz.GXsXkXsXkXuXsXyXuXkXkXwXiXuXu.l }.F }. XQ.F  X}.G G  XG oX Xh 6 4 F 5 5 5 5 5 5 5 5 5 5 ",
"5 5 5 5 5 5 5 5 5 5 5 5 oXOXk k Z 9.aXaXAXaXDXAXAXAXDXlXkXkXDXlXAXAXAXlXAXlXlXDXDXlXaXaXu.3 k E.}.k T.W.F Z W.!.k Q.-X X4 a 4 k e 4 5 5 5 5 5 5 5 5 ",
"5 5 5 5 5 5 5 5 5 5 5 XX-XoXZ /.!.=.{.,X{.9X0X0X0X0XqX0X0X0X0X0X9X9X0X0X9X9XqXeX9XuXy.y.Y 5 W./.G j ~.|.Z W.|.!.k -XdXZ = a q j E.5 5 5 5 5 5 5 5 5 ",
"5 5 5 5 5 5 5 5 5 5 5 OX=XF ~.}.C n m.:Xw.0.m.J :Xm.0.:X0.:X:Xw.:X0.w.m.w.:Xw.:X:Xn.1 - - j /.}.k R.|.Q.Z !.!.Z  XdX X@ i t s 5 j ^.5 5 5 5 5 5 5 5 ",
"5 5 5 5 5 5 5 5 5 5 oX-XG Z |.F k Q.G |..X^.oX^..X.XW.oX^. X.X!..XQ.|..X!..X|. X.XOX+ + 4 ~.|.Z R.|.Q.k ~..XH Q.-X=Xe q s s w p 6 j 5 5 5 5 5 5 5 5 ",
"5 5 5 5 5 5 5 5 5 oX-XoXk /.!.k ~.Q.6 E.`.`.`.`.`.%Xg `.`.`.'.`.'.Z ^.`.`.`.`.`.).g + @ k |.!.k ~.|.Z T.|.!.W.=X-XG i i [ +.q s r j Z 5 5 5 5 5 5 5 ",
"5 5 5 5 5 5 5 5 5 OX=XZ W.}.k W./.!.4 '.3X2X3X3X5X8XB 3X3X3X3X5XMXK 3X3X3X3X5X5X7X@ + 7 /.}.j ~.|.F T.!.}.C $XdX!.r { i { +.i q { 4 j ^.5 5 5 5 5 5 ",
"5 5 5 5 5 5 5 e K dXG Z .XH W.!..XB 5 _._._._._.>X1Xl _._._._.>X1XC _.XX_.).6X1X:X4 5 W.oXF F !..XB ^.|.G E.dX=X6 v b s %.%.b p z x g k 5 5 5 5 5 5 ",
"5 5 5 5 5 5 5 XXOXXXH .X).H ).).K H F l V G V V V C l V C V B V C V V C V V V C l C H .X).H ).).H !..XK ).XXXXK n m 7.m 7.7.7.m l 7.n A H 5 5 5 5 5 ",
"5 5 5 5 5 5 6 =X=XB R.|.k W./.F k ~.Q.8 E.Q.k k R./.j T.Q.k j R.~.j T.~.k j R.!.8 T./.}.k W.|.F W.~.}.k oXdXH p s s { i ..O.s [ w i [ q j E.5 5 5 5 ",
"5 5 5 5 5 5 .XCXQ.R./.F R.~.|.T.~./.Q.R.~./.k ~.R.Q.R.R.+Xk ~./.Q.T.~. XF R.R.|.T.~./.k R././.k ~.|.F ^.CXdXe +.{ u u u +.s i [ u +.= x 4 k 5 5 5 5 ",
"5 5 5 5 5 5 XXCX/.+XR.+X#X+X/.+X#X/./.#X#XW.+X#X+X+X#X#XR.+X#X/./.#X#X~.+X#X+X/.#X#XR.+X#X+X~.#X#XR.+X@XCX>Xe i u * * * i w q s $ i o {   ~.5 5 5 5 ",
"5 5 5 5 5 5 x.fXXX7XK &X&X$XXX&X*XXX&X&X%XJ 2X&XK &X$X&XJ &X&X).XX$X&X_.*X&XXX$X&X&XK &X&XXXXX&X&XK 7XXXfXXXy t ; w > w t r w t w t w p o T.5 5 5 5 ",
"5 5 5 5 5 5 B wXtXI.L.L.J.J.tXL.J.L.I.J.L.G.I.K.J.rXJ.J.tXI.K.K.rXJ.L.tXL.I.J.I.J.J.J.J.J.J.I.L.L.I.L.S.f.5.r.a.a.a.>.a.a.>.a.>.>.a.a.>.u `.5 5 5 5 ",
"5 5 5 5 5 4 (.S.G.D.G.D.D.D.D.G.D.G.G.G.G.N.K.A.I.F.D.D.P.G.eX0XD.D.G.P.yXG.D.G.G.D.D.G.G.D.D.D.G.D.D.G.r.M.y.5.5.@.@.%.@.@.@.@.@.@.@.#.v 5 5 5 5 5 ",
"5 5 5 5 5 5 5 n c < ! ! < 2 ! ! 2 2 ! ! < b 1.c.4.g f } x.M /.J ! b } x.n.<.< ! ! 2 < ! ! Y , ! ! 2 i ,.p 5 5 X . .   . . . @ . X . . a A 5 5 5 5 5 ",
"5 5 5 5 5 5 6 e.a.^ c.( W ^ c.) T Q c.( T o.e.~ M #X$.d.M @ R.N v.@.d.N n.L.T c.) W W c.) W W c.c.T ] l.@.@ 4 X . .   . X * X   X t . :.S 5 5 5 5 5 ",
"5 5 5 5 5 5 5 5.d.DXzXd.d.DXzXd.d.DXzXd.' $.r.  3 B o ' O   X O a O 0 O n d.lXHXk.d.lXHXd.d.kXHXz.] 0 H.@.e b u s u $ w p [ s * i t > a.S 5 5 5 5 5 ",
"5 5 5 5 5 5 5 5./ gXgX/ / gXY./ / Y.Y./ 0 z e.3 ] ] I ] P 0 _ ] I I I ' m / Y.hX) E Y.hX) E Y.hX) ] w H.-.r b s [ t i w [ +.s i q ~ 4.a.S 5 5 5 5 5 ",
"5 5 5 5 5 5 5 e.( Y.Y.( ( Y.Y./ ( gXgX( & b e.9 R ;.X.=.i.P I ;.=.X.u.| q.a.P.U.( E Y.hX( E Y.Y.h.` p H.-.e z [ s i O.u { +.s s > 6.#.a.S 5 5 5 5 5 ",
"5 5 5 5 5 5 5 1.! M.1Xy.{.aX6Xy.y.jXjXaXo.&.r.9 | a.p.=.g.| ..a.p.=.j. .N.f.*.1X6X9.8XeX6Xs.BXeXkX+.$.L.-.z z [ { 3.>.>.a.a.i.i = V.* a.S 5 5 5 5 5 ",
"5 5 5 5 5 5 5 e.&.D 4X3X5X5X5X5XMXnXZXZX8.&.t.9 | V.p.>.V.R | g.p.>.V.T {.G.*.5X5X3XxX5XxXnXnXNXKX[.*.L.-.y v +.{ 4.a.8.7.7.p.i > C.. a.S 5 5 5 5 5 ",
"5 5 5 5 5 5 5 e.e.8.xXcXcXcXcXVXnXZXFXmX[.*.t.9 | V.p.:.C.I I V.h.;.C.R N.I.5.8XcXxXvXxXNXNXNXKXVX[.3.tX-.y y +.s 3.i.`.].^.j.d 1 2.. a.S 5 5 5 5 5 ",
"5 5 5 5 5 5 5 e.5.J xXcXcXcXNXNXMXFXZXxX[.<.t.9 I p.R X.p.] ` u.R X.u.| q.F.e.5XxXvXvXnXVXmXFXZXvX[.5.I.-.y y +.s #.s.].].].j.s ! c X a.S 5 5 5 5 5 ",
"5 5 5 5 5 5 5 e.5.J xXcXcXnXVXmXSXSXvXxX[.&.t.9 I u.=.=.i.] | ;.u...u.| <.G.6.4XnXxXxXZXmXZXFXmXvXxX5.tX-.y z +.[ #.a.(.(.(.j.q g.s X a.S 5 5 5 5 5 ",
"5 5 5 5 5 5 5 e.<.0.xXcXvXNXmXZXFXMXvXxX[.m M.% | a.u.=.g.| | 4.u.=.f.| &.qXr.4XxXvXNXNXNXKXZXvXvX5X*.rX-.y y +.[ #.{ D 8.[.;.O f.i X a.S 5 5 5 5 5 ",
"5 5 5 5 5 5 5 e.<.0.xXxXNXmXZXKXZXnXvXxX[.&.M.9 | g.p.i.V.I | f.p.>.V. .&.K.6.3XxXmXNXmXFXSXvXxXcX[.1.tX-.y y } [ #.; (.(.E.#.% O.[ X a.S 5 5 5 5 5 ",
"5 5 5 5 5 5 5 e.<.0.xXmXNXNXFXZXvXxXcXxX[.m M.O | V.f.:.C.R R V.p.>.C. .&.G.r.3XvXZXnXSXSXmXvXvXxX6X1.tX-.y p @.[ 3.@.].].].f.t u +.. a.S 5 5 5 5 5 ",
"5 5 5 5 5 5 5 e.7.0.xXNXmXSXSXmXvXvXcXxX:Xm t.9 R g.W X.c.p.X.p.u.X.) P 7.G.b.3XNXNXVXKXNXvXvXvXcX2X1.tX#.y p } s 3.a.].].].4.s * @.. a.S 5 5 5 5 5 ",
"5 5 5 5 5 5 5 e.<.J mX8XnXKXVXnXcXcXcXxX[.m t.9 T W T T f.g.u.W T T W ] <.G.6.2XMX7XZXBX5X5XxXcXcX[.<.rX-.y y @.[ 4.a.q.[.[.s } $ +.o a.S 5 5 5 5 5 ",
"5 5 5 5 e J D 7.c D 2X_.J 8XxXxX4XxXxX%X_.n t.9 I I I I ~ i.R I I I I ] 7.G.3.0.N.m.P.m.q.0.'.4X4X[.&.tX-.y v } [ #.;.*.=.-.> [ * +.o a.S 5 5 5 5 5 ",
"5 5 5 5 q.#.l A !.C D 6.O.:X<X<X,X<X<X<Xe.n r.9 P U U T _ R P I T U _ ` &.I.b.c 2.N N N <.2.0.<X<XN.m tX-.y b +.s i O.i O.+.; t 1 } . a.S 5 5 5 5 5 ",
"5 5 5 J B.%.w.8XbXK @.g.+.2.V.V.A.C.V.V.B.m t.9 L W U W 0 P _ U W W 0 _ &.wXP.c 6.M l M N b.6.C.V.C.&.tX-.y p @.[ u { q [ [ $ $ ; { . >.S 5 5 5 5 5 ",
"5 5 5 ,X6.O.1XjXaXm.l.:.{ @.4.3.g.g.#.4.4.n t.9 _ W U U 0 ` _ W U U 0 _ &.wXP.N A.:XJ .Xx.b.#.3.3.f.z I.:.v f } [ i +.w i D g 7 4 l 4 @.E.5 5 5 5 5 ",
"5 5 (.eX%.*.q.q.q.,XM.%.$.$.%.z ,.,.x %.%.n y.e } W  . .' } } R R R } ' <.F.Z.N U.8X6X2XM 6.$.b x 1.n wX*.v v *.$.p %.b y }. XQ.g j 8 $.K 5 5 5 5 5 ",
"5 5 K I.$.c v n 1.b.r.&.$.$.5.,.5.9.,.5.,.D e.e } W ....d } } =.....d } 7.N.M.>X1X5X3X2Xx.e.*.,.,.5.&.K.*.v m %.b v $.v $.R.*XF B B B ,.^.5 5 5 5 5 ",
"5 5 D A.O.4.#.#.4.B.f.s s i >.:.>.i.:.>.:.n M.9 L I _ _ 0 ' ' ` ' _ 0 ' &.6.b.jXAXnX4X%Xn.$.-.:.:.>.,.tX#.e v { i w u w @.R.;XT.8 8 7 i.A 5 5 5 5 5 ",
"5 5 D C.O.f.f.a.a.g.4.> i > @.@.-.-.@.@.@.n e.9 P L _ L 0 ` L _ 0 0 L L $.<.6.1XdXvX4X$XU.; ! s @.@.$.L.@.4 y s w q @ 3 O.R.;XR.8 8 7 >.S e 5 5 5 5 ",
"5 5 K A.{ f.a.a.f.B.6.* i r $.x $.b z x $.n &.9 P P P P I & L P P I P L b 2.b.M x.>X>XXXP.> z z z $.v S.O.e r > q 3 # 3 p k ;XR.8 8 6 +.A 5 5 5 5 5 ",
"5 5 C C.O.f.6.6.4.6.3.q u m M.M.M.M.M.M.M.N.1.o % % % % % O % % % % % % p n.P.P.U.Z.U.Z.A.y M.M.M.M.M.S.3.&.$.O.O.O.O.! ! l -XR.8 8 r @.y 5 5 5 5 5 ",
"5 5 l 6.r : : : : ! O.$ w &.M.M.t.M.M.e.e.e.<.# * * * * * * * = * * # . y 2.Z.Z.n.Z.Z.b.b.z M.M.M.M.t.M.1.%.%.@.O.O.O.x s 5 R.R.6 7 q O.w 5 5 5 5 5 ",
"5 5 * u a a a a x 1 1 x a a a a a 1 ; . # 5 . - - ; ; - ; - ; ; ; > : t 1 1 a a a a a a x 1 1 x a a a a x x x u > . # # o # # # # # # # # # # # . 5 ",
"5 5 a a a.a.a.a.a.a.a.a.a.a.a.a.i.x O.$ ; r = 1 u 1 1 i 1 1 1 1 1 > u Y 4.i.i.f.a.a.a.a.a.a.a.a.a.a.a.a.a.a.6.O.@.* ; ; ; ; ; ; ; ; ; ; ; ; ; ; $ 5 ",
"5 5 a a >.:.:.:.>.>.:.:.:.>.:.:.;.a x $ * e { @.O.@.@.@.O.@.O.@.@.1 > x -.:.:.:.>.:.:.:.>.>.>.:.:.:.:.:.>.,.,.O.{ $ = ; = ; = = ; = ; = ; = ; = $ 5 ",
"5 5 * > t t > 1 > > t t t t > > 1 > = + + $ o o o o o o o o o o X   # t t 1 > > > u > > 1 > t t > u > > > z z > ; + o o o o o o o o X o o o o o   5 ",
"5 5 5 5 5 5 5 5 5 5 5 5 5 5 5 5 5 5 5 5 5 5 5 5 5 5 5 5 5 5 5 5 5 5 5 5 5 5 5 5 5 5 5 5 5 5 5 5 5 5 5 5 5 5 5 5 5 5 5 5 5 5 5 5 5 5 5 5 5 5 5 5 5 5 ",
"5 5 5 5 5 5 5 5 5 5 5 5 5 5 5 5 5 5 5 5 5 5 5 5 5 5 5 5 5 5 5 5 5 5 5 5 5 5 5 5 5 5 5 5 5 5 5 5 5 5 5 5 5 5 5 5 5 5 5 5 5 5 5 5 5 5 5 5 5 5 5 5 5 5 ",
"5 5 5 5 5 5 5 5 5 5 5 5 5 5 5 5 5 5 5 5 5 5 5 5 5 5 5 5 5 5 5 5 5 5 5 5 5 5 5 5 5 5 5 5 5 5 5 5 5 5 5 5 5 5 5 5 5 5 5 5 5 5 5 5 5 5 5 5 5 5 5 5 5 5 ",
"5 5 5 5 5 5 5 5 5 5 5 5 5 5 5 5 5 5 5 5 5 5 5 5 5 5 5 5 5 5 5 5 5 5 5 5 5 5 5 5 5 5 5 5 5 5 5 5 5 5 5 5 5 5 5 5 5 5 5 5 5 5 5 5 5 5 5 5 5 5 5 5 5 5 ",
"5 5 5 5 5 5 5 5 5 5 5 5 5 5 5 5 5 5 5 5 5 5 5 5 5 5 5 5 5 5 5 5 5 5 5 5 5 5 5 5 5 5 5 5 5 5 5 5 5 5 5 5 5 5 5 5 5 5 5 5 5 5 5 5 5 5 5 5 5 5 5 5 5 5 ",
"5 5 5 5 5 5 5 5 5 5 5 5 5 5 5 5 5 5 5 5 5 5 5 5 5 5 5 5 5 5 5 5 5 5 5 5 5 5 5 5 5 5 5 5 5 5 5 5 5 5 5 5 5 5 5 5 5 5 5 5 5 5 5 5 5 5 5 5 5 5 5 5 5 5 ",
"5 5 5 5 5 5 5 5 5 5 5 5 5 5 5 5 5 5 5 5 5 5 5 5 5 5 5 5 5 5 5 5 5 5 5 5 5 5 5 5 5 5 5 5 5 5 5 5 5 5 5 5 5 5 5 5 5 5 5 5 5 5 5 5 5 5 5 5 5 5 5 5 5 5 ",
"5 5 5 5 5 5 5 5 5 5 5 5 5 5 5 5 5 5 5 5 5 5 5 5 5 5 5 5 5 5 5 5 5 5 5 5 5 5 5 5 5 5 5 5 5 5 5 5 5 5 5 5 5 5 5 5 5 5 5 5 5 5 5 5 5 5 5 5 5 5 5 5 5 5 ",
"5 5 5 5 5 5 5 5 5 5 5 5 5 5 5 5 5 5 5 5 5 5 5 5 5 5 5 5 5 5 5 5 5 5 5 5 5 5 5 5 5 5 5 5 5 5 5 5 5 5 5 5 5 5 5 5 5 5 5 5 5 5 5 5 5 5 5 5 5 5 5 5 5 5 ",
"5 5 5 5 5 5 5 5 5 5 5 5 5 5 5 5 5 5 5 5 5 5 5 5 5 5 5 5 5 5 5 5 5 5 5 5 5 5 5 5 5 5 5 5 5 5 5 5 5 5 5 5 5 5 5 5 5 5 5 5 5 5 5 5 5 5 5 5 5 5 5 5 5 5 "
};
