/* XPM */
static char *_743_f9d857155e3b05ab5618fbfaac86fc46d04d27f39f7feeaef1e59adddc0b6d2e[] = {
/* columns rows colors chars-per-pixel */
"74 74 252 2 ",
"   c #181736",
".  c #1A1E27",
"X  c #241C36",
"o  c #2C1E39",
"O  c #271B38",
"+  c #36163E",
"@  c #1C2231",
"#  c #34233A",
"$  c #3C243A",
"%  c #282738",
"&  c #43273A",
"*  c #4D2A3D",
"=  c #44293E",
"-  c #542D3D",
";  c #552833",
":  c #54313F",
">  c #582520",
",  c #68363E",
"<  c #772E3A",
"1  c #6A5B39",
"2  c #3D3550",
"3  c #363B57",
"4  c #322F4B",
"5  c #323965",
"6  c #293D61",
"7  c #451642",
"8  c #492A42",
"9  c #582D43",
"0  c #473649",
"q  c #5B3341",
"w  c #5E3D4E",
"e  c #543648",
"r  c #503457",
"t  c #643443",
"y  c #6D3444",
"u  c #673C4A",
"i  c #723B44",
"p  c #7B3B46",
"a  c #783848",
"s  c #73274A",
"d  c #612E56",
"f  c #384767",
"g  c #3B5578",
"h  c #354A70",
"j  c #30566F",
"k  c #534F5B",
"l  c #67434D",
"z  c #74464D",
"x  c #684653",
"c  c #774653",
"v  c #6C5659",
"b  c #77565C",
"n  c #79584A",
"m  c #536C54",
"M  c #776D52",
"N  c #445978",
"B  c #565B7D",
"V  c #585874",
"C  c #4D566A",
"Z  c #59687B",
"A  c #4D6975",
"S  c #666B71",
"D  c #6F5D61",
"F  c #85313B",
"G  c #AF2137",
"H  c #FC321A",
"J  c #C62830",
"K  c #965130",
"L  c #FF5930",
"P  c #FB7135",
"I  c #843B4A",
"U  c #883E49",
"Y  c #93374F",
"T  c #A8264A",
"R  c #884547",
"E  c #904747",
"W  c #95414D",
"Q  c #954A48",
"!  c #9A494A",
"~  c #975947",
"^  c #874C54",
"/  c #89565B",
"(  c #985754",
")  c #8F4F54",
"_  c #A24F4A",
"`  c #AA474F",
"'  c #B6564D",
"]  c #BC584F",
"[  c #A45B57",
"{  c #AE524F",
"}  c #936452",
"|  c #936B53",
" . c #A7654A",
".. c #AB6558",
"X. c #B57856",
"o. c #B66950",
"O. c #885967",
"+. c #835C79",
"@. c #8D6D76",
"#. c #A87A6A",
"$. c #B47E6B",
"%. c #AF7072",
"&. c #B95160",
"*. c #C25C4F",
"=. c #CF5F4F",
"-. c #C75E50",
";. c #D3494B",
":. c #EE4B4F",
">. c #CD6C50",
",. c #E97852",
"<. c #F6716C",
"1. c #E26564",
"2. c #78935C",
"3. c #FF9030",
"4. c #B38856",
"5. c #B7826E",
"6. c #AF8577",
"7. c #9F9668",
"8. c #EF9558",
"9. c #C5AA5D",
"0. c #CE9278",
"q. c #D6987A",
"w. c #CD8973",
"e. c #ED9977",
"r. c #F39B7A",
"t. c #E9866D",
"y. c #D3B26B",
"u. c #E8A877",
"i. c #DF9858",
"p. c #F8CD73",
"a. c #C7C568",
"s. c #3E5B83",
"d. c #3A6888",
"f. c #615B8A",
"g. c #476889",
"h. c #4A7587",
"j. c #547888",
"k. c #5B6299",
"l. c #487696",
"z. c #4E6D8D",
"x. c #677A87",
"c. c #6D7092",
"v. c #5D66A2",
"b. c #58688F",
"n. c #8C7795",
"m. c #57848C",
"M. c #588695",
"N. c #599295",
"B. c #679B96",
"V. c #708E92",
"C. c #6CB09A",
"Z. c #4F94B2",
"A. c #4D8AA8",
"S. c #7C9DA8",
"D. c #7790A9",
"F. c #74B2A8",
"G. c #76C8B1",
"H. c #6DCDC7",
"J. c #79AEC5",
"K. c #8C908A",
"L. c #B49290",
"P. c #AEA98F",
"I. c #9687A1",
"U. c #888CB5",
"Y. c #8F94B4",
"T. c #AC99AC",
"R. c #90A8B1",
"E. c #BBABB1",
"W. c #B7AAB5",
"Q. c #B7B7BD",
"!. c #ADA9B2",
"~. c #99A69A",
"^. c #CD948A",
"/. c #D1A992",
"(. c #FBAA83",
"). c #F0AE93",
"_. c #C8A8AD",
"`. c #C4ADB2",
"'. c #CAABB6",
"]. c #CAB6B8",
"[. c #D6B9B7",
"{. c #D6B1AA",
"}. c #F9B6A6",
"|. c #E2BBB6",
" X c #E8BDB9",
".X c #FBB9BC",
"XX c #ECACA9",
"oX c #E195A6",
"OX c #87D4B5",
"+X c #AEC2B1",
"@X c #FFF08A",
"#X c #D8C3BC",
"$X c #D3C9B3",
"%X c #FCCBA9",
"&X c #E7C5B7",
"*X c #FBD6B9",
"=X c #F4CCB6",
"-X c #CBC58E",
";X c #979CC3",
":X c #9CA1C7",
">X c #9DA2C8",
",X c #ADB6C8",
"<X c #B2BDCD",
"1X c #B7BAC4",
"2X c #AAB0CC",
"3X c #C8BAC4",
"4X c #B5C4CC",
"5X c #BBC4CA",
"6X c #B3C4D2",
"7X c #BDC4D3",
"8X c #B6CCD5",
"9X c #BED2D5",
"0X c #B6D1DE",
"qX c #B6D3E0",
"wX c #AFEAC7",
"eX c #C8C4C8",
"rX c #D7C8C7",
"tX c #C6C9D4",
"yX c #CAD7DB",
"uX c #C6D4D4",
"iX c #D6D9D8",
"pX c #D0D4CC",
"aX c #E4C8C7",
"sX c #F6CCC5",
"dX c #ECD4CD",
"fX c #EAD3C8",
"gX c #F9D7C8",
"hX c #EAD7D3",
"jX c #F6DBD4",
"kX c #C7E5DA",
"lX c #DCEBDA",
"zX c #FFF5C9",
"xX c #E6E7DC",
"cX c #FBE5DA",
"vX c #F3ECD3",
"bX c #CED0E0",
"nX c #D3D4E5",
"mX c #D6D8E8",
"MX c #DBDDE8",
"NX c #DCE2EA",
"BX c #DEF8E8",
"VX c #E5E7EB",
"CX c #FBEDE2",
"ZX c #F4EBE4",
"AX c #FDF4E5",
"SX c #FDFAED",
"DX c #FAF4EA",
"FX c #FCFEF3",
"GX c #F3F7F1",
"HX c #EDF3EB",
"JX c #E0DEE5",
"KX c None",
/* pixels */
"2 2 2 2 2 2 2 2 2 2 2 2 2 2 2 2 2 2 2 2 2 2 2 2 2 2 2 2 2 2 2 2 2 2 2 2 2 2 2 2 2 2 2 2 2 2 2 2 2 2 2 2 2 2 2 2 2 2 2 2 2 2 2 2 2 2 2 2 2 2 2 2 2 2 ",
"2 2 2 2 2 2 2 2 2 2 2 2 2 2 2 2 2 2 2 2 2 2 2 2 2 2 2 2 2 2 2 2 2 2 2 2 2 2 2 2 2 2 2 2 2 2 2 2 2 2 2 2 2 2 2 2 2 2 2 2 2 2 2 2 2 2 2 2 2 2 2 2 2 2 ",
"2 2 2 2 2 2 2 2 2 2 2 2 2 2 2 2 2 2 2 2 2 2 2 2 2 2 2 2 2 2 2 2 2 2 2 2 2 2 2 2 2 2 2 2 2 2 2 2 2 2 2 2 2 2 2 2 2 2 2 2 2 2 2 2 2 2 2 2 2 2 2 2 2 2 ",
"2 2 2 2 2 2 2 2 2 2 2 2 2 2 2 2 2 2 2 2 2 2 2 2 2 2 2 2 2 2 2 2 2 2 2 2 2 2 2 2 2 2 2 2 2 2 2 2 2 2 2 2 2 2 2 2 2 2 2 2 2 2 2 2 2 2 2 2 2 2 2 2 2 2 ",
"2 2 2 2 2 2 2 2 2 2 2 2 2 2 2 2 2 2 2 2 2 2 2 2 2 2 2 2 2 2 2 2 2 2 2 2 2 2 2 2 2 2 2 2 2 2 2 2 2 2 2 2 2 2 2 2 2 2 2 2 2 2 2 2 2 2 2 2 2 2 2 2 2 2 ",
"2 2 2 2 2 2 2 2 2 2 2 2 2 2 2 2 2 2 2 2 2 2 2 2 2 2 2 2 2 2 2 2 2 2 2 2 2 2 2 2 2 2 2 2 2 2 2 2 2 2 2 2 2 2 2 2 2 2 2 2 2 2 2 2 2 2 2 2 2 2 2 2 2 2 ",
"2 2 2 2 2 2 2 2 2 2 2 2 2 2 2 2 2 2 2 2 2 2 2 2 2 2 2 2 2 2 2 2 2 2 2 2 2 2 2 2 2 2 2 2 2 2 2 2 2 2 2 2 2 2 2 2 2 2 2 2 2 2 2 2 2 2 2 2 2 2 2 2 2 2 ",
"2 2 2 2 2 2 2 2 2 2 2 2 2 2 2 2 2 2 2 2 2 2 2 2 2 2 2 2 2 2 2 2 2 2 2 2 2 2 2 2 2 2 2 2 2 2 2 2 2 2 2 2 2 2 2 2 2 2 2 2 2 2 2 2 2 2 2 2 2 2 2 2 2 2 ",
"2 2 2 2 2 2 2 2 2 2 2 2 2 2 2 2 2 2 2 2 2 2 2 2 2 2 2 2 0 _._._._.Q.0 2 2 2 2 2 2 2 2 2 2 2 2 2 2 2 2 2 2 2 2 2 2 2 2 2 2 2 2 2 2 2 2 2 2 2 2 2 2 2 ",
"2 2 2 2 2 2 2 2 2 2 2 2 2 2 2 2 2 2 2 2 2 2 2 2 2 2 2 2 '.XXXX}.XXoX'.2 2 2 2 2 2 2 2 2 2 2 2 2 2 2 2 2 2 2 2 2 2 2 2 2 2 2 2 2 2 2 2 2 2 2 2 2 2 2 ",
"2 2 2 2 2 2 2 2 2 2 2 2 2 2 2 2 2 2 2 2 2 2 2 2 2 2 0 '.aXhXAXcXcX.XXX'.2 2 2 2 2 2 2 2 2 2 2 2 2 2 2 2 2 2 2 2 2 2 2 2 2 2 2 2 2 2 2 2 2 2 2 2 2 2 ",
"2 2 2 2 2 2 2 2 2 2 2 2 2 2 2 2 2 2 2 2 2 2 2 2 2 2 [.dXGXFXjXcXFXGXjXXX'.2 2 2 2 2 2 2 2 2 2 2 2 2 2 2 2 2 2 2 2 2 2 2 2 2 2 2 2 2 2 2 2 2 2 2 2 2 ",
"2 2 2 2 2 2 2 2 2 2 2 2 2 2 2 2 2 2 2 2 2 2 2 0 2 '.hXDXSXcX}.gXGXSXSXgXXX2 r 2 2 2 0 2 2 2 2 2 2 2 2 2 2 2 2 2 2 2 2 2 2 2 2 2 2 2 2 2 2 2 2 2 2 2 ",
"2 2 2 2 2 2 2 2 2 2 2 2 2 2 2 2 2 2 '._._.]._.'.'.aXGXCXCXsX}.gXAXcXSXDX.X'.'.L.F a < p y r 2 2 2 2 2 2 2 2 2 2 2 2 2 2 2 2 2 2 2 2 2 2 2 2 2 2 2 2 ",
"2 2 2 2 2 2 2 2 2 2 2 2 2 2 2 2 2 [.aXaXdXdXdXdXhXZXFXFXSXgXsXCXFXFXFXFXcXgXdX/.%.^.%.%.T 5 0 2 2 2 2 2 2 2 2 2 2 2 2 2 2 2 2 2 2 2 2 2 2 2 2 2 2 2 ",
"2 2 2 2 2 2 2 2 2 2 2 2 2 2 2 2 KX XDXDXFXZXSXSXSXFXFXcXFXDXCXFXFXFXFXFXGXSXSXvXhXvXhXhX;.r 2 2 2 2 2 2 2 2 2 2 2 2 2 2 2 2 2 2 2 2 2 2 2 2 2 2 2 2 ",
"2 2 2 2 2 2 2 2 2 2 2 2 2 2 2 1XQ. XCXSXSXjXFXDXCXCXSXjXCXCXFXDXCXcXSXDXSXcXvXvXzX%X%X*X:.0 2 2 2 2 2 2 0 0 2 2 2 2 3 3 2 2 2 2 2 2 2 2 2 2 2 2 2 2 ",
"2 2 2 2 2 2 2 2 2 2 2 2 2 2 9XuXuX XsXjXCXdXcXhXjXjXjXCXjXcXFXjXCXsXcXdXcXXX%X}.).r.}.t.=.S B.B.B.B.B.B.B.B.B.B.B.B.B.B.N.g.2 2 2 2 2 2 2 2 2 2 2 2 ",
"2 2 2 2 2 2 2 2 2 2 2 2 2 2 9XkXpX X XsXjXdXjXsXgXjX=XCXsXsXSXjXCXsXjXsXgX<.t.).r.1.).t.:.V.F.C.C.G.C.C.C.F.C.C.G.C.G.C.N.s.f 2 2 2 2 2 2 2 2 2 2 2 ",
"2 2 2 2 2 2 2 2 2 2 2 2 2 4X+X4X1X&XjXjXCXhXCXZXjXZXjXCXgXsXDXjXZXjXcXjXfX).).=X}.(.}.).;.k h.h.m.N.m.A N.m.Z h.N.A C.2.N 3 4 g.2 2 2 2 2 2 2 2 2 2 ",
"2 2 2 2 2 2 2 2 2 2 2 2 uXkXQ.,X,X XJXZXDXxXDXCXAXAXAXCXcXcXDXAXCXCXDXCXgX*XzXgXgX*X|.&X' + g s.A j g g.A N g.j.g h.G.N.4 i 4 g 2 2 2 2 2 2 2 2 2 2 ",
"2 2 2 2 2 2 2 2 2 2 2 uXkX9X,X6X1X[.aXrXaXhXdXdXhXdXhXdXdXhXdXhXhXdXdX{.^.^.^.^.^./.%...G 2 s.M.j.g l.M.N g.M.j.N F.OXj & i 8 h N 2 2 2 2 2 2 2 2 2 ",
"2 2 2 2 2 2 2 2 2 2 2 kXkX4X4X8X1X3XrXpXrX3XrX3XtXrXeXrXeXpXtXeXrX3X].K.@.K.S K.7.~., > ; f l.m.g g.M.h.g j.x.N B.G.N.4 y t i 2 h 2 2 2 2 2 2 2 2 2 ",
"2 2 2 2 2 2 2 2 2 2 9XkX4X,X8X4X1X6X4X9X9X7X0X7X9X9X<X9X7XuXbX7XuX<XS.N.b.B.M.M.M.C.% . 6 g.M.N d.l.j.g l.M.A z.G.F.0 8 a a 9 u 3 h 2 2 2 2 2 2 2 2 ",
"2 2 2 2 2 2 2 2 2 9XkX9X,X8X5X,X<X6X!.<X<XtX3X<XtXbX2X<X3X7X7X<XtXR.b.c.v.c.v.c.c.j . % g M.h.N l.M.N g.l.x.j.F.G.A y y I W = i q h N 4 2 2 2 2 2 2 ",
"2 2 2 2 2 2 2 2 KXyXkX4X4X8X1X6X8X4X!.tXyXyXnXnXnXNX1XbXyXyXnXnXVXc.U.Y.U.U.;XR.~.@ @ f l.m.g g.M.A g z.M.C B.OXm.u U y Y W y * I 4 g f.2 2 2 2 2 2 ",
"2 2 2 2 2 2 2 0 eXkX4X1X9X1X4X4X9X1X,XeXeXuXtXtXpXiX1XeXtXtXtXuXeXS x.x.c.x.~.~.K.4 3 b.N.A g.z.V.g b.m.Z Z OXF.3 l c z ) ) c l l z f g 2 2 2 2 2 2 ",
"2 2 2 2 2 2 2 uXuXuX5X5XtX5X5X5XeX1X1X,XQ.1XQ.1X1X1XQ.1XQ.Q.Q.Q.S k C C k k C V k C Z m.x.Z x.x.Z b.V.m.Z V.V.S v v O.b O./ O.b k O.v V b.2 2 2 2 2 ",
"2 2 2 2 2 2 2 kXkX4X6X8X,X4X8X4X,X6X4X,X,X4X,X,X<X6X2X,X6X,X,XD.g.h s.l.N h d.h.6 s.l.M.g l.M.N N l.m.N B.OXZ i p a U y W U p I 9 y R 0 g B 2 2 2 2 ",
"2 2 2 2 2 2 2 BX4X6X6X<X6X6X8X<X6X8X6X<X6X6X,X6X6X4X<X6X8X,X,Xl.h.s.l.M.N l.l.M.s.l.l.g d.d.M.g l.l.N z.wX+X0 U I t t t Y U y I y U = p 4 g 2 2 2 2 ",
"2 2 2 2 2 2 2 BX6X0X6X8X0X0X6X0XqX6X0XqX0X4X8XqX8X0X0XqX4X0XJ.A.d.Z.Z.d.A.Z.A.d.Z.Z.d.A.Z.A.l.Z.Z.l.A.Z.wXC.0 y , & * = y 9 8 I = y X W   d.2 2 2 2 ",
"2 2 2 2 2 2 2 lXuXuX5XyXuXuXtXyXuXtXuXyXyXeXyXyXeXuXyXyX5X9XS.S S.S.R.x.S.S.V.S.S.U.S S.S.V.V.S.S.S S.K.+XV.w : 9 9 : * q : : q - q 8 t 4 s.2 2 2 2 ",
"2 2 2 2 2 2 2 dXcXgXgXgXgXgXgXgXgXgXgXgXgXfXgXgXgXgXgXsXjX).e.e.(.e.e.(.(.e.e.(.e.e.r.r.e.e.u.r.r.r.u.t.>.[ o.-.-.] -.] *.*.*.*.*.*.*.] u b.2 2 2 2 ",
"2 2 2 2 2 2 2 fX*XfXfXfXfXfXfXfXfXfXgXfXfXfXgXgXgXfXdXdX*Xy././.0.0.0.y.u.0.0.0.0.0.0.0.q.0.w.w.q.0.w.w.$.5.$.%.[ Q ! ! Q Q ! Q E ! ! _ x 2 2 2 2 2 ",
"2 2 2 2 2 2 2 ].].`.{.{._._.{.[._._.[.{._.].[.%X$X1X].'.2.m l.S K c Y 2.7.O., K K F s K K F < K K < , [ t 2 2 O % O     %   X @ X O X i V 2 2 2 2 2 ",
"2 2 2 2 2 2 0 rX&XXX%X}.XX}.%X}.XXXX%X}.{.'.rX$X$X0X3X(.m % j @.3.~ :.| 7.e.J 3.P J J 3.P J J 3.P G T t.Q % 2 O O O   X O 8 o   O - X ' B 2 2 2 2 2 ",
"2 2 2 2 2 2 2 #X.XAXAX.X.XCXDX.X.XAXAX.X'.'.aXT.T.2XT.Y +   O + , + s + v :.*XzX<.:.*XzX<.:.%XzXt.G s <.! 0 c t a y = - y I p = , q : -.B 2 2 2 2 2 ",
"2 2 2 2 2 2 2 #X}.zXzX}.}.zXzX}.}.zXzX}.'.W. XT.3 2 2 2 2 2 2 2 0 2 2 2 ^ L p.@XL H p.@XL H u.@X,.G 9 t.! e c a p 9 y 9 I W a y : ~ o.=.B 2 2 2 2 2 ",
"2 2 2 2 2 2 2 #X}.zXzX}.}.zXzX}.}.zXzX}.'.].aXT.2 2 2 2 2 2 2 2 2 2 2 2 @.=.y.p.L H p.@XL H p.@X,.T 9 t._ 0 l U p y U t U W p y - o.~ -.B 2 2 2 2 2 ",
"2 2 2 2 2 2 2 #X_.aXiX XrXhXiXaXaXZXhXhX'.].aXT.2 2 2 2 2 2 2 2 2 2 2 0 6.>.} ~.T.] !.P.T.] ].-XXX` R e._ l x I U  .*.*.*.*.-.y * 8.= -.B 2 2 2 2 2 ",
"2 2 2 2 2 2 2 #X[.3XnXnXbXnXnXnXMXmXVXGX3X[.aXT.2 2 2 2 2 2 2 2 2 2 2 2 n.e.~ Y.;XU.:XY.;X!.2X5XxXn.( r._ w x W U o.-.O.+.+.=.s * 8.X -.V 2 2 2 2 2 ",
"2 2 2 2 2 2 0 rXrX3XnXnXmXnXnXVXMXVXGXMXrX3XrXW.2 2 2 2 2 2 2 2 2 2 2 2 6.e.o.!.>X;X>X;X<X<X2XHX5XI...(._ w u W a  .*.k.f.k.,.a l  .X =.B 2 2 2 2 2 ",
"2 2 2 2 2 2 2 rX#XeXnXmXmXmXVXVXVXGXVXmXeXrXaXn.2 2 2 2 2 2 2 2 2 2 2 2 @.0.#.U.>X>X>X2X5X2XlXiX>XI...(._ w w W a  .-.v.v.v.,.i K n o -.B 2 2 2 2 2 ",
"2 2 2 2 2 2 2 rX#X3XnXmXmXMXVXMXGXGXmXnXrX].&Xd 2 2 2 2 2 2 2 2 2 2 2 2 / q.$.;X>X;X>X3X,XyXVX,X;XI.} (._ w w W I ~ -.c.c.c.,.* >.z X -.B 2 2 2 2 2 ",
"2 2 2 2 2 2 2 #X#XeXnXmXmXVXMXHXGXNXMXnXrX3X{.7 2 2 2 2 2 2 2 2 2 2 2 2 O.q.X.D.>X;X<X<X<XHXtX>X>XI.} (._ w w W i ~ E +.+.+.' # =.i O -.B 2 2 2 2 2 ",
"2 2 2 2 2 2 0 rX#X3XnXmXVXNXVXFXVXmXmXnXtX].5.7 2 2 2 2 2 2 2 2 2 2 2 2 ( ^.X.;X>X2X6X2XVXiX>X:X>XI.} (._ w w W p ~ : f.f.f.~ 8 R I X -.B 2 2 2 2 2 ",
"2 2 2 2 2 2 2 rX3XrXnXNXNXNXGXVXMXmXmXmXeXL.5.7 2 2 2 2 2 2 2 2 2 2 2 2 / q.X.U.>XtX2XiXxX2X:X:X:XI.} (._ w w W I  .! v.k.v.>.q , U o -.B 2 2 2 2 2 ",
"2 2 2 2 2 2 0 rX3X3XmXVXmXGXGXNXmXmXmXnXeXD 5.7 2 2 2 2 2 2 2 2 2 2 2 2 O.u.X.U.<X<XtXHX<X:X:X:X:XI.} (._ w w W p  .-.v.v.k.o.a = W X -.B 2 2 2 2 2 ",
"2 2 2 2 2 2 2 rX#XeXJXMXMXGXVXmXmXmXmXmXT.b $.7 0 2 2 2 2 2 2 2 2 2 2 2 / q.X.I.1XY.pX5XY.Y.;X>X:XI.} (._ w w W I  .*.@.n.@.z Y $ W o -.B 2 2 2 2 2 ",
"2 2 2 2 2 2 1X].].3XyXtXeXJXnXnXnXnXbX7XS v $.7 2 2 2 2 2 2 2 2 2 2 2 2 / q. .@.6.7.P.7.@.@.c.Y.Y.n.n (._ w x Y U ~ { ( ` ` , U = W O -.B 2 2 2 2 2 ",
"2 2 2 2 2 $XE.5X4X1X3X&X`.rXdXaXiXaXfX_.#.v $.7 2 2 2 2 2 2 2 2 2 2 2 2 / /.4.n | M M M | } @.L.L.6.n (._ w c W I u U t E W * - q W O -.B 2 2 2 2 2 ",
"2 2 2 2 &X[.rXNXkXeX].&X[.$XgX*X*X=X%X8.i.v $.7 2 2 2 2 2 2 2 2 2 2 2 0 / u.y.v X.m C m M X.X.8.8.8./ (._ w u W p t Y 9 I I $ $ 9 U X ] B 2 2 2 2 2 ",
"2 2 2 rX&X].pXxXxXrXaX[.'.[.|.[.=X&X..o.o.v $.7 2 2 2 2 2 2 2 2 2 2 2 2 / u.y.M p.K.+.x.m 4. . . .>.x (._ l w W a y Y 9 t D f f 4 w 4 E B 2 2 2 2 2 ",
"2 2 eXxX].[.rXrXrXrXfX[.].].].`.3X^.c ) ) v #.r 2 2 2 2 2 2 2 2 2 2 2 2 O.0.9.M p.~.T.D.m 4.^ ^ z ..x e.( x x ) c c ) c w m.N.d.f f 5 ^ B 2 2 2 2 2 ",
"2 2 5XgX].].].E.[.aX&X[.].].#X[.|.&.[ [ [ D #.r 2 2 2 2 2 2 2 2 2 2 2 2 O.5.4.K.P.T.U.D.2.#.( [ ( ..} ).( v v / c x ^ u ^ h.B.g.f N C [ Z 0 2 2 2 2 ",
"2 2 3X*X[.|.[.[.[.=X&X'.'.`.|. Xw.*.' ] ' v $.7 2 2 2 2 2 2 2 2 2 2 2 2 O.X.4.$XiX>XY.U.7.R _ { ' ] ( (._ 0 x Y y t t e W d.H.s.5 5 6 *.f.2 2 2 2 2 ",
"2 2 3X*X{.&X&X|.&X=X|.E._.E.{._._ _ W Q ! v #.7 2 2 2 2 2 2 2 2 2 2 2 2 / | X.~.+X;XJ.D.y., E R E _ R e.Q 2 w a 9 8 o & I d.H.d.5 5 6 ] B 2 2 2 2 2 ",
"2 0 1X*X'.&X|.|.|.=X&X!.E.E.].@.^ ^ l z ^ v } + 2 2 2 2 2 2 2 2 2 2 2 2 c | 4.m 2.K.K.V.p.: z l l n x w.R 0 0 : & 4 o 4 t g H.d.5 5 3 _ V 2 2 2 2 2 ",
"2 2 3X*X{.&X&X&X&X$X&XE.E.].[.5.5.6.5.5.5.6.} o 2 2 0 2 2 2 2 2 2 2 2 2 l 4.y.a.a.a.a.9.y., 5.5.5.5.5.w...^ / R R R R K R 0 H.g.5 5 e ! w 2 2 2 2 2 ",
"2 2 Q.$XE.W.!.E.!.{.].T.W.].0.5.$.5.$.#.#.#.O.# & & & & & & & * & & # o w 4.4.9.9.9.9.4.4.: 5.5.5.5.5.5.} ^ ) E W R R I R $ d.g.6 6 8 R 9 2 2 2 2 2 ",
"2 2 !.E._.`.`.`.`.`.`.`.`.L.u i l , : X $ 4 X - - ; - - - - ; - ; * * u , , i i z , , z i i i i i i i i a c c t , X # # # # # # # # # $ # # # # O 2 ",
"2 2 `.'. X|. X X X X|. X&X>.-.-.] F K # - e - , , , , , , , , , , : , F  .-.-.=.-.-.=.-.-.-.-.-.-.-.-.-.-.o.o.E R & - - : - - - - - - - - - - - $ 2 ",
"2 2 `.`.|.|.|.|.|.|.|.|.^.' ' ' ' z < $ & 0 R E E E E E E E E E E t : z _ ' ' ' ' ' ' ' ' ' ' ' ' ' ' ' ' [ [ R K o * * - * - * * * * - - * - * # 2 ",
"2 0 !.E.E.E.E.E.E.E.E.E.w q q q : : : X X 4 o o o o o o o o o o o   % , : , : : q q q q q q q q q q q q q l l q 9   o o o o o o o o o o o o o o   2 ",
"2 2 2 2 2 2 2 2 2 2 2 2 2 2 2 2 2 2 2 2 2 2 2 2 2 2 2 2 2 2 2 2 2 2 2 2 2 2 2 2 2 2 2 2 2 2 2 2 2 2 2 2 2 2 2 2 2 2 2 2 2 2 2 2 2 2 2 2 2 2 2 2 2 2 ",
"2 2 2 2 2 2 2 2 2 2 2 2 2 2 2 2 2 2 2 2 2 2 2 2 2 2 2 2 2 2 2 2 2 2 2 2 2 2 2 2 2 2 2 2 2 2 2 2 2 2 2 2 2 2 2 2 2 2 2 2 2 2 2 2 2 2 2 2 2 2 2 2 2 2 ",
"2 2 2 2 2 2 2 2 2 2 2 2 2 2 2 2 2 2 2 2 2 2 2 2 2 2 2 2 2 2 2 2 2 2 2 2 2 2 2 2 2 2 2 2 2 2 2 2 2 2 2 2 2 2 2 2 2 2 2 2 2 2 2 2 2 2 2 2 2 2 2 2 2 2 ",
"2 2 2 2 2 2 2 2 2 2 2 2 2 2 2 2 2 2 2 2 2 2 2 2 2 2 2 2 2 2 2 2 2 2 2 2 2 2 2 2 2 2 2 2 2 2 2 2 2 2 2 2 2 2 2 2 2 2 2 2 2 2 2 2 2 2 2 2 2 2 2 2 2 2 ",
"2 2 2 2 2 2 2 2 2 2 2 2 2 2 2 2 2 2 2 2 2 2 2 2 2 2 2 2 2 2 2 2 2 2 2 2 2 2 2 2 2 2 2 2 2 2 2 2 2 2 2 2 2 2 2 2 2 2 2 2 2 2 2 2 2 2 2 2 2 2 2 2 2 2 ",
"2 2 2 2 2 2 2 2 2 2 2 2 2 2 2 2 2 2 2 2 2 2 2 2 2 2 2 2 2 2 2 2 2 2 2 2 2 2 2 2 2 2 2 2 2 2 2 2 2 2 2 2 2 2 2 2 2 2 2 2 2 2 2 2 2 2 2 2 2 2 2 2 2 2 ",
"2 2 2 2 2 2 2 2 2 2 2 2 2 2 2 2 2 2 2 2 2 2 2 2 2 2 2 2 2 2 2 2 2 2 2 2 2 2 2 2 2 2 2 2 2 2 2 2 2 2 2 2 2 2 2 2 2 2 2 2 2 2 2 2 2 2 2 2 2 2 2 2 2 2 ",
"2 2 2 2 2 2 2 2 2 2 2 2 2 2 2 2 2 2 2 2 2 2 2 2 2 2 2 2 2 2 2 2 2 2 2 2 2 2 2 2 2 2 2 2 2 2 2 2 2 2 2 2 2 2 2 2 2 2 2 2 2 2 2 2 2 2 2 2 2 2 2 2 2 2 ",
"2 2 2 2 2 2 2 2 2 2 2 2 2 2 2 2 2 2 2 2 2 2 2 2 2 2 2 2 2 2 2 2 2 2 2 2 2 2 2 2 2 2 2 2 2 2 2 2 2 2 2 2 2 2 2 2 2 2 2 2 2 2 2 2 2 2 2 2 2 2 2 2 2 2 ",
"2 2 2 2 2 2 2 2 2 2 2 2 2 2 2 2 2 2 2 2 2 2 2 2 2 2 2 2 2 2 2 2 2 2 2 2 2 2 2 2 2 2 2 2 2 2 2 2 2 2 2 2 2 2 2 2 2 2 2 2 2 2 2 2 2 2 2 2 2 2 2 2 2 2 "
};
