/* XPM */
static char *_4719_d6673684520069f8539dac9a7e17c249d41c8687752fabee4f513ef21f87cb01[] = {
/* columns rows colors chars-per-pixel */
"74 74 252 2 ",
"   c #1A1E27",
".  c #181736",
"X  c #271C38",
"o  c #35163D",
"O  c #1C2231",
"+  c #282738",
"@  c #39243A",
"#  c #44273A",
"$  c #482A3E",
"%  c #552833",
"&  c #542C3D",
"*  c #4C3037",
"=  c #54323F",
"-  c #6E2430",
";  c #772C3B",
":  c #68363E",
">  c #7E313A",
",  c #322F4A",
"<  c #362B56",
"1  c #3D3550",
"2  c #363B56",
"3  c #451642",
"4  c #492A44",
"5  c #572C43",
"6  c #553446",
"7  c #5B3341",
"8  c #5F3D4E",
"9  c #4B3650",
"0  c #643443",
"q  c #6B3846",
"w  c #723B43",
"e  c #793947",
"r  c #722751",
"t  c #702C50",
"y  c #374668",
"u  c #30566F",
"i  c #384D73",
"p  c #3C5679",
"a  c #4F505C",
"s  c #69454D",
"d  c #73454F",
"f  c #78594D",
"g  c #674755",
"h  c #774753",
"j  c #6C5559",
"k  c #77585A",
"l  c #536C54",
"z  c #776E50",
"x  c #4D5764",
"c  c #4F526F",
"v  c #535A69",
"b  c #445977",
"n  c #6B5B6D",
"m  c #476679",
"M  c #546E73",
"N  c #58687B",
"B  c #6C6E6F",
"V  c #6A6975",
"C  c #A41A3C",
"Z  c #8A323C",
"A  c #BA2732",
"S  c #FC321A",
"D  c #CA2F32",
"F  c #E53E2C",
"G  c #975130",
"H  c #9A7230",
"J  c #FB4826",
"K  c #F14F2D",
"L  c #EB5225",
"P  c #FB7135",
"I  c #843C49",
"U  c #863E48",
"Y  c #942351",
"T  c #903452",
"R  c #FF2F67",
"E  c #894649",
"W  c #95424C",
"Q  c #954848",
"!  c #985A48",
"~  c #864B54",
"^  c #88585B",
"/  c #915453",
"(  c #AA474F",
")  c #A24F4A",
"_  c #B6554D",
"`  c #BD584F",
"'  c #AC5150",
"]  c #A65B58",
"[  c #8C655B",
"{  c #946556",
"}  c #956F51",
"|  c #A6654A",
" . c #B5684C",
".. c #A8675B",
"X. c #B56E51",
"o. c #B57856",
"O. c #885967",
"+. c #845E7B",
"@. c #BC5662",
"#. c #846974",
"$. c #87787B",
"%. c #967072",
"&. c #A87969",
"*. c #B87663",
"=. c #B37E6B",
"-. c #AF6F74",
";. c #D64D4D",
":. c #C35C4F",
">. c #C75E50",
",. c #CB5E5C",
"<. c #F74E56",
"1. c #CC6E50",
"2. c #EE7156",
"3. c #EA5464",
"4. c #D1726A",
"5. c #F0726B",
"6. c #708D5E",
"7. c #FB8A33",
"8. c #FDA826",
"9. c #B38856",
"0. c #A49E5F",
"q. c #95837D",
"w. c #B7836E",
"e. c #AF8776",
"r. c #CE8755",
"t. c #EF985B",
"y. c #C5AA5D",
"u. c #FFA85E",
"i. c #CB8A73",
"p. c #CE9277",
"a. c #CB937C",
"s. c #D59779",
"d. c #EA856E",
"f. c #EE9976",
"g. c #EB9A7A",
"h. c #F49A79",
"j. c #D3B16D",
"k. c #ECA676",
"l. c #DDD070",
"z. c #FAD273",
"x. c #3E5B83",
"c. c #3E6387",
"v. c #455E85",
"b. c #476789",
"n. c #576786",
"m. c #4A7487",
"M. c #547788",
"N. c #446D94",
"B. c #566F95",
"V. c #477697",
"C. c #6F698F",
"Z. c #667986",
"A. c #74798C",
"S. c #646E99",
"D. c #66719C",
"F. c #5C65A1",
"G. c #717DA1",
"H. c #8F7989",
"J. c #B07783",
"K. c #57838C",
"L. c #588695",
"P. c #568F96",
"I. c #728D8E",
"U. c #638C97",
"Y. c #679897",
"T. c #79939A",
"R. c #6FAF99",
"E. c #4A89AA",
"W. c #4F94B2",
"Q. c #798DA7",
"!. c #7D9EA8",
"~. c #7AA8AC",
"^. c #74BAA4",
"/. c #7AC9AD",
"(. c #898885",
"). c #8F9590",
"_. c #BE958D",
"`. c #AF9091",
"'. c #99A69A",
"]. c #ACAA96",
"[. c #9687A1",
"{. c #8891AA",
"}. c #878CB5",
"|. c #8D93BC",
" X c #9598B9",
".X c #AA92A5",
"XX c #8FAAB1",
"oX c #A5A2AC",
"OX c #ABA3AE",
"+X c #B4A7AF",
"@X c #B9A8AF",
"#X c #AAABBB",
"$X c #B4AAB2",
"%X c #BBABB2",
"&X c #B6B3BA",
"*X c #CF988B",
"=X c #D0948B",
"-X c #D59789",
";X c #EA9A89",
":X c #D1AD91",
">X c #F7A487",
",X c #FCAA83",
"<X c #EDAB92",
"1X c #E9A897",
"2X c #FBB799",
"3X c #C69EA1",
"4X c #D0AEAC",
"5X c #C3ADB2",
"6X c #CBAEB5",
"7X c #CDB2B3",
"8X c #C6B5B8",
"9X c #D3B2B5",
"0X c #D7BAB7",
"qX c #EDB8A5",
"wX c #E2BBB6",
"eX c #E8BDB7",
"rX c #87D3B3",
"tX c #A7C6A8",
"yX c #FFE482",
"uX c #FFF08D",
"iX c #CCC6A7",
"pX c #FBC8AA",
"aX c #EEC7B4",
"sX c #F9D6B9",
"dX c #FFEABC",
"fX c #969BC3",
"gX c #9CA1C7",
"hX c #9DA3C8",
"jX c #8EBEC4",
"kX c #A6ABC7",
"lX c #ACB3CA",
"zX c #B3B9CB",
"xX c #BABBC9",
"cX c #B7BDD2",
"vX c #CEBFC8",
"bX c #ACC1CF",
"nX c #B4C5CC",
"mX c #BCC3D3",
"MX c #AFECC7",
"NX c #CCD3D4",
"BX c #E3CCC4",
"VX c #E6D8C6",
"CX c #F6DBC3",
"ZX c #DAE3DB",
"AX c #FAE7C9",
"SX c #E4EBDB",
"DX c #F2EFD2",
"FX c #FBF3D4",
"GX c #F8F8DB",
"HX c #C3EAE7",
"JX c #EBF6E1",
"KX c #F6FEE6",
/* pixels */
"1 1 1 1 1 1 1 1 1 1 1 1 1 1 1 1 1 1 1 1 1 1 1 1 1 1 1 1 1 1 1 1 1 1 1 1 1 1 1 1 1 1 1 1 1 1 1 1 1 1 1 1 1 1 1 1 1 1 1 1 1 1 1 1 1 1 1 1 1 1 1 1 1 1 ",
"1 1 1 1 1 1 1 1 1 1 1 1 1 1 1 1 1 1 1 1 1 1 1 1 1 1 1 1 1 1 1 1 1 1 1 1 1 1 1 1 1 1 1 1 1 1 1 1 1 1 1 1 1 1 1 1 1 1 1 1 1 1 1 1 1 1 1 1 1 1 1 1 1 1 ",
"1 1 1 1 1 1 1 1 1 1 1 1 1 1 1 1 1 1 1 1 1 1 1 1 1 1 1 1 1 1 1 1 1 1 1 1 1 1 1 1 1 1 1 1 1 1 1 1 1 1 1 1 1 1 1 1 1 1 1 1 1 1 1 1 1 1 1 1 1 1 1 1 1 1 ",
"1 1 1 1 1 1 1 1 1 1 1 1 1 1 1 1 1 1 1 1 1 1 1 1 1 1 1 1 1 1 1 1 1 1 1 1 1 1 1 1 1 1 1 1 1 1 1 1 1 1 1 1 1 1 1 1 1 1 1 1 1 1 1 1 1 1 1 1 1 1 1 1 1 1 ",
"1 1 1 1 1 1 1 1 1 1 1 1 1 1 1 1 1 1 1 1 1 1 1 1 1 1 1 1 1 1 1 1 1 1 1 1 1 1 1 1 1 1 1 1 1 1 1 1 1 1 1 1 1 1 1 1 1 1 1 1 1 1 1 1 1 1 1 1 1 1 1 1 1 1 ",
"1 1 1 1 1 1 1 1 1 1 1 1 1 1 1 1 1 1 1 1 1 1 1 1 1 1 1 1 1 1 1 1 1 1 1 1 1 1 1 1 1 1 1 1 1 1 1 1 1 1 1 1 1 1 1 1 1 1 1 1 1 1 1 1 1 1 1 1 1 1 1 1 1 1 ",
"1 1 1 1 1 1 1 1 1 1 1 1 1 1 1 1 1 1 1 1 1 1 1 1 1 1 1 1 1 1 1 1 1 1 1 1 1 1 1 1 1 1 1 1 1 1 1 1 1 1 1 1 1 1 1 1 1 1 1 1 1 1 1 1 1 1 1 1 1 1 1 1 1 1 ",
"1 1 1 1 1 1 1 1 1 1 1 1 1 1 1 1 1 1 1 1 1 1 1 1 1 1 1 1 1 1 1 1 1 1 1 1 1 1 1 1 1 1 1 1 1 1 1 1 1 1 1 1 1 1 1 1 1 1 1 1 1 1 1 1 1 1 1 1 1 1 1 1 1 1 ",
"1 1 1 1 1 1 1 1 1 1 1 1 1 1 1 1 1 1 1 1 1 1 1 1 1 1 1 1 9 - - - - 8 1 1 1 1 1 1 1 1 1 1 1 1 1 1 1 1 1 1 1 1 1 1 1 1 1 1 1 1 1 1 1 1 1 1 1 1 1 1 1 1 ",
"1 1 1 1 1 1 1 1 1 1 1 1 1 1 1 1 1 1 1 1 1 1 1 1 1 1 1 < h F F K F A t 1 1 1 1 1 1 1 1 1 1 1 1 1 1 1 1 1 1 1 1 1 1 1 1 1 1 1 1 1 1 1 1 1 1 1 1 1 1 1 ",
"1 1 1 1 1 1 1 1 1 1 1 1 1 1 1 1 1 1 1 1 1 1 1 1 1 1 1 I 4.7XsXpXaX3.D I 2 1 1 1 1 1 1 1 1 1 1 1 1 1 1 1 1 1 1 1 1 1 1 1 1 1 1 1 1 1 1 1 1 1 1 1 1 1 ",
"1 1 1 1 1 1 1 1 1 1 1 1 1 1 1 1 1 1 1 1 1 1 1 1 1 1 ( =XDXJX2X2XGXAXqXD t 1 1 1 1 1 1 1 1 1 1 1 1 1 1 1 1 1 1 1 1 1 1 1 1 1 1 1 1 1 1 1 1 1 1 1 1 1 ",
"1 1 1 1 1 1 1 1 1 1 1 1 1 1 1 1 1 1 1 1 1 1 1 1 1 ~ 3XAXFXpXK h.DXFXFX;XA 1 1 1 1 1 < 1 1 1 1 1 1 1 1 1 1 1 1 1 1 1 1 1 1 1 1 1 1 1 1 1 1 1 1 1 1 1 ",
"1 1 1 1 1 1 1 1 1 1 1 1 1 1 1 1 1 ; ; > ; E > Z > -.SXsXsXd.S >XdXpXFXAX3.Z > Z > > Z e e 1 1 1 1 1 1 1 1 1 1 1 1 1 1 1 1 1 1 1 1 1 1 1 1 1 1 1 1 1 ",
"1 1 1 1 1 1 1 1 1 1 1 1 1 1 1 1 2 ( J.e.-X*X-X-X-XBXKXFXFX,X2.sXFXGXKXKXqX;X-Xa.J.=X-.J.C 2 9 1 1 1 1 1 1 1 1 1 1 1 1 1 1 1 1 1 1 1 1 1 1 1 1 1 1 1 ",
"1 1 1 1 1 1 1 1 1 1 1 1 1 1 1 1 9 ,.VXAXDXVXFXFXFXKXKXsXFXFXdXKXKXKXKXKXGXFXFXDXVXFXVXVX;.9 1 1 1 1 1 1 1 1 1 1 1 1 1 1 1 1 1 1 1 1 1 1 1 1 1 1 1 1 ",
"1 1 1 1 1 1 1 1 1 1 1 1 1 1 1 x a ,.sXDXFX4XKXAXsXAXFX2XCXsXKXVXCXpXFXCXAXsXFXAXFXsXsXsX;.4 1 1 1 1 1 1 9 1 1 1 1 1 , 1 1 1 1 1 1 1 1 1 1 1 1 1 1 1 ",
"1 1 1 1 1 1 1 1 1 1 1 1 1 1 Y.Y.I.,.d.qXaX*XqX1X<X1X;XpX1XqXKXqXsXd.pX>X2Xd.2XqX>Xh.2Xd.;.M Y.Y.Y.Y.Y.Y.Y.Y.Y.Y.Y.Y.Y.Y.R.m 1 1 1 1 1 1 1 1 1 1 1 1 ",
"1 1 1 1 1 1 1 1 1 1 1 1 1 b Y.^.I.,.4.5.qX-X>X-X;X;X2.sXd.5.GX-XaX4.qX4.;X2.d.1Xd.5.2X5.<.6./.R.R./.^.R.^.^.R.R./.^.^.R.P.c.y , 1 1 1 1 1 1 1 1 1 1 ",
"1 1 1 1 1 1 1 1 1 1 1 1 1 M M m l ,.;X1XCX=XsXqXqXaX1XsX>X5.DXqXeXqXaX;XqX1X<XaXpX;X2XqX;.v m.m.6.P.m.m P.K.M M P.M R.P.u 2 , N 1 1 1 1 1 1 1 1 1 1 ",
"1 1 1 1 1 1 1 1 1 1 1 9 R.R.y p b ,.4X4XBX4XAXsXsXAXAXsXpXaXAXsXCXCXCXsXCXsXAXAXCXsX4X0X;.+ p x.V.u p b.M.b b.M.p N./.Y., q , p n.9 1 1 1 1 1 1 1 1 ",
"1 1 1 1 1 1 1 1 1 1 1 U./.Y.p V.N ( J.`.=X_.*X=X*X-X*X*X*X*X*X*X=X=X*X=X*X*X*X*X-X1X=...C , x.L.m.x.N.P.b b.K.M.b ^.rXp $ d 4 y b < 1 1 1 1 1 1 1 1 ",
"1 1 1 1 1 1 1 1 1 1 1 R.^.b b.L.m j q.(.$.B $.#.(.H.#.(.#.(.(.$.q.#.H.q.$.q.$.q.q.'.: % % i V.K.p N.L.m p B.K.b Y./.P.+ q 7 w 1 i B.1 1 1 1 1 1 1 1 ",
"1 1 1 1 1 1 1 1 1 9 Y./.M.p L.m p m.M.U.U.n.U.M.P.Y.b.U.M.U.U.M.P.m.L.P.B.Y.K.K.P.R.+   2 N.L.b x.V.M.p b.L.M m./.^.1 & e e 6 q 2 i 1 1 1 1 1 1 1 1 ",
"1 1 1 1 1 1 1 1 1 T./.Y.p L.M.p b.V.2 v.S.C.D.S.D.D.y D.F.D.D.S.G.c F.S.S.S.S.S.Z.y O O p L.m.p N.L.b v.L.M.n.^./.m q t I W 4 w 6 y b 1 1 1 1 1 1 1 ",
"1 1 1 1 1 1 1 1 1 R.^.p N.L.p b.V.M., C.}.{.}.}. XzXx {.}.}.}. XzXN {.}.}.}. X X'.+ O y V.L.i b.L.m x.m.K.b Y.rXK.8 I q U W q & E < i n.1 1 1 1 1 1 ",
"1 1 1 1 1 1 1 1 V rXM m L.N m B.U.c 2 A.A.A.A.A.).].v A.A.A.A.).].M A.A.A.A.'.'.(., 2 n.U.m n.M.U.c B.U.M n.rXR.2 s h e / / h q q d y b 1 1 1 1 1 1 ",
"1 1 1 1 1 1 1 T.R.I.N Z.Z.N Z.M.N N m a x M x x x v a x x x x v x x x v x a v v x c N K.K.N Z.Z.N M.K.Z.V I.T.B j j O.k O.O.O.k a ^ j v n.1 1 1 1 1 ",
"1 1 1 1 1 1 Q.^.^.p V.P.p b.L.m p N.m.y x.b.p i c.N.y x.N.i i x.N.y c.N.p i x.m.y x.N.K.i b.L.m v.V.K.b U.rXN q I e U q T E I I 5 w e 1 i 1 1 1 1 1 ",
"1 1 1 1 1 1 U.MXm.b.c.m c.N.L.p N.V.m.b.N.m.p N.c.m.c.V.L.p N.V.m.c.V.P.b N.V.K.x.N.V.p N.V.V.x.V.V.p B.MXrX9 W I 0 0 0 T U q I q T $ E , i 1 1 1 1 ",
"1 1 1 1 1 1 I.MXV.W.c.E.W.W.c.W.W.E.V.W.W.b.E.W.E.E.E.W.c.E.W.V.c.W.W.c.W.W.E.c.W.W.c.E.W.E.N.E.W.c.E.P.MX'.9 q 0 # $ # e 7 $ e # q X W . c.1 1 1 1 ",
"1 1 1 1 1 1 6.tXI.{.B ~.!.Q.T.!.{.I.T.~.T.V {.!.V ~.!.!.V ~.~.Z.T.~.!.A.!.!.I.!.!.!.V !.!.I.T.~.~.V !.).tXI.8 5 5 & & & 5 = = & * 6 5 0 , c.1 1 1 1 ",
"1 1 1 1 1 1 c s.2Xg.h.h.f.f.>Xh.f.f.h.f.f.s.f.f.f.>Xf.g.,Xk.g.g.>Xf.t.,Xh.g.g.,Xt.k.g.g.f.f.h.f.f.g.k.4.4.] X.,.:.>.:.:.:.:.:.:.:.:.:._ 0 C.1 1 1 1 ",
"1 1 1 1 1 1 C.i.s.p.s.s.p.p.p.s.p.s.s.s.p.a.g.k.k.a.a.=Xj.s.:X:Xp.p.s.j.k.s.p.s.s.p.p.s.s.s.p.p.s.s.s.s.*.w.=.....Q Q Q Q Q Q Q Q Q Q ) g 1 1 1 1 1 ",
"1 1 1 1 1 1 1 j h > G G ; > H G ; > G G ; h { 7.| x 8 Y 6.l L.V G h T 6.0.O.: G G Z > G G > - G G - t ] 0 1 1 X X X . X X X O X X X X q v 1 1 1 1 1 ",
"1 1 1 1 1 1 1 &.` L 7.L A L 7.K A F 7.P C T =.H l W.~ <.l + u [ 8.) R 6.0.f.D 7.P A D 7.P D D 7.7.A Y d.Q + 1 X . X . O X # + . X 5 X ` n.< 1 1 1 1 ",
"1 1 1 1 1 1 1 ..<.dXdX<.<.AXdX<.<.dXdX<.Y t &.. o c o Y o . X o > o r o g <.sXFX5.R sXdX<.<.pXFX5.C r 5.Q 9 h 0 e q # & q E e # : 7 = >.{.1 1 1 1 1 ",
"1 1 1 1 1 1 1 ..J yXyXJ J yXz.J J yXz.J Y 8 ..3 2 1 1 , 1 1 1 1 1 1 1 1 ^ K z.uXK S z.uXP S z.uXP C 5 d.! 6 h e I 5 q 5 I T e q & !  .s.xX1 1 1 1 1 ",
"1 1 1 1 1 1 1 ..L z.z.K K yXz.J K yXyXK r d &.3 1 1 1 1 1 1 1 1 1 1 1 1 -.>.y.z.P S z.uXK S z.z.2.C 8 d.) 9 s U e 0 U 0 I ( e e 5 X.w.eXxX1 1 1 1 1 ",
"1 1 1 1 1 1 1 &.E 9.OX-.H.:XOX-.-.iX4X4XT ^ *.3 1 1 1 1 1 1 1 1 1 1 1 1 e.1.{ '..X@.oX:X.X,.&XiXwX( ~ f.) 0 s I I  .:.` ` :.:.0 5 k.OXeXxX1 1 1 1 1 ",
"1 1 1 1 1 1 1 &.^ n  X X XfX X XxXkXNXNX+.^ *.3 1 1 1 1 1 1 1 1 1 1 1 1 =.s./  XfX}.gX XfXkXkXxXSXH.Q h.) 8 d W I  .>.O.O.O.>.t j sXoXeXxX1 1 1 1 1 ",
"1 1 1 1 1 1 1 &...n fXfXgXfXgXcXkXNXJXkXH.{ =.3 1 1 1 1 1 1 1 1 1 1 1 1 e.g...#XgXfXgXfXcXcXcXSXmX[...,X) 8 8 W e | >.F.F.F.2.~ 5X0XoXwXxX1 1 1 1 1 ",
"1 1 1 1 1 1 1 &.-.#.fXfXgXgXcXcXzXSXNXfXH.[ =.3 1 1 1 1 1 1 1 1 1 1 1 1 %.a.&.fXhXhXgXkXmXlXZXZXkXH...,X) 8 8 W e | >.F.F.F.t.@X7X7XoXeXxX1 1 1 1 1 ",
"1 1 1 1 1 1 1 &.{ #.fXhXgXkXcXzXZXZXhXfXH.^ =.3 1 1 1 1 1 1 1 1 1 1 1 1 O.-Xo.}.hXfXhXvXlXNXSXkXhX}.{ ,X) 8 s W e ! >.C.C.G.qX+XaX7XoXeXxX1 1 1 1 1 ",
"1 1 1 1 1 1 1 &.[ #.fXhXhXmXlXNXSXzXhXfXH.k w.3 1 1 1 1 1 1 1 1 1 1 1 1 ^ s.o.}.fXhXcXcXcXJXNXgXhX[.{ ,X) 8 8 T w ! T H.H.$XwXOXeX5XoXeXxX1 1 1 1 1 ",
"1 1 1 1 1 1 1 &.[ #.fXfXcXcXmXJXmXkXhXfXH.k =.3 1 1 1 1 1 1 1 1 1 1 1 1 O.s.*.Q.hXkXcXlXJXNXkXfXhX[.{ ,X) 8 8 W e Q % F.OXvXvX+X9X6XoXeXxX1 1 1 1 1 ",
"1 1 1 1 1 1 1 &.[ #.fXlXcXcXSXNXkXhXhXfXH.k w.3 1 1 1 1 1 1 1 1 1 1 1 1 ^ g.o.fXhXmXlXNXZXlXfXhXhX[.! ,X) 8 8 W I | ( hXcXvXeX@X@X9XoXeXxX< 1 1 1 1 ",
"1 1 1 1 1 1 1 &.[ V fXmXlXNXZXkXhXhXhXhX%.k =.3 1 1 1 1 1 1 1 1 1 1 1 1 ^ s.9.}.cXcXNXJXcXhXhXhXgX[.{ ,X) 8 8 W e | =XcXcXcXeX6X@X9XoXeXxX1 1 1 1 1 ",
"1 1 1 1 1 1 1 &.[ #.lX#X#XSXnXhXfXfXhXfXH.j w.3 1 1 1 1 1 1 1 1 1 1 1 1 [ s.o.{.&X#XVXnX X|. XgXgX[.[ ,X) 8 8 W I =XeXvXvXvX6X9X+X9XoXeXxX1 1 1 1 1 ",
"1 1 1 1 4 B N ^ j n {.A.$.#XfX|.fX|.fX}.A.j =.3 1 1 1 1 1 1 1 1 1 1 1 1 ^ s.| %.q.q.e.`.%.#.G.|.|.H.f ,X) 8 8 W -.7X0X0XwX0X5X6X+X9XoXeXxX1 1 1 1 1 ",
"1 1 1 1 %.! g M N v n o.E H._._.*X_._._...j w.3 1 1 1 1 1 1 1 1 1 1 1 1 ^ g.9.f 0.z z z f } $._._.e.f ,X) 8 h -.8X5X9X%X9X9X@X%X%X9XoXwXxX1 1 1 1 1 ",
"1 1 1 1 r./ $.XXjXV / 1.E | t.t.t.t.t.t.r.k =.3 1 1 1 1 1 1 1 1 1 1 1 1 O.k.y.j | l l l l 1.X.t.t.t.^ ,X' 8 #.9X5X%X9X+X6X6XOXOX@X7XoXaXxX1 1 1 1 1 ",
"1 1 1 `. .E ).aX&X%.i.' E !  .! 1.1.|  . .j =.3 1 1 1 1 1 1 1 1 1 1 1 1 ^ ;Xj.z u.(.$.K.6.o.! | | 1.s k.' k %X9X6X5X9X%X5XxX&XlX#X&XoX7XxX1 1 1 1 1 ",
"1 1 A.:X/ / %.%.&.e.i./ ~ ~ ~ d ] ] d / / n =.5 1 1 1 1 1 1 1 1 1 1 1 1 [ a.y.[ l.OX.X{.l o.~ ~ d ] j ;X..&XxX9X8X8X9X8X5XmXnXnX&XlXlX8XxX1 1 1 1 1 ",
"1 1 V k.~ ~ s j { w.*.~ ~ ~ ] ] @...] ] ] j &.9 1 1 1 1 1 1 1 1 1 1 1 1 O.e.w.).]. X{.Q.6.&./ ] ] ..{ ;X9X8X8X0XvX%X9X&X9XbXMXcXzX&X&X0XnX9 1 1 1 1 ",
"1 1 v u.E  .! !  .1.1.I e q :._ ` :._ ` ' j =.3 1 1 1 1 1 1 1 1 1 1 1 1 k 9.1.iXVXkX|.{.0.E ) _ ( ` ] CX0X&X8X6X5X@X5X$X9XcXHXcX#XlX#XwXxX1 1 1 1 1 ",
"1 1 n u.U 1. .1.1.r. .5 q & Q Q ) ) Q Q Q g &.3 1 1 1 1 1 1 1 1 1 1 1 1 ^ } X.'.tXgX|.Q.l.: E U U ] @XCX9X$X%X5X@X+XOXOX6XbXHXbX#X#XlXwXxX1 1 1 1 1 ",
"1 1 n u.U 1.>.>.1.1.X.# q 6 ~ d ~ ~ s d h k O.o 1 1 1 1 1 1 1 1 1 1 1 1 d } 9.l 6.R.).I.j.& d s s _.8XBX7X$X&X&XOX+XOX+X5XzXHXzX#XlX#X0XxX1 1 1 1 1 ",
"1 1 v t.W 1.1.X. .o. .* 0 k w.w.w.w.w.w.w.e.{ X 1 1 1 1 1 1 9 1 1 1 1 1 : 0.j.j.l.y.l.y.j.s w.w.4XBXBXBX0X0X8X7X6X9X7X7X7X$XHXbXkX#X%X9X5X1 1 1 1 1 ",
"1 1 a X.= * * * * G E @ 5 ^ =.w.w.=.w.&.w.&.[ @ # # # # # # # # @ # @ X s } y.y.y.0.y.9.9.: w.:XBXBXBXVX0X8X0X9X9X6X7X7X7X+XbXnX#X#X$X9X@X1 1 1 1 1 ",
"1 1 4 7 d > s : d > : d w w w w d : * X @ 1 X % % & % & % & & % & * $ 5 : : > d w w w w w w %.5X5X8X5X5X%X8X8X5X%XoXOXOXOXOXOXOXOXOXOXOXOXOXOXOX1 1 ",
"1 1 w w >.>.>.>.>.>.>.>.>.>.>.>.` > E @ & 6 * : : : : q : : : q : 5 0 G | >.>.>.>.,.>.>.>.-XeXeXeXeXeXeXaXwXwX7X9XOX%X@X%X%X@X@X@X@X@X@X@X@X@X@XH.1 ",
"1 1 q w _ _ _ _ _ _ _ _ _ _ _ _ ' e G @ $ 4 E E Q Q W Q Q E E Q W : = d ) _ _ _ _ _ _ _ 4.0XwXwXwXwXwXwXwXwXwX9X7XOX@X+X+X@X@X+X+X@X@X@X@X@X+X.X@ 1 ",
"1 1 # = 7 7 = : = = 7 7 7 7 7 = 7 5 , . X , @ X X X X X @ X X X X . @ 7 = : = = 7 7 7 k %X%X%X@X%X%X@X%X%X5X&X@X@XoXOXoXoXOXoXoXoXoXoXOXoXoX'.9 . 1 ",
"1 1 1 1 1 1 1 1 1 1 1 1 1 1 1 1 1 1 1 1 1 1 1 1 1 1 1 1 1 1 1 1 1 1 1 1 1 1 1 1 1 1 1 1 1 1 1 1 1 1 1 1 1 1 1 1 1 1 1 1 1 1 1 1 1 1 1 1 1 1 1 1 1 1 ",
"1 1 1 1 1 1 1 1 1 1 1 1 1 1 1 1 1 1 1 1 1 1 1 1 1 1 1 1 1 1 1 1 1 1 1 1 1 1 1 1 1 1 1 1 1 1 1 1 1 1 1 1 1 1 1 1 1 1 1 1 1 1 1 1 1 1 1 1 1 1 1 1 1 1 ",
"1 1 1 1 1 1 1 1 1 1 1 1 1 1 1 1 1 1 1 1 1 1 1 1 1 1 1 1 1 1 1 1 1 1 1 1 1 1 1 1 1 1 1 1 1 1 1 1 1 1 1 1 1 1 1 1 1 1 1 1 1 1 1 1 1 1 1 1 1 1 1 1 1 1 ",
"1 1 1 1 1 1 1 1 1 1 1 1 1 1 1 1 1 1 1 1 1 1 1 1 1 1 1 1 1 1 1 1 1 1 1 1 1 1 1 1 1 1 1 1 1 1 1 1 1 1 1 1 1 1 1 1 1 1 1 1 1 1 1 1 1 1 1 1 1 1 1 1 1 1 ",
"1 1 1 1 1 1 1 1 1 1 1 1 1 1 1 1 1 1 1 1 1 1 1 1 1 1 1 1 1 1 1 1 1 1 1 1 1 1 1 1 1 1 1 1 1 1 1 1 1 1 1 1 1 1 1 1 1 1 1 1 1 1 1 1 1 1 1 1 1 1 1 1 1 1 ",
"1 1 1 1 1 1 1 1 1 1 1 1 1 1 1 1 1 1 1 1 1 1 1 1 1 1 1 1 1 1 1 1 1 1 1 1 1 1 1 1 1 1 1 1 1 1 1 1 1 1 1 1 1 1 1 1 1 1 1 1 1 1 1 1 1 1 1 1 1 1 1 1 1 1 ",
"1 1 1 1 1 1 1 1 1 1 1 1 1 1 1 1 1 1 1 1 1 1 1 1 1 1 1 1 1 1 1 1 1 1 1 1 1 1 1 1 1 1 1 1 1 1 1 1 1 1 1 1 1 1 1 1 1 1 1 1 1 1 1 1 1 1 1 1 1 1 1 1 1 1 ",
"1 1 1 1 1 1 1 1 1 1 1 1 1 1 1 1 1 1 1 1 1 1 1 1 1 1 1 1 1 1 1 1 1 1 1 1 1 1 1 1 1 1 1 1 1 1 1 1 1 1 1 1 1 1 1 1 1 1 1 1 1 1 1 1 1 1 1 1 1 1 1 1 1 1 ",
"1 1 1 1 1 1 1 1 1 1 1 1 1 1 1 1 1 1 1 1 1 1 1 1 1 1 1 1 1 1 1 1 1 1 1 1 1 1 1 1 1 1 1 1 1 1 1 1 1 1 1 1 1 1 1 1 1 1 1 1 1 1 1 1 1 1 1 1 1 1 1 1 1 1 ",
"1 1 1 1 1 1 1 1 1 1 1 1 1 1 1 1 1 1 1 1 1 1 1 1 1 1 1 1 1 1 1 1 1 1 1 1 1 1 1 1 1 1 1 1 1 1 1 1 1 1 1 1 1 1 1 1 1 1 1 1 1 1 1 1 1 1 1 1 1 1 1 1 1 1 "
};
