/* XPM */
static char *_323_9393ecfbca5a9c6b44328d5a4f8f2e9f588ff80fe6613b3de4777ebe92b69212[] = {
/* columns rows colors chars-per-pixel */
"74 74 66 1 ",
"  c #85345C",
". c #89365B",
"X c #9F3E53",
"o c #A63C4A",
"O c #A93E4B",
"+ c #A7404D",
"@ c #AD434E",
"# c #B1454D",
"$ c #B8464D",
"% c #B9494F",
"& c #A64151",
"* c #B04750",
"= c #B34A51",
"- c #BC4B50",
"; c #BC5456",
": c #BE5758",
"> c #C24B4F",
", c #CE4E4F",
"< c #C44E51",
"1 c #C94F50",
"2 c #C65254",
"3 c #CD5253",
"4 c #CE5957",
"5 c #C25B5A",
"6 c #CB5D5A",
"7 c #D25553",
"8 c #D45955",
"9 c #D35E59",
"0 c #C7625E",
"q c #CC635E",
"w c #D4635C",
"e c #D9665D",
"r c #DA695F",
"t c #CC6760",
"y c #CE6962",
"u c #D16C63",
"i c #DB6E62",
"p c #D67266",
"a c #DC7365",
"s c #D77568",
"d c #DD7768",
"f c #DF796A",
"g c #E27E6D",
"h c #E3826E",
"j c #E48570",
"k c #E98771",
"l c #E68B73",
"z c #E88872",
"x c #E79176",
"c c #E89377",
"v c #E99578",
"b c #EB9D7D",
"n c #ECA27E",
"m c #EEA580",
"M c #EFA982",
"N c #F2B188",
"B c #F5BB8D",
"V c #FAC794",
"C c #FBCA97",
"Z c #FBCC98",
"A c #FDD19B",
"S c #FCD9A6",
"D c #FEE9B6",
"F c #FFEDBA",
"G c #FFF0BD",
"H c None",
/* pixels */
"HDDFSVCCCCCCCCCAmifggggHHHHHHHHHHHHHHHHHHHHHHHHHHHHHHHHHHHHHHHHHHHHHHHHHHH",
"HDDFSVCCCCZCCCCAmgfggggHHHHHHHHHHHHHHHHHHHHHHHHHHHHHHHHHHHHHHHHHHHHHHHHHHH",
"DDDFSVCCZCCCCCVAmigggggHHH..X**O*O**@@**@377HH##OujgghhggggjggggggghaO##HH",
"FFFGSVCCCCCCCCCAmggggggHH.. X$O****O@#@@@377HH@*Ouhgggggghgghgghghghp+@@HH",
"SSSSAVCCCCCCCCCAmagggjgHH.. X*O*O**O@@*@@37,HHO@ouhggghggggggghgggghuo@OHH",
"VVCVCCCCCCCCCCVAmigggggHH&OXOO*O*@#**@@@+adgHHppufhgggggggjgggggghgggpppHH",
"CCCCCCCCCZCCCCVAmgjgggjHH********OO**@*O@fhhHHhhhggghggggggggjhgggggghhhHH",
"CCCCCCCCCCCCCCCAbggggggHH=O**OO*#***O@#*+dhgHHhhhggggghggggggggggghgggghHH",
"CCCCCCCZZCCCCCVAbggggggHH@@@@@@@OO**@@**@dggHHgfgggggggggggggggghggggfgfHH",
"CCZCCCCCCZCCVCZAmdgggggHH.. X#@@***O@@@@@377HH@#Ougggggggjgjgggkggghp@#@HH",
"CCCCCCCCCCCCZBNBvggjgggHH.. X#@@***O@#@@@377HH@@OujgjgjggggggggghgghpO@@HH",
"CCCCCZCCCCCVZNvmlggggggHH.. X#@@OO#*@*@@@377HH@@OujgggggggggggggggghpO@@HH",
"ZCCZCCCCCCZZABbMlggggggHHHHHHHHHHHHHHHHHHHHHHHHHHHHHHHHHHHHHHHHHHHHHHHHHHH",
"CCCCCCCCCZBNBmlljgggghgHHHHHHHHHHHHHHHHHHHHHHHHHHHHHHHHHHHHHHHHHHHHHHHHHHH",
"CCCCVVCCCZNvnlfggggggjgHHHHHH.. 387ajgggggggghggggggg=@@HH@*Opkg977HHHHHHH",
"AAAZAAAAAABnMxggggggggjHHHHHH.. 287gggggggghggggggggg=@@HH@*Oigjw77HHHHHHH",
"mmmmmmmmvmckljgggggggggHHHHHH   1,,gggggggggghgghgggg#OOHHO@ouhg837HHHHHHH",
"aadgigiiggggfgjggggggggHHHHHH&&oigggggjgggggggghggghgsssHHsapggggdgHHHHHHH",
"ggjgggggghjgggggggggjgjHHHHHH*#@djgggggggjgjgggghggggjgjHHhjhggghghHHHHHHH",
"ggggggggggggggggggjiweiHHHHHH@@@dgggggggggggghggggggggggHHggggggghgHHHHHHH",
"gggggggggggggggggghw,73HHHHHH@@+sgggggggggggghghgggggfffHHggggggfffHHHHHHH",
"ggggggggjggggggjgggi777HHHHHH.. 187aggjgggjggggghgggg=@@HH,77agh;O@HHHHHHH",
"gjjggggggggjggggggje777HHHHHH.. <87dgggjgggghgghggghh*@@HH77,igj;O@HHHHHHH",
"HHHHHHHHHHHHHHHHHHHHHHHHHHHHH.. 287dggggggggggggggggg=+#HH777ggj:+@HHHHHHH",
"HHHHHHHHHHHHHHHHHHHHHHHHHHHHHHHHHHHHHHHHHHHHHHHHHHHHHHHHHHHHHHHHHHHHHHHHHH",
"HHHHHHHHHHHHHHHHHHHHHHHHHHHHHHHHHHHHHHHHHHHHHHHHHHHHHHHHHHHHHHHHHHHHHHHHHH",
"HH...XO**O=*@@#*@#@OOOO============*@*HH@#+2888888888888#@@HHHHHHHHHHHHHHH",
"HH...X*****O@OOOOo@5::;dgggghfgfggg=@@HH@#Ouhghgfhhhfggg=@@HHHHHHHHHHHHHHH",
"HH   X*OOOO@o:utytukkjhgggggggggggj=O@HH@@oyhggghhgggggg=+@HHHHHHHHHHHHHHH",
"HH227OO--dddsgjjjhhgggggggggggggggg433HH333phggggggggggh433HHHHHHHHHHHHHHH",
"HH87820gggjgggggggggggggggggggggggf977HH787ahggggggggggg877HHHHHHHHHHHHHHH",
"HH887fjgggggggggggggggggggggggggggj877HH77,ihggggggggggg777HHHHHHHHHHHHHHH",
"HH877dhgghgghggggjhfgfghhhhjhhhgggh887HH787ahgcbbbbbbvfg877HHHHHHHHHHHHHHH",
"HH<2>ahgggghgggggffhllvmnmnnnmvgggh2>2HH<2>ihdvMnMnnMbgh2<2HHHHHHHHHHHHHHH",
"HH+@ophggggggggglvxnMmmnmnmnmmvfggh=O@HH@@oyjghzlzlllkgg@+@HHHHHHHHHHHHHHH",
"HH@#Ophghggghggghjkjhhjhhhhhjhhgggh=@#HH@@Oyjggggggggggh=@@HHHHHHHHHHHHHHH",
"HHH#Oahgggghhggghgggggggfgggggggggj=+#HHH#Ouhghhhghghggg=@@HHHHHHHHHHHHHHH",
"HHHHHHHHHHHHHHHHHHHHHHHHHHHHHHHHHHHHHHHHHHHHHHHHHHHHHHHHHHHHHHHHHHHHHHHHHH",
"HHHHHHHHHHHHHHHHHHHHHHHHHHHHHHHHHHHHHHHHHHHHHHHHHHHHHHHHHHHHHHHHHHHHHHHHHH",
"HHHHHHHHHHHHHHHHHHHHHHHHHHHHHHHHHHHHHHHHHHHHHHHHHHHHHHHHHHHHHHHHHHHHHHHHHH",
"HH#@@wiiiiiiiipiiia2+@HHH@#+6aiiiiiirpraaiirg4o@@HHHHHHHHHHHHHHHHHHHHHHHHH",
"HH+@oskjhjhjhhhhhhz5o@HHH@@oykhhhhhhhhhhhhhhlqo@+HHHHHHHHHHHHHHHHHHHHHHHHH",
"HH-%$agffggffffggfkq%%HHH-%$uhgghggfggggfghhhr$%-HHHHHHHHHHHHHHHHHHHHHHHHH",
"HH887dhggjvvvvvhfghr78HHH877igggfjvvccccccfghi788HHHHHHHHHHHHHHHHHHHHHHHHH",
"HH877djjglMmmMnghgjr77HHH887ikhhfxMMmMmmnnghhi777HHHHHHHHHHHHHHHHHHHHHHHHH",
"HH<<<eiifkcxvcxgdia9>1HHH<<>wiidgjvccccxvcgriw>1<HHHHHHHHHHHHHHHHHHHHHHHHH",
"HH@@o171agfgfgghe,7%+@HHH@+O%7,ihgffggfgggr,7>++@HHHHHHHHHHHHHHHHHHHHHHHHH",
"HH@@@38,dhggggghr,8-@@HHH@#@<87ihghggggghhp781@@@HHHHHHHHHHHHHHHHHHHHHHHHH",
"HHH@@377djggghgjr78-+#HHHH@+<87ihgggghggghi782+@HHHHHHHHHHHHHHHHHHHHHHHHHH",
"HHHHHHHHHHHHHHHHHHHHHHHHHHHHHHHHHHHHHHHHHHHHHHHHHHHHHHHHHHHHHHHHHHHHHHHHHH",
"HHHHHHHHHHHHHHHHHHHHHHHHHHHHHHHHHHHHHHHHHHHHHHHHHHHHHHHHHHHHHHHHHHHHHHHHHH",
"HHHHHHHHHHHHHHHHHHHHHHHHHHHHHHHHHHHHHHHHHHHHHHHHHHHHHHHHHHHHHHHHHHHHHHHHHH",
"iaiiiiiiiiiiiiiiiiiiae783+#@HHHHHHHHHHHHHHHHHHHHHHHHHHHHHHHHHHHHHHHHHHHHHH",
"gjjjgjggjhjghjhjhhhhhd,7<+@@HHHHHHHHHHHHHHHHHHHHHHHHHHHHHHHHHHHHHHHHHHHHHH",
"gggggggggggggggggfgghger9%>%HHHHHHHHHHHHHHHHHHHHHHHHHHHHHHHHHHHHHHHHHHHHHH",
"ggggggggggggfggggggggghhd787HHHHHHHHHHHHHHHHHHHHHHHHHHHHHHHHHHHHHHHHHHHHHH",
"gghgfhjjjjhhjhjjjhgfhhghi377HHHHHHHHHHHHHHHHHHHHHHHHHHHHHHHHHHHHHHHHHHHHHH",
"hggggbmnmbmmmmmmnnggfhhhd788HHHHHHHHHHHHHHHHHHHHHHHHHHHHHHHHHHHHHHHHHHHHHH",
"gghggvnnbnnbnnmnnbgghd8e4$%%HHHHHHHHHHHHHHHHHHHHHHHHHHHHHHHHHHHHHHHHHHHHHH",
"gggghhhhhhhhfhhhhhggha37>+@+HHHHHHHHHHHHHHHHHHHHHHHHHHHHHHHHHHHHHHHHHHHHHH",
"hggggggggghhhfhfggggha782@@@HHHHHHHHHHHHHHHHHHHHHHHHHHHHHHHHHHHHHHHHHHHHHH",
"HHHHHHHHHHHHHHHHHHHHHHHHHHHHHHHHHHHHHHHHHHHHHHHHHHHHHHHHHHHHHHHHHHHHHHHHHH",
"HHHHHHHHHHHHHHHHHHHHHHHHHHHHHHHHHHHHHHHHHHHHHHHHHHHHHHHHHHHHHHHHHHHHHHHHHH",
"HHHHHHHHHHHHHHHHHHHHHHHHHHHHHHHHHHHHHHHHHHHHHHHHHHHHHHHHHHHHHHHHHHHHHHHHHH",
"HHHHHHHHHHHHHHHHHHHHHHHHHHHHHHHHHHHHHHHHHHHHHHHHHHHHHHHHHHHHHHHHHHHHHHHHHH",
"HHHHHHHHHHHHHHHHHHHHHHHHHHHHHHHHHHHHHHHHHHHHHHHHHHHHHHHHHHHHHHHHHHHHHHHHHH",
"HHHHHHHHHHHHHHHHHHHHHHHHHHHHHHHHHHHHHHHHHHHHHHHHHHHHHHHHHHHHHHHHHHHHHHHHHH",
"HHHHHHHHHHHHHHHHHHHHHHHHHHHHHHHHHHHHHHHHHHHHHHHHHHHHHHHHHHHHHHHHHHHHHHHHHH",
"HHHHHHHHHHHHHHHHHHHHHHHHHHHHHHHHHHHHHHHHHHHHHHHHHHHHHHHHHHHHHHHHHHHHHHHHHH",
"HHHHHHHHHHHHHHHHHHHHHHHHHHHHHHHHHHHHHHHHHHHHHHHHHHHHHHHHHHHHHHHHHHHHHHHHHH",
"HHHHHHHHHHHHHHHHHHHHHHHHHHHHHHHHHHHHHHHHHHHHHHHHHHHHHHHHHHHHHHHHHHHHHHHHHH",
"HHHHHHHHHHHHHHHHHHHHHHHHHHHHHHHHHHHHHHHHHHHHHHHHHHHHHHHHHHHHHHHHHHHHHHHHHH",
"HHHHHHHHHHHHHHHHHHHHHHHHHHHHHHHHHHHHHHHHHHHHHHHHHHHHHHHHHHHHHHHHHHHHHHHHHH",
"HHHHHHHHHHHHHHHHHHHHHHHHHHHHHHHHHHHHHHHHHHHHHHHHHHHHHHHHHHHHHHHHHHHHHHHHHH"
};
