/* XPM */
static char *_6567_e876e5aaff51a8e553bfa0267dd665002f1780a3e8c41043d4ef7a78b8189fc8[] = {
/* columns rows colors chars-per-pixel */
"74 74 55 1 ",
"  c #A63D4A",
". c #A93E4B",
"X c #A7414D",
"o c #AD434D",
"O c #B4464E",
"+ c #B9464D",
"@ c #B5484F",
"# c #B9484F",
"$ c #B44B52",
"% c #BB4B50",
"& c #BF5154",
"* c #D14F4F",
"= c #C54E51",
"- c #CB4F50",
"; c #C55152",
": c #CB5253",
"> c #CE5856",
", c #D35452",
"< c #D55955",
"1 c #D05E5A",
"2 c #D85D58",
"3 c #D7645D",
"4 c #D8665D",
"5 c #D6685F",
"6 c #D9695F",
"7 c #CD6760",
"8 c #CE6961",
"9 c #D26C63",
"0 c #DA6F63",
"q c #D77266",
"w c #DC7366",
"e c #DE7768",
"r c #DF7869",
"t c #E17E6C",
"y c #E3816E",
"u c #E58670",
"i c #E68C73",
"p c #E79176",
"a c #E89377",
"s c #E99679",
"d c #EB9C7C",
"f c #ECA17E",
"g c #EDA380",
"h c #EFA983",
"j c #F0AC85",
"k c #F2AF88",
"l c #F3B489",
"z c #F5BA8E",
"x c #F7BF91",
"c c #F7C091",
"v c #F9C493",
"b c #FBCA97",
"n c #FCCD99",
"m c #FDD19B",
"M c None",
/* pixels */
"MMMMMMMMMMMMMMMMMMMMMMMMMMMMMMMMMMMMMMMMMMMMMMMMMMMMMMMMMMMMMMMMMMMMMMMMMM",
"MtytyttifjbbbbbbbbmbbbbbbnbbbbbbnketMutdmbbbbbbnbbbbbbbbbbbnbbbnjfptyttytM",
"MytttytsghnbbbbbbbbbbbbbbbbbbbbbmleuMtedmbbbbbbbbbbnnbbbnbbbbbbnjfatttttyM",
"MttytddlnbbbnbbnbbbbbbbbbbbbbbbvvjrtMttsvzbbbbbbbbbbbbbbbbbbbbbbbnlfdtyttM",
"MttttsdlnbbbbbnbbbbbbbbbbmbbbbnldsttMutuffnbbbbbbnnbbbnbnbbbbbbbvnldsttttM",
"MyydszvvbbbbbbbbbbbbbbbbbbbbbbbkdsttMttifhbbbbbbbbbbbbbbbbbbbbbbbbvvzsdttM",
"MttddvnbbbbbbbbbbbbbbbbbbbbbbhgitttyMttttyffvbbbbbbbbbbbbbnbbbbbbbnnvsfttM",
"MppllvbbbbnbbbbbbbbbbbbbbbbbbjgittttMtttyygfbnbbbbbbbnbbbbbbbbbbbbbnvllapM",
"MffbnbbbbbbbbbbbbbbbbbbbbbvhhiuyttttMttttyyughzbbbbbbbvbbbnbvbnvbbbvnnngfM",
"MhjbbbbbbbbbbbbmnnnnmnmnmmnfhyrtttyuMtyyttttffvmnnnnmmmnmnnnnnvnnbvnbbvjjM",
"Mmbbbbbbbbbbcllfggggggggfffppyttte30M040ytytuidggggggggfgddkkvnvnbbbbvnnnM",
"Mbbbbbbbbbbncdfrteeerrrrrerrryttu0*,M,*4uyttttterrteeerrtttddvnnvbbbnbvnbM",
"Mbbbbbbbbbvclssyyytyyyyyyyyyttyre3=:M:=1eetryyyttttuyyyytyysslxvnvnnbbbbbM",
"Mbbbbbbnbnldsrrytytyttttryyrtty3*=XXMoX%*,yttyyttttttttttttttaslnbbbnbbbbM",
"Mnnbbbbbbbldstyytttytttytyyyyty3,;XOMoo%<<yyyttytttttyytyttytsdlnbbbbbbnbM",
"MbbbbbbbbmfrytyMMMMMMMMMMMMMMMMMMMMMMMMMMMMMMMMMMMMMMMMMMMMttttgmvnbbbbbbM",
"MbbbbbbbbngetttMMMMMMMMMMMMMMMMMMMMMMMMMMMMMMMMMMMMMMMMMMMMttttdmbbbbbbbbM",
"MbbbbnbbbmgttttMMMMMMMMMMMMMMMMMMMMMMMMMMMMMMMMMMMMMMMMMMMMyyytgmvbbbbbbbM",
"MnbbbbbbbngetutMMtttu9.ooMMMooX8utrryrrrru8.OoMMMoO.9yettMMttttdmbbbbbnbbM",
"MbbbbbbnvngttttMMspsu9.ooMMMoO.8upspssaaau8XooMMMoo.8ussaMMttttgmbbbbbbbbM",
"MbbbbbbbbmgeyttMMfffi3.OoMMMoOX3ifffgfggfu9.OoMMMOO.9igggMMttttdmbbbbbbbbM",
"MbbbbnbbbmgeytyMMttttt:,,MMM,,,0ytttyyryty0,<,MMM>,*0utttMMttttgmbbbbnbbnM",
"MnnbbbbbvmgryttMMttty0,,,MMM,<,0ytttyryrru0*,,MMM<,,ettttMMttttdmbbnbbbbbM",
"MbbbbbbnbngrytyMMttty9O$@MMMO$o8ytttyryyyy3O@@MMM@$o9ttttMMtttegmbbbbbbbbM",
"MbbbbbbbbmftyttMMyttu9 ooMMMoo 8uttyttytty8 ooMMMooX9yttuMMtyytdmvbbbbbbbM",
"MbnbbbbbvmdtyttMMMMMMMMMMMMMMMMMMMMMMMMMMMMMMMMMMMMMMMMMMMMttytgmbbbbbbbbM",
"MbbbbbbbbmdtyttMMMMMMMMMMMMMMMMMMMMMMMMMMMMMMMMMMMMMMMMMMMMyttedbvbbbbbnbM",
"MbbbbbbbzxstytyMMMMMMMMMMMMMMMMMMMMMMMMMMMMMMMMMMMMMMMMMMMMttttifhbbbbbbbM",
"MbbbbbbnhdittyyMMooowyrttttrtttu$oOMMoO.9utttttttttrteoOoMMttttpfhmbbbbbnM",
"MnbbbbvbhfittttMMooXqigdfffffury$XXMMoo 9yugddfgffdfiq.XoMMttttuyihhvbbbbM",
"MbbbbbdfuttttttMM%%#wusssssssyru=@%MM%%@9yidsssssssduw@%%MMyutttriggnnbvbM",
"MbbbbbfhutttyytMM<,,ryttrtrtryyy2,<MM<,,qurrtrrtrtrttt,<<MM33etttypijlvbbM",
"Mbbcgguyttttw<2MM>::etytyttttyty<::MM::-0ytyttttyuttyt=::MM,,eutryrrgdcmmM",
"Mmmvffttttyue,,MMoo.quttttyyttty$XoMMOo.9ytttyytttttyq.OOMM;=3weytyysshllM",
"Mddsiiyttyw41#%MMooowutytyttytty$ooMMoO.9ytyyytttyttuqoooMMo =*3ytttrrrreM",
"Mtrtrtttry4*=XoMMOoXwtttttytytty$ooMMoo.9ytytttyttttyw.ooMMoX:,6utttyyyyyM",
"Myyyttytyy0,:ooMMMMMMMMMMMMMMMMMMMMMMMMMMMMMMMMMMMMMMMMMMMMoo:,9yttytyyytM",
"MMMMMMMMMMMMMMMMMMMMMMMMMMMMMMMMMMMMMMMMMMMMMMMMMMMMMMMMMMMMMMMMMMMMMMMMMM",
"Mtytttttyy6,:XoMMrttu9.OOMMMOo.8utrrrtttty8.ooMMMoo.9utttMMOX;,4utytytrytM",
"Meetttttty4*=XoMMiuuu9.ooMMMoo.7uiiiiiiuuy8XoOMMMOO.9uiiuMMoo:,6ytttytyyyM",
"Mklhssttyywq5=;MMhghu9.ooMMMoo.7ugghgghhhu7XOoMMMOo.9ihhhMMoX=,4yytryryrtM",
"Mnmcdfttyryue*,MMuyyuq-::MMM:>*0utyyyyyyyy0-::MMM::*0ytyyMM::wtttyyydflvvM",
"Mbbvhliiyyyye33MMttttt,<<MMM,<,0urttttttryw,<<MMM<<,tttttMM,*wytytrtffcmbM",
"MbbbmnggirrryyyMMttty9##%MMM%%+9uttyytttyy3+%%MMM%#+9ttyyMMw0tttyysslzvbbM",
"MbbbbvhhuyuytttMMyyty9.ooMMMXo 7ytyttyytyy8 XoMMMoo 9yttyMMyyttttyffnnbbbM",
"MbbbbbbnjgprtytMMttty9.OoMMMOo.8yttytttyyy8.OoMMMoo.9utytMMttttuusllvvbbbM",
"MbbbbbbbjfitttyMMMMMMMMMMMMMMMMMMMMMMMMMMMMMMMMMMMMMMMMMMMMttttigjmnnbbnbM",
"MbbbbbbbvndeyytMMMMMMMMMMMMMMMMMMMMMMMMMMMMMMMMMMMMMMMMMMMMttttajjbvbbbbbM",
"MbbnnbbbbngttttMMMMMMMMMMMMMMMMMMMMMMMMMMMMMMMMMMMMMMMMMMMMtyytdmnbbbbbbbM",
"MbbbbbbbbndwtttMMOoowyrtytttttty$XOMMoO.8yttttttttttuwXOoMMytytgnvnbbbbbbM",
"MbbbbbbnbmgtyttMMoo.qigfgfgfgytu$XoMMXX 8yuhffggfffgiq.XXMMtttedmnbbbbbbnM",
"MnbbbbbbbngtytyMM%%%wussspsastty;#%MM%=+9yuspsaasapsuw#=%MMytttgnvnbbbnbnM",
"MbbbbnbbbndtyytMM<<<ttttrttrtttt2,<MM<<,tyttttrttrrttr,<<MMttytgmbnbbbnbbM",
"MbbbbbbbbngwtttMM::=etttttytttty>::MM::=0ttttttttytyye:::MMttttgnbbbbbbbbM",
"MnbbbbbbbngtyyyMMoo.qtttttyttyty$ooMMoo 9yttuttttyttywXooMMttt0gmbbbbbbbbM",
"MbbbbbnbbngttttMMooowytyyttyttty$ooMMoO.9yttttttytttywXoOMMttttgnbbbbnbbnM",
"MnbnbnbbbngetttMMOooquttyttytyty$ooMMoO.8utttututyttuwoooMMttttgmbbbbbbbbM",
"MbbbbbbbbmgetttMMMMMMMMMMMMMMMMMMMMMMMMMMMMMMMMMMMMMMMMMMMMtyyegmvbbbbnbbM",
"MbbbbbbbbngttttMMMMMMMMMMMMMMMMMMMMMMMMMMMMMMMMMMMMMMMMMMMMttuegmbbbbbbbbM",
"Mbbbbbbbbblgstuttuttttytytttyty3,;XOMoo%,<utttyttytyttttttyytsdknbnbnbbbbM",
"Mbnbbbbbbnldsttttttttttttttttty3,=XXMoX%,,ttttttttttttttttttesdlnbbbbbbbbM",
"Mbbbbbbbbbvclsstttttttttyyyyttyew5=:M:=1eettttttutyyttutyyysslxcbbbbbbbbbM",
"Mvbbbbbbbbbnxddttwteteetetetttttyw*,M,*4uttuttteeeereeeerreddcnbbbbbbbbbbM",
"Mnnbbbbbbbbbvkkgggdgggggggdiittttt46M040ttttiidggggggggggggllvbbbbbbbbbnnM",
"MjjbbbbbbbbbbbnmmmmmnmmnnmnggurttyyyMyyytyryffcmmmmmmmmmnmmnnnvnnbbbvbvjjM",
"MfgnnbbbbbbbbbbbbvbbbvbbvnvhjuuyttttMyttryuufhzbbbbbbvbbbbbbbvnvbbnvnnngfM",
"MpallvbbbbbbbbbbbbbbnbbbnvnnmhhirtttMtyyyygfvmbbbbbbbbbbbbbbnbbnbnvnvlzapM",
"MttddvbbbbbbbbbbbbbbbbbnnbbvbhgittttMtttyygfvbbbbbbbbbbbbbbnbbbbbvnnvddttM",
"MyydszcvbbbbbnbbbbbbbnvnbbbbbvbjfsttMytufgbbbbbbbbbbbbbbbbbbbbbbbbvvzssytM",
"MyrrrdflnbbbbbbbbbbbbbnbbbbbbbnldsttMttufgnbbbbbbnbbbbbbbnbbbbbbbnldsttyyM",
"MyyyysflnbbbbbbbbnbbbbbbbbbbbbbvvhttMytsvcbbbbbbbbbbbbbbbbbbbbbbbbzdstyttM",
"MttytttsfjnbbbnbbbbbbnbbbbbbbbbbmkeyMytdmbbbbbbbbbbnbbbbbbbbbbbnhfptuttttM",
"MytttytpfjnbbbbbbnbbbbbbbbbbnbbbmjtyMytsmvbbbbbbnbbbbbbbbnbbbbbnjfaryyyytM",
"MMMMMMMMMMMMMMMMMMMMMMMMMMMMMMMMMMMMMMMMMMMMMMMMMMMMMMMMMMMMMMMMMMMMMMMMMM"
};
