/* XPM */
static char *_8876_03c21bf09a01279ae9c08a19861a2d104aa60a89606a7ed2487a8675869d521f[] = {
/* columns rows colors chars-per-pixel */
"99 99 8 1 ",
"  c #89365C",
". c #AE444E",
"X c #D25654",
"o c #E27F6D",
"O c #EDA27F",
"+ c #FBCA97",
"@ c #FFEAB7",
"# c None",
/* pixels */
"##@@@@++++++++++++++++ooooooooo####################################################################",
"##@@@@++++++++++++++++ooooooooo####################################################################",
"@@@@@@++++++++++++++++ooooooooo####################################################################",
"@@@@@@++++++++++++++++ooooooooo###    .................XXXX###....oooooooooooooooooooooooooo....###",
"@@@@@@++++++++++++++++ooooooooo###    .................XXXX###....oooooooooooooooooooooooooo....###",
"@@@@@@++++++++++++++++ooooooooo###    .................XXXX###....oooooooooooooooooooooooooo....###",
"++++++++++++++++++++++ooooooooo###    .................XXXX###....oooooooooooooooooooooooooo....###",
"++++++++++++++++++++++ooooooooo###.....................oooo###oooooooooooooooooooooooooooooooooo###",
"++++++++++++++++++++++ooooooooo###.....................oooo###oooooooooooooooooooooooooooooooooo###",
"++++++++++++++++++++++ooooooooo###.....................oooo###oooooooooooooooooooooooooooooooooo###",
"++++++++++++++++++++++ooooooooo###.....................oooo###oooooooooooooooooooooooooooooooooo###",
"++++++++++++++++++++++ooooooooo###.....................oooo###oooooooooooooooooooooooooooooooooo###",
"++++++++++++++++++++++ooooooooo###    .................XXXX###....oooooooooooooooooooooooooo....###",
"++++++++++++++++++++++ooooooooo###    .................XXXX###....oooooooooooooooooooooooooo....###",
"++++++++++++++++++OOOOooooooooo###    .................XXXX###....oooooooooooooooooooooooooo....###",
"++++++++++++++++++OOOOooooooooo###    .................XXXX###....oooooooooooooooooooooooooo....###",
"++++++++++++++++++OOOOooooooooo####################################################################",
"++++++++++++++++++OOOOooooooooo####################################################################",
"++++++++++++++OOOOooooooooooooo####################################################################",
"++++++++++++++OOOOooooooooooooo########    XXXXoooooooooooooooooooooooo....###....ooooXXXX#########",
"++++++++++++++OOOOooooooooooooo########    XXXXoooooooooooooooooooooooo....###....ooooXXXX#########",
"++++++++++++++OOOOooooooooooooo########    XXXXoooooooooooooooooooooooo....###....ooooXXXX#########",
"ooooooooooooooooooooooooooooooo########    XXXXoooooooooooooooooooooooo....###....ooooXXXX#########",
"ooooooooooooooooooooooooooooooo########....oooooooooooooooooooooooooooooooo###oooooooooooo#########",
"ooooooooooooooooooooooooooooooo########....oooooooooooooooooooooooooooooooo###oooooooooooo#########",
"ooooooooooooooooooooooooooooooo########....oooooooooooooooooooooooooooooooo###oooooooooooo#########",
"ooooooooooooooooooooooooooXXXXX########....oooooooooooooooooooooooooooooooo###oooooooooooo#########",
"ooooooooooooooooooooooooooXXXXX########....oooooooooooooooooooooooooooooooo###oooooooooooo#########",
"ooooooooooooooooooooooooooXXXXX########    XXXXoooooooooooooooooooooooo....###XXXXoooo....#########",
"ooooooooooooooooooooooooooXXXXX########    XXXXoooooooooooooooooooooooo....###XXXXoooo....#########",
"ooooooooooooooooooooooooooXXXXX########    XXXXoooooooooooooooooooooooo....###XXXXoooo....#########",
"#######################################    XXXXoooooooooooooooooooooooo....###XXXXoooo....#########",
"###################################################################################################",
"###################################################################################################",
"###################################################################################################",
"###    ............................................###....XXXXXXXXXXXXXXXXX....####################",
"###    ........................oooooooooooooooo....###....ooooooooooooooooo....####################",
"###    ..................oooooooooooooooooooooo....###....ooooooooooooooooo....####################",
"###    ...........ooooooooooooooooooooooooooooo....###....ooooooooooooooooo....####################",
"###XXXX.....oooooooooooooooooooooooooooooooooooXXXX###XXXXoooooooooooooooooXXXX####################",
"###XXXX..ooooooooooooooooooooooooooooooooooooooXXXX###XXXXoooooooooooooooooXXXX####################",
"###XXXXooooooooooooooooooooooooooooooooooooooooXXXX###XXXXoooooooooooooooooXXXX####################",
"###XXXXooooooooooooooooooooooooooooooooooooooooXXXX###XXXXoooooooooooooooooXXXX####################",
"###XXXXooooooooooooooooooooooooooooooooooooooooXXXX###XXXXooooOOOOOOOOOOoooXXXX####################",
"###XXXXoooooooooooooooooooooooOOOOOOOOOOOooooooXXXX###XXXXooooOOOOOOOOOOoooXXXX####################",
"###....oooooooooooooooooooOOOOOOOOOOOOOOOoooooo....###....ooooOOOOOOOOOOooo....####################",
"###....oooooooooooooooOOOOOOOOOOOOOOOOOOOoooooo....###....ooooooooooooooooo....####################",
"###....oooooooooooooooooooooooooooooooooooooooo....###....ooooooooooooooooo....####################",
"###....oooooooooooooooooooooooooooooooooooooooo....###....ooooooooooooooooo....####################",
"###################################################################################################",
"###################################################################################################",
"###################################################################################################",
"###################################################################################################",
"###....XXXXXXXXXXXXXXXXXXX....####....XXXXXXXXXXXXXXXXXXXXXXX....##################################",
"###....ooooooooooooooooooo....####....ooooooooooooooooooooooo....##################################",
"###....ooooooooooooooooooo....####....ooooooooooooooooooooooo....##################################",
"###....ooooooooooooooooooo....####....ooooooooooooooooooooooo....##################################",
"###XXXXoooooooooooooooooooXXXX####XXXXoooooooooooooooooooooooXXXX##################################",
"###XXXXooooooOOOOOOOooooooXXXX####XXXXoooooooOOOOOOOOOOOoooooXXXX##################################",
"###XXXXooooooOOOOOOOooooooXXXX####XXXXoooooooOOOOOOOOOOOoooooXXXX##################################",
"###XXXXooooooOOOOOOOooooooXXXX####XXXXoooooooOOOOOOOOOOOoooooXXXX##################################",
"###....XXXXoooooooooooXXXX....####....XXXXoooooooooooooooXXXX....##################################",
"###....XXXXoooooooooooXXXX....####....XXXXoooooooooooooooXXXX....##################################",
"###....XXXXoooooooooooXXXX....####....XXXXoooooooooooooooXXXX....##################################",
"###....XXXXoooooooooooXXXX....####....XXXXoooooooooooooooXXXX....##################################",
"###################################################################################################",
"###################################################################################################",
"###################################################################################################",
"###################################################################################################",
"XXXXXXXXXXXXXXXXXXXXXXXXXXXXXXXXX....##############################################################",
"oooooooooooooooooooooooooooooXXXX....##############################################################",
"oooooooooooooooooooooooooooooXXXX....##############################################################",
"oooooooooooooooooooooooooooooXXXX....##############################################################",
"oooooooooooooooooooooooooooooooooXXXX##############################################################",
"oooooooooooooooooooooooooooooooooXXXX##############################################################",
"oooooooooooooooooooooooooooooooooXXXX##############################################################",
"oooooooOOOOOOOOOOOOOOOOOoooooooooXXXX##############################################################",
"oooooooOOOOOOOOOOOOOOOOOoooooooooXXXX##############################################################",
"oooooooOOOOOOOOOOOOOOOOOoooooXXXX....##############################################################",
"oooooooooooooooooooooooooooooXXXX....##############################################################",
"oooooooooooooooooooooooooooooXXXX....##############################################################",
"oooooooooooooooooooooooooooooXXXX....##############################################################",
"###################################################################################################",
"###################################################################################################",
"###################################################################################################",
"###################################################################################################",
"###################################################################################################",
"###################################################################################################",
"###################################################################################################",
"###################################################################################################",
"###################################################################################################",
"###################################################################################################",
"###################################################################################################",
"###################################################################################################",
"###################################################################################################",
"###################################################################################################",
"###################################################################################################",
"###################################################################################################",
"###################################################################################################"
};
