/* XPM */
static char *_1968_831694df6ccb171d1fed2877cc53bfe8e292d5bb8095fd542ce693b5ef8ad101[] = {
/* columns rows colors chars-per-pixel */
"99 99 8 1 ",
"  c #89365C",
". c #AE444E",
"X c #D25654",
"o c #E27F6D",
"O c #EDA27F",
"+ c #FBCA97",
"@ c #FFEAB7",
"# c None",
/* pixels */
"###################################################################################################",
"###################################################################################################",
"###################################################################################################",
"###################################################################################################",
"###################################################################################################",
"###################################################################################################",
"###################################################################################################",
"###################################################################################################",
"###################################################################################################",
"###################################################################################################",
"###################################################################################################",
"###################################################################################################",
"###################################################################################################",
"###################################################################################################",
"###################################################################################################",
"###################################################################################################",
"###################################################################################################",
"##############################################################....XXXXooooooooooooooooooooooooooooo",
"##############################################################....XXXXooooooooooooooooooooooooooooo",
"##############################################################....XXXXooooooooooooooooooooooooooooo",
"##############################################################....XXXXoooooOOOOOOOOOOOOOOOOOooooooo",
"##############################################################XXXXoooooooooOOOOOOOOOOOOOOOOOooooooo",
"##############################################################XXXXoooooooooOOOOOOOOOOOOOOOOOooooooo",
"##############################################################XXXXooooooooooooooooooooooooooooooooo",
"##############################################################XXXXooooooooooooooooooooooooooooooooo",
"##############################################################XXXXooooooooooooooooooooooooooooooooo",
"##############################################################....XXXXooooooooooooooooooooooooooooo",
"##############################################################....XXXXooooooooooooooooooooooooooooo",
"##############################################################....XXXXooooooooooooooooooooooooooooo",
"##############################################################....XXXXXXXXXXXXXXXXXXXXXXXXXXXXXXXXX",
"###################################################################################################",
"###################################################################################################",
"###################################################################################################",
"###################################################################################################",
"##################################....XXXXoooooooooooooooXXXX....####....XXXXoooooooooooXXXX....###",
"##################################....XXXXoooooooooooooooXXXX....####....XXXXoooooooooooXXXX....###",
"##################################....XXXXoooooooooooooooXXXX....####....XXXXoooooooooooXXXX....###",
"##################################....XXXXoooooooooooooooXXXX....####....XXXXoooooooooooXXXX....###",
"##################################XXXXoooooOOOOOOOOOOOoooooooXXXX####XXXXooooooOOOOOOOooooooXXXX###",
"##################################XXXXoooooOOOOOOOOOOOoooooooXXXX####XXXXooooooOOOOOOOooooooXXXX###",
"##################################XXXXoooooOOOOOOOOOOOoooooooXXXX####XXXXooooooOOOOOOOooooooXXXX###",
"##################################XXXXoooooooooooooooooooooooXXXX####XXXXoooooooooooooooooooXXXX###",
"##################################....ooooooooooooooooooooooo....####....ooooooooooooooooooo....###",
"##################################....ooooooooooooooooooooooo....####....ooooooooooooooooooo....###",
"##################################....ooooooooooooooooooooooo....####....ooooooooooooooooooo....###",
"##################################....XXXXXXXXXXXXXXXXXXXXXXX....####....XXXXXXXXXXXXXXXXXXX....###",
"###################################################################################################",
"###################################################################################################",
"###################################################################################################",
"###################################################################################################",
"####################....ooooooooooooooooo....###....oooooooooooooooooooooooooooooooooooooooo....###",
"####################....ooooooooooooooooo....###....oooooooooooooooooooooooooooooooooooooooo....###",
"####################....ooooooooooooooooo....###....ooooooOOOOOOOOOOOOOOOOOOOooooooooooooooo....###",
"####################....oooOOOOOOOOOOoooo....###....ooooooOOOOOOOOOOOOOOOooooooooooooooooooo....###",
"####################XXXXoooOOOOOOOOOOooooXXXX###XXXXooooooOOOOOOOOOOOoooooooooooooooooooooooXXXX###",
"####################XXXXoooOOOOOOOOOOooooXXXX###XXXXooooooooooooooooooooooooooooooooooooooooXXXX###",
"####################XXXXoooooooooooooooooXXXX###XXXXooooooooooooooooooooooooooooooooooooooooXXXX###",
"####################XXXXoooooooooooooooooXXXX###XXXXooooooooooooooooooooooooooooooooooooooooXXXX###",
"####################XXXXoooooooooooooooooXXXX###XXXXoooooooooooooooooooooooooooooooooooooo..XXXX###",
"####################XXXXoooooooooooooooooXXXX###XXXXooooooooooooooooooooooooooooooooooo.....XXXX###",
"####################....ooooooooooooooooo....###....ooooooooooooooooooooooooooooo...........    ###",
"####################....ooooooooooooooooo....###....oooooooooooooooooooooo..................    ###",
"####################....ooooooooooooooooo....###....oooooooooooooooo........................    ###",
"####################....XXXXXXXXXXXXXXXXX....###............................................    ###",
"###################################################################################################",
"###################################################################################################",
"###################################################################################################",
"#########....ooooXXXX###....ooooooooooooooooooooooooXXXX    #######################################",
"#########....ooooXXXX###....ooooooooooooooooooooooooXXXX    ########XXXXXoooooooooooooooooooooooooo",
"#########....ooooXXXX###....ooooooooooooooooooooooooXXXX    ########XXXXXoooooooooooooooooooooooooo",
"#########....ooooXXXX###....ooooooooooooooooooooooooXXXX    ########XXXXXoooooooooooooooooooooooooo",
"#########oooooooooooo###oooooooooooooooooooooooooooooooo....########XXXXXoooooooooooooooooooooooooo",
"#########oooooooooooo###oooooooooooooooooooooooooooooooo....########XXXXXoooooooooooooooooooooooooo",
"#########oooooooooooo###oooooooooooooooooooooooooooooooo....########ooooooooooooooooooooooooooooooo",
"#########oooooooooooo###oooooooooooooooooooooooooooooooo....########ooooooooooooooooooooooooooooooo",
"#########oooooooooooo###oooooooooooooooooooooooooooooooo....########ooooooooooooooooooooooooooooooo",
"#########XXXXoooo....###....ooooooooooooooooooooooooXXXX    ########ooooooooooooooooooooooooooooooo",
"#########XXXXoooo....###....ooooooooooooooooooooooooXXXX    ########oooooooooooooOOOO++++++++++++++",
"#########XXXXoooo....###....ooooooooooooooooooooooooXXXX    ########oooooooooooooOOOO++++++++++++++",
"#########XXXXoooo....###....ooooooooooooooooooooooooXXXX    ########oooooooooooooOOOO++++++++++++++",
"####################################################################oooooooooooooOOOO++++++++++++++",
"####################################################################oooooooooOOOO++++++++++++++++++",
"####################################################################oooooooooOOOO++++++++++++++++++",
"###....oooooooooooooooooooooooooo....###XXXX.................    ###oooooooooOOOO++++++++++++++++++",
"###....oooooooooooooooooooooooooo....###XXXX.................    ###oooooooooOOOO++++++++++++++++++",
"###....oooooooooooooooooooooooooo....###XXXX.................    ###ooooooooo++++++++++++++++++++++",
"###....oooooooooooooooooooooooooo....###XXXX.................    ###ooooooooo++++++++++++++++++++++",
"###oooooooooooooooooooooooooooooooooo###oooo.....................###ooooooooo++++++++++++++++++++++",
"###oooooooooooooooooooooooooooooooooo###oooo.....................###ooooooooo++++++++++++++++++++++",
"###oooooooooooooooooooooooooooooooooo###oooo.....................###ooooooooo++++++++++++++++++++++",
"###oooooooooooooooooooooooooooooooooo###oooo.....................###ooooooooo++++++++++++++++++++++",
"###oooooooooooooooooooooooooooooooooo###oooo.....................###ooooooooo++++++++++++++++++++++",
"###....oooooooooooooooooooooooooo....###XXXX.................    ###ooooooooo++++++++++++++++++++++",
"###....oooooooooooooooooooooooooo....###XXXX.................    ###ooooooooo++++++++++++++++@@@@@@",
"###....oooooooooooooooooooooooooo....###XXXX.................    ###ooooooooo++++++++++++++++@@@@@@",
"###....oooooooooooooooooooooooooo....###XXXX.................    ###ooooooooo++++++++++++++++@@@@@@",
"####################################################################ooooooooo++++++++++++++++@@@@@@",
"####################################################################ooooooooo++++++++++++++++@@@@##",
"####################################################################ooooooooo++++++++++++++++@@@@##"
};
