/* XPM */
static char *_1440_72d8aeb36f51b1a8bcddefa344c658c79376bdf10eef80278567aa24e3d2df5c[] = {
/* columns rows colors chars-per-pixel */
"99 99 8 1 ",
"  c #89365C",
". c #AE444E",
"X c #D25654",
"o c #E27F6D",
"O c #EDA27F",
"+ c #FBCA97",
"@ c #FFEAB7",
"# c None",
/* pixels */
"###################################################################################################",
"###################################################################################################",
"###################################################################################################",
"###################################################################################################",
"###################################################################################################",
"###################################################################################################",
"###################################################################################################",
"###################################################################################################",
"###################################################################################################",
"###################################################################################################",
"###################################################################################################",
"###################################################################################################",
"###################################################################################################",
"###################################################################################################",
"###################################################################################################",
"###################################################################################################",
"###################################################################################################",
"oooooooooooooooooooooooooooooXXXX....##############################################################",
"oooooooooooooooooooooooooooooXXXX....##############################################################",
"oooooooooooooooooooooooooooooXXXX....##############################################################",
"oooooooOOOOOOOOOOOOOOOOOoooooXXXX....##############################################################",
"oooooooOOOOOOOOOOOOOOOOOoooooooooXXXX##############################################################",
"oooooooOOOOOOOOOOOOOOOOOoooooooooXXXX##############################################################",
"oooooooooooooooooooooooooooooooooXXXX##############################################################",
"oooooooooooooooooooooooooooooooooXXXX##############################################################",
"oooooooooooooooooooooooooooooooooXXXX##############################################################",
"oooooooooooooooooooooooooooooXXXX....##############################################################",
"oooooooooooooooooooooooooooooXXXX....##############################################################",
"oooooooooooooooooooooooooooooXXXX....##############################################################",
"XXXXXXXXXXXXXXXXXXXXXXXXXXXXXXXXX....##############################################################",
"###################################################################################################",
"###################################################################################################",
"###################################################################################################",
"###################################################################################################",
"###....XXXXoooooooooooXXXX....####....XXXXoooooooooooooooXXXX....##################################",
"###....XXXXoooooooooooXXXX....####....XXXXoooooooooooooooXXXX....##################################",
"###....XXXXoooooooooooXXXX....####....XXXXoooooooooooooooXXXX....##################################",
"###....XXXXoooooooooooXXXX....####....XXXXoooooooooooooooXXXX....##################################",
"###XXXXooooooOOOOOOOooooooXXXX####XXXXoooooooOOOOOOOOOOOoooooXXXX##################################",
"###XXXXooooooOOOOOOOooooooXXXX####XXXXoooooooOOOOOOOOOOOoooooXXXX##################################",
"###XXXXooooooOOOOOOOooooooXXXX####XXXXoooooooOOOOOOOOOOOoooooXXXX##################################",
"###XXXXoooooooooooooooooooXXXX####XXXXoooooooooooooooooooooooXXXX##################################",
"###....ooooooooooooooooooo....####....ooooooooooooooooooooooo....##################################",
"###....ooooooooooooooooooo....####....ooooooooooooooooooooooo....##################################",
"###....ooooooooooooooooooo....####....ooooooooooooooooooooooo....##################################",
"###....XXXXXXXXXXXXXXXXXXX....####....XXXXXXXXXXXXXXXXXXXXXXX....##################################",
"###################################################################################################",
"###################################################################################################",
"###################################################################################################",
"###################################################################################################",
"###....oooooooooooooooooooooooooooooooooooooooo....###....ooooooooooooooooo....####################",
"###....oooooooooooooooooooooooooooooooooooooooo....###....ooooooooooooooooo....####################",
"###....oooooooooooooooOOOOOOOOOOOOOOOOOOOoooooo....###....ooooooooooooooooo....####################",
"###....oooooooooooooooooooOOOOOOOOOOOOOOOoooooo....###....ooooOOOOOOOOOOooo....####################",
"###XXXXoooooooooooooooooooooooOOOOOOOOOOOooooooXXXX###XXXXooooOOOOOOOOOOoooXXXX####################",
"###XXXXooooooooooooooooooooooooooooooooooooooooXXXX###XXXXooooOOOOOOOOOOoooXXXX####################",
"###XXXXooooooooooooooooooooooooooooooooooooooooXXXX###XXXXoooooooooooooooooXXXX####################",
"###XXXXooooooooooooooooooooooooooooooooooooooooXXXX###XXXXoooooooooooooooooXXXX####################",
"###XXXX..ooooooooooooooooooooooooooooooooooooooXXXX###XXXXoooooooooooooooooXXXX####################",
"###XXXX.....oooooooooooooooooooooooooooooooooooXXXX###XXXXoooooooooooooooooXXXX####################",
"###    ...........ooooooooooooooooooooooooooooo....###....ooooooooooooooooo....####################",
"###    ..................oooooooooooooooooooooo....###....ooooooooooooooooo....####################",
"###    ........................oooooooooooooooo....###....ooooooooooooooooo....####################",
"###    ............................................###....XXXXXXXXXXXXXXXXX....####################",
"###################################################################################################",
"###################################################################################################",
"###################################################################################################",
"#######################################    XXXXoooooooooooooooooooooooo....###XXXXoooo....#########",
"ooooooooooooooooooooooooooXXXXX########    XXXXoooooooooooooooooooooooo....###XXXXoooo....#########",
"ooooooooooooooooooooooooooXXXXX########    XXXXoooooooooooooooooooooooo....###XXXXoooo....#########",
"ooooooooooooooooooooooooooXXXXX########    XXXXoooooooooooooooooooooooo....###XXXXoooo....#########",
"ooooooooooooooooooooooooooXXXXX########....oooooooooooooooooooooooooooooooo###oooooooooooo#########",
"ooooooooooooooooooooooooooXXXXX########....oooooooooooooooooooooooooooooooo###oooooooooooo#########",
"ooooooooooooooooooooooooooooooo########....oooooooooooooooooooooooooooooooo###oooooooooooo#########",
"ooooooooooooooooooooooooooooooo########....oooooooooooooooooooooooooooooooo###oooooooooooo#########",
"ooooooooooooooooooooooooooooooo########....oooooooooooooooooooooooooooooooo###oooooooooooo#########",
"ooooooooooooooooooooooooooooooo########    XXXXoooooooooooooooooooooooo....###....ooooXXXX#########",
"++++++++++++++OOOOooooooooooooo########    XXXXoooooooooooooooooooooooo....###....ooooXXXX#########",
"++++++++++++++OOOOooooooooooooo########    XXXXoooooooooooooooooooooooo....###....ooooXXXX#########",
"++++++++++++++OOOOooooooooooooo########    XXXXoooooooooooooooooooooooo....###....ooooXXXX#########",
"++++++++++++++OOOOooooooooooooo####################################################################",
"++++++++++++++++++OOOOooooooooo####################################################################",
"++++++++++++++++++OOOOooooooooo####################################################################",
"++++++++++++++++++OOOOooooooooo###    .................XXXX###....oooooooooooooooooooooooooo....###",
"++++++++++++++++++OOOOooooooooo###    .................XXXX###....oooooooooooooooooooooooooo....###",
"++++++++++++++++++++++ooooooooo###    .................XXXX###....oooooooooooooooooooooooooo....###",
"++++++++++++++++++++++ooooooooo###    .................XXXX###....oooooooooooooooooooooooooo....###",
"++++++++++++++++++++++ooooooooo###.....................oooo###oooooooooooooooooooooooooooooooooo###",
"++++++++++++++++++++++ooooooooo###.....................oooo###oooooooooooooooooooooooooooooooooo###",
"++++++++++++++++++++++ooooooooo###.....................oooo###oooooooooooooooooooooooooooooooooo###",
"++++++++++++++++++++++ooooooooo###.....................oooo###oooooooooooooooooooooooooooooooooo###",
"++++++++++++++++++++++ooooooooo###.....................oooo###oooooooooooooooooooooooooooooooooo###",
"++++++++++++++++++++++ooooooooo###    .................XXXX###....oooooooooooooooooooooooooo....###",
"@@@@@@++++++++++++++++ooooooooo###    .................XXXX###....oooooooooooooooooooooooooo....###",
"@@@@@@++++++++++++++++ooooooooo###    .................XXXX###....oooooooooooooooooooooooooo....###",
"@@@@@@++++++++++++++++ooooooooo###    .................XXXX###....oooooooooooooooooooooooooo....###",
"@@@@@@++++++++++++++++ooooooooo####################################################################",
"##@@@@++++++++++++++++ooooooooo####################################################################",
"##@@@@++++++++++++++++ooooooooo####################################################################"
};
