/* XPM */
static char *_2502_d1ecaa1b80e9d4c5e6f8276e2e5513bb46b5244e8ac00c57f598c83fc00863b7[] = {
/* columns rows colors chars-per-pixel */
"99 99 8 1 ",
"  c #89365C",
". c #AE444E",
"X c #D25654",
"o c #E27F6D",
"O c #EDA27F",
"+ c #FBCA97",
"@ c #FFEAB7",
"# c None",
/* pixels */
"####################################################################ooooooooo++++++++++++++++@@@@##",
"####################################################################ooooooooo++++++++++++++++@@@@##",
"####################################################################ooooooooo++++++++++++++++@@@@@@",
"###....oooooooooooooooooooooooooo....###XXXX.................    ###ooooooooo++++++++++++++++@@@@@@",
"###....oooooooooooooooooooooooooo....###XXXX.................    ###ooooooooo++++++++++++++++@@@@@@",
"###....oooooooooooooooooooooooooo....###XXXX.................    ###ooooooooo++++++++++++++++@@@@@@",
"###....oooooooooooooooooooooooooo....###XXXX.................    ###ooooooooo++++++++++++++++++++++",
"###oooooooooooooooooooooooooooooooooo###oooo.....................###ooooooooo++++++++++++++++++++++",
"###oooooooooooooooooooooooooooooooooo###oooo.....................###ooooooooo++++++++++++++++++++++",
"###oooooooooooooooooooooooooooooooooo###oooo.....................###ooooooooo++++++++++++++++++++++",
"###oooooooooooooooooooooooooooooooooo###oooo.....................###ooooooooo++++++++++++++++++++++",
"###oooooooooooooooooooooooooooooooooo###oooo.....................###ooooooooo++++++++++++++++++++++",
"###....oooooooooooooooooooooooooo....###XXXX.................    ###ooooooooo++++++++++++++++++++++",
"###....oooooooooooooooooooooooooo....###XXXX.................    ###ooooooooo++++++++++++++++++++++",
"###....oooooooooooooooooooooooooo....###XXXX.................    ###oooooooooOOOO++++++++++++++++++",
"###....oooooooooooooooooooooooooo....###XXXX.................    ###oooooooooOOOO++++++++++++++++++",
"####################################################################oooooooooOOOO++++++++++++++++++",
"####################################################################oooooooooOOOO++++++++++++++++++",
"####################################################################oooooooooooooOOOO++++++++++++++",
"#########XXXXoooo....###....ooooooooooooooooooooooooXXXX    ########oooooooooooooOOOO++++++++++++++",
"#########XXXXoooo....###....ooooooooooooooooooooooooXXXX    ########oooooooooooooOOOO++++++++++++++",
"#########XXXXoooo....###....ooooooooooooooooooooooooXXXX    ########oooooooooooooOOOO++++++++++++++",
"#########XXXXoooo....###....ooooooooooooooooooooooooXXXX    ########ooooooooooooooooooooooooooooooo",
"#########oooooooooooo###oooooooooooooooooooooooooooooooo....########ooooooooooooooooooooooooooooooo",
"#########oooooooooooo###oooooooooooooooooooooooooooooooo....########ooooooooooooooooooooooooooooooo",
"#########oooooooooooo###oooooooooooooooooooooooooooooooo....########ooooooooooooooooooooooooooooooo",
"#########oooooooooooo###oooooooooooooooooooooooooooooooo....########XXXXXoooooooooooooooooooooooooo",
"#########oooooooooooo###oooooooooooooooooooooooooooooooo....########XXXXXoooooooooooooooooooooooooo",
"#########....ooooXXXX###....ooooooooooooooooooooooooXXXX    ########XXXXXoooooooooooooooooooooooooo",
"#########....ooooXXXX###....ooooooooooooooooooooooooXXXX    ########XXXXXoooooooooooooooooooooooooo",
"#########....ooooXXXX###....ooooooooooooooooooooooooXXXX    ########XXXXXoooooooooooooooooooooooooo",
"#########....ooooXXXX###....ooooooooooooooooooooooooXXXX    #######################################",
"###################################################################################################",
"###################################################################################################",
"###################################################################################################",
"####################....XXXXXXXXXXXXXXXXX....###............................................    ###",
"####################....ooooooooooooooooo....###....oooooooooooooooo........................    ###",
"####################....ooooooooooooooooo....###....oooooooooooooooooooooo..................    ###",
"####################....ooooooooooooooooo....###....ooooooooooooooooooooooooooooo...........    ###",
"####################XXXXoooooooooooooooooXXXX###XXXXooooooooooooooooooooooooooooooooooo.....XXXX###",
"####################XXXXoooooooooooooooooXXXX###XXXXoooooooooooooooooooooooooooooooooooooo..XXXX###",
"####################XXXXoooooooooooooooooXXXX###XXXXooooooooooooooooooooooooooooooooooooooooXXXX###",
"####################XXXXoooooooooooooooooXXXX###XXXXooooooooooooooooooooooooooooooooooooooooXXXX###",
"####################XXXXoooOOOOOOOOOOooooXXXX###XXXXooooooooooooooooooooooooooooooooooooooooXXXX###",
"####################XXXXoooOOOOOOOOOOooooXXXX###XXXXooooooOOOOOOOOOOOoooooooooooooooooooooooXXXX###",
"####################....oooOOOOOOOOOOoooo....###....ooooooOOOOOOOOOOOOOOOooooooooooooooooooo....###",
"####################....ooooooooooooooooo....###....ooooooOOOOOOOOOOOOOOOOOOOooooooooooooooo....###",
"####################....ooooooooooooooooo....###....oooooooooooooooooooooooooooooooooooooooo....###",
"####################....ooooooooooooooooo....###....oooooooooooooooooooooooooooooooooooooooo....###",
"###################################################################################################",
"###################################################################################################",
"###################################################################################################",
"###################################################################################################",
"##################################....XXXXXXXXXXXXXXXXXXXXXXX....####....XXXXXXXXXXXXXXXXXXX....###",
"##################################....ooooooooooooooooooooooo....####....ooooooooooooooooooo....###",
"##################################....ooooooooooooooooooooooo....####....ooooooooooooooooooo....###",
"##################################....ooooooooooooooooooooooo....####....ooooooooooooooooooo....###",
"##################################XXXXoooooooooooooooooooooooXXXX####XXXXoooooooooooooooooooXXXX###",
"##################################XXXXoooooOOOOOOOOOOOoooooooXXXX####XXXXooooooOOOOOOOooooooXXXX###",
"##################################XXXXoooooOOOOOOOOOOOoooooooXXXX####XXXXooooooOOOOOOOooooooXXXX###",
"##################################XXXXoooooOOOOOOOOOOOoooooooXXXX####XXXXooooooOOOOOOOooooooXXXX###",
"##################################....XXXXoooooooooooooooXXXX....####....XXXXoooooooooooXXXX....###",
"##################################....XXXXoooooooooooooooXXXX....####....XXXXoooooooooooXXXX....###",
"##################################....XXXXoooooooooooooooXXXX....####....XXXXoooooooooooXXXX....###",
"##################################....XXXXoooooooooooooooXXXX....####....XXXXoooooooooooXXXX....###",
"###################################################################################################",
"###################################################################################################",
"###################################################################################################",
"###################################################################################################",
"##############################################################....XXXXXXXXXXXXXXXXXXXXXXXXXXXXXXXXX",
"##############################################################....XXXXooooooooooooooooooooooooooooo",
"##############################################################....XXXXooooooooooooooooooooooooooooo",
"##############################################################....XXXXooooooooooooooooooooooooooooo",
"##############################################################XXXXooooooooooooooooooooooooooooooooo",
"##############################################################XXXXooooooooooooooooooooooooooooooooo",
"##############################################################XXXXooooooooooooooooooooooooooooooooo",
"##############################################################XXXXoooooooooOOOOOOOOOOOOOOOOOooooooo",
"##############################################################XXXXoooooooooOOOOOOOOOOOOOOOOOooooooo",
"##############################################################....XXXXoooooOOOOOOOOOOOOOOOOOooooooo",
"##############################################################....XXXXooooooooooooooooooooooooooooo",
"##############################################################....XXXXooooooooooooooooooooooooooooo",
"##############################################################....XXXXooooooooooooooooooooooooooooo",
"###################################################################################################",
"###################################################################################################",
"###################################################################################################",
"###################################################################################################",
"###################################################################################################",
"###################################################################################################",
"###################################################################################################",
"###################################################################################################",
"###################################################################################################",
"###################################################################################################",
"###################################################################################################",
"###################################################################################################",
"###################################################################################################",
"###################################################################################################",
"###################################################################################################",
"###################################################################################################",
"###################################################################################################"
};
