/* XPM */
static char *_959_1f1a3a4b88e8395e8a7a638d16ac44dc8742b984b765a5e8d171dc739c90e794[] = {
/* columns rows colors chars-per-pixel */
"74 74 79 1 ",
"  c #85345C",
". c #89365B",
"X c #8F3859",
"o c #9F3E53",
"O c #923958",
"+ c #A53C4A",
"@ c #A93E4B",
"# c #A7404D",
"$ c #AD434D",
"% c #B2464D",
"& c #B9474E",
"* c #B5484F",
"= c #BA494F",
"- c #A84150",
"; c #B44C52",
": c #BC4B50",
"> c #BB5356",
", c #BF5758",
"< c #C14B4F",
"1 c #CE4E4F",
"2 c #C34E51",
"3 c #CC4F50",
"4 c #C55154",
"5 c #CD5253",
"6 c #CA5857",
"7 c #C15A59",
"8 c #CC5C59",
"9 c #D25553",
"0 c #D45955",
"q c #D55E59",
"w c #D6625B",
"e c #D8665D",
"r c #D9695F",
"t c #CC6760",
"y c #CE6A62",
"u c #D36D63",
"i c #DB6E62",
"p c #D67165",
"a c #DD7265",
"s c #D77568",
"d c #DC7768",
"f c #DF7869",
"g c #E17E6C",
"h c #E3816E",
"j c #E48570",
"k c #E88771",
"l c #E68C73",
"z c #E88872",
"x c #E79076",
"c c #E89377",
"v c #E99578",
"b c #EB9D7D",
"n c #ECA17E",
"m c #EEA581",
"M c #EFA983",
"N c #F1AD85",
"B c #F3B389",
"V c #F5BA8D",
"C c #F6BE90",
"Z c #FAC693",
"A c #FBCA97",
"S c #FBCC99",
"D c #FDD19B",
"F c #FCD5A2",
"G c #FCD9A6",
"H c #FCDCAC",
"J c #FCE2B5",
"K c #FEE9B6",
"L c #FCE2B8",
"P c #FFEDBB",
"I c #FFF0BD",
"U c #FFEFC1",
"Y c #FFF1C4",
"T c #FFF5CB",
"R c #FEF7D1",
"E c #FEFAD5",
"W c #FFFDDB",
"Q c #FFFFE2",
"! c None",
/* pixels */
"!!!!!!!!!!!!!!!!!!!!!!!!!!!!!!!!!!!!!!!!!!!!!!!!!!!!!!!!!!!!!!!!!!!!!!!!!!",
"!!!!!!!!!!!!!!!!!!!!!!!!!!!!!!!!!!!!!!!!!!!!!!!!!!!!!!!!!!!!!!!!!!!!!!!!!!",
"!!!!!!!!!!!!!!!!!!!!!!!!!!!!!!!!!!!!!!!!!!!!!!!!!!!!!!!!!!!!!!!!!!!!!!!!!!",
"!!!!!!!!!!!!!!!!!!!!!!!!!!!!!!!!!!!!!!!!!!!!!!!!!!!!!!!!!!!!!!!!!!!!!!!!!!",
"!!!!!!!!!!!!!!!!!!!!!!!!!!!!!!!!!!!!!!!!!!!!!!!!!!!!!!!!!!!!!!!!!!!!!!!!!!",
"!!!!!!!!!!!!!!!!!!!!!!!!!!!!!!!!!!!!!!!!!!!!!!!!!!!!!!!!!!!!!!!!!!!!!!!!!!",
"!!!!!!!!!!!!!!!!!!!!!!!!!!!!!!!!!!!!!!!!!!!!!!!!!!!!!!!!!!!!!!!!!!!!!!!!!!",
"!!!!!!!!!!!!!!!!!!!!!!!!!!!!!!!!!!!!!!!!!!!!!!!!!!!!!!!!!!!!!!!!!!!!!!!!!!",
"!!!!!!!!!!!!!!!!!!!!!!!!!!!!!!!!!!!!!!!!!!!!!!!!!!!!!!!!!!!!!!!!!!!!!!!!!!",
"!!!!!!!!!!!!!!!!!!!!!!!!!!!!!!!!!!!!!!!!!!!!!!!!!!!!!!!!!!!!!!!!!!!!!!!!!!",
"!!!!!!!!!!!!!!!!!!!!!!!!!!!!!!!!!!!!!!!!!!!!!!!!!!!!!!!!!!!!!!!!!!!!!!!!!!",
"!!!!!!!!!!!!!!!!!!!!!!!!!!!!!!!!!!!!!!!!!!!!!!!!!!!!!!!!!!!!!!!!!!!!!!!!!!",
"!!!!!!!!!!!!!!!!!!!!!!!!!!!!!!!!!!!!!!!!!!!!!!!!!!!!!!!!!!!!!!!!!!!!!!!!!!",
"ggggghghq90*$$!!$$$205ihgggghfgggggfgghfgghfgghfggghw90=$$!!!$$:05rhgggggg",
"hhhhhgghq19%$$!!$$$<91ihfghhhhfhhhhhhhhhhhhhhhhhhhghw19%$$!!!$$=91ehgghhhh",
"nnnnlfghewe:%=!!*=%6eqahlmnnbmmnnnnnnnnnnnnnnnnnnnhhrqe4**!!!=*4wqahggvmbn",
"mnmmxfhfghjq90!!001gggggjmmmmmmmmmmmmmmmmmmmmmnmmmhfghjw90!!!09ijhggggvmmm",
"jjjjhhhhgggq99!!999igggggjjjjjjjjjjjjgjjjjjjjjjjjhghgggw10!!!93eggggggjjjj",
"fhfffhhfhhjq99!!009ihhggggggfgggfgfgfgggfffgfggghfgghhjw90!!!09rjhhggggggg",
"hfhhhhfhiwi2=<!!=2&6rqggggggggfgfgggggggfhggggggfhfhiwi4:2!!!:=6iwahgggggg",
"hjjhhhhj059%#$!!$$$<01ihhjhjjjhjjjgjjjgjjjjghhhhjjhjw30*$$!!!$@:91rjgjjhgj",
"iiiiaaiaq90*$%!!$$$209qgiiiiiiiiiaiiaiiiaiiiiaaiaiiaq99:$$!!!%$:09waiiiaii",
"!!!!!!!!!!!!!!!!!!!!!!!!!!!!!!!!!!!!!!!!!!!!!!!!!!!!!!!!!!!!!!!!!!!!!!!!!!",
"!!!!!!!!!!!!!!!!!!!!!!!!!!!!!!!!!!!!!!!!!!!!!!!!!!!!!!!!!!!!!!!!!!!!!!!!!!",
"!!!!!!!!!!!!!!!!!!!!!!!!!!!!!!!!!!!!!!!!!!!!!!!!!!!!!!!!!!!!!!!!!!!!!!!!!!",
"$$%999ghgghggghgggghhggghggghq99*-$!!!$$305ahggggghgghgggggggghggf994$$!!!",
"$$$999ghggggggggggghhghhgghgh090*$-!!$$$205ahgggghggghghhgggggggja905$$$!!",
"$$$595ggggghgggggfggfgfgggggh011$$$!!$$#<91ihghgggfgfggggfggggggga393#$$!!",
"224iiiggghgghglvxcccccvvlghggaaa422!!22<eaifhghhcccccccbcvcvlggggfiie<22!!",
"099gjhggggghggnmmmmmmmnmvgggghhhq90!!099ahhgfgghmmmmNnnnmmmmvgggggjjg900!!",
"090gggfhhggggglcvvvcvccclggggfggq00!!009agghhhfhvxvvccvcvvcvlggggggga990!!",
":::ggggggggggggggfgfgggggggggggh2=:!!==&uhgfggggggggfggfggfgfggggggga&::!!",
"$$$hhhhhhhhhhhhhhhhhhhjhhhhhjhhj;@$!!$$+yzhhhjhhjhhhhhjhhhhhjhhhhkhkd+$#!!",
"$$*iiiaiiiaiaiaiiiaiaiiiiiaiiiii*$$!!$$$8aiaiiiiiiiaiiiiiaiiaiiaiiiiw$*$!!",
"!!!!!!!!!!!!!!!!!!!!!!!!!!!!!!!!!!!!!!!!!!!!!!!!!!!!!!!!!!!!!!!!!!!!!!!!!!",
"!!!!!!!!!!!!!!!!!!!!!!!!!!!!!!!!!!!!!!!!!!!!!!!!!!!!!!!!!!!!!!!!!!!!!!!!!!",
"!!!!!!!!!!!!!!!!!!!!!!!!!!!!!!!!!!!!!!!!!!!!!!!!!!!!!!!!!!!!!!!!!!!!!!!!!!",
"!$$>hggggggggggghggh;$$!!!$@wkghgggggggghhghd$$%!!$$$fhhggghgggggggggh>@$!",
"!$@>hhghhhhhhhhggggh;$$!!$%$thgghhhhhhhhhffhd$$$!!$$$fhfghhhhhhhgggggh>@%!",
"!$+>hhfcNmmmmmmgghgh;$$!!#$+thgghmNmmmmmxfhhd+$$!!$$$fhhgxNmmmmmMhgggj>@$!",
"!4<6hgghlllllllggggh6<4!!24<iggghlllllllhgfhf242!!3<<fggghlllllllggggh823!",
"!99whghggfgggfggghghq99!!009ihghgggfhfffhhhha990!!000gggggggfgfgggggghq90!",
"!99wkgggfjhffggggggjq90!!901azggggggfhhhggfhg999!!999hhggghgggggggggglw99!",
"!990,ghghhhhhhhhgha,909!!00047hhghhhhhhhhglt4090!!9997uhggghhhhghhgjf>990!",
"!442+uu$uu$pt$pu$pt+244!!444%$f7*f7;f7;f7*g>+444!!446@,g;$tp$uu$up$uy+244!",
"!  O%@@$$$$$$$$$$$$%X  !!   o%$$$$$$$$$$$$$$$   !!   -$@$$$$$$$$$$$@-*X  !",
"!. O%$$$%$$%$$%$$$$%X..!!.. o$$%$%$-$%$$$$%%- ..!!...-%-$-*$%$$$$$%$-%O..!",
"!. O$$%$$%-$%-$$$$-%X .!!.. o%%-$$$%$$%$$$$$- ..!!...$$$%%$$$$$$%-$$$%O .!",
"!!!!!!!!!!!!!!!!!!!!!!!!!!!!!!!!!!!!!!!!!!!!!!!!!!!!!!!!!!!!!!!!!!!!!!!!!!",
"!!!!!!!!!!!!!!!!!!!!!!!!!!!!!!!!!!!!!!!!!!!!!!!!!!!!!!!!!!!!!!!!!!!!!!!!!!",
"!!!!!!!!!!!!!!!!!!!!!!!!!!!!!!!!!!!!!!!!!!!!!!!!!!!!!!!!!!!!!!!!!!!!!!!!!!",
"ghghhgghghggje909!!9999fhghghgghgjggghgghggghgjggggjw999!!9999ghggggjggggj",
"ghhggggggggghi399!!9003ggghgghgggggjghghghgghgggghggw999!!9999gggggggggggg",
"ggggghghggggjw399!!9331ahgggggghggggggggggghgghggggjq399!!9559ggggjggggggj",
"hgggggggggjggawii!!iiiigggggggggggggghgghggggggghgghiwew!!eeeeggggjggjgggg",
"ghhhhhhggjggggjgj!!gggjgggghhhhghgjgghhhgggjhggggghgjjjj!!jgjjgggggggggggj",
"gafffgggggggggggg!!gggggggfffaaggggagagagffgffgggggggggg!!gggggggggggaagfg",
"mbmmbbbvllhgggggj!!gjgggggzzzmmmbbmmmvmmbbbbmbcllhgggghg!!hggghgglllbmmmbn",
"ASDDDSDVmNlghgggg!!gggggggmmmAFSSSSSSSASDDDDSDBmNlgggggg!!ggggggjmmmSSDSSD",
"AAZAAZSBvblgggggg!!kggggggxmmCSCAASAAAAAAZAAZSNvnhgggggg!!hggggggvbbZAZSZA",
"AAAAAASVNVblcjggg!!gggfgxzNBBCSAAASASSAAAASAAAVBVvlxhggg!!ghggllxNVBZAAASS",
"AAAAAAAASDVnMlggj!!gggfmMmADSAASAAAAAAAAAAAAAASSDBnmlggg!!ggggmmmASSSAAASA",
"AAAAAAAAASNvnlggg!!ggggmmmCAAAAAASAAAAASAAAAAAAZANbnlggg!!ggggbbbAAAZSAAAA",
"AAAAAAAAASCBVvggg!!gjgfmNBAAAAAAAAAASAAAASAAAAAAAVBVlggh!!hgggBBBZAZSASAAA",
"AAAAAAAAAASSDmagg!!hgggCSSAAAAAAAAASAAAAAAAASAAAASSDvfhg!!hgghASSAZSAAAAAA",
"AAAAAAAAAAAZDnghg!!ggggVSSAAAAAAAAAAAAAAASAAAAAASZZDvghg!!ggggZAAASAASAAAA",
"AAAAAASAAAAADnggh!!ggggVSAAAAAAAASAAAAAAAASAAAAAAAAScghg!!ghggAAASASAAAAAA",
"AADASSSAZAAZDbahg!!ggggVSAAAAAASAAASASSASSSASZSAAAZDcfhg!!ggggZAZAAZAAASAA",
"ZZZZZZZZAASADbggg!!ghggVSSAAAAAZZAZZZZZZZZZZAAAAAASDvggg!!ggggASSAAAAAZAZZ",
"GJJHLLJSASVVVcggh!!ggggBCBZAAAAGGGGGGHLHHJLHAAAAAVVVcggg!!hgggBVBZAASGGGGG",
"UWWUWWWGZSBvmlggg!!hhhgvbvZAAZGPKPPPKRQTTWQYSAAASNbnhggg!!hgghbbmZAADPKPPP",
"PWRPWETFZAVbNlggg!!ggggbmmZAAZFPKKKKKYWYYEEUSZSZSNbmlggg!!ggggnnmZAADKKKKK",
"PWRUWRRGZSVvmxg!g!!!g!gbmbZAAZFPKKPKKTWYYWEYSAAASBbnlggg!!!g!hbnmAAZFPKKKP",
"!!!!!!!!!!!!!!!!!!!!!!!!!!!!!!!!!!!!!!!!!!!!!!!!!!!!!!!!!!!!!!!!!!!!!!!!!!"
};
