/* XPM */
static char *_1763629ca5745e0e3931c0abf84634d51x7ndzlpe8PAC5J[] = {
/* columns rows colors chars-per-pixel */
"99 99 9 1 ",
"  c None",
". c #89365C",
"X c #AE444E",
"o c #D25654",
"O c #E27F6D",
"+ c #EDA27F",
"@ c #FBCA97",
"# c #FFEAB7",
"$ c #FFFAD6",
/* pixels */
"                                                                                                   ",
"                                                                                                   ",
"                                                                                                   ",
"                                                                                                   ",
"                                                                                                   ",
"                                                                                                   ",
"                                                                                                   ",
"                                                                                                   ",
"                                                                                                   ",
"                                                                                                   ",
"                                                                                                   ",
"                                                                                                   ",
"                                                                                                   ",
"                                                                                                   ",
"                                                                                                   ",
"                                                                                                   ",
"                                                                                                   ",
"OOOOOOOOOOOooooXXXX   XXXXooooOOOOOOOOOOOOOOOOOOOOOOOOOOOOOOOOOOOOOOOOooooXXXX   XXXXooooOOOOOOOOOO",
"OOOOOOOOOOOooooXXXX   XXXXooooOOOOOOOOOOOOOOOOOOOOOOOOOOOOOOOOOOOOOOOOooooXXXX   XXXXooooOOOOOOOOOO",
"OOOOOOOOOOOooooXXXX   XXXXooooOOOOOOOOOOOOOOOOOOOOOOOOOOOOOOOOOOOOOOOOooooXXXX   XXXXooooOOOOOOOOOO",
"++++++OOOOOooooXXXX   XXXXooooOOO++++++++++++++++++++++++++++++++++OOOooooXXXX   XXXXooooOOOOO+++++",
"++++++OOOOOOOOOoooo   ooooOOOOOOO++++++++++++++++++++++++++++++++++OOOOOOOoooo   ooooOOOOOOOOO+++++",
"++++++OOOOOOOOOoooo   ooooOOOOOOO++++++++++++++++++++++++++++++++++OOOOOOOoooo   ooooOOOOOOOOO+++++",
"OOOOOOOOOOOOOOOoooo   ooooOOOOOOOOOOOOOOOOOOOOOOOOOOOOOOOOOOOOOOOOOOOOOOOOoooo   ooooOOOOOOOOOOOOOO",
"OOOOOOOOOOOOOOOoooo   ooooOOOOOOOOOOOOOOOOOOOOOOOOOOOOOOOOOOOOOOOOOOOOOOOOoooo   ooooOOOOOOOOOOOOOO",
"OOOOOOOOOOOOOOOoooo   ooooOOOOOOOOOOOOOOOOOOOOOOOOOOOOOOOOOOOOOOOOOOOOOOOOoooo   ooooOOOOOOOOOOOOOO",
"OOOOOOOOOOOooooXXXX   XXXXooooOOOOOOOOOOOOOOOOOOOOOOOOOOOOOOOOOOOOOOOOooooXXXX   XXXXooooOOOOOOOOOO",
"OOOOOOOOOOOooooXXXX   XXXXooooOOOOOOOOOOOOOOOOOOOOOOOOOOOOOOOOOOOOOOOOooooXXXX   XXXXooooOOOOOOOOOO",
"OOOOOOOOOOOooooXXXX   XXXXooooOOOOOOOOOOOOOOOOOOOOOOOOOOOOOOOOOOOOOOOOooooXXXX   XXXXooooOOOOOOOOOO",
"oooooooooooooooXXXX   XXXXooooooooooooooooooooooooooooooooooooooooooooooooXXXX   XXXXoooooooooooooo",
"                                                                                                   ",
"                                                                                                   ",
"                                                                                                   ",
"                                                                                                   ",
"XXXXooooOOOOOOOOOOOOOOOOOOOOOOOOOOOOOOOooooXXXX   XXXXooooOOOOOOOOOOOOOOOOOOOOOOOOOOOOOOooooXXXX   ",
"XXXXooooOOOOOOOOOOOOOOOOOOOOOOOOOOOOOOOooooXXXX   XXXXooooOOOOOOOOOOOOOOOOOOOOOOOOOOOOOOooooXXXX   ",
"XXXXooooOOOOOOOOOOOOOOOOOOOOOOOOOOOOOOOooooXXXX   XXXXooooOOOOOOOOOOOOOOOOOOOOOOOOOOOOOOooooXXXX   ",
"XXXXooooOOOOOOOOOOOOOOOOOOOOOOOOOOOOOOOooooXXXX   XXXXooooOOOOOOOOOOOOOOOOOOOOOOOOOOOOOOooooXXXX   ",
"ooooOOOOOOOOOOOOOOO++++++++++++++OOOOOOOOOOoooo   ooooOOOOOOOOOO+++++++++++++++++OOOOOOOOOOOoooo   ",
"ooooOOOOOOOOOOOOOOO++++++++++++++OOOOOOOOOOoooo   ooooOOOOOOOOOO+++++++++++++++++OOOOOOOOOOOoooo   ",
"ooooOOOOOOOOOOOOOOO++++++++++++++OOOOOOOOOOoooo   ooooOOOOOOOOOO+++++++++++++++++OOOOOOOOOOOoooo   ",
"ooooOOOOOOOOOOOOOOOOOOOOOOOOOOOOOOOOOOOOOOOoooo   ooooOOOOOOOOOOOOOOOOOOOOOOOOOOOOOOOOOOOOOOoooo   ",
"XXXXOOOOOOOOOOOOOOOOOOOOOOOOOOOOOOOOOOOOOOOXXXX   XXXXOOOOOOOOOOOOOOOOOOOOOOOOOOOOOOOOOOOOOOXXXX   ",
"XXXXOOOOOOOOOOOOOOOOOOOOOOOOOOOOOOOOOOOOOOOXXXX   XXXXOOOOOOOOOOOOOOOOOOOOOOOOOOOOOOOOOOOOOOXXXX   ",
"XXXXOOOOOOOOOOOOOOOOOOOOOOOOOOOOOOOOOOOOOOOXXXX   XXXXOOOOOOOOOOOOOOOOOOOOOOOOOOOOOOOOOOOOOOXXXX   ",
"XXXXoooooooooooooooooooooooooooooooooooooooXXXX   XXXXooooooooooooooooooooooooooooooooooooooXXXX   ",
"                                                                                                   ",
"                                                                                                   ",
"                                                                                                   ",
"                                                                                                   ",
" XXXXOOOOOOOOOOOOOOOOOOOOOOXXXX   XXXXOOOOOOOOOOOOOOOOOOOOOOXXXX   XXXXOOOOOOOOOOOOOOOOOOOOOOOXXXX ",
" XXXXOOOOOOOOOOOOOOOOOOOOOOXXXX   XXXXOOOOOOOOOOOOOOOOOOOOOOXXXX   XXXXOOOOOOOOOOOOOOOOOOOOOOOXXXX ",
" XXXXOOOOO++++++++++OOOOOOOXXXX   XXXXOOOOOO++++++++++OOOOOOXXXX   XXXXOOOOOO++++++++++OOOOOOOXXXX ",
" XXXXOOOOO++++++++++OOOOOOOXXXX   XXXXOOOOOO++++++++++OOOOOOXXXX   XXXXOOOOOO++++++++++OOOOOOOXXXX ",
" ooooOOOOOOOOOOOOOOOOOOOOOOoooo   ooooOOOOOOOOOOOOOOOOOOOOOOoooo   ooooOOOOOOOOOOOOOOOOOOOOOOOoooo ",
" ooooOOOOOOOOOOOOOOOOOOOOOOoooo   ooooOOOOOOOOOOOOOOOOOOOOOOoooo   ooooOOOOOOOOOOOOOOOOOOOOOOOoooo ",
" ooooOOOOOOOOOOOOOOOOOOOOOOoooo   ooooOOOOOOOOOOOOOOOOOOOOOOoooo   ooooOOOOOOOOOOOOOOOOOOOOOOOoooo ",
" ooooOOOOOOOOOOOOOOOOOOOOOOoooo   ooooOOOOOOOOOOOOOOOOOOOOOOoooo   ooooOOOOOOOOOOOOOOOOOOOOOOOoooo ",
" ooooXXOOOOOOOOOOOOOOOOOOXXoooo   ooooXXOOOOOOOOOOOOOOOOOOXXoooo   ooooXXOOOOOOOOOOOOOOOOOOOXXoooo ",
" ooooXXOOXXOOXXOOXXOOXXOOXXoooo   ooooXXOOXXOOXXOOXXOOXXOOXXoooo   ooooXXOOXXXOOXXOOXXOOXXOOXXoooo ",
" ....XXXXXXXXXXXXXXXXXXXXXX....   ....XXXXXXXXXXXXXXXXXXXXXX....   ....XXXXXXXXXXXXXXXXXXXXXXX.... ",
" ....XXXXXXXXXXXXXXXXXXXXXX....   ....XXXXXXXXXXXXXXXXXXXXXX....   ....XXXXXXXXXXXXXXXXXXXXXXX.... ",
" ....XXXXXXXXXXXXXXXXXXXXXX....   ....XXXXXXXXXXXXXXXXXXXXXX....   ....XXXXXXXXXXXXXXXXXXXXXXX.... ",
" ....XXXXXXXXXXXXXXXXXXXXXX....   ....XXXXXXXXXXXXXXXXXXXXXX....   ....XXXXXXXXXXXXXXXXXXXXXXX.... ",
"                                                                                                   ",
"                                                                                                   ",
"                                                                                                   ",
"                                                                                                   ",
"OOOOOOOOOOOOOOOOOOooooo   oooooOOOOOOOOOOOOOOOOOOOOOOOOOOOOOOOOOOOOOOOooooo   oooooOOOOOOOOOOOOOOOO",
"OOOOOOOOOOOOOOOOOOooooo   oooooOOOOOOOOOOOOOOOOOOOOOOOOOOOOOOOOOOOOOOOooooo   oooooOOOOOOOOOOOOOOOO",
"OOOOOOOOOOOOOOOOOOooooo   oooooOOOOOOOOOOOOOOOOOOOOOOOOOOOOOOOOOOOOOOOooooo   oooooOOOOOOOOOOOOOOOO",
"OOOOOOOOOOOOOOOOOOooooo   oooooOOOOOOOOOOOOOOOOOOOOOOOOOOOOOOOOOOOOOOOooooo   oooooOOOOOOOOOOOOOOOO",
"OOOOOOOOOOOOOOOOOOooooo   oooooOOOOOOOOOOOOOOOOOOOOOOOOOOOOOOOOOOOOOOOooooo   oooooOOOOOOOOOOOOOOOO",
"OOOOOOOOOOOOOOOOOOOOOOO   OOOOOOOOOOOOOOOOOOOOOOOOOOOOOOOOOOOOOOOOOOOOOOOOO   OOOOOOOOOOOOOOOOOOOOO",
"OOOOOOOOOOOOOOOOOOOOOOO   OOOOOOOOOOOOOOOOOOOOOOOOOOOOOOOOOOOOOOOOOOOOOOOOO   OOOOOOOOOOOOOOOOOOOOO",
"OOOOOOOOOOOOOOOOOOOOOOO   OOOOOOOOOOOOOOOOOOOOOOOOOOOOOOOOOOOOOOOOOOOOOOOOO   OOOOOOOOOOOOOOOOOOOOO",
"OOOOOOOOOOOOOOOOOOOOOOO   OOOOOOOOOOOOOOOOOOOOOOOOOOOOOOOOOOOOOOOOOOOOOOOOO   OOOOOOOOOOOOOOOOOOOOO",
"@@@@@@@@@@++++OOOOOOOOO   OOOOOOOOO++++@@@@@@@@@@@@@@@@@@@@@@@++++OOOOOOOOO   OOOOOOOOO++++@@@@@@@@",
"@@@@@@@@@@++++OOOOOOOOO   OOOOOOOOO++++@@@@@@@@@@@@@@@@@@@@@@@++++OOOOOOOOO   OOOOOOOOO++++@@@@@@@@",
"@@@@@@@@@@++++OOOOOOOOO   OOOOOOOOO++++@@@@@@@@@@@@@@@@@@@@@@@++++OOOOOOOOO   OOOOOOOOO++++@@@@@@@@",
"@@@@@@@@@@++++OOOOOOOOO   OOOOOOOOO++++@@@@@@@@@@@@@@@@@@@@@@@++++OOOOOOOOO   OOOOOOOOO++++@@@@@@@@",
"@@@@@@@@@@@@@@++++OOOOO   OOOOO++++@@@@@@@@@@@@@@@@@@@@@@@@@@@@@@@++++OOOOO   OOOOO++++@@@@@@@@@@@@",
"@@@@@@@@@@@@@@++++OOOOO   OOOOO++++@@@@@@@@@@@@@@@@@@@@@@@@@@@@@@@++++OOOOO   OOOOO++++@@@@@@@@@@@@",
"@@@@@@@@@@@@@@++++OOOOO   OOOOO++++@@@@@@@@@@@@@@@@@@@@@@@@@@@@@@@++++OOOOO   OOOOO++++@@@@@@@@@@@@",
"@@@@@@@@@@@@@@++++OOOOO   OOOOO++++@@@@@@@@@@@@@@@@@@@@@@@@@@@@@@@++++OOOOO   OOOOO++++@@@@@@@@@@@@",
"@@@@@@@@@@@@@@@@@@OOOOO   OOOOO@@@@@@@@@@@@@@@@@@@@@@@@@@@@@@@@@@@@@@@OOOOO   OOOOO@@@@@@@@@@@@@@@@",
"@@@@@@@@@@@@@@@@@@OOOOO   OOOOO@@@@@@@@@@@@@@@@@@@@@@@@@@@@@@@@@@@@@@@OOOOO   OOOOO@@@@@@@@@@@@@@@@",
"@@@@@@@@@@@@@@@@@@OOOOO   OOOOO@@@@@@@@@@@@@@@@@@@@@@@@@@@@@@@@@@@@@@@OOOOO   OOOOO@@@@@@@@@@@@@@@@",
"@@@@@@@@@@@@@@@@@@OOOOO   OOOOO@@@@@@@@@@@@@@@@@@@@@@@@@@@@@@@@@@@@@@@OOOOO   OOOOO@@@@@@@@@@@@@@@@",
"@@@@@@@@@@@@@@@@@@OOOOO   OOOOO@@@@@@@@@@@@@@@@@@@@@@@@@@@@@@@@@@@@@@@OOOOO   OOOOO@@@@@@@@@@@@@@@@",
"@@@@@@@@@@@@@@@@@@OOOOO   OOOOO@@@@@@@@@@@@@@@@@@@@@@@@@@@@@@@@@@@@@@@OOOOO   OOOOO@@@@@@@@@@@@@@@@",
"@@@@@@@@@@@@@@@@@@OOOOO   OOOOO@@@@@@@@@@@@@@@@@@@@@@@@@@@@@@@@@@@@@@@OOOOO   OOOOO@@@@@@@@@@@@@@@@",
"@@@@@@@@@@@@@@@@@@OOOOO   OOOOO@@@@@@@@@@@@@@@@@@@@@@@@@@@@@@@@@@@@@@@OOOOO   OOOOO@@@@@@@@@@@@@@@@",
"#$$$#$$$$#@@@@++++OOOOO   OOOOO++++@@@@@@#########$$$#$$$$#@@@@@@@++++OOOOO   OOOOO++++@@@@@#######",
"#$$$#$$$$#@@@@++++OOOOO   OOOOO++++@@@@@@#########$$$#$$$$#@@@@@@@++++OOOOO   OOOOO++++@@@@@#######",
"#$$$#$$$$#@@@@++++OOOOO   OOOOO++++@@@@@@#########$$$#$$$$#@@@@@@@++++OOOOO   OOOOO++++@@@@@#######",
"#$$$#$$$$#@@@@++++OOOOO   OOOOO++++@@@@@@#########$$$#$$$$#@@@@@@@++++OOOOO   OOOOO++++@@@@@#######",
"                                                                                                   ",
"                                                                                                   "
};
