/* XPM */
static char *_8445_bde615aca3390a2b9120a0691bc0d5ddb7f72ca07ac19e6a8db141a1adc64b47[] = {
/* columns rows colors chars-per-pixel */
"99 99 6 1 ",
"  c #AE444E",
". c #D25654",
"X c #E27F6D",
"o c #EDA27F",
"O c #FBCA97",
"+ c None",
/* pixels */
"+++++++++++++++++++++++++++++++++++++++++++++++++++++++++++++++++++++++++++++++++++++++++++++++++++",
"+XXXXXXXXXoooOOOOOOOOOOOOOOOOOOOOOOOOOOOOOOOOXXX++XXXOOOOOOOOOOOOOOOOOOOOOOOOOOOOOOOOOoooXXXXXXXXX+",
"+XXXXXXXXXoooOOOOOOOOOOOOOOOOOOOOOOOOOOOOOOOOXXX++XXXOOOOOOOOOOOOOOOOOOOOOOOOOOOOOOOOOoooXXXXXXXXX+",
"+XXXXXXXXXoooOOOOOOOOOOOOOOOOOOOOOOOOOOOOOOOOXXX++XXXOOOOOOOOOOOOOOOOOOOOOOOOOOOOOOOOOoooXXXXXXXXX+",
"+XXXXXXoooOOOOOOOOOOOOOOOOOOOOOOOOOOOOOOOOOOOXXX++XXXOOOOOOOOOOOOOOOOOOOOOOOOOOOOOOOOOOOOoooXXXXXX+",
"+XXXXXXoooOOOOOOOOOOOOOOOOOOOOOOOOOOOOOOOOoooXXX++XXXoooOOOOOOOOOOOOOOOOOOOOOOOOOOOOOOOOOoooXXXXXX+",
"+XXXXXXoooOOOOOOOOOOOOOOOOOOOOOOOOOOOOOOOOoooXXX++XXXoooOOOOOOOOOOOOOOOOOOOOOOOOOOOOOOOOOoooXXXXXX+",
"+XXXoooOOOOOOOOOOOOOOOOOOOOOOOOOOOOOOOOOOOoooXXX++XXXoooOOOOOOOOOOOOOOOOOOOOOOOOOOOOOOOOOOOOoooXXX+",
"+XXXoooOOOOOOOOOOOOOOOOOOOOOOOOOOOOOOOOoooXXXXXX++XXXXXXoooOOOOOOOOOOOOOOOOOOOOOOOOOOOOOOOOOoooXXX+",
"+XXXoooOOOOOOOOOOOOOOOOOOOOOOOOOOOOOOOOoooXXXXXX++XXXXXXoooOOOOOOOOOOOOOOOOOOOOOOOOOOOOOOOOOoooXXX+",
"+oooOOOOOOOOOOOOOOOOOOOOOOOOOOOOOOOOOOOoooXXXXXX++XXXXXXoooOOOOOOOOOOOOOOOOOOOOOOOOOOOOOOOOOOOOooo+",
"+oooOOOOOOOOOOOOOOOOOOOOOOOOOOOOOOOOoooXXXXXXXXX++XXXXXXXXXoooOOOOOOOOOOOOOOOOOOOOOOOOOOOOOOOOOooo+",
"+oooOOOOOOOOOOOOOOOOOOOOOOOOOOOOOOOOoooXXXXXXXXX++XXXXXXXXXoooOOOOOOOOOOOOOOOOOOOOOOOOOOOOOOOOOooo+",
"+OOOOOOOOOOOOOOOOOOOOOOOOOOOOOOOOOOOoooXXXXXXXXX++XXXXXXXXXoooOOOOOOOOOOOOOOOOOOOOOOOOOOOOOOOOOOOO+",
"+OOOOOOOOOOOOOOOOoooXXXXXXXXXXXXXXXXXXXXXXXXX...++...XXXXXXXXXXXXXXXXXXXXXXXXXXoooOOOOOOOOOOOOOOOO+",
"+OOOOOOOOOOOOOOOOoooXXXXXXXXXXXXXXXXXXXXXXXXX...++...XXXXXXXXXXXXXXXXXXXXXXXXXXoooOOOOOOOOOOOOOOOO+",
"+OOOOOOOOOOOOOOOOoooXXXXXXXXXXXXXXXXXXXXXXXXX...++...XXXXXXXXXXXXXXXXXXXXXXXXXXoooOOOOOOOOOOOOOOOO+",
"+OOOOOOOOOOOOOoooXXXXXXXXXXXXXXXXXXXXXXXXX...   ++   ...XXXXXXXXXXXXXXXXXXXXXXXXXXoooOOOOOOOOOOOOO+",
"+OOOOOOOOOOOOOoooXXXXXXXXXXXXXXXXXXXXXXXXX...   ++   ...XXXXXXXXXXXXXXXXXXXXXXXXXXoooOOOOOOOOOOOOO+",
"+OOOOOOOOOOOOOoooXXXXXXXXXXXXXXXXXXXXXXXXX...   ++   ...XXXXXXXXXXXXXXXXXXXXXXXXXXoooOOOOOOOOOOOOO+",
"+OOOOOOOOOOOOOXXXXXX+++++++++++++++++++++++++++++++++++++++++++++++++++++++++++XXXXXXOOOOOOOOOOOOO+",
"+OOOOOOOOOOOOOXXXXXX+++++++++++++++++++++++++++++++++++++++++++++++++++++++++++XXXXXXOOOOOOOOOOOOO+",
"+OOOOOOOOOOOOOXXXXXX+++++++++++++++++++++++++++++++++++++++++++++++++++++++++++XXXXXXOOOOOOOOOOOOO+",
"+OOOOOOOOOOOOOXXXXXX+++++++++++++++++++++++++++++++++++++++++++++++++++++++++++XXXXXXOOOOOOOOOOOOO+",
"+OOOOOOOOOOOOOXXXXXX+++XXXXXX     +++     XXXXXXXXXXXXXXX     +++     XXXXXX+++XXXXXXOOOOOOOOOOOOO+",
"+OOOOOOOOOOOOOXXXXXX+++XXXXXX     +++     XXXXXXXXXXXXXXX     +++     XXXXXX+++XXXXXXOOOOOOOOOOOOO+",
"+OOOOOOOOOOOOOXXXXXX+++ooooXX     +++     XXoooooooooooXX     +++     XXoooo+++XXXXXXOOOOOOOOOOOOO+",
"+OOOOOOOOOOOOOXXXXXX+++ooooXX     +++     XXoooooooooooXX     +++     XXoooo+++XXXXXXOOOOOOOOOOOOO+",
"+OOOOOOOOOOOOOXXXXXX+++XXXXXX.....+++.....XXXXXXXXXXXXXXX.....+++.....XXXXXX+++XXXXXXOOOOOOOOOOOOO+",
"+OOOOOOOOOOOOOXXXXXX+++XXXXXX.....+++.....XXXXXXXXXXXXXXX.....+++.....XXXXXX+++XXXXXXOOOOOOOOOOOOO+",
"+OOOOOOOOOOOOOXXXXXX+++XXXXXX.....+++.....XXXXXXXXXXXXXXX.....+++.....XXXXXX+++XXXXXXOOOOOOOOOOOOO+",
"+OOOOOOOOOOOOOXXXXXX+++XXXXXX     +++     XXXXXXXXXXXXXXX     +++     XXXXXX+++XXXXXXOOOOOOOOOOOOO+",
"+OOOOOOOOOOOOOXXXXXX+++XXXXXX     +++     XXXXXXXXXXXXXXX     +++     XXXXXX+++XXXXXXOOOOOOOOOOOOO+",
"+OOOOOOOOOOOOOXXXXXX+++XXXXXX     +++     XXXXXXXXXXXXXXX     +++     XXXXXX+++XXXXXXOOOOOOOOOOOOO+",
"+OOOOOOOOOOOOOXXXXXX+++++++++++++++++++++++++++++++++++++++++++++++++++++++++++XXXXXXOOOOOOOOOOOOO+",
"+OOOOOOOOOOOOOXXXXXX+++++++++++++++++++++++++++++++++++++++++++++++++++++++++++XXXXXXOOOOOOOOOOOOO+",
"+OOOOOOOOOOOOOXXXXXX+++++++++++++++++++++++++++++++++++++++++++++++++++++++++++XXXXXXoooOOOOOOOOOO+",
"+OOOOOOOOOOoooXXXXXX+++    XXXXXXXXXXXXXXXX    +++    XXXXXXXXXXXXXXXXXX    +++XXXXXXoooOOOOOOOOOO+",
"+OOOOOOOOOOoooXXXXXX+++    XXXXXXXXXXXXXXXX    +++    XXXXXXXXXXXXXXXXXX    +++XXXXXXoooOOOOOOOOOO+",
"+OOOOOOOOOOoooXXXXXX+++    XXooooooooooXXXX    +++    XXXoooooooooooooXX    +++XXXXXXXXXoooOOOOOOO+",
"+OOOOOOOoooXXXXXXXXX+++    XXooooooooooXXXX    +++    XXXoooooooooooooXX    +++XXXXXXXXXoooOOOOOOO+",
"+OOOOOOOoooXXXXXXXXX+++....XXXXXXXXXXXXXXXX....+++....XXXXXXXXXXXXXXXXXX....+++XXXXXXXXXoooOOOOOOO+",
"+OOOOOOOoooXXXXXXXXX+++....XXXXXXXXXXXXXXXX....+++....XXXXXXXXXXXXXXXXXX....+++...XXXXXXXXXoooOOOO+",
"+OOOOoooXXXXXXXXX...+++....XXXXXXXXXXXXXXXX....+++....XXXXXXXXXXXXXXXXXX....+++...XXXXXXXXXoooOOOO+",
"+OOOOoooXXXXXXXXX...+++    XXXXXXXXXXXXXXXX    +++    XXXXXXXXXXXXXXXXXX    +++...XXXXXXXXXoooOOOO+",
"+OOOOoooXXXXXXXXX...+++    XXXXXXXXXXXXXXXX    +++    XXXXXXXXXXXXXXXXXX    +++   ...XXXXXXXXXXXXX+",
"+XXXXXXXXXXXXX...   +++    XXXXXXXXXXXXXXXX    +++    XXXXXXXXXXXXXXXXXX    +++   ...XXXXXXXXXXXXX+",
"+XXXXXXXXXXXXX...   +++    XXXXXXXXXXXXXXXX    +++    XXXXXXXXXXXXXXXXXX    +++   ...XXXXXXXXXXXXX+",
"+XXXXXXXXXXXXX...   +++++++++++++++++++++++++++++++++++++++++++++++++++++++++++   ...XXXXXXXXXXXXX+",
"+++++++++++++++++++++++++++++++++++++++++++++++++++++++++++++++++++++++++++++++++++++++++++++++++++",
"+++++++++++++++++++++++++++++++++++++++++++++++++++++++++++++++++++++++++++++++++++++++++++++++++++",
"+XXXXXXXXXXXXX...   +++XXXXXX     +++     XXXXXXXXXXXXXXX     +++     XXXXXX+++   ...XXXXXXXXXXXXX+",
"+XXXXXXXXXXXXX...   +++XXXXXX     +++     XXXXXXXXXXXXXXX     +++     XXXXXX+++   ...XXXXXXXXXXXXX+",
"+XXXXXXXXXXXXX...   +++ooooXX     +++     XXoooooooooooXX     +++     XXoooo+++   ...XXXXXXXXXXXXX+",
"+OOOOoooXXXXXXXXX...+++ooooXX     +++     XXoooooooooooXX     +++     XXoooo+++   ...XXXXXXXXXXXXX+",
"+OOOOoooXXXXXXXXX...+++XXXXXX.....+++.....XXXXXXXXXXXXXXX.....+++.....XXXXXX+++...XXXXXXXXXoooOOOO+",
"+OOOOoooXXXXXXXXX...+++XXXXXX.....+++.....XXXXXXXXXXXXXXX.....+++.....XXXXXX+++...XXXXXXXXXoooOOOO+",
"+OOOOOOOoooXXXXXXXXX+++XXXXXX.....+++.....XXXXXXXXXXXXXXX.....+++.....XXXXXX+++...XXXXXXXXXoooOOOO+",
"+OOOOOOOoooXXXXXXXXX+++XXXXXX     +++     XXXXXXXXXXXXXXX     +++     XXXXXX+++XXXXXXXXXoooOOOOOOO+",
"+OOOOOOOoooXXXXXXXXX+++XXXXXX     +++     XXXXXXXXXXXXXXX     +++     XXXXXX+++XXXXXXXXXoooOOOOOOO+",
"+OOOOOOOOOOoooXXXXXX+++XXXXXX     +++     XXXXXXXXXXXXXXX     +++     XXXXXX+++XXXXXXXXXoooOOOOOOO+",
"+OOOOOOOOOOoooXXXXXX+++XXXXXX     +++     XXXXXXXXXXXXXXX     +++     XXXXXX+++XXXXXXoooOOOOOOOOOO+",
"+OOOOOOOOOOoooXXXXXX+++++++++++++++++++++++++++++++++++++++++++++++++++++++++++XXXXXXoooOOOOOOOOOO+",
"+OOOOOOOOOOOOOXXXXXX+++++++++++++++++++++++++++++++++++++++++++++++++++++++++++XXXXXXoooOOOOOOOOOO+",
"+OOOOOOOOOOOOOXXXXXX+++++++++++++++++++++++++++++++++++++++++++++++++++++++++++XXXXXXOOOOOOOOOOOOO+",
"+OOOOOOOOOOOOOXXXXXX+++    XXXXXXXXXXXXXXXX    +++    XXXXXXXXXXXXXXXXXX    +++XXXXXXOOOOOOOOOOOOO+",
"+OOOOOOOOOOOOOXXXXXX+++    XXXXXXXXXXXXXXXX    +++    XXXXXXXXXXXXXXXXXX    +++XXXXXXOOOOOOOOOOOOO+",
"+OOOOOOOOOOOOOXXXXXX+++    XXooooooooooXXXX    +++    XXXoooooooooooooXX    +++XXXXXXOOOOOOOOOOOOO+",
"+OOOOOOOOOOOOOXXXXXX+++    XXooooooooooXXXX    +++    XXXoooooooooooooXX    +++XXXXXXOOOOOOOOOOOOO+",
"+OOOOOOOOOOOOOXXXXXX+++....XXXXXXXXXXXXXXXX....+++....XXXXXXXXXXXXXXXXXX....+++XXXXXXOOOOOOOOOOOOO+",
"+OOOOOOOOOOOOOXXXXXX+++....XXXXXXXXXXXXXXXX....+++....XXXXXXXXXXXXXXXXXX....+++XXXXXXOOOOOOOOOOOOO+",
"+OOOOOOOOOOOOOXXXXXX+++....XXXXXXXXXXXXXXXX....+++....XXXXXXXXXXXXXXXXXX....+++XXXXXXOOOOOOOOOOOOO+",
"+OOOOOOOOOOOOOXXXXXX+++    XXXXXXXXXXXXXXXX    +++    XXXXXXXXXXXXXXXXXX    +++XXXXXXOOOOOOOOOOOOO+",
"+OOOOOOOOOOOOOXXXXXX+++    XXXXXXXXXXXXXXXX    +++    XXXXXXXXXXXXXXXXXX    +++XXXXXXOOOOOOOOOOOOO+",
"+OOOOOOOOOOOOOXXXXXX+++    XXXXXXXXXXXXXXXX    +++    XXXXXXXXXXXXXXXXXX    +++XXXXXXOOOOOOOOOOOOO+",
"+OOOOOOOOOOOOOXXXXXX+++    XXXXXXXXXXXXXXXX    +++    XXXXXXXXXXXXXXXXXX    +++XXXXXXOOOOOOOOOOOOO+",
"+OOOOOOOOOOOOOXXXXXX+++++++++++++++++++++++++++++++++++++++++++++++++++++++++++XXXXXXOOOOOOOOOOOOO+",
"+OOOOOOOOOOOOOXXXXXX+++++++++++++++++++++++++++++++++++++++++++++++++++++++++++XXXXXXOOOOOOOOOOOOO+",
"+OOOOOOOOOOOOOXXXXXX+++++++++++++++++++++++++++++++++++++++++++++++++++++++++++XXXXXXOOOOOOOOOOOOO+",
"+OOOOOOOOOOOOOoooXXXXXXXXXXXXXXXXXXXXXXXXX...   ++   ...XXXXXXXXXXXXXXXXXXXXXXXXXXoooOOOOOOOOOOOOO+",
"+OOOOOOOOOOOOOoooXXXXXXXXXXXXXXXXXXXXXXXXX...   ++   ...XXXXXXXXXXXXXXXXXXXXXXXXXXoooOOOOOOOOOOOOO+",
"+OOOOOOOOOOOOOoooXXXXXXXXXXXXXXXXXXXXXXXXX...   ++   ...XXXXXXXXXXXXXXXXXXXXXXXXXXoooOOOOOOOOOOOOO+",
"+OOOOOOOOOOOOOOOOoooXXXXXXXXXXXXXXXXXXXXXXXXX...++...XXXXXXXXXXXXXXXXXXXXXXXXXXoooOOOOOOOOOOOOOOOO+",
"+OOOOOOOOOOOOOOOOoooXXXXXXXXXXXXXXXXXXXXXXXXX...++...XXXXXXXXXXXXXXXXXXXXXXXXXXoooOOOOOOOOOOOOOOOO+",
"+OOOOOOOOOOOOOOOOoooXXXXXXXXXXXXXXXXXXXXXXXXX...++...XXXXXXXXXXXXXXXXXXXXXXXXXXoooOOOOOOOOOOOOOOOO+",
"+OOOOOOOOOOOOOOOOOOOOOOOOOOOOOOOOOOOoooXXXXXXXXX++XXXXXXXXXoooOOOOOOOOOOOOOOOOOOOOOOOOOOOOOOOOOOOO+",
"+oooOOOOOOOOOOOOOOOOOOOOOOOOOOOOOOOOoooXXXXXXXXX++XXXXXXXXXoooOOOOOOOOOOOOOOOOOOOOOOOOOOOOOOOOOooo+",
"+oooOOOOOOOOOOOOOOOOOOOOOOOOOOOOOOOOoooXXXXXXXXX++XXXXXXXXXoooOOOOOOOOOOOOOOOOOOOOOOOOOOOOOOOOOooo+",
"+oooOOOOOOOOOOOOOOOOOOOOOOOOOOOOOOOOOOOoooXXXXXX++XXXXXXoooOOOOOOOOOOOOOOOOOOOOOOOOOOOOOOOOOOOOooo+",
"+XXXoooOOOOOOOOOOOOOOOOOOOOOOOOOOOOOOOOoooXXXXXX++XXXXXXoooOOOOOOOOOOOOOOOOOOOOOOOOOOOOOOOOOoooXXX+",
"+XXXoooOOOOOOOOOOOOOOOOOOOOOOOOOOOOOOOOoooXXXXXX++XXXXXXoooOOOOOOOOOOOOOOOOOOOOOOOOOOOOOOOOOoooXXX+",
"+XXXoooOOOOOOOOOOOOOOOOOOOOOOOOOOOOOOOOOOOoooXXX++XXXoooOOOOOOOOOOOOOOOOOOOOOOOOOOOOOOOOOOOOoooXXX+",
"+XXXXXXoooOOOOOOOOOOOOOOOOOOOOOOOOOOOOOOOOoooXXX++XXXoooOOOOOOOOOOOOOOOOOOOOOOOOOOOOOOOOOoooXXXXXX+",
"+XXXXXXoooOOOOOOOOOOOOOOOOOOOOOOOOOOOOOOOOoooXXX++XXXoooOOOOOOOOOOOOOOOOOOOOOOOOOOOOOOOOOoooXXXXXX+",
"+XXXXXXoooOOOOOOOOOOOOOOOOOOOOOOOOOOOOOOOOOOOXXX++XXXOOOOOOOOOOOOOOOOOOOOOOOOOOOOOOOOOOOOoooXXXXXX+",
"+XXXXXXXXXoooOOOOOOOOOOOOOOOOOOOOOOOOOOOOOOOOXXX++XXXOOOOOOOOOOOOOOOOOOOOOOOOOOOOOOOOOoooXXXXXXXXX+",
"+XXXXXXXXXoooOOOOOOOOOOOOOOOOOOOOOOOOOOOOOOOOXXX++XXXOOOOOOOOOOOOOOOOOOOOOOOOOOOOOOOOOoooXXXXXXXXX+",
"+XXXXXXXXXoooOOOOOOOOOOOOOOOOOOOOOOOOOOOOOOOOXXX++XXXOOOOOOOOOOOOOOOOOOOOOOOOOOOOOOOOOoooXXXXXXXXX+",
"+++++++++++++++++++++++++++++++++++++++++++++++++++++++++++++++++++++++++++++++++++++++++++++++++++"
};
