/* XPM */
static char *_01_a0292304b778883839a16ced45e079fd8b15607deb93854a267ea875dbdc2ffc[] = {
/* columns rows colors chars-per-pixel */
"99 99 9 1 ",
"  c #89365C",
". c #AE444E",
"X c #D25654",
"o c #E27F6D",
"O c #EDA27F",
"+ c #FBCA97",
"@ c #FFEAB7",
"# c #FFFAD6",
"$ c None",
/* pixels */
"$$$$$$$$$$$$$$$$$$$$$$$$$$$$$$$$$$$$$$$$$$$$$$$$$$$$$$$$$$$$$$$$$$$$$$$$$$$$$$$$$$$$$$$$$$$$$$$$$$$",
"$$$$$$$$$$$$$$$$$$$$$$$$$$$$$$$$$$$$$$$$$$$$$$$$$$$$$$$$$$$$$$$$$$$$$$$$$$$$$$$$$$$$$$$$$$$$$$$$$$$",
"@###@####@++++OOOOooooo$$$oooooOOOO++++++@@@@@@@@@###@####@+++++++OOOOooooo$$$oooooOOOO+++++@@@@@@@",
"@###@####@++++OOOOooooo$$$oooooOOOO++++++@@@@@@@@@###@####@+++++++OOOOooooo$$$oooooOOOO+++++@@@@@@@",
"@###@####@++++OOOOooooo$$$oooooOOOO++++++@@@@@@@@@###@####@+++++++OOOOooooo$$$oooooOOOO+++++@@@@@@@",
"@###@####@++++OOOOooooo$$$oooooOOOO++++++@@@@@@@@@###@####@+++++++OOOOooooo$$$oooooOOOO+++++@@@@@@@",
"++++++++++++++++++ooooo$$$ooooo+++++++++++++++++++++++++++++++++++++++ooooo$$$ooooo++++++++++++++++",
"++++++++++++++++++ooooo$$$ooooo+++++++++++++++++++++++++++++++++++++++ooooo$$$ooooo++++++++++++++++",
"++++++++++++++++++ooooo$$$ooooo+++++++++++++++++++++++++++++++++++++++ooooo$$$ooooo++++++++++++++++",
"++++++++++++++++++ooooo$$$ooooo+++++++++++++++++++++++++++++++++++++++ooooo$$$ooooo++++++++++++++++",
"++++++++++++++++++ooooo$$$ooooo+++++++++++++++++++++++++++++++++++++++ooooo$$$ooooo++++++++++++++++",
"++++++++++++++++++ooooo$$$ooooo+++++++++++++++++++++++++++++++++++++++ooooo$$$ooooo++++++++++++++++",
"++++++++++++++++++ooooo$$$ooooo+++++++++++++++++++++++++++++++++++++++ooooo$$$ooooo++++++++++++++++",
"++++++++++++++++++ooooo$$$ooooo+++++++++++++++++++++++++++++++++++++++ooooo$$$ooooo++++++++++++++++",
"++++++++++++++OOOOooooo$$$oooooOOOO+++++++++++++++++++++++++++++++OOOOooooo$$$oooooOOOO++++++++++++",
"++++++++++++++OOOOooooo$$$oooooOOOO+++++++++++++++++++++++++++++++OOOOooooo$$$oooooOOOO++++++++++++",
"++++++++++++++OOOOooooo$$$oooooOOOO+++++++++++++++++++++++++++++++OOOOooooo$$$oooooOOOO++++++++++++",
"++++++++++++++OOOOooooo$$$oooooOOOO+++++++++++++++++++++++++++++++OOOOooooo$$$oooooOOOO++++++++++++",
"++++++++++OOOOooooooooo$$$oooooooooOOOO+++++++++++++++++++++++OOOOooooooooo$$$oooooooooOOOO++++++++",
"++++++++++OOOOooooooooo$$$oooooooooOOOO+++++++++++++++++++++++OOOOooooooooo$$$oooooooooOOOO++++++++",
"++++++++++OOOOooooooooo$$$oooooooooOOOO+++++++++++++++++++++++OOOOooooooooo$$$oooooooooOOOO++++++++",
"++++++++++OOOOooooooooo$$$oooooooooOOOO+++++++++++++++++++++++OOOOooooooooo$$$oooooooooOOOO++++++++",
"ooooooooooooooooooooooo$$$ooooooooooooooooooooooooooooooooooooooooooooooooo$$$ooooooooooooooooooooo",
"ooooooooooooooooooooooo$$$ooooooooooooooooooooooooooooooooooooooooooooooooo$$$ooooooooooooooooooooo",
"ooooooooooooooooooooooo$$$ooooooooooooooooooooooooooooooooooooooooooooooooo$$$ooooooooooooooooooooo",
"ooooooooooooooooooooooo$$$ooooooooooooooooooooooooooooooooooooooooooooooooo$$$ooooooooooooooooooooo",
"ooooooooooooooooooXXXXX$$$XXXXXoooooooooooooooooooooooooooooooooooooooXXXXX$$$XXXXXoooooooooooooooo",
"ooooooooooooooooooXXXXX$$$XXXXXoooooooooooooooooooooooooooooooooooooooXXXXX$$$XXXXXoooooooooooooooo",
"ooooooooooooooooooXXXXX$$$XXXXXoooooooooooooooooooooooooooooooooooooooXXXXX$$$XXXXXoooooooooooooooo",
"ooooooooooooooooooXXXXX$$$XXXXXoooooooooooooooooooooooooooooooooooooooXXXXX$$$XXXXXoooooooooooooooo",
"ooooooooooooooooooXXXXX$$$XXXXXoooooooooooooooooooooooooooooooooooooooXXXXX$$$XXXXXoooooooooooooooo",
"$$$$$$$$$$$$$$$$$$$$$$$$$$$$$$$$$$$$$$$$$$$$$$$$$$$$$$$$$$$$$$$$$$$$$$$$$$$$$$$$$$$$$$$$$$$$$$$$$$$",
"$$$$$$$$$$$$$$$$$$$$$$$$$$$$$$$$$$$$$$$$$$$$$$$$$$$$$$$$$$$$$$$$$$$$$$$$$$$$$$$$$$$$$$$$$$$$$$$$$$$",
"$$$$$$$$$$$$$$$$$$$$$$$$$$$$$$$$$$$$$$$$$$$$$$$$$$$$$$$$$$$$$$$$$$$$$$$$$$$$$$$$$$$$$$$$$$$$$$$$$$$",
"$$$$$$$$$$$$$$$$$$$$$$$$$$$$$$$$$$$$$$$$$$$$$$$$$$$$$$$$$$$$$$$$$$$$$$$$$$$$$$$$$$$$$$$$$$$$$$$$$$$",
"$    ......................    $$$    ......................    $$$    .......................    $",
"$    ......................    $$$    ......................    $$$    .......................    $",
"$    ......................    $$$    ......................    $$$    .......................    $",
"$    ......................    $$$    ......................    $$$    .......................    $",
"$XXXX..oo..oo..oo..oo..oo..XXXX$$$XXXX..oo..oo..oo..oo..oo..XXXX$$$XXXX..oo...oo..oo..oo..oo..XXXX$",
"$XXXX..oooooooooooooooooo..XXXX$$$XXXX..oooooooooooooooooo..XXXX$$$XXXX..ooooooooooooooooooo..XXXX$",
"$XXXXooooooooooooooooooooooXXXX$$$XXXXooooooooooooooooooooooXXXX$$$XXXXoooooooooooooooooooooooXXXX$",
"$XXXXooooooooooooooooooooooXXXX$$$XXXXooooooooooooooooooooooXXXX$$$XXXXoooooooooooooooooooooooXXXX$",
"$XXXXooooooooooooooooooooooXXXX$$$XXXXooooooooooooooooooooooXXXX$$$XXXXoooooooooooooooooooooooXXXX$",
"$XXXXooooooooooooooooooooooXXXX$$$XXXXooooooooooooooooooooooXXXX$$$XXXXoooooooooooooooooooooooXXXX$",
"$....oooooOOOOOOOOOOooooooo....$$$....ooooooOOOOOOOOOOoooooo....$$$....ooooooOOOOOOOOOOooooooo....$",
"$....oooooOOOOOOOOOOooooooo....$$$....ooooooOOOOOOOOOOoooooo....$$$....ooooooOOOOOOOOOOooooooo....$",
"$....oooooooooooooooooooooo....$$$....oooooooooooooooooooooo....$$$....ooooooooooooooooooooooo....$",
"$....oooooooooooooooooooooo....$$$....oooooooooooooooooooooo....$$$....ooooooooooooooooooooooo....$",
"$$$$$$$$$$$$$$$$$$$$$$$$$$$$$$$$$$$$$$$$$$$$$$$$$$$$$$$$$$$$$$$$$$$$$$$$$$$$$$$$$$$$$$$$$$$$$$$$$$$",
"$$$$$$$$$$$$$$$$$$$$$$$$$$$$$$$$$$$$$$$$$$$$$$$$$$$$$$$$$$$$$$$$$$$$$$$$$$$$$$$$$$$$$$$$$$$$$$$$$$$",
"$$$$$$$$$$$$$$$$$$$$$$$$$$$$$$$$$$$$$$$$$$$$$$$$$$$$$$$$$$$$$$$$$$$$$$$$$$$$$$$$$$$$$$$$$$$$$$$$$$$",
"$$$$$$$$$$$$$$$$$$$$$$$$$$$$$$$$$$$$$$$$$$$$$$$$$$$$$$$$$$$$$$$$$$$$$$$$$$$$$$$$$$$$$$$$$$$$$$$$$$$",
"....XXXXXXXXXXXXXXXXXXXXXXXXXXXXXXXXXXXXXXX....$$$....XXXXXXXXXXXXXXXXXXXXXXXXXXXXXXXXXXXXXX....$$$",
"....ooooooooooooooooooooooooooooooooooooooo....$$$....oooooooooooooooooooooooooooooooooooooo....$$$",
"....ooooooooooooooooooooooooooooooooooooooo....$$$....oooooooooooooooooooooooooooooooooooooo....$$$",
"....ooooooooooooooooooooooooooooooooooooooo....$$$....oooooooooooooooooooooooooooooooooooooo....$$$",
"XXXXoooooooooooooooooooooooooooooooooooooooXXXX$$$XXXXooooooooooooooooooooooooooooooooooooooXXXX$$$",
"XXXXoooooooooooooooOOOOOOOOOOOOOOooooooooooXXXX$$$XXXXooooooooooOOOOOOOOOOOOOOOOOoooooooooooXXXX$$$",
"XXXXoooooooooooooooOOOOOOOOOOOOOOooooooooooXXXX$$$XXXXooooooooooOOOOOOOOOOOOOOOOOoooooooooooXXXX$$$",
"XXXXoooooooooooooooOOOOOOOOOOOOOOooooooooooXXXX$$$XXXXooooooooooOOOOOOOOOOOOOOOOOoooooooooooXXXX$$$",
"....XXXXoooooooooooooooooooooooooooooooXXXX....$$$....XXXXooooooooooooooooooooooooooooooXXXX....$$$",
"....XXXXoooooooooooooooooooooooooooooooXXXX....$$$....XXXXooooooooooooooooooooooooooooooXXXX....$$$",
"....XXXXoooooooooooooooooooooooooooooooXXXX....$$$....XXXXooooooooooooooooooooooooooooooXXXX....$$$",
"....XXXXoooooooooooooooooooooooooooooooXXXX....$$$....XXXXooooooooooooooooooooooooooooooXXXX....$$$",
"$$$$$$$$$$$$$$$$$$$$$$$$$$$$$$$$$$$$$$$$$$$$$$$$$$$$$$$$$$$$$$$$$$$$$$$$$$$$$$$$$$$$$$$$$$$$$$$$$$$",
"$$$$$$$$$$$$$$$$$$$$$$$$$$$$$$$$$$$$$$$$$$$$$$$$$$$$$$$$$$$$$$$$$$$$$$$$$$$$$$$$$$$$$$$$$$$$$$$$$$$",
"$$$$$$$$$$$$$$$$$$$$$$$$$$$$$$$$$$$$$$$$$$$$$$$$$$$$$$$$$$$$$$$$$$$$$$$$$$$$$$$$$$$$$$$$$$$$$$$$$$$",
"$$$$$$$$$$$$$$$$$$$$$$$$$$$$$$$$$$$$$$$$$$$$$$$$$$$$$$$$$$$$$$$$$$$$$$$$$$$$$$$$$$$$$$$$$$$$$$$$$$$",
"XXXXXXXXXXXXXXX....$$$....XXXXXXXXXXXXXXXXXXXXXXXXXXXXXXXXXXXXXXXXXXXXXXXX....$$$....XXXXXXXXXXXXXX",
"oooooooooooXXXX....$$$....XXXXooooooooooooooooooooooooooooooooooooooooXXXX....$$$....XXXXoooooooooo",
"oooooooooooXXXX....$$$....XXXXooooooooooooooooooooooooooooooooooooooooXXXX....$$$....XXXXoooooooooo",
"oooooooooooXXXX....$$$....XXXXooooooooooooooooooooooooooooooooooooooooXXXX....$$$....XXXXoooooooooo",
"oooooooooooooooXXXX$$$XXXXooooooooooooooooooooooooooooooooooooooooooooooooXXXX$$$XXXXoooooooooooooo",
"oooooooooooooooXXXX$$$XXXXooooooooooooooooooooooooooooooooooooooooooooooooXXXX$$$XXXXoooooooooooooo",
"oooooooooooooooXXXX$$$XXXXooooooooooooooooooooooooooooooooooooooooooooooooXXXX$$$XXXXoooooooooooooo",
"OOOOOOoooooooooXXXX$$$XXXXoooooooOOOOOOOOOOOOOOOOOOOOOOOOOOOOOOOOOOoooooooXXXX$$$XXXXoooooooooOOOOO",
"OOOOOOoooooooooXXXX$$$XXXXoooooooOOOOOOOOOOOOOOOOOOOOOOOOOOOOOOOOOOoooooooXXXX$$$XXXXoooooooooOOOOO",
"OOOOOOoooooXXXX....$$$....XXXXoooOOOOOOOOOOOOOOOOOOOOOOOOOOOOOOOOOOoooXXXX....$$$....XXXXoooooOOOOO",
"oooooooooooXXXX....$$$....XXXXooooooooooooooooooooooooooooooooooooooooXXXX....$$$....XXXXoooooooooo",
"oooooooooooXXXX....$$$....XXXXooooooooooooooooooooooooooooooooooooooooXXXX....$$$....XXXXoooooooooo",
"oooooooooooXXXX....$$$....XXXXooooooooooooooooooooooooooooooooooooooooXXXX....$$$....XXXXoooooooooo",
"$$$$$$$$$$$$$$$$$$$$$$$$$$$$$$$$$$$$$$$$$$$$$$$$$$$$$$$$$$$$$$$$$$$$$$$$$$$$$$$$$$$$$$$$$$$$$$$$$$$",
"$$$$$$$$$$$$$$$$$$$$$$$$$$$$$$$$$$$$$$$$$$$$$$$$$$$$$$$$$$$$$$$$$$$$$$$$$$$$$$$$$$$$$$$$$$$$$$$$$$$",
"$$$$$$$$$$$$$$$$$$$$$$$$$$$$$$$$$$$$$$$$$$$$$$$$$$$$$$$$$$$$$$$$$$$$$$$$$$$$$$$$$$$$$$$$$$$$$$$$$$$",
"$$$$$$$$$$$$$$$$$$$$$$$$$$$$$$$$$$$$$$$$$$$$$$$$$$$$$$$$$$$$$$$$$$$$$$$$$$$$$$$$$$$$$$$$$$$$$$$$$$$",
"$$$$$$$$$$$$$$$$$$$$$$$$$$$$$$$$$$$$$$$$$$$$$$$$$$$$$$$$$$$$$$$$$$$$$$$$$$$$$$$$$$$$$$$$$$$$$$$$$$$",
"$$$$$$$$$$$$$$$$$$$$$$$$$$$$$$$$$$$$$$$$$$$$$$$$$$$$$$$$$$$$$$$$$$$$$$$$$$$$$$$$$$$$$$$$$$$$$$$$$$$",
"$$$$$$$$$$$$$$$$$$$$$$$$$$$$$$$$$$$$$$$$$$$$$$$$$$$$$$$$$$$$$$$$$$$$$$$$$$$$$$$$$$$$$$$$$$$$$$$$$$$",
"$$$$$$$$$$$$$$$$$$$$$$$$$$$$$$$$$$$$$$$$$$$$$$$$$$$$$$$$$$$$$$$$$$$$$$$$$$$$$$$$$$$$$$$$$$$$$$$$$$$",
"$$$$$$$$$$$$$$$$$$$$$$$$$$$$$$$$$$$$$$$$$$$$$$$$$$$$$$$$$$$$$$$$$$$$$$$$$$$$$$$$$$$$$$$$$$$$$$$$$$$",
"$$$$$$$$$$$$$$$$$$$$$$$$$$$$$$$$$$$$$$$$$$$$$$$$$$$$$$$$$$$$$$$$$$$$$$$$$$$$$$$$$$$$$$$$$$$$$$$$$$$",
"$$$$$$$$$$$$$$$$$$$$$$$$$$$$$$$$$$$$$$$$$$$$$$$$$$$$$$$$$$$$$$$$$$$$$$$$$$$$$$$$$$$$$$$$$$$$$$$$$$$",
"$$$$$$$$$$$$$$$$$$$$$$$$$$$$$$$$$$$$$$$$$$$$$$$$$$$$$$$$$$$$$$$$$$$$$$$$$$$$$$$$$$$$$$$$$$$$$$$$$$$",
"$$$$$$$$$$$$$$$$$$$$$$$$$$$$$$$$$$$$$$$$$$$$$$$$$$$$$$$$$$$$$$$$$$$$$$$$$$$$$$$$$$$$$$$$$$$$$$$$$$$",
"$$$$$$$$$$$$$$$$$$$$$$$$$$$$$$$$$$$$$$$$$$$$$$$$$$$$$$$$$$$$$$$$$$$$$$$$$$$$$$$$$$$$$$$$$$$$$$$$$$$",
"$$$$$$$$$$$$$$$$$$$$$$$$$$$$$$$$$$$$$$$$$$$$$$$$$$$$$$$$$$$$$$$$$$$$$$$$$$$$$$$$$$$$$$$$$$$$$$$$$$$",
"$$$$$$$$$$$$$$$$$$$$$$$$$$$$$$$$$$$$$$$$$$$$$$$$$$$$$$$$$$$$$$$$$$$$$$$$$$$$$$$$$$$$$$$$$$$$$$$$$$$",
"$$$$$$$$$$$$$$$$$$$$$$$$$$$$$$$$$$$$$$$$$$$$$$$$$$$$$$$$$$$$$$$$$$$$$$$$$$$$$$$$$$$$$$$$$$$$$$$$$$$"
};
