/* XPM */
static char *b8d2b97208734758896c31fc8f08dd3ckseztxjfklDDAHKh[] = {
/* columns rows colors chars-per-pixel */
"54 54 11 1 ",
"  c #3F3851",
". c #89365C",
"X c #BF5753",
"o c #CD7363",
"O c #AE444E",
"+ c #E27F6D",
"@ c #D25654",
"# c #EDA27F",
"$ c #FBCA97",
"% c #FFEAB7",
"& c #FFFAD6",
/* pixels */
"                       ..XXooooooooooOO  OOooooOO     ",
"                       ..XXooooooooooOO  OOooooOO     ",
" ++++++++++++@@        OOoooooooooooooo  oooooooo     ",
" ++++++++++++@@        OOoooooooooooooo  oooooooo     ",
" ##$$$$##++++++        ..XXooooooooooOO  OOooooOO     ",
" ##$$$$##++++++        ..XXooooooooooOO  OOooooOO     ",
" $$$$$$$$##++++                                       ",
" $$$$$$$$##++++                                       ",
" $$$$$$$$$$++++    ..OOOOOOXXOO  OOooooooooooOO       ",
" $$$$$$$$$$++++    ..OOOOOOXXOO  OOooooooooooOO       ",
" %%$$$$$$$$++++    OOOOOOOOoooo  oooooooooooooo       ",
" %%$$$$$$$$++++    OOOOOOOOoooo  oooooooooooooo       ",
" &&$$$$$$$$++++    ..OOOOOOXXOO  OOooooooooooOO       ",
" &&$$$$$$$$++++    ..OOOOOOXXOO  OOooooooooooOO       ",
" %%$$$$$$$$++++                                       ",
" %%$$$$$$$$++++                                       ",
" %%$$$$$$$$++++        ..XXooooooooooOO  OOooooOO     ",
" %%$$$$$$$$++++        ..XXooooooooooOO  OOooooOO     ",
" $$$$$$$$$$++++        OOoooooooooooooo  oooooooo     ",
" $$$$$$$$$$++++        OOoooooooooooooo  oooooooo     ",
" $$$$$$$$##++++        ..XXooooooooooOO  OOooooOO     ",
" $$$$$$$$##++++        ..XXooooooooooOO  OOooooOO     ",
" ##$$$$##++++++                                       ",
" ##$$$$##++++++                                       ",
" ++++++++++++@@    ..OOOOOOXXOO  OOooooooooooOO       ",
" ++++++++++++@@    ..OOOOOOXXOO  OOooooooooooOO       ",
"                   OOOOOOOOoooo  oooooooooooooo       ",
"                   OOOOOOOOoooo  oooooooooooooo       ",
" ++++++++++++@@    ..OOOOOOXXOO  OOooooooooooOO       ",
" ++++++++++++@@    ..OOOOOOXXOO  OOooooooooooOO       ",
" ##$$$$##++++++                                       ",
" ##$$$$##++++++                                       ",
" $$$$$$$$##++++        ..XXooooooooooOO  OOooooOO     ",
" $$$$$$$$##++++        ..XXooooooooooOO  OOooooOO     ",
" %%$$$$$$$$++++        OOoooooooooooooo  oooooooo     ",
" %%$$$$$$$$++++        OOoooooooooooooo  oooooooo     ",
" %%$$$$$$$$++++        ..XXooooooooooOO  OOooooOO     ",
" %%$$$$$$$$++++        ..XXooooooooooOO  OOooooOO     ",
" $$$$$$$$$$++++                                       ",
" $$$$$$$$$$++++                                       ",
" %%$$$$$$$$++++    ..OOOOOOXXOO  OOooooooooooOO       ",
" %%$$$$$$$$++++    ..OOOOOOXXOO  OOooooooooooOO       ",
" &&$$$$$$$$++++    OOOOOOOOoooo  oooooooooooooo       ",
" &&$$$$$$$$++++    OOOOOOOOoooo  oooooooooooooo       ",
" %%$$$$$$$$++++    ..OOOOOOXXOO  OOooooooooooOO       ",
" %%$$$$$$$$++++    ..OOOOOOXXOO  OOooooooooooOO       ",
" &&$$$$$$$$++++                                       ",
" &&$$$$$$$$++++                                       ",
" &&$$$$$$$$++++        ..XXooooooooooOO  OOooooOO     ",
" &&$$$$$$$$++++        ..XXooooooooooOO  OOooooOO     ",
" %%$$$$$$$$++++        OOoooooooooooooo  oooooooo     ",
" %%$$$$$$$$++++        OOoooooooooooooo  oooooooo     ",
" $$$$$$$$$$++++        ..XXooooooooooOO  OOooooOO     ",
" $$$$$$$$$$++++        ..XXooooooooooOO  OOooooOO     "
};
