/* XPM */
static char *_1228_8ff6f31aac71c170851a28a040b9773b79dcc8040faea1b536b2326909d68dca[] = {
/* columns rows colors chars-per-pixel */
"99 99 9 1 ",
"  c #89365C",
". c #AE444E",
"X c #D25654",
"o c #E27F6D",
"O c #EDA27F",
"+ c #FBCA97",
"@ c #FFEAB7",
"# c #FFFAD6",
"$ c None",
/* pixels */
"$$$$$$$$$$$$$$$$$$$$$$$$$$$$$$$$$$$$$$$$$$$$$$$$$$$$$$$$$$$$$$$$$$$$ooooooooo++++++++++++++++@@@@$$",
"$$$$$$$$$$$$$$$....ooooooooooooooooooooooooooooXXXX....    $$$$$$$$$ooooooooo++++++++++++++++@@@@$$",
"$$$$$$$$$$$$$$$....ooooooooooooooooooooooooooooXXXX....    $$$$$$$$$ooooooooo++++++++++++++++@@@@$$",
"$$$$$$$$$$$$$$$....ooooooooooooooooooooooooooooXXXX....    $$$$$$$$$ooooooooo++++++++++++++++@@@@$$",
"$$$$$$$$$$$$$$$....ooooooooooooooooooooooooooooXXXX....    $$$$$$$$$ooooooooo++++++++++++++++@@@@$$",
"$$$$$$$$$$$$$$$ooooooooooooooooooooooooooooooooooooXXXX....$$$$$$$$$ooooooooo++++++++++++++++@@@@$$",
"$$$$$$$$$$$$$$$ooooooooooooooooooooooooooooooooooooXXXX....$$$$$$$$$ooooooooo++++++++++++++++@@@@$$",
"$$$$$$$$$$$$$$$ooooooooooooooooooooooooooooooooooooXXXX....$$$$$$$$$ooooooooo++++++++++++++++++++$$",
"$$$$$$$$$$$$$$$ooooooooooooooooooooooooooooooooooooXXXX....$$$$$$$$$oooooooooOOOO++++++++++++++++$$",
"$$$$$$$$$$$$$$$ooooooooooooooooooooooooooooooooooooXXXX....$$$$$$$$$oooooooooOOOO++++++++++++++++$$",
"$$$$$$$$$$$$$$$....ooooooooooooooooooooooooooooXXXX....    $$$$$$$$$oooooooooOOOO++++++++++++++++$$",
"$$$$$$$$$$$$$$$....ooooooooooooooooooooooooooooXXXX....    $$$$$$$$$oooooooooOOOO++++++++++++++++$$",
"$$$$$$$$$$$$$$$....ooooooooooooooooooooooooooooXXXX....    $$$$$$$$$oooooooooooooOOOO++++++++OOOO$$",
"$$$$$$$$$$$$$$$....ooooooooooooooooooooooooooooXXXX....    $$$$$$$$$oooooooooooooOOOO++++++++OOOO$$",
"$$$$$$$$$$$$$$$$$$$$$$$$$$$$$$$$$$$$$$$$$$$$$$$$$$$$$$$$$$$$$$$$$$$$oooooooooooooOOOO++++++++OOOO$$",
"$$$$$$$$$$$$$$$$$$$$$$$$$$$$$$$$$$$$$$$$$$$$$$$$$$$$$$$$$$$$$$$$$$$$oooooooooooooOOOO++++++++OOOO$$",
"$$$$$$$$$$$$$$$$$$$$$$$$$$$$$$$$$$$$$$$$$$$$$$$$$$$$$$$$$$$$$$$$$$$$XXXXXoooooooooooooooooooooooo$$",
"$....oooooooooooooooooooooo....$$$XXXX......................    $$$$XXXXXoooooooooooooooooooooooo$$",
"$....oooooooooooooooooooooo....$$$XXXX......................    $$$$XXXXXoooooooooooooooooooooooo$$",
"$....oooooooooooooooooooooo....$$$XXXX......................    $$$$XXXXXoooooooooooooooooooooooo$$",
"$....oooooooooooooooooooooo....$$$XXXX......................    $$$$XXXXXoooooooooooooooooooooooo$$",
"$oooooooooooooooooooooooooooooo$$$oooo..........................$$$$$$$$$$$$$$$$$$$$$$$$$$$$$$$$$$$",
"$oooooooooooooooooooooooooooooo$$$oooo..........................$$$$$$$$$$$$$$$$$$$$$$$$$$$$$$$$$$$",
"$oooooooooooooooooooooooooooooo$$$oooo..........................$$$$$$$$$$$$$$$$$$$$$$$$$$$$$$$$$$$",
"$oooooooooooooooooooooooooooooo$$$oooo..........................$$$$XXXXXoooooooooooooooooooooooo$$",
"$oooooooooooooooooooooooooooooo$$$oooo..........................$$$$XXXXXoooooooooooooooooooooooo$$",
"$....oooooooooooooooooooooo....$$$XXXX......................    $$$$XXXXXoooooooooooooooooooooooo$$",
"$....oooooooooooooooooooooo....$$$XXXX......................    $$$$XXXXXoooooooooooooooooooooooo$$",
"$....oooooooooooooooooooooo....$$$XXXX......................    $$$$XXXXXoooooooooooooooooooooooo$$",
"$....oooooooooooooooooooooo....$$$XXXX......................    $$$$oooooooooooooOOOO++++++++OOOO$$",
"$$$$$$$$$$$$$$$$$$$$$$$$$$$$$$$$$$$$$$$$$$$$$$$$$$$$$$$$$$$$$$$$$$$$oooooooooooooOOOO++++++++OOOO$$",
"$$$$$$$$$$$$$$$$$$$$$$$$$$$$$$$$$$$$$$$$$$$$$$$$$$$$$$$$$$$$$$$$$$$$oooooooooooooOOOO++++++++OOOO$$",
"$$$$$$$$$$$$$$$$$$$$$$$$$$$$$$$$$$$$$$$$$$$$$$$$$$$$$$$$$$$$$$$$$$$$oooooooooooooOOOO++++++++OOOO$$",
"$$$$$$$$$$$$$$$$$$$$$$$$$$$$$$$$$$$$$$$$$$$$$$$$$$$$$$$$$$$$$$$$$$$$oooooooooOOOO++++++++++++++++$$",
"$$$$$$$$$$$$$$$....ooooooooooooooooooooooooooooXXXX....    $$$$$$$$$oooooooooOOOO++++++++++++++++$$",
"$$$$$$$$$$$$$$$....ooooooooooooooooooooooooooooXXXX....    $$$$$$$$$oooooooooOOOO++++++++++++++++$$",
"$$$$$$$$$$$$$$$....ooooooooooooooooooooooooooooXXXX....    $$$$$$$$$oooooooooOOOO++++++++++++++++$$",
"$$$$$$$$$$$$$$$....ooooooooooooooooooooooooooooXXXX....    $$$$$$$$$ooooooooo++++++++++++++++++++$$",
"$$$$$$$$$$$$$$$ooooooooooooooooooooooooooooooooooooXXXX....$$$$$$$$$ooooooooo++++++++++++++++++++$$",
"$$$$$$$$$$$$$$$ooooooooooooooooooooooooooooooooooooXXXX....$$$$$$$$$ooooooooo++++++++++++++++++++$$",
"$$$$$$$$$$$$$$$ooooooooooooooooooooooooooooooooooooXXXX....$$$$$$$$$ooooooooo++++++++++++++++@@@@$$",
"$$$$$$$$$$$$$$$ooooooooooooooooooooooooooooooooooooXXXX....$$$$$$$$$ooooooooo++++++++++++++++####$$",
"$$$$$$$$$$$$$$$ooooooooooooooooooooooooooooooooooooXXXX....$$$$$$$$$ooooooooo++++++++++++++++####$$",
"$$$$$$$$$$$$$$$....ooooooooooooooooooooooooooooXXXX....    $$$$$$$$$ooooooooo++++++++++++++++####$$",
"$$$$$$$$$$$$$$$....ooooooooooooooooooooooooooooXXXX....    $$$$$$$$$ooooooooo++++++++++++++++####$$",
"$$$$$$$$$$$$$$$....ooooooooooooooooooooooooooooXXXX....    $$$$$$$$$ooooooooo++++++++++++++++@@@@$$",
"$$$$$$$$$$$$$$$....ooooooooooooooooooooooooooooXXXX....    $$$$$$$$$ooooooooo++++++++++++++++####$$",
"$$$$$$$$$$$$$$$$$$$$$$$$$$$$$$$$$$$$$$$$$$$$$$$$$$$$$$$$$$$$$$$$$$$$ooooooooo++++++++++++++++####$$",
"$$$$$$$$$$$$$$$$$$$$$$$$$$$$$$$$$$$$$$$$$$$$$$$$$$$$$$$$$$$$$$$$$$$$ooooooooo++++++++++++++++####$$",
"$$$$$$$$$$$$$$$$$$$$$$$$$$$$$$$$$$$$$$$$$$$$$$$$$$$$$$$$$$$$$$$$$$$$ooooooooo++++++++++++++++@@@@$$",
"$$$$$$$$$$$$$$$$$$$$$$$$$$$$$$$$$$$$$$$$$$$$$$$$$$$$$$$$$$$$$$$$$$$$ooooooooo++++++++++++++++@@@@$$",
"$....oooooooooooooooooooooo....$$$XXXX......................    $$$$ooooooooo++++++++++++++++@@@@$$",
"$....oooooooooooooooooooooo....$$$XXXX......................    $$$$ooooooooo++++++++++++++++@@@@$$",
"$....oooooooooooooooooooooo....$$$XXXX......................    $$$$ooooooooo++++++++++++++++@@@@$$",
"$....oooooooooooooooooooooo....$$$XXXX......................    $$$$ooooooooo++++++++++++++++@@@@$$",
"$oooooooooooooooooooooooooooooo$$$oooo..........................$$$$ooooooooo++++++++++++++++@@@@$$",
"$oooooooooooooooooooooooooooooo$$$oooo..........................$$$$ooooooooo++++++++++++++++@@@@$$",
"$oooooooooooooooooooooooooooooo$$$oooo..........................$$$$ooooooooo++++++++++++++++@@@@$$",
"$oooooooooooooooooooooooooooooo$$$oooo..........................$$$$ooooooooo++++++++++++++++++++$$",
"$oooooooooooooooooooooooooooooo$$$oooo..........................$$$$ooooooooo++++++++++++++++++++$$",
"$....oooooooooooooooooooooo....$$$XXXX......................    $$$$oooooooooOOOO++++++++++++++++$$",
"$....oooooooooooooooooooooo....$$$XXXX......................    $$$$oooooooooOOOO++++++++++++++++$$",
"$....oooooooooooooooooooooo....$$$XXXX......................    $$$$oooooooooOOOO++++++++++++++++$$",
"$....oooooooooooooooooooooo....$$$XXXX......................    $$$$oooooooooOOOO++++++++++++++++$$",
"$$$$$$$$$$$$$$$$$$$$$$$$$$$$$$$$$$$$$$$$$$$$$$$$$$$$$$$$$$$$$$$$$$$$oooooooooooooOOOO++++++++OOOO$$",
"$$$$$$$$$$$$$$$$$$$$$$$$$$$$$$$$$$$$$$$$$$$$$$$$$$$$$$$$$$$$$$$$$$$$oooooooooooooOOOO++++++++OOOO$$",
"$$$$$$$$$$$$$$$$$$$$$$$$$$$$$$$$$$$$$$$$$$$$$$$$$$$$$$$$$$$$$$$$$$$$oooooooooooooOOOO++++++++OOOO$$",
"$$$$$$$$$$$$$$$$$$$$$$$$$$$$$$$$$$$$$$$$$$$$$$$$$$$$$$$$$$$$$$$$$$$$oooooooooooooOOOO++++++++OOOO$$",
"$$$$$$$$$$$$$$$$....ooooooooooooooooooooooooooooXXXX....    $$$$$$$$XXXXXoooooooooooooooooooooooo$$",
"$$$$$$$$$$$$$$$$....ooooooooooooooooooooooooooooXXXX....    $$$$$$$$XXXXXoooooooooooooooooooooooo$$",
"$$$$$$$$$$$$$$$$....ooooooooooooooooooooooooooooXXXX....    $$$$$$$$XXXXXoooooooooooooooooooooooo$$",
"$$$$$$$$$$$$$$$$....ooooooooooooooooooooooooooooXXXX....    $$$$$$$$XXXXXoooooooooooooooooooooooo$$",
"$$$$$$$$$$$$$$$$ooooooooooooooooooooooooooooooooooooXXXX....$$$$$$$$XXXXXoooooooooooooooooooooooo$$",
"$$$$$$$$$$$$$$$$ooooooooooooooooooooooooooooooooooooXXXX....$$$$$$$$$$$$$$$$$$$$$$$$$$$$$$$$$$$$$$$",
"$$$$$$$$$$$$$$$$ooooooooooooooooooooooooooooooooooooXXXX....$$$$$$$$$$$$$$$$$$$$$$$$$$$$$$$$$$$$$$$",
"$$$$$$$$$$$$$$$$ooooooooooooooooooooooooooooooooooooXXXX....$$$$$$$$$$$$$$$$$$$$$$$$$$$$$$$$$$$$$$$",
"$$$$$$$$$$$$$$$$ooooooooooooooooooooooooooooooooooooXXXX....$$$$$$$$XXXXXoooooooooooooooooooooooo$$",
"$$$$$$$$$$$$$$$$....ooooooooooooooooooooooooooooXXXX....    $$$$$$$$XXXXXoooooooooooooooooooooooo$$",
"$$$$$$$$$$$$$$$$....ooooooooooooooooooooooooooooXXXX....    $$$$$$$$XXXXXoooooooooooooooooooooooo$$",
"$$$$$$$$$$$$$$$$....ooooooooooooooooooooooooooooXXXX....    $$$$$$$$XXXXXoooooooooooooooooooooooo$$",
"$$$$$$$$$$$$$$$$....ooooooooooooooooooooooooooooXXXX....    $$$$$$$$XXXXXoooooooooooooooooooooooo$$",
"$$$$$$$$$$$$$$$$$$$$$$$$$$$$$$$$$$$$$$$$$$$$$$$$$$$$$$$$$$$$$$$$$$$$oooooooooooooOOOO++++++++OOOO$$",
"$$$$$$$$$$$$$$$$$$$$$$$$$$$$$$$$$$$$$$$$$$$$$$$$$$$$$$$$$$$$$$$$$$$$oooooooooooooOOOO++++++++OOOO$$",
"$....oooooooooooooooooooooo....$$$XXXX......................    $$$$oooooooooooooOOOO++++++++OOOO$$",
"$....oooooooooooooooooooooo....$$$XXXX......................    $$$$oooooooooooooOOOO++++++++OOOO$$",
"$....oooooooooooooooooooooo....$$$XXXX......................    $$$$oooooooooOOOO++++++++++++++++$$",
"$....oooooooooooooooooooooo....$$$XXXX......................    $$$$oooooooooOOOO++++++++++++++++$$",
"$oooooooooooooooooooooooooooooo$$$oooo..........................$$$$oooooooooOOOO++++++++++++++++$$",
"$oooooooooooooooooooooooooooooo$$$oooo..........................$$$$oooooooooOOOO++++++++++++++++$$",
"$oooooooooooooooooooooooooooooo$$$oooo..........................$$$$ooooooooo++++++++++++++++@@@@$$",
"$oooooooooooooooooooooooooooooo$$$oooo..........................$$$$ooooooooo++++++++++++++++####$$",
"$oooooooooooooooooooooooooooooo$$$oooo..........................$$$$ooooooooo++++++++++++++++####$$",
"$....oooooooooooooooooooooo....$$$XXXX......................    $$$$ooooooooo++++++++++++++++####$$",
"$....oooooooooooooooooooooo....$$$XXXX......................    $$$$ooooooooo++++++++++++++++####$$",
"$....oooooooooooooooooooooo....$$$XXXX......................    $$$$ooooooooo++++++++++++++++@@@@$$",
"$....oooooooooooooooooooooo....$$$XXXX......................    $$$$ooooooooo++++++++++++++++####$$",
"$$$$$$$$$$$$$$$$$$$$$$$$$$$$$$$$$$$$$$$$$$$$$$$$$$$$$$$$$$$$$$$$$$$$ooooooooo++++++++++++++++####$$",
"$$$$$$$$$$$$$$$$$$$$$$$$$$$$$$$$$$$$$$$$$$$$$$$$$$$$$$$$$$$$$$$$$$$$ooooooooo++++++++++++++++####$$",
"$$$$$$$$$$$$$$$$$$$$$$$$$$$$$$$$$$$$$$$$$$$$$$$$$$$$$$$$$$$$$$$$$$$$ooooooooo++++++++++++++++@@@@$$"
};
