/* XPM */
static char *_4831_39549970d04ecdd1cea2bbaaa894409c291a736d7cba541553782512598c115f[] = {
/* columns rows colors chars-per-pixel */
"99 99 9 1 ",
"  c #89365C",
". c #AE444E",
"X c #D25654",
"o c #E27F6D",
"O c #EDA27F",
"+ c #FBCA97",
"@ c #FFEAB7",
"# c #FFFAD6",
"$ c None",
/* pixels */
"$$@@@@++++++++++++++++ooooooooo$$$$$$$$$$$$$$$$$$$$$$$$$$$$$$$$$$$$$$$$$$$$$$$$$$$$$$$$$$$$$$$$$$$$",
"$$@@@@++++++++++++++++ooooooooo$$$$$$$$$    ....XXXXoooooooooooooooooooooooooooo....$$$$$$$$$$$$$$$",
"$$@@@@++++++++++++++++ooooooooo$$$$$$$$$    ....XXXXoooooooooooooooooooooooooooo....$$$$$$$$$$$$$$$",
"$$@@@@++++++++++++++++ooooooooo$$$$$$$$$    ....XXXXoooooooooooooooooooooooooooo....$$$$$$$$$$$$$$$",
"$$@@@@++++++++++++++++ooooooooo$$$$$$$$$    ....XXXXoooooooooooooooooooooooooooo....$$$$$$$$$$$$$$$",
"$$@@@@++++++++++++++++ooooooooo$$$$$$$$$....XXXXoooooooooooooooooooooooooooooooooooo$$$$$$$$$$$$$$$",
"$$@@@@++++++++++++++++ooooooooo$$$$$$$$$....XXXXoooooooooooooooooooooooooooooooooooo$$$$$$$$$$$$$$$",
"$$++++++++++++++++++++ooooooooo$$$$$$$$$....XXXXoooooooooooooooooooooooooooooooooooo$$$$$$$$$$$$$$$",
"$$++++++++++++++++OOOOooooooooo$$$$$$$$$....XXXXoooooooooooooooooooooooooooooooooooo$$$$$$$$$$$$$$$",
"$$++++++++++++++++OOOOooooooooo$$$$$$$$$....XXXXoooooooooooooooooooooooooooooooooooo$$$$$$$$$$$$$$$",
"$$++++++++++++++++OOOOooooooooo$$$$$$$$$    ....XXXXoooooooooooooooooooooooooooo....$$$$$$$$$$$$$$$",
"$$++++++++++++++++OOOOooooooooo$$$$$$$$$    ....XXXXoooooooooooooooooooooooooooo....$$$$$$$$$$$$$$$",
"$$OOOO++++++++OOOOooooooooooooo$$$$$$$$$    ....XXXXoooooooooooooooooooooooooooo....$$$$$$$$$$$$$$$",
"$$OOOO++++++++OOOOooooooooooooo$$$$$$$$$    ....XXXXoooooooooooooooooooooooooooo....$$$$$$$$$$$$$$$",
"$$OOOO++++++++OOOOooooooooooooo$$$$$$$$$$$$$$$$$$$$$$$$$$$$$$$$$$$$$$$$$$$$$$$$$$$$$$$$$$$$$$$$$$$$",
"$$OOOO++++++++OOOOooooooooooooo$$$$$$$$$$$$$$$$$$$$$$$$$$$$$$$$$$$$$$$$$$$$$$$$$$$$$$$$$$$$$$$$$$$$",
"$$ooooooooooooooooooooooooXXXXX$$$$$$$$$$$$$$$$$$$$$$$$$$$$$$$$$$$$$$$$$$$$$$$$$$$$$$$$$$$$$$$$$$$$",
"$$ooooooooooooooooooooooooXXXXX$$$$    ......................XXXX$$$....oooooooooooooooooooooo....$",
"$$ooooooooooooooooooooooooXXXXX$$$$    ......................XXXX$$$....oooooooooooooooooooooo....$",
"$$ooooooooooooooooooooooooXXXXX$$$$    ......................XXXX$$$....oooooooooooooooooooooo....$",
"$$ooooooooooooooooooooooooXXXXX$$$$    ......................XXXX$$$....oooooooooooooooooooooo....$",
"$$$$$$$$$$$$$$$$$$$$$$$$$$$$$$$$$$$..........................oooo$$$oooooooooooooooooooooooooooooo$",
"$$$$$$$$$$$$$$$$$$$$$$$$$$$$$$$$$$$..........................oooo$$$oooooooooooooooooooooooooooooo$",
"$$$$$$$$$$$$$$$$$$$$$$$$$$$$$$$$$$$..........................oooo$$$oooooooooooooooooooooooooooooo$",
"$$ooooooooooooooooooooooooXXXXX$$$$..........................oooo$$$oooooooooooooooooooooooooooooo$",
"$$ooooooooooooooooooooooooXXXXX$$$$..........................oooo$$$oooooooooooooooooooooooooooooo$",
"$$ooooooooooooooooooooooooXXXXX$$$$    ......................XXXX$$$....oooooooooooooooooooooo....$",
"$$ooooooooooooooooooooooooXXXXX$$$$    ......................XXXX$$$....oooooooooooooooooooooo....$",
"$$ooooooooooooooooooooooooXXXXX$$$$    ......................XXXX$$$....oooooooooooooooooooooo....$",
"$$OOOO++++++++OOOOooooooooooooo$$$$    ......................XXXX$$$....oooooooooooooooooooooo....$",
"$$OOOO++++++++OOOOooooooooooooo$$$$$$$$$$$$$$$$$$$$$$$$$$$$$$$$$$$$$$$$$$$$$$$$$$$$$$$$$$$$$$$$$$$$",
"$$OOOO++++++++OOOOooooooooooooo$$$$$$$$$$$$$$$$$$$$$$$$$$$$$$$$$$$$$$$$$$$$$$$$$$$$$$$$$$$$$$$$$$$$",
"$$OOOO++++++++OOOOooooooooooooo$$$$$$$$$$$$$$$$$$$$$$$$$$$$$$$$$$$$$$$$$$$$$$$$$$$$$$$$$$$$$$$$$$$$",
"$$++++++++++++++++OOOOooooooooo$$$$$$$$$$$$$$$$$$$$$$$$$$$$$$$$$$$$$$$$$$$$$$$$$$$$$$$$$$$$$$$$$$$$",
"$$++++++++++++++++OOOOooooooooo$$$$$$$$$    ....XXXXoooooooooooooooooooooooooooo....$$$$$$$$$$$$$$$",
"$$++++++++++++++++OOOOooooooooo$$$$$$$$$    ....XXXXoooooooooooooooooooooooooooo....$$$$$$$$$$$$$$$",
"$$++++++++++++++++OOOOooooooooo$$$$$$$$$    ....XXXXoooooooooooooooooooooooooooo....$$$$$$$$$$$$$$$",
"$$++++++++++++++++++++ooooooooo$$$$$$$$$    ....XXXXoooooooooooooooooooooooooooo....$$$$$$$$$$$$$$$",
"$$++++++++++++++++++++ooooooooo$$$$$$$$$....XXXXoooooooooooooooooooooooooooooooooooo$$$$$$$$$$$$$$$",
"$$++++++++++++++++++++ooooooooo$$$$$$$$$....XXXXoooooooooooooooooooooooooooooooooooo$$$$$$$$$$$$$$$",
"$$@@@@++++++++++++++++ooooooooo$$$$$$$$$....XXXXoooooooooooooooooooooooooooooooooooo$$$$$$$$$$$$$$$",
"$$####++++++++++++++++ooooooooo$$$$$$$$$....XXXXoooooooooooooooooooooooooooooooooooo$$$$$$$$$$$$$$$",
"$$####++++++++++++++++ooooooooo$$$$$$$$$....XXXXoooooooooooooooooooooooooooooooooooo$$$$$$$$$$$$$$$",
"$$####++++++++++++++++ooooooooo$$$$$$$$$    ....XXXXoooooooooooooooooooooooooooo....$$$$$$$$$$$$$$$",
"$$####++++++++++++++++ooooooooo$$$$$$$$$    ....XXXXoooooooooooooooooooooooooooo....$$$$$$$$$$$$$$$",
"$$@@@@++++++++++++++++ooooooooo$$$$$$$$$    ....XXXXoooooooooooooooooooooooooooo....$$$$$$$$$$$$$$$",
"$$####++++++++++++++++ooooooooo$$$$$$$$$    ....XXXXoooooooooooooooooooooooooooo....$$$$$$$$$$$$$$$",
"$$####++++++++++++++++ooooooooo$$$$$$$$$$$$$$$$$$$$$$$$$$$$$$$$$$$$$$$$$$$$$$$$$$$$$$$$$$$$$$$$$$$$",
"$$####++++++++++++++++ooooooooo$$$$$$$$$$$$$$$$$$$$$$$$$$$$$$$$$$$$$$$$$$$$$$$$$$$$$$$$$$$$$$$$$$$$",
"$$@@@@++++++++++++++++ooooooooo$$$$$$$$$$$$$$$$$$$$$$$$$$$$$$$$$$$$$$$$$$$$$$$$$$$$$$$$$$$$$$$$$$$$",
"$$@@@@++++++++++++++++ooooooooo$$$$$$$$$$$$$$$$$$$$$$$$$$$$$$$$$$$$$$$$$$$$$$$$$$$$$$$$$$$$$$$$$$$$",
"$$@@@@++++++++++++++++ooooooooo$$$$    ......................XXXX$$$....oooooooooooooooooooooo....$",
"$$@@@@++++++++++++++++ooooooooo$$$$    ......................XXXX$$$....oooooooooooooooooooooo....$",
"$$@@@@++++++++++++++++ooooooooo$$$$    ......................XXXX$$$....oooooooooooooooooooooo....$",
"$$@@@@++++++++++++++++ooooooooo$$$$    ......................XXXX$$$....oooooooooooooooooooooo....$",
"$$@@@@++++++++++++++++ooooooooo$$$$..........................oooo$$$oooooooooooooooooooooooooooooo$",
"$$@@@@++++++++++++++++ooooooooo$$$$..........................oooo$$$oooooooooooooooooooooooooooooo$",
"$$@@@@++++++++++++++++ooooooooo$$$$..........................oooo$$$oooooooooooooooooooooooooooooo$",
"$$++++++++++++++++++++ooooooooo$$$$..........................oooo$$$oooooooooooooooooooooooooooooo$",
"$$++++++++++++++++++++ooooooooo$$$$..........................oooo$$$oooooooooooooooooooooooooooooo$",
"$$++++++++++++++++OOOOooooooooo$$$$    ......................XXXX$$$....oooooooooooooooooooooo....$",
"$$++++++++++++++++OOOOooooooooo$$$$    ......................XXXX$$$....oooooooooooooooooooooo....$",
"$$++++++++++++++++OOOOooooooooo$$$$    ......................XXXX$$$....oooooooooooooooooooooo....$",
"$$++++++++++++++++OOOOooooooooo$$$$    ......................XXXX$$$....oooooooooooooooooooooo....$",
"$$OOOO++++++++OOOOooooooooooooo$$$$$$$$$$$$$$$$$$$$$$$$$$$$$$$$$$$$$$$$$$$$$$$$$$$$$$$$$$$$$$$$$$$$",
"$$OOOO++++++++OOOOooooooooooooo$$$$$$$$$$$$$$$$$$$$$$$$$$$$$$$$$$$$$$$$$$$$$$$$$$$$$$$$$$$$$$$$$$$$",
"$$OOOO++++++++OOOOooooooooooooo$$$$$$$$$$$$$$$$$$$$$$$$$$$$$$$$$$$$$$$$$$$$$$$$$$$$$$$$$$$$$$$$$$$$",
"$$OOOO++++++++OOOOooooooooooooo$$$$$$$$$$$$$$$$$$$$$$$$$$$$$$$$$$$$$$$$$$$$$$$$$$$$$$$$$$$$$$$$$$$$",
"$$ooooooooooooooooooooooooXXXXX$$$$$$$$    ....XXXXoooooooooooooooooooooooooooo....$$$$$$$$$$$$$$$$",
"$$ooooooooooooooooooooooooXXXXX$$$$$$$$    ....XXXXoooooooooooooooooooooooooooo....$$$$$$$$$$$$$$$$",
"$$ooooooooooooooooooooooooXXXXX$$$$$$$$    ....XXXXoooooooooooooooooooooooooooo....$$$$$$$$$$$$$$$$",
"$$ooooooooooooooooooooooooXXXXX$$$$$$$$    ....XXXXoooooooooooooooooooooooooooo....$$$$$$$$$$$$$$$$",
"$$ooooooooooooooooooooooooXXXXX$$$$$$$$....XXXXoooooooooooooooooooooooooooooooooooo$$$$$$$$$$$$$$$$",
"$$$$$$$$$$$$$$$$$$$$$$$$$$$$$$$$$$$$$$$....XXXXoooooooooooooooooooooooooooooooooooo$$$$$$$$$$$$$$$$",
"$$$$$$$$$$$$$$$$$$$$$$$$$$$$$$$$$$$$$$$....XXXXoooooooooooooooooooooooooooooooooooo$$$$$$$$$$$$$$$$",
"$$$$$$$$$$$$$$$$$$$$$$$$$$$$$$$$$$$$$$$....XXXXoooooooooooooooooooooooooooooooooooo$$$$$$$$$$$$$$$$",
"$$ooooooooooooooooooooooooXXXXX$$$$$$$$....XXXXoooooooooooooooooooooooooooooooooooo$$$$$$$$$$$$$$$$",
"$$ooooooooooooooooooooooooXXXXX$$$$$$$$    ....XXXXoooooooooooooooooooooooooooo....$$$$$$$$$$$$$$$$",
"$$ooooooooooooooooooooooooXXXXX$$$$$$$$    ....XXXXoooooooooooooooooooooooooooo....$$$$$$$$$$$$$$$$",
"$$ooooooooooooooooooooooooXXXXX$$$$$$$$    ....XXXXoooooooooooooooooooooooooooo....$$$$$$$$$$$$$$$$",
"$$ooooooooooooooooooooooooXXXXX$$$$$$$$    ....XXXXoooooooooooooooooooooooooooo....$$$$$$$$$$$$$$$$",
"$$OOOO++++++++OOOOooooooooooooo$$$$$$$$$$$$$$$$$$$$$$$$$$$$$$$$$$$$$$$$$$$$$$$$$$$$$$$$$$$$$$$$$$$$",
"$$OOOO++++++++OOOOooooooooooooo$$$$$$$$$$$$$$$$$$$$$$$$$$$$$$$$$$$$$$$$$$$$$$$$$$$$$$$$$$$$$$$$$$$$",
"$$OOOO++++++++OOOOooooooooooooo$$$$    ......................XXXX$$$....oooooooooooooooooooooo....$",
"$$OOOO++++++++OOOOooooooooooooo$$$$    ......................XXXX$$$....oooooooooooooooooooooo....$",
"$$++++++++++++++++OOOOooooooooo$$$$    ......................XXXX$$$....oooooooooooooooooooooo....$",
"$$++++++++++++++++OOOOooooooooo$$$$    ......................XXXX$$$....oooooooooooooooooooooo....$",
"$$++++++++++++++++OOOOooooooooo$$$$..........................oooo$$$oooooooooooooooooooooooooooooo$",
"$$++++++++++++++++OOOOooooooooo$$$$..........................oooo$$$oooooooooooooooooooooooooooooo$",
"$$@@@@++++++++++++++++ooooooooo$$$$..........................oooo$$$oooooooooooooooooooooooooooooo$",
"$$####++++++++++++++++ooooooooo$$$$..........................oooo$$$oooooooooooooooooooooooooooooo$",
"$$####++++++++++++++++ooooooooo$$$$..........................oooo$$$oooooooooooooooooooooooooooooo$",
"$$####++++++++++++++++ooooooooo$$$$    ......................XXXX$$$....oooooooooooooooooooooo....$",
"$$####++++++++++++++++ooooooooo$$$$    ......................XXXX$$$....oooooooooooooooooooooo....$",
"$$@@@@++++++++++++++++ooooooooo$$$$    ......................XXXX$$$....oooooooooooooooooooooo....$",
"$$####++++++++++++++++ooooooooo$$$$    ......................XXXX$$$....oooooooooooooooooooooo....$",
"$$####++++++++++++++++ooooooooo$$$$$$$$$$$$$$$$$$$$$$$$$$$$$$$$$$$$$$$$$$$$$$$$$$$$$$$$$$$$$$$$$$$$",
"$$####++++++++++++++++ooooooooo$$$$$$$$$$$$$$$$$$$$$$$$$$$$$$$$$$$$$$$$$$$$$$$$$$$$$$$$$$$$$$$$$$$$",
"$$@@@@++++++++++++++++ooooooooo$$$$$$$$$$$$$$$$$$$$$$$$$$$$$$$$$$$$$$$$$$$$$$$$$$$$$$$$$$$$$$$$$$$$"
};
